<?xml version="1.0" encoding="utf-8"?>
<svg id="Layer_1" x="0px" y="0px" width="20px" height="20px" viewBox="1.565 1.188 17.769 17.769" xmlns="http://www.w3.org/2000/svg">
  <path fill="#231F20" d="M10.446,1.234c-4.88,0-8.851,3.97-8.851,8.85s3.971,8.85,8.851,8.85c2.707,0,5.214-1.207,6.905-3.317&#10;&#9;l-0.554-0.429c-1.558,1.938-3.863,3.047-6.351,3.047c-4.495,0-8.151-3.656-8.151-8.15s3.656-8.15,8.151-8.15&#10;&#9;c4.494,0,8.149,3.656,8.149,8.15c0,1.033-0.19,2.039-0.565,2.988l-0.038,0.096h-0.103h-2.076h-0.31l0.192-0.243&#10;&#9;c0.773-0.978,0.695-2.373-0.179-3.246l-4.729-4.73c-0.44-0.44-1.072-0.693-1.734-0.693c-0.661,0-1.292,0.253-1.732,0.693&#10;&#9;C6.858,5.412,6.604,6.027,6.604,6.682v6.808l0.001,0.003l0.001,0.029c-0.002,1.37,1.098,2.469,2.449,2.469&#10;&#9;c1.177,0,2.188-0.841,2.405-2l0.022-0.123h0.124h6.844l0.094-0.209c0.499-1.128,0.752-2.331,0.752-3.574&#10;&#9;C19.295,5.204,15.325,1.234,10.446,1.234z M10.725,14.04L10.725,14.04l-0.001,0.006c-0.001,0.003-0.002,0.007-0.003,0.01&#10;&#9;l-0.011,0.036l-0.001,0.001c-0.241,0.718-0.901,1.198-1.654,1.198c-0.766,0-1.435-0.496-1.665-1.234&#10;&#9;c-0.058-0.186-0.086-0.354-0.086-0.516l0.081-0.008c0-0.007-0.003-0.013-0.003-0.019l-0.075-0.013&#10;&#9;c0.002-0.176,0.036-0.354,0.103-0.541c0.246-0.7,0.907-1.172,1.644-1.172c0.726,0,1.377,0.457,1.633,1.141l0.02,0.02l0.001,0.041&#10;&#9;c0.06,0.178,0.09,0.348,0.093,0.519C10.805,13.697,10.779,13.857,10.725,14.04z M13.783,13.162H11.6h-0.121l-0.025-0.12&#10;&#9;c-0.234-1.131-1.244-1.952-2.399-1.952c-0.543,0-1.064,0.185-1.508,0.534l-0.243,0.191v-0.31V6.682c0-0.469,0.182-0.908,0.513-1.239&#10;&#9;c0.316-0.315,0.768-0.497,1.239-0.497c0.471,0,0.921,0.182,1.237,0.498l4.729,4.729c0.683,0.682,0.684,1.792,0.002,2.476&#10;&#9;C14.691,12.979,14.252,13.162,13.783,13.162z"/>
</svg>