<?xml version="1.0" encoding="utf-8"?>
<svg id="Layer_1" x="0px" y="0px" width="20px" height="20px" viewBox="1.508 1.352 17.884 17.798" xmlns="http://www.w3.org/2000/svg">
  <path fill="#231F20" d="M10.445,1.405c-2.284,0-4.441,0.862-6.091,2.43l0.491,0.499c1.518-1.438,3.501-2.228,5.6-2.228&#10;&#9;c4.495,0,8.15,3.656,8.15,8.15s-3.655,8.15-8.15,8.15c-2.178,0-4.225-0.849-5.763-2.389c-1.54-1.539-2.388-3.586-2.387-5.762&#10;&#9;c0-1.294,0.293-2.531,0.873-3.677l0.042-0.083h0.092h2.527h0.15v0.15v7.112l0.08,0.097c1.098,1.334,2.697,2.098,4.386,2.098&#10;&#9;c3.142,0,5.699-2.556,5.699-5.697c0-0.638-0.122-1.296-0.364-1.956l-0.084-0.23H6.829h-0.15V7.92V5.796H2.794l-0.1,0.181&#10;&#9;C2.641,6.073,2.59,6.17,2.543,6.265c-0.63,1.242-0.949,2.584-0.949,3.991c-0.001,2.365,0.919,4.587,2.592,6.258&#10;&#9;c1.672,1.672,3.895,2.592,6.258,2.592c4.879,0,8.85-3.97,8.85-8.85C19.295,5.375,15.324,1.405,10.445,1.405z M10.857,11.297V8.92&#10;&#9;V8.77h0.15h4.082h0.111l0.033,0.107c0.141,0.469,0.209,0.92,0.209,1.379c0,0.349-0.04,0.7-0.123,1.073l-0.025,0.118h-0.121h-4.166&#10;&#9;h-0.15V11.297z M10.857,15.047v-2.75v-0.15h0.15h3.818h0.236l-0.1,0.214c-0.736,1.57-2.208,2.63-3.938,2.835l-0.168,0.021V15.047z&#10;&#9; M6.679,11.297V8.92V8.77h0.15h3.179h0.15v0.15v2.377v0.15h-0.15H6.829h-0.15V11.297z M6.679,13.449v-1.152v-0.15h0.15h3.179h0.15&#10;&#9;v0.15v2.758v0.164l-0.164-0.015c-1.275-0.119-2.439-0.707-3.277-1.655l-0.038-0.043V13.449z"/>
</svg>