<?xml version="1.0" encoding="utf-8"?>
<!-- Generator: Adobe Illustrator 22.1.0, SVG Export Plug-In . SVG Version: 6.00 Build 0)  -->
<svg version="1.1" id="Layer_1" xmlns="http://www.w3.org/2000/svg" xmlns:xlink="http://www.w3.org/1999/xlink" x="0px" y="0px"
	 viewBox="0 0 38 38" style="enable-background:new 0 0 38 38;" xml:space="preserve">
<style type="text/css">
	.st0{fill:#231F20;}
</style>
<g>
	<path class="st0" d="M19,36c-8,0-14.8-5.4-16.6-13.2l-0.2-0.9l7.5,0v1.2h-6c1.9,6.9,8,11.7,15.2,11.7c8.7,0,15.8-7.1,15.8-15.8
		S27.7,3.2,19,3.2C10.3,3.2,3.2,10.3,3.2,19l0,0.2l-1.2,0L2,19C2,9.6,9.6,2,19,2s17,7.6,17,17C36,28.4,28.4,36,19,36z"/>
	<g>
		<path class="st0" d="M19.4,27.1h-8.9c-1,0-1.7-0.8-1.7-1.7v-1.3c0-0.8,0.4-1.8,1-2.4l6-6l0.8,0.8l-6,6c-0.3,0.3-0.6,1-0.6,1.5v1.3
			c0,0.3,0.2,0.5,0.5,0.5h8.9c0.5,0,1.2-0.3,1.5-0.6l7.8-7.8c0.3-0.3,0.6-1,0.6-1.5v-1.3c0-0.3-0.2-0.5-0.5-0.5h-7.4v-1.2h7.4
			c1,0,1.7,0.8,1.7,1.7V16c0,0.8-0.4,1.8-1,2.4l-7.8,7.8C21.2,26.7,20.2,27.1,19.4,27.1z"/>
	</g>
	<g>
		<path class="st0" d="M23.6,34.8h-1.2v-6.9c0-1.1,0.9-2,2-2h9.1v1.2h-9.1c-0.5,0-0.8,0.4-0.8,0.8V34.8z"/>
	</g>
	<g>
		<path class="st0" d="M19.2,34.8H18v-6.9c0-0.5-0.4-0.8-0.8-0.8H4.5v-1.2h12.7c1.1,0,2,0.9,2,2V34.8z"/>
	</g>
	<polygon class="st0" points="20.2,23.1 12.2,23.1 12.2,21.9 19.7,21.9 26.8,14.8 27.7,15.6 	"/>
	<rect x="24.6" y="21.9" class="st0" width="8.4" height="1.2"/>
	<path class="st0" d="M19,18.7l-0.5-0.9c-3.3-5.8-3.3-5.8-3.4-5.8c-0.3-0.6-0.5-1.3-0.5-2c0-2.4,2-4.4,4.4-4.4c2.4,0,4.4,2,4.4,4.4
		c0,0.7-0.2,1.4-0.5,2l0,0c-0.1,0.1-1.2,2.1-3.4,5.8L19,18.7z M19,6.7c-1.8,0-3.2,1.4-3.2,3.2c0,0.5,0.1,1,0.4,1.5
		c0.1,0.1,1.9,3.3,2.8,4.9c0.9-1.6,2.7-4.7,2.8-4.9c0.2-0.5,0.4-0.9,0.4-1.5C22.2,8.2,20.8,6.7,19,6.7z"/>
	<circle class="st0" cx="19" cy="9.8" r="1"/>
</g>
</svg>
