<?xml version="1.0" encoding="utf-8"?>
<svg id="Layer_1" x="0px" y="0px" width="20px" height="20px" viewBox="1.565 1.729 17.769 17.749" xmlns="http://www.w3.org/2000/svg">
  <path fill="#231F20" d="M10.444,1.747c-2.592,0-5.048,1.14-6.738,3.127c-0.22,0.26-0.406,0.502-0.569,0.741&#10;&#9;C2.128,7.09,1.595,8.812,1.595,10.597c0,4.025,2.837,7.613,6.766,8.588l0.157-0.682c-3.615-0.904-6.223-4.205-6.223-7.907&#10;&#9;c0-1.487,0.415-2.951,1.199-4.234c0.196-0.318,0.389-0.596,0.591-0.849c1.56-1.949,3.878-3.066,6.359-3.066&#10;&#9;c4.495,0,8.151,3.656,8.151,8.15c0,4.294-3.327,7.868-7.574,8.135l-0.159,0.01v-0.16v-7.17v-0.142l0.143-0.008&#10;&#9;c2.128-0.112,3.801-0.685,4.973-1.701l0.162-0.141l-0.051-0.209C15.43,6.596,13.119,4.77,10.47,4.77&#10;&#9;c-3.203,0-5.808,2.653-5.808,5.914c0,0.066,0.004,0.132,0.014,0.289l0.014,0.339h1.435h0.129l0.02,0.127&#10;&#9;c0.292,1.899,1.836,3.359,3.753,3.551l0.135,0.014v0.135v4.312h0.35c4.843,0,8.784-3.971,8.784-8.851&#10;&#9;C19.295,5.717,15.324,1.747,10.444,1.747z M10.161,11.461v2.676v0.171l-0.169-0.021c-1.507-0.195-2.719-1.319-3.015-2.796&#10;&#9;l-0.036-0.18h0.183h2.887h0.15V11.461z M10.268,10.61H5.517H5.361l0.006-0.156C5.486,7.659,7.728,5.47,10.47,5.47&#10;&#9;c2.219,0,4.167,1.448,4.849,3.603l0.032,0.101l-0.084,0.064C14.071,10.148,12.389,10.61,10.268,10.61z"/>
</svg>