<?xml version="1.0" encoding="utf-8"?>
<svg id="Layer_1" x="0px" y="0px" width="20px" height="20px" viewBox="1.541 1.949 17.83 17.768" xmlns="http://www.w3.org/2000/svg">
  <g>
    <path fill="#231F20" d="M16.727,4.601c-0.077,0.043-0.16,0.088-0.247,0.135c-0.192,0.101-0.398,0.204-0.609,0.303&#10;&#9;&#9;c-0.167,0.078-0.333,0.151-0.491,0.22l-0.054,0.023l-0.129,0.054c-0.259,0.107-0.485,0.191-0.64,0.234&#10;&#9;&#9;c-1.355,0.468-2.75,0.703-4.167,0.703c-1.075,0-2.136-0.138-3.154-0.409C6.844,5.757,6.512,5.654,6.205,5.542l-0.25,0.654&#10;&#9;&#9;c1.435,0.531,2.945,0.8,4.491,0.8c2.061,0,4.139-0.517,6.008-1.494l0.106-0.056l0.077,0.091c1.263,1.477,1.958,3.354,1.958,5.286&#10;&#9;&#9;c0,4.495-3.655,8.15-8.15,8.15c-4.494,0-8.15-3.655-8.15-8.15c0-4.494,3.656-8.15,8.15-8.15c1.374,0,2.734,0.355,3.944,1.028&#10;&#9;&#9;l0.332-0.616c-1.312-0.728-2.787-1.112-4.276-1.112c-4.88,0-8.85,3.97-8.85,8.85c0,4.879,3.97,8.85,8.85,8.85&#10;&#9;&#9;c4.879,0,8.85-3.971,8.85-8.85C19.295,8.477,18.384,6.271,16.727,4.601z"/>
    <path fill="#231F20" d="M10.095,13.48v2.111h0.7V13.48v-0.123l0.121-0.024c1.116-0.223,1.926-1.211,1.926-2.349&#10;&#9;&#9;c0-1.322-1.075-2.397-2.397-2.397c-1.322,0-2.398,1.075-2.398,2.397c0,1.139,0.811,2.126,1.927,2.349l0.121,0.024V13.48z&#10;&#9;&#9; M8.747,10.984c0-0.936,0.762-1.697,1.698-1.697s1.697,0.761,1.697,1.697c0,0.936-0.761,1.697-1.697,1.697&#10;&#9;&#9;S8.747,11.92,8.747,10.984z"/>
  </g>
</svg>