<?xml version="1.0" encoding="utf-8"?>
<svg id="Layer_1" x="0px" y="0px" width="20px" height="20px" viewBox="1.556 1.029 17.775 17.766" xmlns="http://www.w3.org/2000/svg">
  <path fill="#231F20" d="M10.444,1.062c-4.879,0-8.849,3.97-8.849,8.85s3.97,8.85,8.849,8.85c2.232,0,3.91-0.938,3.98-0.979&#10;&#9;l0.179-0.1v-4.959c0-1.049-0.671-2.164-1.913-2.164h-1.271c-0.15,0-0.279-0.093-0.344-0.247c-0.07-0.182-0.031-0.368,0.104-0.502&#10;&#9;c0.159-0.16,0.338-0.375,0.404-0.459V9.341l0.043-0.044c0.951-0.955,0.949-2.509-0.004-3.462c-0.465-0.463-1.081-0.718-1.734-0.718&#10;&#9;H5.665l0.124,0.444c0.217,0.779,1.83,6.553,1.899,6.765c0.121,0.364,0.321,0.689,0.595,0.965c0.457,0.457,1.068,0.712,1.72,0.717&#10;&#9;h1.374h0.149v0.15v2.002h0.7v-2.852h-2.222c-0.464-0.005-0.899-0.187-1.226-0.513c-0.196-0.197-0.339-0.429-0.426-0.688&#10;&#9;C8.294,11.927,7.389,8.69,6.639,6.007l-0.053-0.19h0.198h3.104c0.466,0,0.906,0.183,1.238,0.513&#10;&#9;c0.693,0.694,0.677,1.801-0.037,2.521c0.002,0-0.216,0.276-0.407,0.469c-0.334,0.333-0.433,0.828-0.253,1.263&#10;&#9;c0.172,0.412,0.561,0.679,0.99,0.679h1.271c0.89,0,1.213,0.876,1.213,1.465v4.445v0.096l-0.087,0.04&#10;&#9;c-0.491,0.228-1.804,0.757-3.372,0.757c-4.493,0-8.149-3.656-8.149-8.15s3.656-8.15,8.149-8.15c4.495,0,8.151,3.656,8.151,8.15&#10;&#9;c0,2.378-1.029,4.619-2.829,6.173l0.447,0.539c1.961-1.688,3.082-4.125,3.082-6.712C19.295,5.032,15.324,1.062,10.444,1.062z"/>
</svg>