<?xml version="1.0" encoding="utf-8"?>
<svg id="Layer_1" x="0px" y="0px" width="20px" height="20px" viewBox="1.565 1.565 17.769 17.74" xmlns="http://www.w3.org/2000/svg">
  <g>
    <path fill="#231F20" d="M16.703,4.17c-1.672-1.672-3.895-2.594-6.258-2.594h-0.001c-2.363,0-4.585,0.92-6.257,2.592&#10;&#9;&#9;c-1.671,1.671-2.592,3.895-2.592,6.259c0,2.364,0.92,4.586,2.592,6.257l0.249,0.247l2.201-2.212l0.098-0.098l0.105,0.089&#10;&#9;&#9;c1.009,0.853,2.289,1.322,3.604,1.322h0.35V4.831h-0.35c-3.088,0-5.6,2.513-5.6,5.602c0,1.309,0.464,2.583,1.307,3.589l0.088,0.104&#10;&#9;&#9;l-0.097,0.098l-1.592,1.6l-0.113,0.113l-0.106-0.12c-1.313-1.485-2.037-3.399-2.037-5.39c0-2.177,0.848-4.224,2.387-5.764&#10;&#9;&#9;c1.539-1.539,3.585-2.387,5.762-2.387c2.177,0,4.224,0.848,5.764,2.389c1.539,1.539,2.387,3.585,2.387,5.762&#10;&#9;&#9;c0,2.174-0.848,4.221-2.387,5.762c-1.54,1.539-3.59,2.386-5.774,2.386c-1.37,0-2.721-0.347-3.917-1.005l-0.349,0.607&#10;&#9;&#9;c1.299,0.719,2.771,1.098,4.264,1.098c2.373,0,4.599-0.92,6.27-2.591c1.672-1.671,2.592-3.894,2.592-6.257&#10;&#9;&#9;S18.375,5.841,16.703,4.17z M5.544,10.433c0-2.516,1.885-4.612,4.384-4.875l0.166-0.018v0.167v9.449v0.166l-0.166-0.018&#10;&#9;&#9;C7.429,15.043,5.544,12.949,5.544,10.433z"/>
    <path fill="#231F20" d="M14.371,14.844c0.184-0.166,0.346-0.331,0.492-0.498l-2.282-2.293c-0.143,0.184-0.31,0.347-0.499,0.488&#10;&#9;&#9;L14.371,14.844z"/>
    <path fill="#231F20" d="M13.115,10.077c0.016,0.116,0.023,0.233,0.023,0.35s-0.008,0.234-0.023,0.35h3.191&#10;&#9;&#9;c0.009-0.116,0.015-0.232,0.015-0.35c0-0.119-0.006-0.234-0.015-0.35H13.115z"/>
    <path fill="#231F20" d="M12.556,8.772l2.28-2.292c-0.149-0.171-0.314-0.337-0.492-0.498L12.049,8.29&#10;&#9;&#9;C12.24,8.429,12.41,8.59,12.556,8.772z"/>
  </g>
</svg>