<?xml version="1.0" encoding="utf-8"?>
<svg id="Layer_1" x="0px" y="0px" width="20px" height="20px" viewBox="1.537 1.828 17.798 17.798" xmlns="http://www.w3.org/2000/svg">
  <path fill="#231F20" d="M10.444,1.891c-4.879,0-8.849,3.97-8.849,8.85c0,0.977,0.159,1.938,0.472,2.86l0.2,0.565h2.792h0.125&#10;&#9;l0.022,0.123c0.227,1.225,1.296,2.113,2.544,2.113c1.248,0,2.318-0.89,2.544-2.117l0.022-0.123h0.125&#10;&#9;c-0.001-0.003,0.025-0.012,0.059-0.012h0.15v0.016h3.966V8.191v-0.15h0.149h1.6V7.342h-2.449v5.975v0.15h-0.15h-1.809h-0.235&#10;&#9;l0.101-0.214c0.251-0.539,0.243-1.166,0.238-1.54v-1.164c0-1.324-0.824-2.438-2.321-4.462C9.211,5.375,8.042,4.654,6.833,4.654&#10;&#9;H5.439H5.013l0.332-0.268c1.44-1.158,3.25-1.797,5.099-1.797c4.495,0,8.151,3.656,8.151,8.15c0,4.493-3.656,8.148-8.151,8.148&#10;&#9;c-2.449,0-4.732-1.078-6.289-2.964l-0.548,0.435c1.691,2.054,4.174,3.229,6.837,3.229c4.88,0,8.851-3.969,8.851-8.848&#10;&#9;C19.295,5.86,15.324,1.891,10.444,1.891z M6.833,5.354c1.086,0,2.015,0.705,2.345,1.148c1.514,2.05,2.183,3,2.183,4.047l0.001,1.252&#10;&#9;c0.004,0.312,0.014,1.051-0.354,1.422c-0.162,0.164-0.386,0.244-0.685,0.244H9.638v0.35c0,1.04-0.847,1.887-1.887,1.887&#10;&#9;s-1.887-0.847-1.887-1.887v-0.35H2.868H2.76l-0.035-0.103c-0.286-0.844-0.431-1.727-0.431-2.624c0-1.958,0.708-3.853,1.993-5.335&#10;&#9;l0.045-0.052h0.068H6.833z"/>
</svg>