<?xml version="1.0" encoding="utf-8"?>
<!-- Generator: Adobe Illustrator 16.0.0, SVG Export Plug-In . SVG Version: 6.00 Build 0)  -->
<!DOCTYPE svg PUBLIC "-//W3C//DTD SVG 1.1//EN" "http://www.w3.org/Graphics/SVG/1.1/DTD/svg11.dtd">
<svg version="1.1" id="Layer_1" xmlns="http://www.w3.org/2000/svg" xmlns:xlink="http://www.w3.org/1999/xlink" x="0px" y="0px"
	 width="20px" height="20px" viewBox="0 0 20 20" enable-background="new 0 0 20 20" xml:space="preserve">
<path fill="#231F20" d="M10.439,19.363c2.365,0,4.586-0.92,6.258-2.592c1.668-1.67,2.588-3.892,2.588-6.259s-0.92-4.589-2.588-6.258
	c-0.057-0.057-0.115-0.113-0.172-0.168l-0.473,0.517c0.051,0.048,0.1,0.097,0.15,0.147c3.178,3.177,3.178,8.348-0.001,11.525
	c-1.538,1.54-3.584,2.389-5.763,2.389c-2.177,0-4.224-0.848-5.764-2.389C1.5,13.098,1.5,7.927,4.676,4.75
	c1.542-1.541,3.591-2.389,5.771-2.389c1.012,0,2.004,0.186,2.947,0.553c0.143,0.057,0.371,0.149,0.491,0.206
	c0.063,0.03,0.124,0.062,0.183,0.095l0.17,0.097L14.1,3.451L6.924,10.7h4.505h0.361l-0.256,0.256l-3.866,3.869l-0.256,0.257v-0.362
	v-2.414h-0.7v3.824h3.714V15.43h-2.01H8.055l0.256-0.256L13.48,10H8.962H8.603l0.253-0.255l6.435-6.501l-0.297-0.245
	c-0.006-0.004-0.361-0.297-0.809-0.511c-0.133-0.063-0.376-0.162-0.533-0.225c-1.025-0.4-2.105-0.603-3.207-0.603
	c-2.367,0-4.592,0.921-6.265,2.594c-3.448,3.451-3.448,9.066,0,12.517C5.854,18.443,8.077,19.363,10.439,19.363z"/>
</svg>
