<?xml version="1.0" encoding="utf-8"?>
<!-- Generator: Adobe Illustrator 16.0.0, SVG Export Plug-In . SVG Version: 6.00 Build 0)  -->
<!DOCTYPE svg PUBLIC "-//W3C//DTD SVG 1.1//EN" "http://www.w3.org/Graphics/SVG/1.1/DTD/svg11.dtd">
<svg version="1.1" id="Layer_1" xmlns="http://www.w3.org/2000/svg" xmlns:xlink="http://www.w3.org/1999/xlink" x="0px" y="0px"
	 width="20px" height="20px" viewBox="0 0 20 20" enable-background="new 0 0 20 20" xml:space="preserve">
<path fill="#231F20" d="M10.59,1.806c-4.88,0-8.85,3.97-8.85,8.85c0,1.652,0.459,3.265,1.327,4.667l0.388,0.594l4.424-5.021
	L6.117,9.111L5.864,8.856h0.359h3.42l1.908-2.191l0.263-0.302v0.401v2.093h2.397h0.505l-0.423,0.275l-2.479,1.618v3.986v0.374
	l-0.259-0.271l-2.146-2.241l-0.501,0.479l3.599,3.757v-5.628v-0.081l0.067-0.045l4.475-2.917h-4.393h-0.149v-0.15V4.51L9.374,8.112
	L9.329,8.163H9.26H4.205l2.628,2.66l0.098,0.1l-0.093,0.105l-3.156,3.582l-0.141,0.16l-0.103-0.188
	c-0.658-1.195-1.006-2.554-1.006-3.926c0-4.498,3.66-8.157,8.158-8.157c4.498,0,8.156,3.659,8.156,8.157s-3.658,8.157-8.156,8.157
	c-2.004,0-3.932-0.734-5.427-2.066l-0.065-0.06l-0.473,0.506l0.079,0.072c1.62,1.444,3.71,2.241,5.885,2.241
	c4.88,0,8.85-3.971,8.85-8.85C19.44,5.776,15.471,1.806,10.59,1.806z"/>
</svg>
