<?xml version="1.0" encoding="utf-8"?>
<!-- Generator: Adobe Illustrator 16.0.0, SVG Export Plug-In . SVG Version: 6.00 Build 0)  -->
<!DOCTYPE svg PUBLIC "-//W3C//DTD SVG 1.1//EN" "http://www.w3.org/Graphics/SVG/1.1/DTD/svg11.dtd">
<svg version="1.1" id="Layer_1" xmlns="http://www.w3.org/2000/svg" xmlns:xlink="http://www.w3.org/1999/xlink" x="0px" y="0px"
	 width="20px" height="20px" viewBox="0 0 20 20" enable-background="new 0 0 20 20" xml:space="preserve">
<path fill="#231F20" d="M10.167,18.699c2.015,0,3.976-0.689,5.54-1.947l-0.447-0.539C13.818,17.367,12.018,18,10.167,18
	c-4.494,0-8.15-3.656-8.15-8.15c0-4.494,3.656-8.15,8.15-8.15c4.495,0,8.149,3.656,8.149,8.15c0,1.363-0.342,2.71-0.99,3.9
	c-0.016,0.029-0.037,0.066-0.061,0.107L17.24,13.9l-0.043,0.076h-0.088h-1.922h-0.15v-0.15V7l-3.275,2.868v3.959v0.15h-0.148h-1.196
	h-0.15v-0.15V4.998H5.954v5.954v0.15h-0.15H3.62v0.699h3.034V5.848v-0.15h0.15h2.613h0.15v0.15v8.828h2.896v-4.423v-0.068
	l0.051-0.045l1.574-1.379l0.248-0.218v0.331v5.802h3.256l0.102-0.17c0,0,0.166-0.275,0.246-0.42
	c0.705-1.289,1.078-2.754,1.078-4.236c0-4.88-3.971-8.85-8.851-8.85s-8.85,3.97-8.85,8.85C1.317,14.73,5.287,18.699,10.167,18.699z"
	/>
</svg>
