<?xml version="1.0" encoding="utf-8"?>
<!-- Generator: Adobe Illustrator 16.0.0, SVG Export Plug-In . SVG Version: 6.00 Build 0)  -->
<!DOCTYPE svg PUBLIC "-//W3C//DTD SVG 1.1//EN" "http://www.w3.org/Graphics/SVG/1.1/DTD/svg11.dtd">
<svg version="1.1" id="Layer_1" xmlns="http://www.w3.org/2000/svg" xmlns:xlink="http://www.w3.org/1999/xlink" x="0px" y="0px"
	 width="20px" height="20px" viewBox="0 0 20 20" enable-background="new 0 0 20 20" xml:space="preserve">
<g>
	<path fill="#231F20" d="M10.132,18.729c1.328,0,2.606-0.287,3.797-0.854c0.182-0.086,0.511-0.275,0.512-0.275l0.174-0.102V4.718
		L3.719,10.752l0.339,0.613l9.634-5.336l0.223-0.123v0.254v10.843v0.09l-0.079,0.043c-0.089,0.047-0.154,0.082-0.207,0.107
		c-1.098,0.521-2.274,0.785-3.497,0.785c-4.494,0-8.15-3.656-8.15-8.15c0-4.495,3.656-8.151,8.15-8.151
		c4.495,0,8.15,3.656,8.15,8.151c0,2.125-0.817,4.14-2.3,5.675c-0.041,0.043-0.096,0.1-0.162,0.166l0.486,0.504
		c0.062-0.062,0.113-0.113,0.146-0.148l0,0l0.042-0.045c1.604-1.66,2.488-3.846,2.488-6.152c0-4.88-3.971-8.851-8.85-8.851
		c-4.88,0-8.85,3.971-8.85,8.851S5.252,18.729,10.132,18.729z"/>
	
		<rect x="6.856" y="13.115" transform="matrix(0.6018 -0.7986 0.7986 0.6018 -7.3077 12.2726)" fill="#231F20" width="3.595" height="0.7"/>
	
		<rect x="10.843" y="8.79" transform="matrix(0.6016 -0.7988 0.7988 0.6016 -2.5661 13.1342)" fill="#231F20" width="2.083" height="0.7"/>
</g>
</svg>
