<?xml version="1.0" encoding="utf-8"?>
<!-- Generator: Adobe Illustrator 22.1.0, SVG Export Plug-In . SVG Version: 6.00 Build 0)  -->
<svg version="1.1" id="Layer_1" xmlns="http://www.w3.org/2000/svg" xmlns:xlink="http://www.w3.org/1999/xlink" x="0px" y="0px"
	 viewBox="0 0 60 60" style="enable-background:new 0 0 60 60;" xml:space="preserve">
<style type="text/css">
	.st0{fill:#231F20;}
</style>
<g>
	<path class="st0" d="M30,55.7c-6.6,0-13.2-2.5-18.2-7.5c-10-10-10-26.4,0-36.4c10-10,26.4-10,36.4,0c7.5,7.5,9.6,18.6,5.5,28.4
		l-1.7-0.7c3.9-9,1.9-19.3-5.1-26.3c-9.3-9.3-24.4-9.3-33.8,0c-9.3,9.3-9.3,24.4,0,33.8c9.3,9.3,24.4,9.3,33.8,0
		c0.9-0.9,1.6-1.8,2.4-2.7H14.8v-1.9h37.9L51.6,44c-1,1.5-2.1,3-3.4,4.2C43.2,53.2,36.6,55.7,30,55.7z"/>
	<path class="st0" d="M32,52C27,52,23,47.9,23,43s4-8.9,8.9-8.9c4.9,0,8.9,4,8.9,8.9S36.9,52,32,52z M32,35.9
		c-3.9,0-7.1,3.2-7.1,7.1s3.2,7.1,7.1,7.1S39,46.9,39,43S35.9,35.9,32,35.9z"/>
	<path class="st0" d="M12.3,46.6c-2,0-3.6-1.6-3.6-3.6s1.6-3.6,3.6-3.6c2,0,3.6,1.6,3.6,3.6S14.3,46.6,12.3,46.6z M12.3,41.3
		c-1,0-1.7,0.8-1.7,1.7s0.8,1.7,1.7,1.7c1,0,1.7-0.8,1.7-1.7S13.2,41.3,12.3,41.3z"/>
	<path class="st0" d="M22.8,42.8L20,16.5h2.3c0.5,0,0.9-0.4,0.9-0.9c0-0.5-0.4-0.9-0.9-0.9h-5.7v-1.9h5.7c1.5,0,2.8,1.3,2.8,2.8
		s-1.3,2.8-2.8,2.8h-0.2l2.5,24.3L22.8,42.8z"/>
	<rect x="10.5" y="34.4" transform="matrix(0.9945 -0.1043 0.1043 0.9945 -3.8413 1.4019)" class="st0" width="1.9" height="6"/>
	<path class="st0" d="M41.3,44.1v-1.9c2.6,0,3.1-1.8,3.1-3.3V26.4h-22L14.2,41l-1.6-0.9l8.7-15.6h25V39
		C46.3,42.2,44.4,44.1,41.3,44.1z"/>
	<rect x="9.2" y="33.5" class="st0" width="4" height="1.9"/>
</g>
</svg>
