<?xml version="1.0" encoding="utf-8"?>
<!-- Generator: Adobe Illustrator 16.0.0, SVG Export Plug-In . SVG Version: 6.00 Build 0)  -->
<!DOCTYPE svg PUBLIC "-//W3C//DTD SVG 1.1//EN" "http://www.w3.org/Graphics/SVG/1.1/DTD/svg11.dtd">
<svg version="1.1" id="Layer_1" xmlns="http://www.w3.org/2000/svg" xmlns:xlink="http://www.w3.org/1999/xlink" x="0px" y="0px"
	 width="20px" height="20px" viewBox="0 0 20 20" enable-background="new 0 0 20 20" xml:space="preserve">
<g>
	<path fill="#231F20" d="M13.529,9.146c-0.387,0-0.702,0.315-0.702,0.702c0,0.386,0.315,0.7,0.702,0.7
		c0.385,0,0.699-0.314,0.699-0.7C14.229,9.461,13.914,9.146,13.529,9.146z"/>
	<path fill="#231F20" d="M13.344,13.447l-0.495-0.496c-0.635,0.579-1.503,0.908-2.409,0.908c-0.905,0-1.774-0.329-2.408-0.908
		l-0.497,0.496c0.791,0.738,1.816,1.145,2.904,1.145C11.527,14.592,12.553,14.186,13.344,13.447z"/>
	<path fill="#231F20" d="M16.922,4.304c-0.001,0-0.123-0.13-0.224-0.231C15.026,2.401,12.804,1.48,10.44,1.48
		S5.854,2.401,4.182,4.073c-3.449,3.45-3.449,9.064,0,12.517c1.669,1.668,3.892,2.586,6.258,2.586s4.589-0.918,6.258-2.586
		c2.807-2.809,3.398-7.142,1.463-10.589l-0.604,0.353c1.775,3.173,1.229,7.158-1.354,9.74c-1.537,1.537-3.584,2.383-5.764,2.383
		c-2.179,0-4.226-0.846-5.763-2.383C1.5,12.916,1.5,7.745,4.677,4.568c1.54-1.54,3.586-2.388,5.763-2.388
		c2.107,0,4.105,0.8,5.628,2.254l0.113,0.108l-0.113,0.108c-1.516,1.446-3.52,2.243-5.645,2.243c-1.565,0-3.074-0.438-4.372-1.27
		L5.663,6.208c1.414,0.907,3.056,1.386,4.761,1.386c2.311,0,4.49-0.867,6.134-2.442l0.59-0.605L16.922,4.304z"/>
	<circle fill="#231F20" cx="7.601" cy="9.847" r="0.701"/>
</g>
</svg>
