<?xml version="1.0" encoding="utf-8"?>
<!-- Generator: Adobe Illustrator 16.0.0, SVG Export Plug-In . SVG Version: 6.00 Build 0)  -->
<!DOCTYPE svg PUBLIC "-//W3C//DTD SVG 1.1//EN" "http://www.w3.org/Graphics/SVG/1.1/DTD/svg11.dtd">
<svg version="1.1" id="Layer_1" xmlns="http://www.w3.org/2000/svg" xmlns:xlink="http://www.w3.org/1999/xlink" x="0px" y="0px"
	 width="20px" height="20px" viewBox="0 0 20 20" enable-background="new 0 0 20 20" xml:space="preserve">
<path fill="#231F20" d="M2.635,11.831c-0.145-0.627-0.217-1.251-0.217-1.857c0-4.494,3.562-8.15,7.941-8.15
	c4.379,0,7.94,3.656,7.94,8.15s-3.562,8.15-7.94,8.15c-2.936,0-5.622-1.658-7.01-4.328l-0.045-0.087l0.062-0.076
	c0.603-0.75,2.272-2.495,4.752-2.495c1.198,0,2.137,0.445,3.133,0.916c0.943,0.446,1.911,0.904,3.059,0.904
	c1.584,0,2.665-1.312,2.676-1.324l0.166-0.202l-2.632-3.922l-1.022,1.056l-0.129,0.132l-0.104-0.153L9.893,3.565L5.926,9.018
	l0.566,0.412l3.255-4.473l0.125-0.172l0.12,0.177l3.282,4.843l1.018-1.052l0.129-0.134l0.104,0.154l1.676,2.497l0.072,0.107
	l-0.096,0.087c-0.33,0.298-1.012,0.796-1.865,0.796c-0.988,0-1.844-0.404-2.748-0.832c-1.031-0.488-2.088-0.988-3.444-0.988
	c-2.448,0-4.161,1.48-4.964,2.363l-0.261,0.286v-0.001l-0.43,0.476c1.392,3.199,4.481,5.261,7.896,5.261
	c4.764,0,8.641-3.97,8.641-8.85s-3.877-8.85-8.641-8.85c-4.765,0-8.642,3.97-8.642,8.85c0,0.672,0.083,1.363,0.247,2.057
	L2.635,11.831z"/>
</svg>
