<?xml version="1.0" encoding="UTF-8"?>
<!DOCTYPE svg PUBLIC "-//W3C//DTD SVG 1.1//EN" "http://www.w3.org/Graphics/SVG/1.1/DTD/svg11.dtd">
<svg width="512px" height="512px" enable-background="new 0 0 390.217 390.217" version="1.1" viewBox="0 0 390.217 390.217" xml:space="preserve" xmlns="http://www.w3.org/2000/svg">
	<path d="m248.05 132.89h-240.14c-4.355 0-7.918 3.563-7.918 7.918v240.14c0 4.354 3.563 7.918 7.918 7.918h240.14c4.354 0 7.917-3.562 7.917-7.918v-240.14c0-4.355-3.564-7.918-7.917-7.918z"/>
	<path d="m383.58 1.355h-246.52c-3.65 0-6.632 2.985-6.632 6.632v104.47c0 4.242 4.263 4.356 4.263 4.356h134.76c3.275 0 5.304 3.12 5.304 5.676v134.14s0.153 4.504 4.433 4.504h104.39c3.646 0 6.631-2.983 6.631-6.631v-246.52c-3e-3 -3.646-2.989-6.631-6.634-6.631z"/>
</svg>
