<svg width="34" height="34" viewBox="0 0 34 34" fill="none" xmlns="http://www.w3.org/2000/svg">
<path fill-rule="evenodd" clip-rule="evenodd" d="M4 0C1.79086 0 0 1.79086 0 4V30C0 32.2091 1.79086 34 4 34H30C32.2091 34 34 32.2091 34 30V4C34 1.79086 32.2091 0 30 0H4Z"/>
<g clip-path="url(#clip0)">
<path d="M19.9994 8.00333L17.9246 8C15.5936 8 14.0872 9.5455 14.0872 11.9376V13.7531H12.0011C11.8208 13.7531 11.6748 13.8992 11.6748 14.0795V16.7099C11.6748 16.8902 11.8209 17.0362 12.0011 17.0362H14.0872V23.6736C14.0872 23.8538 14.2332 23.9998 14.4134 23.9998H17.1353C17.3155 23.9998 17.4615 23.8537 17.4615 23.6736V17.0362H19.9007C20.081 17.0362 20.2269 16.8902 20.2269 16.7099L20.2279 14.0795C20.2279 13.9929 20.1935 13.91 20.1324 13.8488C20.0713 13.7875 19.9881 13.7531 19.9015 13.7531H17.4615V12.2141C17.4615 11.4743 17.6378 11.0988 18.6014 11.0988L19.9991 11.0983C20.1792 11.0983 20.3251 10.9522 20.3251 10.7721V8.32957C20.3251 8.14964 20.1793 8.00366 19.9994 8.00333Z" fill="white"/>
</g>
<defs>
<clipPath id="clip0">
<rect width="16" height="15.9998" fill="white" transform="translate(8 8)"/>
</clipPath>
</defs>
</svg>
