<?xml version="1.0" encoding="utf-8"?>
<!-- Generator: Adobe Illustrator 16.0.0, SVG Export Plug-In . SVG Version: 6.00 Build 0)  -->
<!DOCTYPE svg PUBLIC "-//W3C//DTD SVG 1.1//EN" "http://www.w3.org/Graphics/SVG/1.1/DTD/svg11.dtd">
<svg version="1.1" id="Layer_1" xmlns="http://www.w3.org/2000/svg" xmlns:xlink="http://www.w3.org/1999/xlink" x="0px" y="0px"
	 width="166px" height="166px" viewBox="0 0 166 166" enable-background="new 0 0 166 166" xml:space="preserve">
<g>
	<circle fill="#3EC694" cx="83.075" cy="83.226" r="80"/>
</g>
<g>
	<path fill="#FFFFFF" d="M26.924,48.948l0.917-1.457l12.118,7.624l-0.917,1.457L26.924,48.948z"/>
	<path fill="#FFFFFF" d="M35.128,38.2l1.305-1.349l1.404,1.36l-1.306,1.348L35.128,38.2z M38.609,41.462l1.196-1.236l6.855,6.636
		L45.465,48.1L38.609,41.462z"/>
	<path fill="#FFFFFF" d="M52.651,38.32c0.594,0.965,1.843,0.793,2.792,0.209c1.349-0.83,1.691-1.729,1.179-2.562
		c-0.39-0.633-0.997-0.65-1.922-0.287l-1.695,0.677c-1.212,0.494-2.755,0.823-3.718-0.742c-0.984-1.599-0.127-3.412,1.671-4.52
		c1.731-1.066,3.648-1.236,4.715,0.496l-1.399,0.861c-0.532-0.866-1.552-0.881-2.618-0.225c-0.998,0.616-1.531,1.541-1.02,2.373
		c0.37,0.599,0.997,0.649,2.065,0.221l1.696-0.677c1.365-0.542,2.705-0.678,3.607,0.787c1.057,1.715,0.201,3.459-1.864,4.73
		c-1.932,1.189-3.863,1.185-4.889-0.481L52.651,38.32z"/>
	<path fill="#FFFFFF" d="M64.95,26.431l-1.728,0.505l-0.395-1.351l1.727-0.504l-0.812-2.778l1.65-0.482l0.812,2.777l2.402-0.703
		l0.396,1.352l-2.402,0.702l1.47,5.03c0.285,0.976,0.77,1.241,1.672,0.978l1.125-0.329l0.418,1.427l-1.353,0.395
		c-1.802,0.526-2.965-0.111-3.492-1.913L64.95,26.431z"/>
	<path fill="#FFFFFF" d="M78.829,22.227l1.644-0.004l0.005,1.409l0.078,0c0.545-1.097,1.56-1.647,2.969-1.651
		c1.878-0.005,3.524,1.007,3.532,3.98l0.017,5.79l-1.722,0.005l-0.016-5.556c-0.006-2.034-0.868-2.736-2.199-2.732
		c-1.448,0.004-2.578,1.279-2.572,3.353l0.015,4.95l-1.722,0.004L78.829,22.227z"/>
	<path fill="#FFFFFF" d="M97.239,23.856l1.584,0.432l-0.365,1.339l0.057,0.016c0.721-0.858,1.691-1.221,2.86-0.901
		c0.379,0.103,0.798,0.278,1.182,0.727l-0.94,1.365c-0.357-0.32-0.691-0.513-1.05-0.611c-1.377-0.376-2.43,0.878-2.865,2.481
		l-1.314,4.811l-1.659-0.452L97.239,23.856z"/>
	<path fill="#FFFFFF" d="M109.805,28.371l1.536,0.775l-4.298,8.521l-1.536-0.775L109.805,28.371z M111.885,24.075l1.676,0.846
		l-0.881,1.746l-1.677-0.846L111.885,24.075z"/>
	<path fill="#FFFFFF" d="M122.427,36.296c1.011,0.864,1.538,1.932,1.2,3.29l0.061,0.051c0.753-1.002,1.604-1.998,2.024-2.488
		l1.981-2.318l1.308,1.117l-9.3,10.88l-1.248-1.067l0.966-1.129l-0.06-0.051c-1.29,0.545-2.545,0.088-3.556-0.776
		c-1.843-1.575-2.043-4.112-0.009-6.49C117.827,34.936,120.584,34.721,122.427,36.296z M117.066,42.929
		c1.188,1.017,2.953,0.879,4.427-0.846c1.475-1.724,1.335-3.488,0.146-4.505c-1.189-1.017-3.004-0.819-4.478,0.906
		C115.688,40.208,115.877,41.913,117.066,42.929z"/>
	<path fill="#FFFFFF" d="M134.604,50.138c1.36,2.101,0.884,4.459-1.513,6.011l-0.591,0.382l-3.782-5.843
		c-1.634,1.15-2.132,2.754-1.228,4.149c0.765,1.182,1.824,1.38,2.653,1.076l0.936,1.445c-1.565,0.711-3.626,0.157-4.837-1.714
		c-1.616-2.495-0.866-4.937,1.693-6.595C130.432,47.435,133.201,47.971,134.604,50.138z M129.854,50.068l2.772,4.284
		c1.361-1.066,1.505-2.209,0.73-3.407C132.654,49.862,131.32,49.492,129.854,50.068z"/>
</g>
<g>
	<path fill="#FFFFFF" d="M28.991,121.362l-0.031-0.05c-1.785-0.035-3.102-0.881-4.16-2.618c-2.004-3.29-0.896-7.147,2.527-9.234
		c3.424-2.085,7.359-1.301,9.405,2.058c1.668,2.738,1.187,5.482-0.557,7.207l-0.977-1.603c0.963-1.091,1.32-2.796,0.13-4.75
		c-1.516-2.489-4.42-2.896-7.026-1.308c-2.605,1.587-3.535,4.42-2.101,6.775c1.17,1.92,3.374,2.982,5.445,1.721l0.334-0.203
		l-2.197-3.607l1.336-0.814l3.053,5.01l-6.08,3.703l-0.611-1.001L28.991,121.362z"/>
	<path fill="#FFFFFF" d="M41.545,124.541l1.298,1.13l-3.647,4.188c-1.336,1.534-1.148,2.63-0.146,3.503
		c1.121,0.977,2.762,0.641,4.097-0.893l3.236-3.717l1.298,1.131l-6.267,7.196l-1.239-1.078l0.925-1.062l-0.059-0.052
		c-1.133,0.467-2.2,0.264-3.262-0.661c-1.416-1.233-1.987-3.079-0.035-5.32L41.545,124.541z"/>
	<path fill="#FFFFFF" d="M54.914,139.157l1.826,0.535c0.993,0.285,1.255,0.281,1.45-0.124c0.503-1.039,0.235-2.059-0.979-2.646
		c-1.25-0.604-2.225-0.25-2.756,0.667l-1.479-0.715c0.854-1.587,2.682-2.267,4.848-1.22c2.254,1.089,2.802,2.831,1.849,4.804
		l-2.725,5.635l-1.479-0.716l0.554-1.144l-0.07-0.034c-0.928,0.66-2.152,0.633-3.402,0.027c-1.831-0.885-2.429-2.347-1.73-3.791
		C51.509,139.01,52.736,138.539,54.914,139.157z M57.536,140.924c-0.279,0.127-0.655,0.097-1.112-0.037l-1.756-0.502
		c-1.221-0.35-1.873-0.08-2.231,0.659c-0.357,0.74-0.084,1.524,1.008,2.052c1.339,0.646,2.874,0.347,3.691-1.344L57.536,140.924z"/>
	<path fill="#FFFFFF" d="M68.628,139.892l1.605,0.353l-0.297,1.355l0.058,0.012c0.676-0.893,1.626-1.305,2.811-1.046
		c0.382,0.083,0.809,0.236,1.216,0.666l-0.869,1.411c-0.374-0.303-0.717-0.477-1.079-0.557c-1.396-0.305-2.381,1-2.735,2.625
		l-1.064,4.869l-1.681-0.367L68.628,139.892z"/>
	<path fill="#FFFFFF" d="M83.282,145.859l1.869-0.354c1.013-0.198,1.245-0.319,1.235-0.77c-0.025-1.153-0.727-1.939-2.075-1.91
		c-1.388,0.03-2.095,0.788-2.15,1.845l-1.642,0.037c0.039-1.801,1.357-3.236,3.762-3.289c2.502-0.055,3.781,1.247,3.829,3.437
		l0.136,6.255l-1.643,0.035l-0.027-1.27l-0.078,0.001c-0.526,1.009-1.629,1.542-3.017,1.571c-2.033,0.045-3.229-0.986-3.263-2.588
		C80.185,147.275,81.062,146.299,83.282,145.859z M86.419,146.24c-0.19,0.239-0.539,0.383-1.007,0.472l-1.791,0.352
		c-1.246,0.242-1.704,0.781-1.687,1.602c0.019,0.82,0.617,1.394,1.829,1.368c1.485-0.032,2.716-0.998,2.675-2.874L86.419,146.24z"/>
	<path fill="#FFFFFF" d="M95.852,140.38l1.575-0.465l0.398,1.349l0.075-0.021c0.215-1.204,1.035-2.019,2.386-2.416
		c1.8-0.532,3.663-0.023,4.505,2.827l1.64,5.552l-1.649,0.486l-1.573-5.325c-0.577-1.951-1.602-2.383-2.877-2.005
		c-1.387,0.41-2.115,1.949-1.527,3.938l1.401,4.744l-1.649,0.488L95.852,140.38z"/>
	<path fill="#FFFFFF" d="M111.785,135.763l-1.559,0.9l-0.704-1.218l1.557-0.902l-1.45-2.506l1.49-0.862l1.45,2.506l2.168-1.254
		l0.705,1.218l-2.167,1.254l2.626,4.539c0.51,0.879,1.044,1.023,1.856,0.553l1.016-0.589l0.745,1.288l-1.219,0.705
		c-1.626,0.94-2.908,0.598-3.85-1.027L111.785,135.763z"/>
	<path fill="#FFFFFF" d="M123.081,125.504c1.821-1.715,4.226-1.671,6.183,0.406l0.482,0.512l-5.065,4.771
		c1.425,1.398,3.092,1.601,4.301,0.461c1.024-0.965,1.029-2.043,0.582-2.804l1.252-1.179c0.98,1.412,0.807,3.537-0.815,5.064
		c-2.162,2.037-4.698,1.739-6.789-0.48C121.174,130.094,121.202,127.274,123.081,125.504z M123.867,130.188l3.714-3.498
		c-1.293-1.145-2.443-1.082-3.481-0.104C123.16,127.471,123.036,128.85,123.867,130.188z"/>
	<path fill="#FFFFFF" d="M132.642,113.709c1.319-2.128,3.656-2.704,6.084-1.199l0.599,0.372l-3.67,5.918
		c1.737,0.985,3.401,0.752,4.277-0.662c0.743-1.197,0.469-2.241-0.159-2.861l0.907-1.463c1.312,1.113,1.691,3.212,0.516,5.108
		c-1.566,2.525-4.096,2.893-6.689,1.284C131.979,118.639,131.28,115.903,132.642,113.709z M134.608,118.037l2.69-4.34
		c-1.546-0.774-2.641-0.418-3.394,0.795C133.226,115.59,133.46,116.955,134.608,118.037z"/>
</g>
<g>
	<path fill="#FFFFFF" d="M83.075,122.075c-21.422,0-38.85-17.428-38.85-38.85c0-21.421,17.428-38.849,38.85-38.849
		c14.786,0,28.097,8.213,34.738,21.436c0.216,0.432,0.425,0.868,0.625,1.308l0.371,0.723l-35.415,35.413L59.293,79.154l1.273-1.272
		l22.828,22.829l33.229-33.228c-0.14-0.297-0.278-0.582-0.419-0.864c-6.333-12.609-19.027-20.442-33.129-20.442
		c-20.429,0-37.049,16.62-37.049,37.049s16.62,37.05,37.049,37.05s37.049-16.621,37.049-37.05c0-3.79-0.57-7.53-1.695-11.117
		l1.717-0.539c1.181,3.761,1.779,7.683,1.779,11.656C121.925,104.647,104.497,122.075,83.075,122.075z"/>
</g>
</svg>
