<?xml version="1.0" encoding="utf-8"?>
<!-- Generator: Adobe Illustrator 16.0.0, SVG Export Plug-In . SVG Version: 6.00 Build 0)  -->
<!DOCTYPE svg PUBLIC "-//W3C//DTD SVG 1.1//EN" "http://www.w3.org/Graphics/SVG/1.1/DTD/svg11.dtd">
<svg version="1.1" id="Layer_1" xmlns="http://www.w3.org/2000/svg" xmlns:xlink="http://www.w3.org/1999/xlink" x="0px" y="0px"
	 width="166px" height="166px" viewBox="0 0 166 166" enable-background="new 0 0 166 166" xml:space="preserve">
<g>
	<circle fill="#3EC694" cx="83" cy="82.999" r="80"/>
</g>
<g>
	<path fill="#FFFFFF" d="M26.85,48.723l0.916-1.457l12.117,7.624l-0.917,1.456L26.85,48.723z"/>
	<path fill="#FFFFFF" d="M35.051,37.974l1.307-1.349l1.404,1.36l-1.306,1.349L35.051,37.974z M38.534,41.236L39.729,40l6.856,6.637
		l-1.197,1.236L38.534,41.236z"/>
	<path fill="#FFFFFF" d="M52.574,38.093c0.595,0.965,1.844,0.793,2.793,0.209c1.349-0.83,1.689-1.729,1.178-2.562
		c-0.391-0.633-0.997-0.649-1.922-0.286l-1.697,0.676c-1.211,0.494-2.752,0.823-3.717-0.742c-0.984-1.598-0.126-3.412,1.673-4.519
		c1.731-1.066,3.647-1.236,4.714,0.496l-1.398,0.861c-0.533-0.866-1.553-0.88-2.618-0.225c-0.999,0.615-1.532,1.541-1.019,2.373
		c0.367,0.599,0.995,0.649,2.064,0.221l1.695-0.677c1.365-0.542,2.705-0.678,3.607,0.787c1.056,1.715,0.201,3.459-1.863,4.73
		c-1.932,1.189-3.863,1.185-4.889-0.481L52.574,38.093z"/>
	<path fill="#FFFFFF" d="M64.873,26.206l-1.727,0.504l-0.395-1.351l1.726-0.505l-0.812-2.778l1.651-0.482l0.812,2.777l2.401-0.703
		l0.395,1.352l-2.402,0.702l1.471,5.03c0.285,0.976,0.77,1.241,1.671,0.978l1.126-0.329l0.417,1.426l-1.352,0.395
		c-1.802,0.527-2.964-0.111-3.491-1.913L64.873,26.206z"/>
	<path fill="#FFFFFF" d="M78.753,22l1.644-0.004l0.004,1.409h0.078c0.544-1.098,1.561-1.648,2.969-1.652
		c1.878-0.005,3.523,1.007,3.533,3.98l0.016,5.791l-1.721,0.004l-0.018-5.556c-0.004-2.034-0.867-2.736-2.198-2.732
		c-1.447,0.004-2.577,1.279-2.571,3.353l0.014,4.949l-1.722,0.005L78.753,22z"/>
	<path fill="#FFFFFF" d="M97.162,23.629l1.585,0.433l-0.365,1.339l0.056,0.015c0.721-0.857,1.691-1.221,2.861-0.901
		c0.377,0.103,0.796,0.278,1.181,0.728l-0.94,1.365c-0.358-0.321-0.691-0.513-1.05-0.611c-1.378-0.376-2.429,0.878-2.866,2.481
		l-1.312,4.812l-1.66-0.454L97.162,23.629z"/>
	<path fill="#FFFFFF" d="M109.729,28.144l1.537,0.775l-4.299,8.521l-1.538-0.775L109.729,28.144z M111.809,23.849l1.676,0.845
		l-0.882,1.746l-1.676-0.845L111.809,23.849z"/>
	<path fill="#FFFFFF" d="M122.351,36.069c1.011,0.864,1.538,1.933,1.201,3.291l0.06,0.05c0.753-1.001,1.604-1.997,2.023-2.488
		l1.982-2.319l1.309,1.118l-9.301,10.88l-1.248-1.067l0.965-1.129l-0.059-0.051c-1.289,0.545-2.545,0.088-3.557-0.776
		c-1.843-1.575-2.041-4.112-0.008-6.49S120.508,34.494,122.351,36.069z M116.99,42.702c1.189,1.017,2.953,0.878,4.427-0.846
		s1.336-3.488,0.146-4.505c-1.188-1.016-3.004-0.818-4.478,0.906C115.612,39.981,115.801,41.686,116.99,42.702z"/>
	<path fill="#FFFFFF" d="M134.527,49.91c1.36,2.101,0.883,4.459-1.514,6.011l-0.59,0.383l-3.785-5.844
		c-1.631,1.15-2.129,2.754-1.226,4.149c0.765,1.182,1.825,1.38,2.653,1.077l0.936,1.445c-1.566,0.711-3.625,0.157-4.837-1.714
		c-1.615-2.495-0.866-4.937,1.694-6.595C130.354,47.208,133.125,47.744,134.527,49.91z M129.776,49.841l2.773,4.284
		c1.359-1.066,1.505-2.208,0.729-3.407C132.578,49.635,131.243,49.264,129.776,49.841z"/>
</g>
<g>
	<path fill="#FFFFFF" d="M36.807,130.377l-0.04-0.045c-1.759,0.294-3.209-0.296-4.567-1.809c-2.573-2.865-2.192-6.859,0.789-9.537
		c2.982-2.678,6.994-2.628,9.619,0.296c2.142,2.385,2.172,5.169,0.776,7.185l-1.254-1.396c0.746-1.248,0.784-2.99-0.745-4.691
		c-1.945-2.167-4.873-2.034-7.142,0.004c-2.269,2.037-2.663,4.993-0.822,7.043c1.502,1.674,3.862,2.312,5.666,0.693l0.291-0.263
		l-2.821-3.142l1.164-1.045l3.918,4.365l-5.294,4.753l-0.784-0.872L36.807,130.377z"/>
	<path fill="#FFFFFF" d="M49.919,136.167l1.771,0.697c0.962,0.371,1.224,0.39,1.455,0.005c0.593-0.988,0.417-2.029-0.739-2.722
		c-1.191-0.713-2.194-0.448-2.804,0.417l-1.409-0.843c0.991-1.504,2.872-2.019,4.936-0.782c2.147,1.285,2.538,3.069,1.413,4.947
		l-3.215,5.369l-1.409-0.844l0.652-1.09l-0.067-0.041c-0.981,0.574-2.199,0.438-3.391-0.275c-1.744-1.045-2.208-2.553-1.384-3.929
		C46.541,135.719,47.806,135.357,49.919,136.167z M52.372,138.161c-0.288,0.101-0.661,0.037-1.104-0.137l-1.704-0.655
		c-1.184-0.459-1.857-0.246-2.279,0.458c-0.423,0.704-0.221,1.509,0.82,2.132c1.274,0.764,2.83,0.601,3.795-1.01L52.372,138.161z"/>
	<path fill="#FFFFFF" d="M63.536,138.141l1.566,0.493l-0.418,1.324l0.056,0.018c0.754-0.829,1.738-1.153,2.895-0.789
		c0.372,0.118,0.783,0.31,1.149,0.772l-0.993,1.327c-0.345-0.335-0.67-0.539-1.023-0.651c-1.361-0.43-2.461,0.782-2.961,2.366
		l-1.5,4.755l-1.641-0.518L63.536,138.141z"/>
	<path fill="#FFFFFF" d="M77.576,145.402l1.895-0.182c1.027-0.105,1.269-0.206,1.3-0.654c0.08-1.152-0.547-1.998-1.894-2.094
		c-1.385-0.096-2.158,0.596-2.31,1.645l-1.639-0.114c0.203-1.79,1.647-3.101,4.046-2.933c2.498,0.173,3.654,1.586,3.502,3.771
		l-0.434,6.242l-1.64-0.114l0.089-1.268l-0.078-0.006c-0.615,0.957-1.763,1.387-3.148,1.291c-2.028-0.142-3.126-1.277-3.014-2.876
		C74.361,146.531,75.325,145.638,77.576,145.402z M80.666,146.068c-0.211,0.22-0.571,0.332-1.046,0.377l-1.815,0.188
		c-1.264,0.129-1.769,0.623-1.826,1.442c-0.057,0.818,0.488,1.444,1.697,1.528c1.482,0.104,2.797-0.746,2.927-2.619L80.666,146.068z
		"/>
	<path fill="#FFFFFF" d="M90.502,141.144l1.606-0.345l0.295,1.377l0.076-0.017c0.306-1.185,1.185-1.934,2.562-2.229
		c1.834-0.395,3.652,0.254,4.276,3.161l1.215,5.656l-1.683,0.361l-1.164-5.428c-0.428-1.988-1.416-2.496-2.716-2.217
		c-1.414,0.305-2.256,1.785-1.821,3.809l1.038,4.836l-1.683,0.362L90.502,141.144z"/>
	<path fill="#FFFFFF" d="M106.861,137.908l-1.633,0.756l-0.592-1.277l1.633-0.756l-1.217-2.625l1.562-0.723l1.216,2.625l2.271-1.052
		l0.592,1.276l-2.271,1.053l2.202,4.755c0.428,0.922,0.946,1.112,1.798,0.718l1.064-0.493l0.625,1.349l-1.277,0.593
		c-1.703,0.788-2.949,0.331-3.738-1.372L106.861,137.908z"/>
	<path fill="#FFFFFF" d="M113.296,127.311l1.53-1.088l1.133,1.594l-1.53,1.088L113.296,127.311z M116.124,131.155l1.403-0.997
		l5.529,7.781l-1.403,0.996L116.124,131.155z"/>
	<path fill="#FFFFFF" d="M126.172,122.021c1.683-1.853,4.084-1.996,6.198-0.077l0.521,0.472l-4.679,5.156
		c1.529,1.281,3.207,1.354,4.324,0.123c0.947-1.043,0.867-2.119,0.361-2.842l1.156-1.273c1.09,1.331,1.082,3.463-0.416,5.113
		c-1.998,2.201-4.551,2.104-6.81,0.052C124.629,126.749,124.437,123.934,126.172,122.021z M127.322,126.632l3.431-3.778
		c-1.38-1.042-2.521-0.891-3.48,0.168C126.404,123.977,126.389,125.362,127.322,126.632z"/>
</g>
<g>
	<path fill="#FFFFFF" d="M83,121.849c-21.422,0-38.849-17.428-38.849-38.85C44.151,61.578,61.578,44.15,83,44.15
		c14.787,0,28.098,8.213,34.737,21.436c0.217,0.431,0.426,0.867,0.627,1.308l0.368,0.724l-35.413,35.412L59.218,78.928l1.272-1.272
		l22.829,22.829l33.229-33.228c-0.141-0.297-0.278-0.581-0.42-0.862C109.796,53.784,97.102,45.95,83,45.95
		c-20.429,0-37.049,16.62-37.049,37.049s16.62,37.05,37.049,37.05c20.43,0,37.05-16.621,37.05-37.05
		c0-3.791-0.571-7.531-1.696-11.117l1.717-0.539c1.181,3.761,1.779,7.682,1.779,11.656C121.85,104.421,104.422,121.849,83,121.849z"
		/>
</g>
</svg>
