<?xml version="1.0" encoding="utf-8"?>
<!-- Generator: Adobe Illustrator 16.0.0, SVG Export Plug-In . SVG Version: 6.00 Build 0)  -->
<!DOCTYPE svg PUBLIC "-//W3C//DTD SVG 1.1//EN" "http://www.w3.org/Graphics/SVG/1.1/DTD/svg11.dtd">
<svg version="1.1" id="Layer_1" xmlns="http://www.w3.org/2000/svg" xmlns:xlink="http://www.w3.org/1999/xlink" x="0px" y="0px"
	 width="60px" height="60px" viewBox="0 0 60 60" enable-background="new 0 0 60 60" xml:space="preserve">
<path fill="#64CE93" d="M56.586,41.874c1.683-3.744,2.535-7.739,2.535-11.874C59.12,14.01,46.11,1.001,30.12,1
	C14.131,1,1.122,14.009,1.121,30c0,7.745,3.017,15.027,8.493,20.505C15.091,55.982,22.373,59,30.119,59c0,0,0.001,0,0.002,0
	c9.836,0,18.921-4.923,24.322-13.201l0.963-1.604h-6.514c1.626-1.431,2.659-3.521,2.659-5.852c0-3.681-2.565-6.766-6.001-7.582
	l0.225-2.073l11.022,5.752c-0.376,2.283-1.042,4.505-1.999,6.636L56.586,41.874z M18.99,40.903l1.947-0.218L19.581,28.59
	c0.129-0.004,0.256-0.019,0.386-0.019c6.692,0,12.137,5.447,12.138,12.143c0,1.211-0.184,2.377-0.515,3.481H12.132v1.951h18.673
	c-1.998,3.973-6.101,6.711-10.84,6.712c-3.241,0-6.288-1.263-8.581-3.555c-2.293-2.295-3.557-5.345-3.556-8.59
	c0-3.244,1.263-6.294,3.557-8.588c1.732-1.731,3.896-2.874,6.247-3.329L18.99,40.903z M9.998,30.75
	c-2.662,2.662-4.128,6.2-4.128,9.964c0,0.471,0.023,0.938,0.068,1.4c-1.584-3.157-2.534-6.609-2.783-10.201l13.678-10.254
	l0.583,5.199C14.622,27.367,12.048,28.699,9.998,30.75z M3.093,29.517c0.055-3.11,0.631-6.096,1.656-8.868h10.173L3.093,29.517z
	 M30.121,57.049c-0.001,0-0.001,0-0.002,0c-3.805,0-7.486-0.788-10.868-2.274c0.238,0.012,0.474,0.035,0.715,0.035
	c5.848-0.001,10.873-3.581,13.006-8.663h18.847C46.72,53.004,38.729,57.049,30.121,57.049z M49.593,38.344
	c0,3.227-2.622,5.851-5.845,5.851s-5.845-2.624-5.845-5.851c0-3.104,2.431-5.646,5.486-5.832l-0.725,6.69l1.947,0.209l0.727-6.691
	C47.79,33.416,49.593,35.67,49.593,38.344z M44.068,26.251h-5.419l-0.531-5.602h6.558L44.068,26.251z M46.002,26.604l1.54-14.204
	H46.45c-1.039,0-1.983-0.655-2.348-1.629l-1.836,0.681c0.52,1.39,1.704,2.415,3.106,2.767l-0.485,4.479h-8.922l0.9,9.504h6.991
	l-0.255,2.348c-4.234,0.078-7.658,3.541-7.658,7.794c0,2.331,1.033,4.421,2.659,5.852H33.61c0.286-1.115,0.453-2.278,0.453-3.481
	c-0.001-7.771-6.325-14.094-14.097-14.094c-0.203,0-0.402,0.021-0.604,0.029l-1.398-12.468h5.015c1.25,0,2.266,1.019,2.266,2.271
	c0,1.252-1.017,2.271-2.266,2.271h-2.065v1.951h2.065c2.33,0,4.225-1.894,4.225-4.222s-1.896-4.222-4.225-4.222h-7.204l0.725,6.468
	H5.564C9.852,9.413,19.243,2.951,30.12,2.951C45.03,2.952,57.161,15.086,57.162,30c0,0.796-0.043,1.585-0.11,2.37L46.002,26.604z"/>
</svg>
