<?xml version="1.0" encoding="utf-8"?>
<!-- Generator: Adobe Illustrator 16.0.0, SVG Export Plug-In . SVG Version: 6.00 Build 0)  -->
<!DOCTYPE svg PUBLIC "-//W3C//DTD SVG 1.1//EN" "http://www.w3.org/Graphics/SVG/1.1/DTD/svg11.dtd">
<svg version="1.1" id="Layer_1" xmlns="http://www.w3.org/2000/svg" xmlns:xlink="http://www.w3.org/1999/xlink" x="0px" y="0px"
	 width="60px" height="60px" viewBox="0 0 60 60" enable-background="new 0 0 60 60" xml:space="preserve">
<g>
	<path fill="#64CE93" d="M30.004,1C14.011,1,1,14.01,1,30.001C1,45.991,14.011,59,30.004,59c9.134,0,17.844-4.385,23.298-11.729
		l1.156-1.558H14.481v1.951H50.49c-5.147,5.988-12.508,9.384-20.486,9.384c-14.917,0-27.053-12.134-27.053-27.048
		c0-14.916,12.136-27.05,27.053-27.05c14.913,0,27.045,12.134,27.045,27.05c0,3.743-0.75,7.371-2.229,10.781l1.79,0.775
		C58.195,37.902,59,34.013,59,30.001C59,14.01,45.992,1,30.004,1z"/>
	<path fill="#64CE93" d="M32.092,21.482c0-2.844-2.311-5.158-5.15-5.158c-2.844,0-5.158,2.314-5.158,5.158
		c0,2.843,2.314,5.156,5.158,5.156C29.781,26.638,32.092,24.325,32.092,21.482z M23.734,21.482c0-1.768,1.439-3.206,3.207-3.206
		c1.764,0,3.199,1.438,3.199,3.206c0,1.767-1.435,3.205-3.199,3.205C25.173,24.687,23.734,23.25,23.734,21.482z"/>
	<path fill="#64CE93" d="M44.672,39.683l7.351-7.353l-7.35-7.359l-1.381,1.379l4.993,5H35.733c1.672-2.419,2.955-4.317,3.095-4.642
		c0.699-1.624,1.055-3.331,1.055-5.072c0-7.138-5.809-12.945-12.948-12.945c-7.14,0-12.949,5.807-12.949,12.945
		c0,1.859,0.403,3.673,1.203,5.4c0.354,0.741,8.47,12.23,10.949,15.734l0.797,1.126l0.796-1.127c1.307-1.85,4.161-5.894,6.649-9.469
		h13.913l-5.001,5.003L44.672,39.683z M26.935,40.517c-4.091-5.788-9.632-13.677-9.98-14.31c-0.675-1.458-1.018-2.997-1.018-4.571
		c0-6.062,4.934-10.994,10.998-10.994c6.064,0,10.997,4.932,10.997,10.994c0,1.474-0.302,2.921-0.884,4.275
		c-0.189,0.368-1.712,2.593-3.688,5.438h-6.46v1.951H32C30.331,35.692,28.503,38.293,26.935,40.517z"/>
</g>
</svg>
