<svg width="51" height="51" viewBox="0 0 51 51" fill="none" xmlns="http://www.w3.org/2000/svg">
  <g clip-path="url(#clip2)">
    <path d="M18.7328 49.0173C18.5512 48.8357 18.2993 48.7312 18.0424 48.7312C17.7855 48.7312 17.5336 48.8357 17.352 49.0173C17.1704 49.199 17.0658 49.4509 17.0658 49.7078C17.0658 49.9646 17.1703 50.2166 17.352 50.3982C17.5336 50.5798 17.7855 50.6843 18.0424 50.6843C18.2993 50.6843 18.5512 50.5798 18.7328 50.3982C18.9144 50.2166 19.0189 49.9646 19.0189 49.7078C19.0189 49.4509 18.9145 49.199 18.7328 49.0173Z" fill="#5FC693"/>
    <path d="M35.2888 41.2283C34.7495 41.2283 34.3122 41.6655 34.3122 42.2048C34.3122 44.022 32.8338 45.5005 31.0166 45.5005C30.4773 45.5005 30.04 45.9377 30.04 46.4771C30.04 47.0165 30.4773 47.4537 31.0166 47.4537C33.9107 47.4537 36.2653 45.0991 36.2653 42.2048C36.2653 41.6655 35.828 41.2283 35.2888 41.2283Z" fill="#5FC693"/>
    <path d="M42.4253 0.684326C37.9021 0.684326 34.2222 4.36421 34.2222 8.88745V20.6062C34.2222 24.7988 37.3845 28.2646 41.4487 28.7492V37.3054H37.9338C36.3959 35.1405 33.8685 33.7252 31.0166 33.7252C30.2699 33.7252 29.5455 33.8227 28.8552 34.0047L25.5979 25.6843H29.5693C29.7987 25.6843 30.0005 25.8308 30.0715 26.0491C30.1438 26.2716 30.0556 26.4413 29.9965 26.5225C29.9375 26.6039 29.8034 26.7402 29.5693 26.7402H28.5711C28.0318 26.7402 27.5945 27.1774 27.5945 27.7167C27.5945 28.2561 28.0318 28.6933 28.5711 28.6933H29.5693C30.3729 28.6933 31.1045 28.3205 31.5768 27.6704C32.0489 27.0204 32.1772 26.2092 31.9289 25.4453C31.5956 24.4201 30.6475 23.7312 29.5692 23.7312H24.1668C23.8439 23.7312 23.5422 23.8907 23.3602 24.1573C23.1781 24.4239 23.1397 24.7632 23.2574 25.0637L25.0915 29.7487H16.9756L16.2406 28.0675L15.963 27.36C15.8163 26.9861 15.4557 26.7402 15.0539 26.7402H10.8076C9.98672 26.7402 9.22041 27.1451 8.75801 27.8234C8.29551 28.5017 8.19844 29.3629 8.49834 30.1272C8.87373 31.0836 9.78018 31.7018 10.8076 31.7018H14.0441L12.4733 34.4225C11.441 33.9744 10.303 33.7252 9.10781 33.7252C4.43232 33.7253 0.628418 37.5293 0.628418 42.2048C0.628418 44.8269 1.8248 47.1746 3.70029 48.7312H1.60498C1.06572 48.7312 0.628418 49.1684 0.628418 49.7078C0.628418 50.2471 1.06572 50.6843 1.60498 50.6843H9.10791C13.4532 50.6843 17.045 47.3987 17.5309 43.1814H21.3553C21.6848 43.1814 21.9921 43.0152 22.1725 42.7395C22.3529 42.4637 22.382 42.1156 22.2501 41.8137L17.8295 31.7019H25.8562L27.0373 34.719C24.362 36.1468 22.537 38.9666 22.537 42.2048C22.537 44.8269 23.7334 47.1746 25.6089 48.7312H22.144C21.6048 48.7312 21.1675 49.1684 21.1675 49.7078C21.1675 50.2471 21.6048 50.6843 22.144 50.6843H31.0165C35.6921 50.6843 39.496 46.8804 39.496 42.2048C39.496 41.1693 39.3091 40.1767 38.9678 39.2586H45.9733C46.5126 39.2586 46.9499 38.8214 46.9499 38.2821C46.9499 37.7427 46.5126 37.3055 45.9733 37.3055H43.4019V28.7493C47.4661 28.2647 50.6284 24.7989 50.6284 20.6063V8.88745C50.6284 4.36421 46.9484 0.684326 42.4253 0.684326ZM10.8076 29.7488C10.5891 29.7488 10.3963 29.6172 10.3164 29.4138C10.2278 29.1879 10.313 29.0098 10.3717 28.9238C10.4304 28.8377 10.5649 28.6934 10.8076 28.6934H14.3881L14.8022 29.7488H10.8076ZM9.10791 48.7312C5.50918 48.7312 2.58154 45.8035 2.58154 42.2048C2.58154 38.6062 5.50918 35.6785 9.10791 35.6785C9.94756 35.6785 10.7498 35.8396 11.4878 36.1297L8.26221 41.7166C8.08779 42.0187 8.08779 42.391 8.26221 42.6931C8.43662 42.9953 8.75908 43.1814 9.10791 43.1814H12.2559C11.8387 44.5233 10.5853 45.5005 9.10791 45.5005C8.56865 45.5005 8.13135 45.9377 8.13135 46.4771C8.13135 47.0165 8.56865 47.4537 9.10791 47.4537C11.6684 47.4537 13.8051 45.6104 14.2643 43.1814H15.561C15.0883 46.3184 12.3747 48.7312 9.10791 48.7312ZM10.7993 41.2283L13.1779 37.1085C14.4327 38.1126 15.3108 39.5685 15.561 41.2283H10.7993ZM19.8625 41.2283H17.5309C17.2566 38.8482 15.9936 36.7649 14.1635 35.4014L15.957 32.2949L19.8625 41.2283ZM31.0166 48.7312C27.4179 48.7312 24.4901 45.8035 24.4901 42.2048C24.4901 39.7934 25.8059 37.6848 27.7561 36.5549L30.1072 42.5609C30.258 42.9461 30.6266 43.1817 31.0168 43.1817C31.1352 43.1817 31.2556 43.16 31.3726 43.1142C31.8748 42.9175 32.1226 42.3511 31.9259 41.8488L29.574 35.8411C30.0385 35.7358 30.5208 35.6784 31.0166 35.6784C34.6153 35.6784 37.543 38.6061 37.543 42.2047C37.543 45.8034 34.6152 48.7312 31.0166 48.7312ZM48.6753 20.6062C48.6753 23.7203 46.3858 26.3091 43.4019 26.7794V22.7185L46.0041 19.9403C46.3728 19.5466 46.3525 18.9287 45.9589 18.56C45.5654 18.1914 44.9474 18.2116 44.5785 18.6051L43.4019 19.8613V16.7195L46.0041 13.9413C46.3728 13.5476 46.3525 12.9296 45.9589 12.5609C45.5654 12.1922 44.9474 12.2125 44.5785 12.606L43.4019 13.8624V12.1589C43.4019 11.6196 42.9646 11.1824 42.4253 11.1824C41.886 11.1824 41.4487 11.6196 41.4487 12.1589V16.5562L40.4434 15.4829C40.0746 15.0892 39.4566 15.0691 39.063 15.4377C38.6693 15.8064 38.6491 16.4245 39.0178 16.818L41.4487 19.4133V26.7793C38.4647 26.309 36.1753 23.7202 36.1753 20.6061V8.88745C36.1753 5.44116 38.979 2.63745 42.4253 2.63745C45.8716 2.63745 48.6753 5.44116 48.6753 8.88745V20.6062Z" fill="#5FC693"/>
    <path d="M49.6518 37.3054H49.6391C49.0998 37.3054 48.6625 37.7426 48.6625 38.282C48.6625 38.8213 49.0998 39.2585 49.6391 39.2585H49.6518C50.1911 39.2585 50.6284 38.8213 50.6284 38.282C50.6284 37.7426 50.1911 37.3054 49.6518 37.3054Z" fill="#5FC693"/>
    <path d="M23.952 14.2259H22.3316C22.7161 13.4449 22.9229 12.5786 22.9229 11.6932C22.9229 8.53061 20.35 5.95776 17.1875 5.95776C14.8324 5.95776 12.7708 7.39399 11.8975 9.4769C11.3373 9.20747 10.7182 9.06284 10.0848 9.06284C7.77832 9.06274 5.90186 10.9392 5.90186 13.2456C5.90186 14.1782 6.20293 15.0611 6.77236 15.7991C6.95732 16.0386 7.24277 16.179 7.54551 16.179H23.952C24.4912 16.179 24.9285 15.7418 24.9285 15.2025C24.9285 14.6631 24.4912 14.2259 23.952 14.2259ZM19.9957 14.2258H8.08135C7.93242 13.9233 7.85498 13.5909 7.85498 13.2456C7.85498 12.0162 8.85527 11.0159 10.0848 11.0159C10.7149 11.0159 11.3188 11.2847 11.7415 11.7536C11.9975 12.0374 12.3953 12.1459 12.76 12.0311C13.1245 11.9164 13.3887 11.5996 13.4359 11.2203C13.6707 9.33354 15.2835 7.91079 17.1874 7.91079C19.2729 7.91079 20.9697 9.60757 20.9697 11.6931C20.9697 12.6296 20.6185 13.5343 19.9957 14.2258Z" fill="#5FC693"/>
  </g>
  <defs>
    <clipPath id="clip2">
      <rect width="50" height="50" fill="white" transform="translate(0.628418 0.684326)"/>
    </clipPath>
  </defs>
</svg>
