<?xml version="1.0" encoding="UTF-8"?>
<svg width="58px" height="58px" viewBox="0 0 58 58" version="1.1" xmlns="http://www.w3.org/2000/svg" xmlns:xlink="http://www.w3.org/1999/xlink">
    <!-- Generator: Sketch 52.5 (67469) - http://www.bohemiancoding.com/sketch -->
    <title>Group 10</title>
    <desc>Created with Sketch.</desc>
    <defs>
        <polygon id="path-1" points="0 0.16750105 57.7235228 0.16750105 57.7235228 57.275 0 57.275"></polygon>
        <polygon id="path-3" points="0 57.275 57.7235228 57.275 57.7235228 0.166813043 0 0.166813043"></polygon>
    </defs>
    <g id="Designs" stroke="none" stroke-width="1" fill="none" fill-rule="evenodd">
        <g id="Modal-Change-Pasword" transform="translate(-584.000000, -292.000000)">
            <g id="Group-10" transform="translate(584.000000, 292.000000)">
                <polygon id="Fill-1" fill="#59BA8C" points="36.6342756 23.2 29.725 16.4188771 31.1312658 15.0397539 36.6342756 20.4391514 49.3437342 7.975 50.75 9.35932747"></polygon>
                <g id="Group-9">
                    <g id="Group-4">
                        <mask id="mask-2" fill="white">
                            <use xlink:href="#path-1"></use>
                        </mask>
                        <g id="Clip-3"></g>
                        <path d="M28.8942036,57.275 C21.4926786,57.275 14.0937699,54.4937739 8.46086663,48.928737 C3.00325576,43.5394652 -0.000261630435,36.371863 -0.000261630435,28.7493391 C-0.000261630435,21.1268152 3.00325576,13.9566283 8.46086663,8.56477174 C18.4970101,-1.34786957 34.1451264,-2.6350913 45.6673308,5.50697391 L44.5240058,7.08110652 C33.7866927,-0.505230435 19.200796,0.694108696 9.84750793,9.93987609 C4.76141228,14.9621087 1.96196663,21.6437717 1.96196663,28.7493391 C1.96196663,35.8549065 4.76141228,42.5339848 9.84750793,47.5536326 C20.3467373,57.9341196 37.433821,57.9341196 47.930434,47.5588022 C58.2334405,37.382513 58.3956514,20.6667239 48.291484,10.3017457 L47.9225851,9.93470652 L49.3196916,8.5699413 L49.7042884,8.96024348 C60.5462536,20.0773935 60.3735775,38.0106152 49.3170753,48.9313217 C43.6867884,54.4937739 36.290496,57.275 28.8942036,57.275" id="Fill-2" fill="#59BA8C" mask="url(#mask-2)"></path>
                    </g>
                    <mask id="mask-4" fill="white">
                        <use xlink:href="#path-3"></use>
                    </mask>
                    <g id="Clip-6"></g>
                    <path d="M15.739687,41.722363 L28.884,41.722363 L28.884,28.7338304 L15.739687,28.7338304 L15.739687,41.722363 Z M13.9082739,43.5317109 L30.715413,43.5317109 L30.715413,26.9270674 L13.9082739,26.9270674 L13.9082739,43.5317109 Z" id="Fill-5" fill="#59BA8C" mask="url(#mask-4)"></path>
                    <path d="M28.3782684,27.3227976 L26.5468553,27.3227976 L26.5468553,25.1619193 C26.5468553,22.8537085 24.6474184,20.9771563 22.3110586,20.9771563 C19.9773151,20.9771563 18.0752618,22.8537085 18.0752618,25.1619193 L18.0752618,27.2142367 L16.2438488,27.2142367 L16.2438488,25.1619193 C16.2438488,21.8585672 18.9674216,19.1703933 22.3110586,19.1703933 C25.6546955,19.1703933 28.3782684,21.8585672 28.3782684,25.1619193 L28.3782684,27.3227976 Z" id="Fill-7" fill="#59BA8C" mask="url(#mask-4)"></path>
                    <path d="M22.3113202,33.4187489 C21.3014267,33.4187489 20.4799072,34.2303707 20.4799072,35.2280967 C20.4799072,36.2258228 21.3014267,37.0374446 22.3113202,37.0374446 C23.3212137,37.0374446 24.1427333,36.2258228 24.1427333,35.2280967 C24.1427333,34.2303707 23.3212137,33.4187489 22.3113202,33.4187489 M22.3113202,38.5883141 C20.43543,38.5883141 18.9101246,37.0813859 18.9101246,35.2280967 C18.9101246,33.3748076 20.43543,31.8678793 22.3113202,31.8678793 C24.1872104,31.8678793 25.7125159,33.3748076 25.7125159,35.2280967 C25.7125159,37.0813859 24.1872104,38.5883141 22.3113202,38.5883141" id="Fill-8" fill="#59BA8C" mask="url(#mask-4)"></path>
                </g>
            </g>
        </g>
    </g>
</svg>