<svg xmlns="http://www.w3.org/2000/svg" width="40" height="40" viewBox="0 0 40 40"><style>.a{fill:#FFF;}</style><desc>  Created with Sketch.</desc><g fill="none"><path d="M20 40C9 40 0 31 0 20 0 9 9 0 20 0 31 0 40 9 40 20 40 31 31 40 20 40L20 40ZM20 1.4C9.7 1.4 1.4 9.7 1.4 20 1.4 30.3 9.7 38.6 20 38.6 30.3 38.6 38.6 30.3 38.6 20 38.6 9.7 30.3 1.4 20 1.4L20 1.4Z" class="a"/><path d="M22 14C20.1 14 18.9 15.2 18.9 17.1L18.9 18.6 17.3 18.6C17.1 18.6 17 18.7 17 18.8L17 20.9C17 21.1 17.1 21.2 17.3 21.2L18.9 21.2 18.9 26.5C18.9 26.6 19 26.7 19.2 26.7L21.3 26.7C21.5 26.7 21.6 26.6 21.6 26.5L21.6 21.2 23.5 21.2C23.7 21.2 23.8 21.1 23.8 20.9L23.8 18.8C23.8 18.8 23.8 18.7 23.7 18.6 23.7 18.6 23.6 18.6 23.5 18.6L21.6 18.6 21.6 17.3C21.6 16.8 21.7 16.5 22.5 16.5L23.6 16.5C23.8 16.5 23.9 16.3 23.9 16.2L23.9 14.3C23.9 14.1 23.8 14 23.6 14L22 14 22 14Z" class="a"/></g></svg>
