<svg xmlns="http://www.w3.org/2000/svg" width="237" height="237" viewBox="0 0 237 237"><desc>  Created with Sketch.</desc><g fill="none"><path d="M44.8 7.7C61.8-0.5 82-1.7 100 4.1 115.7 9.2 129.5 19.7 138.7 33.4 147.4 46.3 151.6 62 151.3 77.5 148.3 77.5 145.3 77.4 142.3 77.2 142.8 56.3 133.1 35.3 116.2 22.8 101.6 11.6 82 7 64 10.8 38.4 15.7 17.2 37.2 12.7 62.8 9.3 79.8 13.3 98 23.3 112.2 20.7 120.8 17.6 129.3 14.9 137.9 23.6 135.1 32.2 132 40.9 129.4 54.8 138.6 72.3 142.2 88.8 139.2 88 142.3 87.4 145.4 87 148.6 71.2 150.7 54.8 147.7 40.8 140 39.3 138.9 37.6 140 36.1 140.4 24.3 144.4 12.5 148.2 0.7 152.1 4.8 139.3 8.9 126.6 13.3 113.9 10.1 108 7.1 101.9 5.4 95.4 0.3 77.9 1.9 58.4 10.1 42 17.3 27.1 29.8 14.8 44.8 7.7L44.8 7.7Z" fill="#7AB2F8"/><path d="M40.2 49.7C64.6 49.3 89.1 49.6 113.5 49.5 113.5 52.5 113.5 55.5 113.6 58.5 113 58.6 111.7 58.7 111.1 58.8 87.5 58.7 63.9 58.8 40.3 58.7 40.3 55.7 40.3 52.7 40.2 49.7L40.2 49.7Z" fill="#7AB2F8"/><path d="M40.3 71.3C64.6 71.2 89 71.3 113.3 71.2 113.6 74.3 113.5 77.4 113.5 80.5 89.1 80.5 64.6 80.7 40.2 80.4 40.3 77.3 40.3 74.3 40.3 71.3L40.3 71.3Z" fill="#7AB2F8"/><path d="M40.2 92.9C55.2 92.5 70.3 92.9 85.3 92.7 85.7 95.7 85.5 98.8 85.6 101.9 70.5 102.1 55.3 102 40.2 102 40.2 98.9 40.3 95.9 40.2 92.9L40.2 92.9Z" fill="#7AB2F8"/><path d="M117.5 97.5C144.4 79.4 183.1 80.8 208 101.9 222.3 113.5 231.9 130.7 234.3 149 236.7 165.8 233.1 183.5 224.2 198 228.4 210.9 232.7 223.7 237 236.5L237 236.6C224 232.3 211 228.1 198 223.7 179.8 234.2 157.2 236.6 137.3 229.9 118.7 223.9 102.9 210.2 94.2 192.7 87.4 179.2 85 163.6 87 148.6 87.4 145.4 88 142.3 88.8 139.2 92.9 122.5 103.2 107.2 117.5 97.5L117.5 97.5ZM115.1 111.1C101.3 124.1 94.6 143.4 95.4 162.1 96 175.9 101.1 189.5 109.9 200.3 120.2 213.2 135.6 221.9 152 224 167.5 226.2 183.8 222.4 196.8 213.7 205.4 216.6 214.1 219.5 222.7 222.4 219.9 213.8 217.1 205.3 214.2 196.8 224.2 182.5 228.3 164.2 224.8 147 221.6 129.5 210.7 113.7 195.7 104.2 171.3 88.3 136.3 91.1 115.1 111.1L115.1 111.1Z" fill="#555555"/><path d="M126 133.2C150.4 133.2 174.8 133.3 199.2 133.2 199.3 136.3 199.3 139.4 199.3 142.5L126 142.5 126 133.2 126 133.2Z" fill="#555555"/><path d="M126 154.8C150.4 154.8 174.8 154.7 199.3 154.8L199.3 164 126 164 126 154.8 126 154.8Z" fill="#555555"/><path d="M126 176.2C141.1 176.3 156.2 176.1 171.3 176.4 171.2 179.4 171.2 182.4 171.3 185.5 156.2 185.6 141.1 185.4 126.1 185.6 126 182.5 126 179.4 126 176.2L126 176.2Z" fill="#555555"/></g></svg>
