<svg xmlns="http://www.w3.org/2000/svg" width="44" height="44" viewBox="21 27 44 44"><style>.a{fill:#FFF;}</style><desc>  Created with Sketch.</desc><g fill="none"><path d="M43 71C30.9 71 21 61.1 21 49 21 36.9 30.9 27 43 27 55.1 27 65 36.9 65 49 65 61.1 55.1 71 43 71L43 71 43 71 43 71 43 71 43 71ZM43 28.5C31.7 28.5 22.5 37.7 22.5 49 22.5 60.3 31.7 69.5 43 69.5 54.3 69.5 63.5 60.3 63.5 49 63.5 37.7 54.3 28.5 43 28.5L43 28.5 43 28.5 43 28.5 43 28.5 43 28.5Z" class="a"/><path d="M48.5 44.3L40.3 52.5 36.5 48.7C36.1 48.4 35.6 48.4 35.3 48.7 34.9 49 34.9 49.6 35.3 49.9L39.6 54.3C39.6 54.3 39.6 54.4 39.7 54.4 39.8 54.6 40.1 54.6 40.3 54.6 40.5 54.6 40.8 54.6 40.9 54.4 41 54.4 41 54.3 41 54.3L49.7 45.5C50.1 45.1 50.1 44.6 49.7 44.3 49.4 43.9 48.9 43.9 48.5 44.3L48.5 44.3Z" class="a"/></g></svg>
