<svg xmlns="http://www.w3.org/2000/svg" width="240" height="242" viewBox="0 0 240 242"><desc>  Created with Sketch.</desc><g fill="none"><path d="M24.8 21.8C36.4 10.3 51.8 2.9 68 0.9 80.6-0.4 93.5 0.9 105.2 5.7 122 12.3 136.2 25.3 144.3 41.5 151.8 56 154 73.1 151.1 89.1 150.4 92.4 149.6 95.7 148.6 98.9 140.4 124.1 118 144 91.9 148.9 74.2 152.4 55.4 149.4 39.8 140.3 27.9 144.1 16.2 148.3 4.3 152.3 3 152.8 1.5 152.8 0 152.8L0 152.4C1.2 151.5 1.4 150 1.9 148.7 5.6 137.3 9.6 125.9 13.3 114.4 3.9 99.1 0.5 80.4 3.4 62.8 6 47.3 13.6 32.8 24.8 21.8L24.8 21.8ZM28.1 32C17.5 43.9 11.4 59.9 11.7 75.8 11.6 89.1 16.1 102.2 23.5 113.1 20.6 121.6 18 130.2 15 138.7 23.7 135.9 32.3 132.9 40.9 130.1 54.7 139.1 71.8 143 88.1 140.1 106.9 137.1 124.1 125.3 133.8 108.8 141.2 96.4 144.4 81.5 142.5 67.2 140.4 49.8 131 33.6 117 23.1 105.4 14.2 90.7 9.3 76.1 9.7 57.9 9.8 40 18.3 28.1 32L28.1 32Z" fill="#5FC693"/><path d="M100.5 34.5L109.7 34.5C109.9 44 109.7 53.5 109.8 63 100.3 63 90.9 63.1 81.5 62.9L81.5 53.7C86.3 53.8 91.1 53.7 95.8 53.8 88.2 47.4 77.2 45.3 67.9 48.9 54.8 53.5 46.7 68.6 50.4 82 53.6 95.7 68.2 105.5 82.1 102.9 95 101 105.3 89.2 105.8 76.2 108.9 76.3 111.9 76.5 115 76.5 114.6 85.9 110.7 95.2 103.9 101.8 95.7 110 83.6 113.9 72.2 112.1 62.9 110.8 54.2 105.8 48.4 98.5 41.8 90.4 39 79.3 40.8 69.1 42.6 57.5 50.3 47 60.8 41.8 73.3 35.4 89.3 36.9 100.4 45.5 100.6 41.8 100.5 38.2 100.5 34.5L100.5 34.5Z" fill="#5FC693"/><path d="M148.6 98.9C149.6 95.7 150.4 92.4 151.1 89.1 171.3 86.3 192.6 91.6 208.6 104.4 221.3 114.3 230.7 128.4 234.8 143.9 239.7 162.6 237.4 183.1 227.8 199.9 227.3 201.2 226.1 202.5 226.9 203.9 231 216.4 235.2 228.9 239.3 241.5 226.2 237.2 213.1 232.7 199.9 228.4 184.1 237.5 165 240.5 147.2 236.8 129.7 233.3 113.7 223.3 102.9 209.1 92.4 195.7 86.8 178.5 87.5 161.5 90.5 161.5 93.6 161.5 96.6 161.4 96.3 177 101.4 192.6 111.3 204.7 123.2 219.5 141.9 228.8 161 229 174.3 229.4 187.5 225.5 198.6 218.2 207.3 220.8 216 223.9 224.7 226.8 221.8 218.2 218.9 209.7 216.2 201.1 226.4 186.4 230.5 167.5 226.6 149.9 222.5 129.7 208.2 112 189.4 103.6 176.7 97.7 162.3 96.4 148.6 98.9L148.6 98.9Z" fill="#555555"/><path d="M157.7 180.9C171.1 167.7 184.2 154.3 197.6 141.2 199.7 143.4 202 145.5 204.1 147.8 188.6 163.2 173.2 178.7 157.8 194.1 148.4 184.8 139 175.4 129.7 166 131.8 163.7 134 161.6 136.2 159.4 143.4 166.5 150.6 173.7 157.7 180.9L157.7 180.9Z" fill="#555555"/></g></svg>
