<?xml version="1.0" encoding="utf-8"?>
<!-- Generator: Adobe Illustrator 16.0.0, SVG Export Plug-In . SVG Version: 6.00 Build 0)  -->
<!DOCTYPE svg PUBLIC "-//W3C//DTD SVG 1.1//EN" "http://www.w3.org/Graphics/SVG/1.1/DTD/svg11.dtd">
<svg version="1.1" id="Layer_1" xmlns="http://www.w3.org/2000/svg" xmlns:xlink="http://www.w3.org/1999/xlink" x="0px" y="0px"
	 width="60px" height="60px" viewBox="0 0 60 60" enable-background="new 0 0 60 60" xml:space="preserve">
<g>
	<path fill="#64CE93" d="M30.004,1C14.011,1,1,14.01,1,30.002C1,45.991,14.011,59,30.004,59c9.132,0,17.841-4.385,23.295-11.729
		l1.156-1.558H14.477v1.951h36.011c-5.146,5.988-12.507,9.384-20.483,9.384c-14.917,0-27.053-12.133-27.053-27.047
		c0-14.916,12.136-27.051,27.053-27.051c14.913,0,27.045,12.135,27.045,27.051c0,3.736-0.751,7.364-2.23,10.781l1.79,0.775
		C58.195,37.896,59,34.007,59,30.002C59,14.01,45.992,1,30.004,1z"/>
	<path fill="#64CE93" d="M24.844,21.482c0,2.843,2.315,5.156,5.16,5.156c2.84,0,5.148-2.313,5.148-5.156
		c0-2.843-2.309-5.157-5.148-5.157C27.159,16.326,24.844,18.639,24.844,21.482z M30.004,18.277c1.763,0,3.197,1.438,3.197,3.206
		c0,1.767-1.435,3.205-3.197,3.205c-1.77,0-3.208-1.438-3.208-3.205C26.795,19.715,28.234,18.277,30.004,18.277z"/>
	<path fill="#64CE93" d="M17.048,21.636c0,1.857,0.404,3.671,1.205,5.4c0.354,0.743,8.471,12.231,10.95,15.734L30,43.896
		l0.796-1.126c2.511-3.552,10.729-15.208,11.099-16.062c0.699-1.632,1.055-3.339,1.055-5.072c0-7.138-5.81-12.945-12.95-12.945
		C22.858,8.691,17.048,14.498,17.048,21.636z M40.998,21.636c0,1.467-0.302,2.915-0.884,4.275
		c-0.377,0.733-6.102,8.914-10.116,14.605c-4.091-5.787-9.631-13.674-9.979-14.31c-0.677-1.46-1.02-2.999-1.02-4.571
		c0-6.062,4.935-10.994,11-10.994S40.998,15.574,40.998,21.636z"/>
</g>
</svg>
