<?xml version="1.0" encoding="utf-8"?>
<!-- Generator: Adobe Illustrator 16.0.0, SVG Export Plug-In . SVG Version: 6.00 Build 0)  -->
<!DOCTYPE svg PUBLIC "-//W3C//DTD SVG 1.1//EN" "http://www.w3.org/Graphics/SVG/1.1/DTD/svg11.dtd">
<svg version="1.1" id="Layer_1" xmlns="http://www.w3.org/2000/svg" xmlns:xlink="http://www.w3.org/1999/xlink" x="0px" y="0px"
	 width="60px" height="60px" viewBox="0 0 60 60" enable-background="new 0 0 60 60" xml:space="preserve">
<g>
	<path fill="#64CE93" d="M50.507,9.494C45.029,4.017,37.746,1,30,1C14.009,1,1,14.01,1,30c0,2.171,0.24,4.333,0.713,6.419
		l1.903-0.432C3.175,34.043,2.951,32.027,2.951,30C2.951,15.085,15.085,2.951,30,2.951c7.225,0,14.018,2.813,19.128,7.923
		C54.236,15.982,57.05,22.775,57.049,30c0.001,7.225-2.812,14.017-7.921,19.126c-5.109,5.109-11.903,7.923-19.129,7.923
		c-2.621,0-5.189-0.375-7.642-1.095c9.15-0.192,16.538-7.681,16.538-16.873c0-0.97-0.101-1.915-0.258-2.84
		c6.609-0.558,11.818-6.106,11.818-12.857c0-7.12-5.791-12.912-12.91-12.912c-6.796,0-12.369,5.279-12.864,11.951
		c-0.875-0.14-1.764-0.233-2.677-0.233c-9.313,0-16.891,7.578-16.891,16.892c0,4.52,1.795,8.62,4.697,11.656L9.77,50.778
		C15.215,56.08,22.399,59,29.999,59c7.748,0,15.032-3.018,20.509-8.494C55.984,45.028,59.001,37.745,59,30
		C59.001,22.254,55.984,14.971,50.507,9.494z M36.569,23.203c-1.203-0.378-2.078-1.42-2.078-2.657c0-1.237,0.875-2.278,2.078-2.656
		V23.203z M38.521,25.476c1.203,0.378,2.078,1.42,2.078,2.657c0,1.236-0.875,2.277-2.078,2.654V25.476z M37.545,12.423
		c6.043,0,10.959,4.917,10.959,10.961c0,5.714-4.396,10.416-9.983,10.912v-1.49c2.294-0.434,4.029-2.362,4.029-4.672
		c0-2.312-1.735-4.241-4.029-4.675V17.89c1.203,0.378,2.078,1.419,2.078,2.656h1.951c0-2.311-1.735-4.24-4.029-4.674v-1.706h-1.951
		v1.706c-2.294,0.434-4.029,2.363-4.029,4.674c0,2.312,1.735,4.241,4.029,4.675v5.348c-2.18-3.715-5.729-6.522-9.958-7.725
		C26.895,17.052,31.684,12.423,37.545,12.423z M22.004,24.141c8.238,0,14.939,6.702,14.939,14.94c0,8.236-6.702,14.938-14.939,14.94
		c-8.238-0.002-14.939-6.704-14.939-14.94C7.064,30.843,13.766,24.141,22.004,24.141z"/>
	<path fill="#64CE93" d="M22.292,48.753c2.739,0,5.363-1.175,7.199-3.226l-1.453-1.302c-1.467,1.637-3.561,2.576-5.746,2.576
		c-2.949,0-5.514-1.661-6.815-4.096h10.061v-1.951H14.757c-0.12-0.54-0.188-1.099-0.188-1.674c0-0.519,0.052-1.029,0.151-1.526
		h12.788v-1.951H15.4c0.366-0.723,0.842-1.393,1.432-1.981c1.458-1.458,3.394-2.261,5.456-2.261c0.002,0,0.004,0,0.006,0
		c2.199-0.049,4.276,0.936,5.744,2.576l1.454-1.303c-1.835-2.049-4.454-3.224-7.185-3.224c-0.007,0-0.016,0-0.022,0
		c-2.581,0-5.007,1.006-6.833,2.832c-0.972,0.972-1.704,2.116-2.183,3.361H10.11v1.951h2.638c-0.08,0.501-0.131,1.009-0.131,1.526
		c0,0.571,0.06,1.13,0.155,1.674H10.11v1.951h3.219C14.767,46.248,18.24,48.753,22.292,48.753z"/>
</g>
</svg>
