<?xml version="1.0" encoding="utf-8"?>
<!-- Generator: Adobe Illustrator 22.1.0, SVG Export Plug-In . SVG Version: 6.00 Build 0)  -->
<svg version="1.1" id="Layer_1" xmlns="http://www.w3.org/2000/svg" xmlns:xlink="http://www.w3.org/1999/xlink" x="0px" y="0px"
	 viewBox="0 0 21.9 24" style="enable-background:new 0 0 21.9 24;" xml:space="preserve">
<g>
	<polygon class="st0" points="11.1,11.5 21.9,22.3 11.1,11.5 	"/>
	<polygon class="st0" points="6.8,7.2 7.4,7.9 7.4,7.9 6.8,7.2 	"/>
	<polygon class="st1" points="11.1,7.2 16.5,7.2 9.3,0 5.8,3.4 11.1,8.7 	"/>
	<polygon class="st1" points="11.1,11.5 7.4,7.9 7.4,7.9 6.8,7.2 6.8,7.2 4.4,4.8 4.4,4.8 1.4,1.8 0,3.2 3,6.3 2.1,7.2 4,7.2
		7.4,10.7 7.4,14 0,21.4 2.6,24 11.1,15.5 11.1,14.4 13.1,16.3 10.7,18.7 15.9,24 18.3,21.6 20.5,23.7 21.9,22.3 11.1,11.5 	"/>
</g>
</svg>
