<svg xmlns="http://www.w3.org/2000/svg" width="271" height="236" viewBox="0 0 271 236"><desc>  Created with Sketch.</desc><g fill="none">
<path d="M77 1C108.8 1.3 131.6 21.9 140.7 37.3 147.7 48.9 151.2 62.5 151.2 76L142.1 76C141.8 62.8 138 49.5 130.4 38.6 118.6 21.1 98.1 9.8 77 9.7 50.3 8.8 24.3 26.1 14.6 50.9 8.2 66.3 8 84.2 14.2 99.7 20.2 115.3 32.4 128.4 47.6 135.5 60.1 141.6 74.5 143.1 88.2 140.9 87.4 144.1 86.8 147.3 86.4 150.6 70 152.6 52.9 149.8 38.6 141.4 20.7 131.3 7.2 113.7 2.5 93.6 1.8 89.7 0.3 85.9 0.9 81.9 1.3 76.6 0.9 71.3 1 66 3 49.6 10.8 34 22.4 22.4 33.8 11 52.4 0.9 77 1Z" fill="#7AB2F8" class="svg-p1"/>
<path d="M58.9 24.7C71.1 20.6 84.8 21.3 96.7 26.3 109.3 31.4 119.5 41.7 125 54.1 130.4 66.2 130.8 80.1 127 92.8 120.8 95.7 115.3 100 110 104.3 115.1 97.4 119 89.6 119.9 81 121.8 66.6 115.8 51.6 104.8 42.2 94.4 33.2 79.6 29.2 66.1 32.4 56.3 34.6 47.4 40.2 41.1 48.1 32.8 58.3 29.3 72.5 32.4 85.4 35.4 98.9 45 110.8 57.7 116.3 67.7 120.9 79.3 121.5 89.7 117.9 95 116.2 99.7 113.2 104.3 110.2 100.1 115.4 96.2 120.9 93.4 127 83.2 129.6 72.4 130.6 62.2 127.8 45.7 123.7 31.6 111.1 25.6 95.2 21.4 84.1 20.8 71.6 24.3 60.3 29.1 43.8 42.5 30 58.9 24.7L58.9 24.7Z" fill="#7AB2F8" class="svg-p1"/>
<path d="M68.3 43.5C78.4 41.2 89.5 43.8 97.4 50.6 107.5 59.1 111.4 73.8 107.2 86.2 103.9 96.4 95.3 104.7 85 107.6 75.1 110.4 64 108.5 55.8 102.2 44.8 94.1 40 78.9 44.1 66 47.4 54.9 57 46 68.3 43.5L68.3 43.5ZM70.5 52.5C59.9 54.9 51.6 65.1 52 76 51.8 87.6 61.5 98.4 73 99.4 81.3 100.4 90 96.7 94.9 89.9 99.7 83.5 100.9 74.6 98 67.1 93.9 56.4 81.6 49.8 70.5 52.5L70.5 52.5Z" fill="#7AB2F8" class="svg-p1"/>
<path d="M127 92.8C142.2 84.8 160.3 82.6 177.1 86.3 194.4 89.9 210.2 99.9 220.9 113.9 225.6 109.3 230.3 104.6 234.9 100 238.2 96.7 242.5 94.3 247.1 93.7 256.4 92.2 266.2 98.2 269.1 107.1 271.9 114.4 269.7 122.9 264.3 128.3 255.1 137.6 245.8 146.9 236.5 156.1 237.1 171.9 233 188 224.2 201.2 214.3 216.5 198.7 227.9 181.1 232.6 166 236.7 149.7 236.1 135.1 230.7 116.3 223.9 100.5 209.2 92.4 190.9 86.8 178.3 84.6 164.2 86.4 150.6 86.8 147.3 87.4 144.1 88.2 140.9 89.4 136.1 91.2 131.4 93.4 127 96.2 120.9 100.1 115.4 104.3 110.2 106.2 108.2 108.1 106.3 110 104.3 115.3 100 120.8 95.7 127 92.8L127 92.8ZM155.1 94.1C137.5 95.7 120.7 104.7 109.7 118.6 98 133 92.7 152.6 96 170.9 98.7 186.9 107.5 201.7 120.1 211.6 130.1 219.6 142.4 224.5 155.1 225.7 174.1 227.6 193.6 220.5 207.2 207.2 218.5 196.3 225.6 181.3 227 165.7 216.5 176.1 206.1 186.5 195.8 197 172 197 148.2 197.2 124.4 196.8 124.5 193.8 124.5 190.7 124.6 187.7 138.7 187.8 152.7 187.7 166.8 187.8 166.7 183.6 166.9 179.5 166.6 175.4 152.6 175.6 138.5 175.5 124.5 175.5 124.5 172.4 124.5 169.4 124.4 166.4 139.2 165.9 154.1 166.7 168.8 166 172.9 162 177 157.9 181 153.8 162.1 153.7 143.3 153.9 124.4 153.6 124.5 150.6 124.5 147.6 124.5 144.5 146.4 144.5 168.3 144.4 190.2 144.6 198.3 136.7 206.1 128.6 214.2 120.7 201.1 102.3 177.6 91.8 155.1 94.1L155.1 94.1ZM247.1 103.2C243.9 104 241.1 106.3 239.7 109.4 236.7 115.2 240.4 123.1 246.8 124.7 253.1 126.7 260.1 121.7 260.9 115.2 262 107.9 254.3 101 247.1 103.2L247.1 103.2ZM176 172.1L176 187.8C181.3 187.7 186.5 187.8 191.7 187.7 209.5 169.8 227.5 152 245.3 134 237.7 132.2 231.5 126 229.7 118.4 211.9 136.3 193.9 154.2 176 172.1L176 172.1Z" fill="#555555" class="svg-p2"/>
<path d="M124.4 131.9C124.5 128.8 124.4 125.8 124.6 122.7 148.3 122.9 172.1 122.7 195.8 122.8 195.7 125.9 195.7 128.9 195.8 132 172 132 148.2 132.1 124.4 131.9L124.4 131.9Z" fill="#555555" class="svg-p2"/></g></svg>
