<?xml version="1.0" encoding="utf-8"?>
<!-- Generator: Adobe Illustrator 16.0.0, SVG Export Plug-In . SVG Version: 6.00 Build 0)  -->
<!DOCTYPE svg PUBLIC "-//W3C//DTD SVG 1.1//EN" "http://www.w3.org/Graphics/SVG/1.1/DTD/svg11.dtd">
<svg version="1.1" id="Layer_1" xmlns="http://www.w3.org/2000/svg" xmlns:xlink="http://www.w3.org/1999/xlink" x="0px" y="0px"
	 width="60px" height="60px" viewBox="0 0 60 60" enable-background="new 0 0 60 60" xml:space="preserve">
<g>
	<path fill="#64CE93" d="M30.006,24.777c2.382,0,4.318-1.939,4.318-4.322c0-2.381-1.937-4.318-4.318-4.318
		c-2.381,0-4.319,1.937-4.319,4.318C25.687,22.838,27.625,24.777,30.006,24.777z M30.006,18.088c1.305,0,2.367,1.062,2.367,2.367
		c0,1.307-1.062,2.371-2.367,2.371c-1.306,0-2.368-1.063-2.368-2.371C27.638,19.149,28.7,18.088,30.006,18.088z"/>
	<path fill="#64CE93" d="M30,1C14.009,1,1,14.009,1,30c0,3.246,0.532,6.432,1.581,9.47l1.845-0.638C3.447,36,2.951,33.027,2.951,30
		C2.951,15.085,15.085,2.951,30,2.951S57.049,15.085,57.049,30S44.915,57.049,30,57.049c-9.462,0-18.266-4.985-23.156-13.061
		l8.928-8.883c0.387-0.396,0.906-0.613,1.461-0.613H35c1.13,0,2.05,0.92,2.05,2.05c0,1.092-0.859,1.98-1.936,2.041h-0.474v0.012
		H23.874v1.951H35c0.039,0,0.075-0.011,0.114-0.012h0.955c1.67,0,2.442-0.696,2.679-0.964l7.935-7.931
		c0.394-0.396,0.918-0.612,1.475-0.612c0.558,0,1.081,0.217,1.476,0.612c0.812,0.812,0.812,2.136,0,2.95l-9.286,9.288
		c-0.54,0.538-1.383,1.157-3.099,1.157H26.342c-2.093,0-3.279,1.217-3.536,1.511l-3.96,3.963l1.38,1.379l3.987-3.989l0.079-0.089
		c0.006-0.008,0.683-0.823,2.051-0.823h10.906c2.457,0,3.731-0.985,4.477-1.728l9.288-9.29c1.572-1.574,1.571-4.136,0-5.708
		c-0.763-0.764-1.776-1.184-2.855-1.184h-0.001c-1.078,0-2.092,0.421-2.854,1.185L39,36.563c0-0.007,0.002-0.014,0.002-0.021
		c0-2.206-1.795-4.001-4.002-4.001h-1.524c0.523-0.715,0.843-1.589,0.843-2.54c0-2.382-1.937-4.321-4.318-4.321
		c-2.381,0-4.319,1.938-4.319,4.321c0,0.951,0.319,1.825,0.843,2.54h-9.291c-1.085,0-2.099,0.426-2.847,1.191l-9.983,9.932
		l0.369,0.647C9.924,53.372,19.59,59,30,59c15.99,0,29-13.01,29-29C59,14.009,45.99,1,30,1z M30,27.631
		c1.305,0,2.367,1.063,2.367,2.37c0,1.306-1.062,2.368-2.367,2.368c-1.306,0-2.368-1.062-2.368-2.368
		C27.632,28.694,28.694,27.631,30,27.631z"/>
</g>
</svg>
