<?xml version="1.0" encoding="utf-8"?>
<!-- Generator: Adobe Illustrator 16.0.0, SVG Export Plug-In . SVG Version: 6.00 Build 0)  -->
<!DOCTYPE svg PUBLIC "-//W3C//DTD SVG 1.1//EN" "http://www.w3.org/Graphics/SVG/1.1/DTD/svg11.dtd">
<svg version="1.1" id="Layer_1" xmlns="http://www.w3.org/2000/svg" xmlns:xlink="http://www.w3.org/1999/xlink" x="0px" y="0px"
	 width="60px" height="60px" viewBox="0 0 60 60" enable-background="new 0 0 60 60" xml:space="preserve">
<g>
	<polygon fill="#64CE93" points="18.164,27.672 18.164,11.237 10.564,16.255 11.64,17.884 16.212,14.864 16.212,27.672 	"/>
	<path fill="#64CE93" d="M58.109,37.161C58.7,34.833,59,32.423,59,29.999C59,14.009,45.991,1,30.001,1C14.01,1,1,14.009,1,29.999
		C1,45.99,14.01,59,30.001,59c11.756,0,22.27-7.014,26.785-17.868l0.562-1.351h-10.31c-0.364-0.835-0.882-1.604-1.548-2.265
		c-0.511-0.506-1.087-0.929-1.708-1.263c1.281-0.966,2.113-2.485,2.113-4.198c0-1.427-0.557-2.768-1.565-3.777
		c-1.01-1.007-2.349-1.562-3.772-1.562c-0.003,0-0.008,0-0.012,0c-1.513,0-2.959,0.649-3.97,1.781l1.455,1.299
		c0.641-0.718,1.557-1.129,2.518-1.129c0.001,0,0.004,0,0.008,0c0.903,0,1.754,0.352,2.395,0.992
		c0.641,0.64,0.993,1.491,0.993,2.396c0,1.868-1.489,3.331-3.392,3.331v0.011c-0.086-0.002-0.171-0.012-0.257-0.011h-1.093v1.951
		h1.094c0.001,0,0.003,0,0.005,0c1.442,0,2.797,0.556,3.814,1.564c0.271,0.271,0.505,0.565,0.709,0.879h-20.91l7.695-7.695
		c1.258-1.256,1.937-2.927,1.912-4.708c-0.027-1.706-0.706-3.309-1.912-4.515c-2.543-2.543-6.679-2.542-9.22,0
		c-1.194,1.192-1.907,2.99-1.907,4.81h1.951c0-1.313,0.499-2.595,1.335-3.429c1.781-1.782,4.68-1.781,6.461,0
		c0.845,0.845,1.321,1.97,1.34,3.164c0.017,1.248-0.458,2.419-1.34,3.3L19.206,41.732h26.396c0.057,0.316,0.094,0.638,0.094,0.966
		c0,2.979-2.422,5.399-5.398,5.399c-1.527,0-2.991-0.656-4.016-1.801l-1.454,1.3c1.395,1.559,3.388,2.453,5.47,2.453
		c4.053,0,7.35-3.298,7.35-7.352c0-0.326-0.028-0.647-0.07-0.966h6.804c-4.496,9.353-13.909,15.316-24.379,15.316
		c-14.916,0-27.05-12.135-27.05-27.05c0-14.915,12.134-27.048,27.05-27.048c14.914,0,27.048,12.133,27.048,27.048
		c0,2.263-0.279,4.511-0.831,6.682L58.109,37.161z"/>
</g>
</svg>
