<svg width="45" height="45" viewBox="0 0 45 45" fill="none" xmlns="http://www.w3.org/2000/svg">
  <g clip-path="url(#clip1)">
    <path d="M22.6285 44.1843C22.3685 44.1843 22.1085 44.1059 21.8859 43.9489C21.0827 43.3829 19.7342 42.2732 17.8709 40.201C10.7085 32.2354 6.31873 26.7878 6.31873 15.6483V6.62998C6.31873 6.07938 6.66841 5.58962 7.18919 5.4107L22.2099 0.254193C22.4813 0.161037 22.7758 0.161037 23.0471 0.254193L38.0677 5.41079C38.5886 5.58962 38.9383 6.07938 38.9383 6.63007V15.6483C38.9383 26.7879 34.5485 32.2355 27.386 40.201C25.523 42.273 24.1744 43.3828 23.3711 43.9489C23.1485 44.1059 22.8885 44.1843 22.6285 44.1843ZM8.89685 7.55037V15.6482C8.89685 25.8668 12.8323 30.7413 19.788 38.4771C20.9889 39.8128 21.9327 40.6945 22.6285 41.2699C23.3242 40.6945 24.268 39.8127 25.4689 38.4771C32.4247 30.7413 36.3601 25.867 36.3601 15.6482V7.55037L22.6285 2.83636L8.89685 7.55037Z" fill="#5FC693"/>
    <path d="M22.6284 36.8586C22.2596 36.8586 21.9085 36.7007 21.6638 36.4247L21.4005 36.1277C15.3327 29.2857 11.6702 25.1557 11.6702 15.6482V11.106C11.6702 10.5606 12.0135 10.0742 12.5274 9.89146L22.1966 6.4537C22.4759 6.35427 22.7808 6.35436 23.0602 6.45362L32.7294 9.89146C33.2433 10.0742 33.5867 10.5606 33.5867 11.106V15.6482C33.5867 25.1558 29.9241 29.2856 23.8562 36.1278L23.593 36.4247C23.3483 36.7007 22.9972 36.8586 22.6284 36.8586ZM14.2483 12.0158V15.6482C14.2483 23.841 17.0486 27.3218 22.6284 33.6263C28.2081 27.3218 31.0086 23.841 31.0086 15.6482V12.0158L22.6284 9.03638L14.2483 12.0158Z" fill="#5FC693"/>
    <path d="M21.5171 22.6043C21.1751 22.6043 20.8473 22.4685 20.6055 22.2267L18.9669 20.588C18.4635 20.0846 18.4635 19.2684 18.9669 18.765C19.4702 18.2616 20.2863 18.2615 20.7899 18.765L21.517 19.4921L24.5103 16.4988C25.0137 15.9955 25.8299 15.9955 26.3333 16.4988C26.8368 17.0022 26.8368 17.8184 26.3333 18.3218L22.4285 22.2267C22.1869 22.4685 21.8589 22.6043 21.5171 22.6043Z" fill="#5FC693"/>
  </g>
  <defs>
    <clipPath id="clip1">
      <rect width="44" height="44" fill="white" transform="translate(0.628418 0.184326)"/>
    </clipPath>
  </defs>
</svg>
