<?xml version="1.0" encoding="UTF-8"?>
<svg width="32px" height="32px" viewBox="0 0 32 32" version="1.1" xmlns="http://www.w3.org/2000/svg" xmlns:xlink="http://www.w3.org/1999/xlink">
    <!-- Generator: Sketch 50.2 (55047) - http://www.bohemiancoding.com/sketch -->
    <title>listing-a-bike_insurance_40x40px-01</title>
    <desc>Created with Sketch.</desc>
    <defs></defs>
    <g id="Designs" stroke="none" stroke-width="1" fill="none" fill-rule="evenodd">
        <g id="Request-Flow---Summay--Insurance-_-Active" transform="translate(-547.000000, -420.000000)" fill="#7AB2F8" fill-rule="nonzero">
            <g id="listing-a-bike_insurance_40x40px-01" transform="translate(547.000000, 420.000000)">
                <path d="M16,0.0737777778 C7.21866667,0.0737777778 0.0737777778,7.21866667 0.0737777778,16 C0.0737777778,24.7822222 7.21866667,31.9262222 16,31.9262222 L16.312,31.9262222 L16.5324444,31.704 C16.7155556,31.52 21.0382222,27.1297778 23.1306667,21.912 C25.2053333,16.7404444 25.6542222,11.0737778 25.6542222,9.94844444 C25.6542222,9.91111111 25.6524444,9.87466667 25.648,9.83111111 L25.6293333,9.22222222 L25.0284444,9.11644444 C22.0364444,8.58666667 18.6693333,7.79111111 16.3751111,5.90666667 L15.8986667,5.51644444 L15.4222222,5.90666667 C13.2168889,7.71733333 9.90933333,8.52711111 6.94933333,9.08533333 L6.35911111,9.23911111 L6.352,9.83022222 C6.34933333,9.86933333 6.34755556,9.90933333 6.34755556,9.94844444 C6.34755556,19.6097778 10.7537778,26.1573333 13.0684444,28.9297778 C13.104,28.9724444 13.1733333,29.0551111 13.1733333,29.0551111 L14.2755556,28.0328889 C14.2755556,28.0328889 14.2124444,27.9573333 14.1804444,27.9173333 C12.2915556,25.624 8.01333333,19.4524444 7.85511111,10.4391111 C10.5537778,9.90666667 13.5822222,9.12444444 15.8995556,7.43644444 C18.3182222,9.2 21.5351111,9.99288889 24.1315556,10.48 C24.0604444,11.5431111 23.6337778,16.6275556 21.7368889,21.3555556 C19.9982222,25.696 16.5288889,29.528 15.6844444,30.4231111 C7.89511111,30.2524444 1.57511111,23.8026667 1.57511111,16 C1.57511111,8.04622222 8.04622222,1.57422222 16,1.57422222 C23.9537778,1.57422222 30.4257778,8.04533333 30.4257778,16 C30.4257778,22.616 25.8728889,28.4026667 19.5128889,29.9937778 C19.4675556,30.0053333 19.3777778,30.0275556 19.3777778,30.0275556 L19.6808889,31.4977778 C19.6808889,31.4977778 19.792,31.4711111 19.848,31.4568889 C26.8844444,29.7128889 31.928,23.3137778 31.928,15.9991111 C31.9262222,7.21866667 24.7822222,0.0737777778 16,0.0737777778 Z" id="Shape"></path>
                <polygon id="Shape" points="14.7422222 17.7653333 11.9768889 15.0008889 10.9155556 16.0631111 14.7422222 19.8888889 21.0844444 13.5466667 20.024 12.4844444"></polygon>
            </g>
        </g>
    </g>
</svg>