<svg xmlns="http://www.w3.org/2000/svg" width="236" height="236" viewBox="0 0 236 236"><desc>  Created with Sketch.</desc><g fill="none">
<path d="M12.8 33.9C23.8 17.3 41.6 5.4 61.1 1.7 68 0.2 75 0.7 82 0.7 102 2.3 121.2 12.6 133.7 28.3 142 38.5 147.5 50.9 149.4 63.8 150.5 71.2 151.7 78.5 152.8 85.8 153.3 88.9 153.8 91.9 154.3 95 154.9 98.9 155.6 102.9 156.2 106.8 156.7 109.9 157.2 112.9 157.6 116 158.3 119.9 158.9 123.8 159.6 127.8 160 130.8 160.5 133.8 161 136.9 162.5 146.4 164.1 156 165.6 165.6 156 164.1 146.5 162.6 136.9 161.1 133.9 160.6 130.8 160.1 127.8 159.6 123.8 159 119.9 158.4 116 157.8 112.9 157.3 109.9 156.8 106.9 156.3 92.2 153.9 77.4 151.7 62.7 149.2 42.8 146 24.5 134.2 13.3 117.5 4.9 105.1 0 90.1 0.7 75 0.1 60.5 4.9 46 12.8 33.9L12.8 33.9ZM34.2 24.2C22.2 33.8 13.7 47.8 10.8 62.9 8.2 76.9 10.1 91.7 16.4 104.4 24.1 120.1 38.4 132.5 55.1 137.8 59.9 139.5 65 140.2 70 141 98.1 145.5 126.3 150 154.4 154.4 149.9 125.9 145.2 97.4 140.8 68.8 139.8 60.4 137.4 52.1 133.4 44.6 122.6 24 100.3 9.9 77 9.7 61.6 9.2 46.1 14.5 34.2 24.2L34.2 24.2Z" fill="#5FC693" class="svg-p1"/>
<path d="M71 43.2C81.1 41.4 91.8 44.7 99.2 51.8 111 62.8 112.5 82.8 102.3 95.4 92.5 108.7 72 112.1 58.4 102.6 45.9 94.7 40.7 77.8 45.9 64.1 49.7 53.3 59.7 45 71 43.2L71 43.2ZM70.6 52.8C65.3 54.3 60.3 57.6 57.2 62.4 52.1 69.7 51.9 80 56.6 87.5 60.5 93.9 67.5 98.2 75 98.7 81.6 99.2 88.3 96.6 92.9 91.9 99.3 85.7 101.6 75.7 98.4 67.4 94.6 56.4 81.8 49.6 70.6 52.8L70.6 52.8Z" fill="#5FC693" class="svg-p1"/>
<path d="M152.8 85.8C168.6 84.2 184.8 87.7 198.4 95.7 213.7 104.6 225.6 119.2 231.3 135.9 233.7 142.7 234.7 149.9 235.6 157 236 174 230.9 191.2 220.8 204.9 209.4 220.4 191.9 231.3 172.8 234.3 155.5 237.2 137.2 234 122.1 224.9 100.7 212.4 86.3 188.7 85.5 163.9 88.5 163.8 91.5 163.6 94.4 163.4 95.6 174.1 98.2 184.8 103.9 194 112.9 209 128 220.3 145.1 224.3 161.5 228.3 179.4 225.6 193.9 216.9 207.7 208.7 218.3 195.3 223 180 227 167.7 227 154.3 223.4 141.9 219.2 127.5 209.9 114.8 197.6 106.3 185.1 97.6 169.5 93.5 154.3 95 153.8 91.9 153.3 88.9 152.8 85.8L152.8 85.8Z" fill="#555555" class="svg-p2"/>
<path d="M156.2 106.8C171.4 105.6 187.2 111.2 198 122.1 208.1 131.8 214 145.9 214 160 214.3 174.2 208.5 188.4 198.4 198.3 188.4 208.5 174.2 214.3 160 214 147.5 214.2 135.1 209.5 125.6 201.4 112.6 190.5 105.3 173.2 106.9 156.3 109.9 156.8 112.9 157.3 116 157.8 115.5 168.4 118.7 179.2 125.3 187.6 133.5 198.2 146.6 204.8 160 204.8 172.5 205 184.9 199.5 193.2 190.2 200.9 181.8 205.2 170.4 204.8 159 204.4 143.8 195.5 129.1 182.2 121.8 174.8 117.5 166.2 115.6 157.6 116 157.2 112.9 156.7 109.9 156.2 106.8L156.2 106.8Z" fill="#555555" class="svg-p2"/>
<path d="M159.6 127.8C171.6 127.3 183.5 134.2 189.1 144.8 196.1 157.3 193.6 174.3 183 184 172.1 194.9 153.4 196 141.2 186.8 132.6 180.7 127.5 170.2 127.8 159.6 130.8 160.1 133.9 160.6 136.9 161.1 137.4 167.5 140.1 173.8 145.1 177.9 151.8 184 162.3 185.5 170.4 181.4 180.4 176.8 186.2 164.6 182.9 154 180.2 144.3 170.9 137.4 161 136.9 160.5 133.8 160 130.8 159.6 127.8L159.6 127.8Z" fill="#555555" class="svg-p2"/></g></svg>
