<?xml version="1.0" encoding="utf-8"?>
<!-- Generator: Adobe Illustrator 16.0.0, SVG Export Plug-In . SVG Version: 6.00 Build 0)  -->
<!DOCTYPE svg PUBLIC "-//W3C//DTD SVG 1.1//EN" "http://www.w3.org/Graphics/SVG/1.1/DTD/svg11.dtd">
<svg version="1.1" id="Layer_1" xmlns="http://www.w3.org/2000/svg" xmlns:xlink="http://www.w3.org/1999/xlink" x="0px" y="0px"
	 width="60px" height="60px" viewBox="0 0 60 60" enable-background="new 0 0 60 60" xml:space="preserve">
<g>
	<path fill="#64CE93" d="M30.004,1C14.011,1,1,14.01,1,30.002C1,45.991,14.011,59,30.004,59c9.133,0,17.843-4.385,23.298-11.729
		l1.156-1.558H14.481v1.951H50.49c-5.147,5.988-12.508,9.385-20.486,9.385c-14.917,0-27.053-12.133-27.053-27.047
		c0-14.916,12.136-27.051,27.053-27.051c14.913,0,27.045,12.135,27.045,27.051c0,3.742-0.75,7.369-2.229,10.779l1.79,0.775
		C58.195,37.901,59,34.013,59,30.002C59,14.01,45.992,1,30.004,1z"/>
	<path fill="#64CE93" d="M21.783,21.99c0,2.843,2.314,5.156,5.158,5.156c2.84,0,5.15-2.312,5.15-5.156
		c0-2.844-2.311-5.157-5.15-5.157C24.097,16.833,21.783,19.146,21.783,21.99z M30.14,21.99c0,1.767-1.435,3.205-3.199,3.205
		c-1.768,0-3.207-1.438-3.207-3.205c0-1.768,1.439-3.206,3.207-3.206C28.706,18.784,30.14,20.223,30.14,21.99z"/>
	<path fill="#64CE93" d="M49.378,25.263v-1.13c0-3.627-2.951-6.579-6.58-6.579c-3.628,0-6.579,2.951-6.579,6.579v3.473v0.144
		l-9.288,13.269c-4.091-5.786-9.628-13.67-9.976-14.302c-0.675-1.46-1.018-2.999-1.018-4.572c0-6.062,4.934-10.994,10.998-10.994
		c3.894,0,7.417,1.992,9.428,5.329l1.671-1.006c-2.366-3.928-6.515-6.273-11.099-6.273c-7.14,0-12.949,5.807-12.949,12.945
		c0,1.859,0.403,3.673,1.203,5.401c0.354,0.742,8.47,12.23,10.949,15.733l0.801,1.132l9.28-13.258v6.677h13.146V27.606H38.17v-3.473
		c0-2.551,2.076-4.627,4.628-4.627s4.629,2.076,4.629,4.627v1.13H49.378z M47.413,35.878H38.17v-6.321h9.243V35.878z"/>
</g>
</svg>
