<?xml version="1.0" encoding="utf-8"?>
<!-- Generator: Adobe Illustrator 19.2.0, SVG Export Plug-In . SVG Version: 6.00 Build 0)  -->
<svg version="1.1" id="Layer_1" xmlns="http://www.w3.org/2000/svg" xmlns:xlink="http://www.w3.org/1999/xlink" x="0px" y="0px"
	 width="32px" height="32px" viewBox="0 0 32 32" style="enable-background:new 0 0 32 32;" xml:space="preserve">
<style type="text/css">
	.st0{display:none;fill:#1403F4;stroke:#000000;stroke-miterlimit:10;}
	.st1{fill:#FFFFFF;}
	.st2{fill:#18244D;}
</style>
<rect x="-4.3" y="-3" class="st0" width="41.2" height="37"/>
<title>listing-a-bike_insurance_40x40px-01</title>
<desc>Created with Sketch.</desc>
<g id="Designs">
	<g id="Request-Flow---Summay--Insurance-_-Active" transform="translate(-547.000000, -420.000000)">
		<g id="listing-a-bike_insurance_40x40px-01" transform="translate(547.000000, 420.000000)">
			<path id="Shape" class="st1" d="M16,0.1C7.2,0.1,0.1,7.2,0.1,16c0,8.8,7.1,15.9,15.9,15.9h0.3l0.2-0.2c0.2-0.2,4.5-4.6,6.6-9.8
				c2.1-5.2,2.5-10.8,2.5-12c0,0,0-0.1,0-0.1l0-0.6L25,9.1c-3-0.5-6.4-1.3-8.7-3.2l-0.5-0.4l-0.5,0.4c-2.2,1.8-5.5,2.6-8.5,3.2
				L6.4,9.2l0,0.6c0,0,0,0.1,0,0.1c0,9.7,4.4,16.2,6.7,19c0,0,0.1,0.1,0.1,0.1l1.1-1c0,0-0.1-0.1-0.1-0.1c-1.9-2.3-6.2-8.5-6.3-17.5
				c2.7-0.5,5.7-1.3,8-3c2.4,1.8,5.6,2.6,8.2,3c-0.1,1.1-0.5,6.1-2.4,10.9c-1.7,4.3-5.2,8.2-6.1,9.1C7.9,30.3,1.6,23.8,1.6,16
				C1.6,8,8,1.6,16,1.6S30.4,8,30.4,16c0,6.6-4.6,12.4-10.9,14c0,0-0.1,0-0.1,0l0.3,1.5c0,0,0.1,0,0.2,0c7-1.7,12.1-8.1,12.1-15.5
				C31.9,7.2,24.8,0.1,16,0.1z"/>
			<polygon id="Shape_1_" class="st1" points="14.7,17.8 12,15 10.9,16.1 14.7,19.9 21.1,13.5 20,12.5 			"/>
		</g>
	</g>
</g>
<g transform="translate(1 1)">
	<circle class="st2" cx="25.9" cy="23.9" r="5.1"/>
	<path class="st1" d="M25.9,25.4l-1.7,0.9l0.3-1.8l-1.3-1.3l1.8-0.3l0.8-1.7l0.8,1.7l1.8,0.3l-1.3,1.3l0.3,1.8L25.9,25.4z"/>
</g>
</svg>
