<?xml version="1.0" encoding="utf-8"?>
<!-- Generator: Adobe Illustrator 16.0.0, SVG Export Plug-In . SVG Version: 6.00 Build 0)  -->
<!DOCTYPE svg PUBLIC "-//W3C//DTD SVG 1.1//EN" "http://www.w3.org/Graphics/SVG/1.1/DTD/svg11.dtd">
<svg version="1.1" id="Layer_1" xmlns="http://www.w3.org/2000/svg" xmlns:xlink="http://www.w3.org/1999/xlink" x="0px" y="0px"
	 width="60px" height="60px" viewBox="0 0 60 60" enable-background="new 0 0 60 60" xml:space="preserve">
<g>
	<polygon fill="#64CE93" points="53.008,24.973 42.113,35.866 36.686,30.438 35.307,31.816 42.113,38.626 54.387,26.353 	"/>
	<path fill="#64CE93" d="M30,1C15.856,1,3.837,11.18,1.422,25.207l-0.197,1.141h11.637l1.924-5.924l1.924,5.924h6.228l-5.037,3.662
		l1.923,5.921l-5.038-3.661l-5.043,3.664l1.701-5.251l-1.856-0.602L6.039,41.036l8.748-6.354l8.749,6.357l-2.114-6.506l5.02-3.646
		l8.75,6.359l-3.344-10.288l8.752-6.356H29.782l-3.34-10.288l-3.343,10.288h-6.203l-2.109-6.495l-3.342,10.289H3.566
		C6.257,11.901,17.195,2.951,30,2.951c14.915,0,27.049,12.134,27.049,27.048c0,14.916-12.134,27.049-27.049,27.049
		S2.951,44.915,2.951,30H1C1,45.99,14.009,59,30,59c15.99,0,29-13.01,29-29C59,14.009,45.99,1,30,1z M24.516,22.554l1.925-5.923
		l1.923,5.923h6.229l-5.039,3.66l1.924,5.922l-5.037-3.662l-5.646,4.131l-0.601-1.852l8.748-6.357H18.128l-0.599-1.843H24.516z"/>
</g>
</svg>
