<?xml version="1.0" encoding="utf-8"?>
<!-- Generator: Adobe Illustrator 16.0.0, SVG Export Plug-In . SVG Version: 6.00 Build 0)  -->
<!DOCTYPE svg PUBLIC "-//W3C//DTD SVG 1.1//EN" "http://www.w3.org/Graphics/SVG/1.1/DTD/svg11.dtd">
<svg version="1.1" id="Layer_1" xmlns="http://www.w3.org/2000/svg" xmlns:xlink="http://www.w3.org/1999/xlink" x="0px" y="0px"
	 width="60px" height="60px" viewBox="0 0 60 60" enable-background="new 0 0 60 60" xml:space="preserve">
<g>
	<path fill="#64CE93" d="M29.999,1C14.009,1,1,14.009,1,30c0,14.598,10.906,26.969,25.368,28.775l0.242-1.936
		C13.123,55.154,2.951,43.615,2.951,30c0-14.915,12.133-27.049,27.048-27.049c14.915,0,27.05,12.134,27.05,27.049
		c0,14.588-11.609,26.516-26.074,27.031v-8.75h12.219v-7.369h-1.951v5.418H18.635V13.671h22.607v18.184h1.951V11.719H16.684v36.562
		h12.339V59h0.976C45.99,59,59,45.99,59,30C59,14.009,45.99,1,29.999,1z"/>
	<polygon fill="#64CE93" points="54.386,26.353 53.007,24.973 42.113,35.866 36.685,30.438 35.306,31.817 42.113,38.626 	"/>
	<polygon fill="#64CE93" points="38.085,38.14 22.766,38.14 22.766,17.973 37.109,17.973 37.109,28.315 39.062,28.315 
		39.062,16.021 20.815,16.021 20.815,40.091 38.085,40.091 	"/>
	<circle fill="#64CE93" cx="29.939" cy="43.137" r="1.496"/>
</g>
</svg>
