<?xml version="1.0" encoding="utf-8"?>
<!-- Generator: Adobe Illustrator 16.0.0, SVG Export Plug-In . SVG Version: 6.00 Build 0)  -->
<!DOCTYPE svg PUBLIC "-//W3C//DTD SVG 1.1//EN" "http://www.w3.org/Graphics/SVG/1.1/DTD/svg11.dtd">
<svg version="1.1" id="Layer_1" xmlns="http://www.w3.org/2000/svg" xmlns:xlink="http://www.w3.org/1999/xlink" x="0px" y="0px"
	 width="60px" height="60px" viewBox="0 0 60 60" enable-background="new 0 0 60 60" xml:space="preserve">
<g>
	<path fill="#64CE93" d="M30.001,1C14.01,1,1,14.009,1,30c0,3.099,0.486,6.148,1.445,9.065l1.853-0.608
		C3.404,35.736,2.951,32.892,2.951,30c0-14.915,12.134-27.049,27.05-27.049c14.914,0,27.048,12.134,27.048,27.049
		S44.915,57.049,30.001,57.049c-9.698,0-18.504-5.09-23.354-13.388H48.73V31.293l4.796-4.796l-1.379-1.38l-3.417,3.417V16.684
		H11.271V39.12h1.951V18.635h33.557v11.849l-5.525,5.526l-5.429-5.427l-1.379,1.379l6.808,6.808l5.525-5.525v8.465H3.413
		l0.721,1.419C9.113,52.918,19.024,59,30.001,59C45.991,59,59,45.99,59,30C59,14.009,45.991,1,30.001,1z"/>
	<path fill="#64CE93" d="M15.811,38.026v0.976h17.347v-0.976c0-3.586-2.183-6.672-5.288-7.992c1.185-0.978,1.941-2.458,1.941-4.111
		c0-2.939-2.387-5.331-5.32-5.331c-2.939,0-5.331,2.391-5.331,5.331c0,1.654,0.759,3.135,1.947,4.112
		C17.998,31.357,15.811,34.441,15.811,38.026z M24.491,22.544c1.858,0,3.369,1.516,3.369,3.379c0,1.861-1.511,3.375-3.369,3.375
		c-1.864,0-3.38-1.514-3.38-3.375C21.111,24.06,22.627,22.544,24.491,22.544z M24.494,31.299c3.371,0,6.169,2.503,6.643,5.751
		H17.833C18.307,33.802,21.114,31.299,24.494,31.299z"/>
</g>
</svg>
