<svg xmlns="http://www.w3.org/2000/svg" width="240" height="236" viewBox="0 0 240 236"><desc>  Created with Sketch.</desc><g fill="none">
<path d="M43.4 8.5C72.7-6.5 112.3-0.3 133.9 25.1 147.9 41.1 153.7 63.3 151.2 84.3 150.9 87.4 150.2 90.5 149.5 93.6 143.4 118.5 123.5 139.4 98.9 146.6 79.4 152.5 57.4 150.1 39.8 139.8 27.2 143.7 14.8 148.2 2.3 152.1L2.7 153C2 152.8 0.7 152.4 0 152.1L0 152C0.3 151.8 0.9 151.5 1.2 151.4 4.9 138.8 9.5 126.5 13.4 114 1.7 95-0.8 70.7 6.9 49.8 13.2 32.1 26.6 17 43.4 8.5L43.4 8.5ZM41.9 19.9C26 29.9 14.8 47.2 12.2 65.9 9.7 82.2 14 99.3 23.4 112.8 20.5 121.4 17.7 129.9 14.8 138.5 23.5 135.7 32.1 132.7 40.9 129.9 52.7 137.5 66.8 141.6 80.8 140.6 96.3 139.8 111.4 133.3 122.5 122.4 135.1 110.5 142.6 93.4 142.8 76 143 59.1 137.3 41.8 125.6 29.4 104.7 6.9 67.4 3.1 41.9 19.9L41.9 19.9Z" fill="#5FC693" class="svg-p1"/>
<path d="M55.7 36.7C62.5 29.4 73.1 26.2 83 27.9 91.5 29.3 99.4 34.5 104 41.9 110.2 51.8 110.2 65.2 103.9 75 99.2 82.5 91 87.7 82.3 88.9 82.2 91.9 82.4 94.8 82.2 97.8 79.2 97.7 76.2 97.8 73.3 97.7L73.3 80.3C80.3 80.8 87.9 79.3 92.9 74 100.1 67.4 101.7 55.8 96.7 47.5 91.7 38.4 79.8 34 70.1 37.9 61.4 40.9 56 49.7 55.5 58.6 52.6 58.3 49.6 58.6 46.7 58.5 47 50.5 49.8 42.3 55.7 36.7L55.7 36.7Z" fill="#5FC693" class="svg-p1"/>
<path d="M74.4 108.4C76.6 106.9 80.1 107 81.9 109.1 84 111.2 84.1 114.9 82 116.9 79.7 119.8 74.7 119.3 72.9 116.2 71.2 113.8 71.9 110 74.4 108.4L74.4 108.4Z" fill="#5FC693" class="svg-p1"/>
<path d="M151.2 84.3C169.9 81.9 189.6 85.8 205.1 96.8 221.4 107.9 232.8 125.7 236.2 145.1 239.3 162.8 236 181.7 226.6 197 230.5 209.9 235 222.7 239.2 235.5L238.3 235.6C225.5 231.4 212.8 227.1 200.1 222.9 183.6 232.6 163.4 235.4 145 230.8 126.9 226.6 110.7 215 100.4 199.5 92.3 187.4 88 172.8 88.1 158.2 91 158.3 94 158.3 96.9 158.2 97.3 170.1 100.3 182.2 106.7 192.3 116.4 208.4 133.4 220 152 223 168.2 225.9 185.3 221.9 199.1 213 207.6 215.9 216.2 218.6 224.7 221.6 222.5 212.9 219.1 204.5 216.5 196 228.6 178.7 231.8 155.5 224.3 135.7 217.2 116.1 200.2 100.5 180.1 95 170.2 92.1 159.7 92.3 149.5 93.6 150.2 90.5 150.9 87.4 151.2 84.3L151.2 84.3Z" fill="#555555" class="svg-p2"/>
<path d="M158.1 175.7C171.5 162.7 184.4 149.1 197.9 136.2 199.9 138.3 201.9 140.3 204 142.3 203.9 142.6 203.6 143.2 203.4 143.5 188.3 158.5 173.3 173.8 158 188.7 148.9 179.5 139.7 170.4 130.6 161.2 130.6 161 130.4 160.6 130.3 160.4 132.7 158.6 134.4 156 136.8 154.4 143.8 161.5 151 168.6 158.1 175.7L158.1 175.7Z" fill="#555555" class="svg-p2"/></g></svg>
