<?xml version="1.0" encoding="utf-8"?>
<!-- Generator: Adobe Illustrator 16.0.0, SVG Export Plug-In . SVG Version: 6.00 Build 0)  -->
<!DOCTYPE svg PUBLIC "-//W3C//DTD SVG 1.1//EN" "http://www.w3.org/Graphics/SVG/1.1/DTD/svg11.dtd">
<svg version="1.1" id="Layer_1" xmlns="http://www.w3.org/2000/svg" xmlns:xlink="http://www.w3.org/1999/xlink" x="0px" y="0px"
	 width="60px" height="60px" viewBox="0 0 60 60" enable-background="new 0 0 60 60" xml:space="preserve">
<g>
	<path fill="#64CE93" d="M12.018,29.999v0.976h7.104c0.441,1.82,2.075,3.181,4.03,3.181c1.954,0,3.586-1.362,4.028-3.181h20.806
		v-0.976v-0.976H27.179c-0.441-1.82-2.074-3.18-4.028-3.18c-1.955,0-3.588,1.36-4.03,3.18h-7.104L12.018,29.999L12.018,29.999z
		 M21.183,29.023c0.361-0.725,1.103-1.229,1.967-1.229c0.863,0,1.605,0.504,1.967,1.229c0.147,0.295,0.237,0.624,0.237,0.976
		s-0.09,0.681-0.237,0.976c-0.361,0.725-1.104,1.23-1.967,1.23s-1.607-0.506-1.967-1.23c-0.148-0.295-0.239-0.624-0.239-0.976
		S21.035,29.319,21.183,29.023z"/>
	<path fill="#64CE93" d="M36.853,23.392c1.953,0,3.586-1.361,4.029-3.182h7.104v-0.976v-0.975h-7.104
		c-0.441-1.82-2.073-3.18-4.029-3.18s-3.587,1.36-4.03,3.18H12.018v0.975v0.976h20.804C33.264,22.031,34.896,23.392,36.853,23.392z
		 M34.884,18.259c0.362-0.725,1.104-1.229,1.969-1.229s1.605,0.504,1.967,1.229c0.147,0.295,0.238,0.623,0.238,0.975
		c0,0.353-0.091,0.681-0.236,0.976c-0.363,0.726-1.104,1.23-1.969,1.23c-0.865,0-1.607-0.504-1.97-1.23
		c-0.146-0.294-0.237-0.623-0.237-0.976C34.646,18.882,34.736,18.554,34.884,18.259z"/>
	<path fill="#64CE93" d="M30,1C14.009,1,1,14.009,1,29.999c0,2.188,0.246,4.37,0.731,6.493l1.902-0.434
		c-0.452-1.979-0.681-4.017-0.681-6.058C2.951,15.085,15.085,2.951,30,2.951c14.914,0,27.049,12.133,27.049,27.048
		c0,14.914-12.135,27.05-27.049,27.05c-10.468,0-19.881-5.962-24.377-15.311h27.2c0.441,1.822,2.072,3.182,4.03,3.182
		c1.953,0,3.587-1.361,4.029-3.182h7.104v-1.949H40.88c-0.441-1.82-2.073-3.177-4.027-3.177s-3.584,1.36-4.029,3.177H2.654
		l0.562,1.351C7.732,51.988,18.246,59,30,59c15.99,0,29-13.01,29-29.001C59,14.009,45.99,1,30,1z M34.646,40.765
		c0-0.353,0.093-0.682,0.239-0.978c0.362-0.725,1.104-1.228,1.968-1.228c0.864,0,1.604,0.503,1.966,1.228
		c0.147,0.296,0.239,0.625,0.239,0.978c0,0.352-0.091,0.677-0.236,0.974c-0.361,0.724-1.104,1.231-1.969,1.231
		c-0.865,0-1.608-0.508-1.97-1.231C34.736,41.444,34.646,41.116,34.646,40.765z"/>
</g>
</svg>
