<svg xmlns="http://www.w3.org/2000/svg" width="44" height="44" viewBox="-74 -67 44 44"><style>.a{fill:#FFF;}</style><desc>  Created with Sketch.</desc><g fill="none"><path d="M-52-23C-64.1-23-74-32.9-74-45 -74-57.1-64.1-67-52-67 -39.9-67-30-57.1-30-45 -30-32.9-39.9-23-52-23L-52-23 -52-23ZM-52-65.5C-63.3-65.5-72.5-56.3-72.5-45 -72.5-33.7-63.3-24.5-52-24.5 -40.7-24.5-31.5-33.7-31.5-45 -31.5-56.3-40.7-65.5-52-65.5L-52-65.5 -52-65.5Z" class="a"/><g class="a"><path d="M-51.8-35.6C-56.9-35.6-61-39.7-61-44.8 -61-49.9-56.9-54-51.8-54 -46.7-54-42.6-49.9-42.6-44.8 -42.6-39.7-46.7-35.6-51.8-35.6L-51.8-35.6ZM-51.8-52.9C-56.3-52.9-59.9-49.3-59.9-44.8 -59.9-40.3-56.3-36.6-51.8-36.6 -47.3-36.6-43.6-40.3-43.6-44.8 -43.6-49.3-47.3-52.9-51.8-52.9L-51.8-52.9Z"/><path d="M-49-41.4C-49.1-41.4-49.2-41.5-49.3-41.6L-52.2-44.4C-52.3-44.5-52.3-44.7-52.3-44.8L-52.3-50.8C-52.3-51.1-52.1-51.3-51.8-51.3 -51.5-51.3-51.3-51.1-51.3-50.8L-51.3-45 -48.6-42.3C-48.4-42.1-48.4-41.8-48.6-41.6 -48.7-41.5-48.8-41.4-49-41.4L-49-41.4Z"/></g></g></svg>