<svg xmlns="http://www.w3.org/2000/svg" width="242" height="238" viewBox="0 0 242 238"><desc>  Created with Sketch.</desc><g fill="none"><path d="M51.8 4.9C79.3-5 112.8 1.3 133 23 146.3 37 153.4 56.5 153 75.8L143.9 75.8C143.8 57.6 137 39.1 123.4 26.6 111.3 15.3 94.5 9.6 78 9.7 59.7 9.4 41.5 17.6 29.1 31.1 17.7 43.4 11.2 60.2 11.7 77 11.7 90.2 16.4 102.9 23.6 113.9 20.8 122.3 17.8 130.8 15.3 139.3 23.9 136.6 32.4 133.6 41 130.8 47.6 134.7 54.5 138.2 62.1 139.9 71.4 142.3 81.3 142.2 90.8 140.6 90.1 143.8 89.5 147.1 89.1 150.3 72.3 152.7 54.7 149.5 39.9 141 29.6 144.4 19.4 147.9 9.1 151.2 7.2 151.9 5.1 152.3 3.6 153.8L0 153.8 0 153.3C1.2 151.3 2.1 149.1 2.8 146.9 6.2 136.2 9.9 125.7 13.3 115 0.7 94.3-1.2 67.6 8.7 45.5 16.8 26.8 32.7 11.8 51.8 4.9L51.8 4.9Z" fill="#7AB2F8"/><path d="M74 91.8C87.4 78.6 100.6 65.2 114 51.9 116.2 54 118.3 56.3 120.6 58.3 105.3 74.1 89.7 89.5 74 104.9 64.7 95.6 55.4 86.3 46 76.9 48.2 74.7 50.2 72.3 52.7 70.5 59.7 77.7 66.9 84.7 74 91.8L74 91.8Z" fill="#7AB2F8"/><path d="M119.6 97.4C134.6 86.9 153.7 82.9 171.8 84.6 191.1 86.5 209.5 96.3 221.8 111.2 230.8 121.8 236.7 135 238.6 148.8 241.1 166 237.5 184 228.3 198.8 232.6 211.9 237.1 224.9 241.3 237.9 228.1 233.6 215 229.2 201.8 224.8 182.4 236.1 157.9 238 137 229.9 118.9 223.1 103.8 209 95.7 191.5 89.6 178.8 87.7 164.3 89.1 150.3 89.5 147.1 90.1 143.8 90.8 140.6 94.7 123.4 104.9 107.5 119.6 97.4L119.6 97.4ZM118.3 110.4C105.2 122.5 98.2 140.3 98 158 97.4 175.2 104.2 192.5 116.1 204.9 127.8 217.5 144.7 225.2 161.9 225.5 175.6 226.2 189.2 222 200.7 214.6 209.3 217.5 218 220.4 226.6 223.2 223.8 214.7 221.2 206.2 218.1 197.8 220.2 194 222.7 190.5 224.3 186.5 231 171.8 231.9 154.6 226.8 139.2 221.7 123.3 210.1 109.5 195.4 101.5 171.2 88.2 138.7 91.6 118.3 110.4L118.3 110.4Z" fill="#555555"/><path d="M159.4 177.1C172.6 163.7 186 150.5 199.3 137.1 201.5 139.3 203.7 141.5 205.9 143.7 190.4 159.3 174.9 174.6 159.5 190.2 149.9 181 140.7 171.5 131.3 162.1L137.8 155.6C145 162.8 152.1 170.1 159.4 177.1L159.4 177.1Z" fill="#555555"/></g></svg>
