<svg xmlns="http://www.w3.org/2000/svg" width="40" height="40" viewBox="0 0 40 40"><style>.a{fill:none;}.b{fill:#FFF;}</style><desc>  Created with Sketch.</desc><g class="a"><path d="M20 40C9 40 0 31 0 20 0 9 9 0 20 0 31 0 40 9 40 20 40 31 31 40 20 40L20 40ZM20 1.4C9.7 1.4 1.4 9.7 1.4 20 1.4 30.3 9.7 38.6 20 38.6 30.3 38.6 38.6 30.3 38.6 20 38.6 9.7 30.3 1.4 20 1.4L20 1.4Z" class="b"/><svg xmlns="http://www.w3.org/2000/svg" width="40" height="40" viewBox="0 0 40 40"><desc>  Created with Sketch.</desc><g class="a"><path d="M20 40C9 40 0 31 0 20 0 9 9 0 20 0 31 0 40 9 40 20 40 31 31 40 20 40L20 40ZM20 1.4C9.7 1.4 1.4 9.7 1.4 20 1.4 30.3 9.7 38.6 20 38.6 30.3 38.6 38.6 30.3 38.6 20 38.6 9.7 30.3 1.4 20 1.4L20 1.4Z" class="b"/><path d="M25.3 14.4C25 14.1 24.6 14 24.2 14L15.5 14C15.1 14 14.7 14.1 14.4 14.4 14.1 14.7 14 15.1 14 15.5L14 24.2C14 24.6 14.1 25 14.4 25.3 14.7 25.6 15.1 25.7 15.5 25.7L24.2 25.7C24.6 25.7 25 25.6 25.3 25.3 25.6 25 25.7 24.6 25.7 24.2L25.7 15.5C25.7 15.1 25.6 14.7 25.3 14.4L25.3 14.4ZM18.3 18.3C18.7 17.8 19.2 17.6 19.8 17.6 20.5 17.6 21 17.8 21.4 18.3 21.9 18.7 22.1 19.2 22.1 19.8 22.1 20.5 21.9 21 21.4 21.4 21 21.9 20.5 22.1 19.8 22.1 19.2 22.1 18.7 21.9 18.3 21.4 17.8 21 17.6 20.5 17.6 19.8 17.6 19.2 17.8 18.7 18.3 18.3L18.3 18.3ZM24.8 24.3C24.8 24.4 24.8 24.5 24.7 24.6 24.6 24.7 24.4 24.8 24.3 24.8L15.4 24.8C15.3 24.8 15.1 24.7 15 24.6 14.9 24.5 14.9 24.4 14.9 24.3L14.9 18.5 16.1 18.5C16 18.9 15.9 19.3 15.9 19.7 15.9 20.8 16.3 21.8 17.1 22.6 17.8 23.4 18.8 23.8 19.9 23.8 20.6 23.8 21.3 23.6 21.9 23.2 22.5 22.9 23 22.4 23.3 21.7 23.7 21.1 23.8 20.4 23.8 19.7 23.8 19.3 23.8 18.9 23.7 18.5L24.8 18.5 24.8 24.3 24.8 24.3ZM24.8 16.3C24.8 16.4 24.8 16.5 24.7 16.6 24.6 16.7 24.5 16.7 24.4 16.7L23.4 16.7C23.3 16.7 23.2 16.7 23.1 16.6 23 16.5 23 16.4 23 16.3L23 15.3C23 15.2 23 15.1 23.1 15 23.2 14.9 23.3 14.9 23.4 14.9L24.4 14.9C24.5 14.9 24.6 14.9 24.7 15 24.8 15.1 24.8 15.2 24.8 15.3L24.8 16.3 24.8 16.3Z" class="b"/></g></svg></g></svg>
