<?xml version="1.0" encoding="utf-8"?>
<svg width="40" height="40" viewBox="0 0 40 40" xmlns="http://www.w3.org/2000/svg">
  <style>.a{fill:#FFF;}</style>
  <desc>  Created with Sketch.</desc>
  <g fill="none">
    <path d="M 20 40 C 9 40 0 31 0 20 C 0 9 9 0 20 0 C 31 0 40 9 40 20 C 40 31 31 40 20 40 L 20 40 Z" class="a" style="fill: rgb(59, 89, 152);"/>
    <path d="M 22.451 11.156 C 19.689 11.156 17.945 12.9 17.945 15.662 L 17.945 17.843 L 15.619 17.843 C 15.328 17.843 15.183 17.988 15.183 18.133 L 15.183 21.186 C 15.183 21.477 15.328 21.622 15.619 21.622 L 17.945 21.622 L 17.945 29.326 C 17.945 29.472 18.09 29.617 18.381 29.617 L 21.434 29.617 C 21.724 29.617 21.87 29.472 21.87 29.326 L 21.87 21.622 L 24.632 21.622 C 24.922 21.622 25.068 21.477 25.068 21.186 L 25.068 18.133 C 25.068 18.133 25.068 17.988 24.922 17.843 C 24.922 17.843 24.777 17.843 24.632 17.843 L 21.87 17.843 L 21.87 15.953 C 21.87 15.226 22.015 14.79 23.178 14.79 L 24.777 14.79 C 25.068 14.79 25.213 14.499 25.213 14.354 L 25.213 11.592 C 25.213 11.301 25.068 11.156 24.777 11.156 L 22.451 11.156 L 22.451 11.156 Z" class="a" style="fill: rgb(255, 255, 255);"/>
  </g>
</svg>