<svg xmlns="http://www.w3.org/2000/svg" width="44" height="44" viewBox="21 27 44 44"><style>.a{fill:none;}.b{fill:#FFF;}</style><desc>  Created with Sketch.</desc><g transform="translate(21 27)" class="a"><path d="M22 44C9.9 44 0 34.1 0 22 0 9.9 9.9 0 22 0 34.1 0 44 9.9 44 22 44 34.1 34.1 44 22 44L22 44 22 44 22 44 22 44 22 44ZM22 1.5C10.7 1.5 1.5 10.7 1.5 22 1.5 33.3 10.7 42.5 22 42.5 33.3 42.5 42.5 33.3 42.5 22 42.5 10.7 33.3 1.5 22 1.5L22 1.5 22 1.5 22 1.5 22 1.5 22 1.5Z" class="b"/><g class="b"><svg xmlns="http://www.w3.org/2000/svg" width="44" height="44" viewBox="21 27 44 44"><desc>  Created with Sketch.</desc><g class="a"><path d="M43 71C30.9 71 21 61.1 21 49 21 36.9 30.9 27 43 27 55.1 27 65 36.9 65 49 65 61.1 55.1 71 43 71L43 71 43 71 43 71 43 71 43 71ZM43 28.5C31.7 28.5 22.5 37.7 22.5 49 22.5 60.3 31.7 69.5 43 69.5 54.3 69.5 63.5 60.3 63.5 49 63.5 37.7 54.3 28.5 43 28.5L43 28.5 43 28.5 43 28.5 43 28.5 43 28.5Z" class="b"/><g class="b"><path d="M47.5 54C46.6 54.9 45.5 55.4 44.3 55.4 42.4 55.4 40.7 54.1 39.9 52.1L45.3 52.1C45.7 52.1 46.1 51.7 46.1 51.2 46.1 50.8 45.7 50.4 45.3 50.4L39.5 50.4C39.4 50.1 39.4 49.8 39.4 49.6 39.4 49.2 39.4 48.9 39.5 48.6L45.3 48.6C45.7 48.6 46.1 48.2 46.1 47.8 46.1 47.3 45.7 46.9 45.3 46.9L39.9 46.9C40.7 45 42.4 43.7 44.3 43.7 45.5 43.7 46.6 44.2 47.5 45.1 47.8 45.5 48.4 45.5 48.7 45.2 49 44.9 49.1 44.3 48.7 44 47.5 42.7 45.9 42 44.3 42 41.5 42 39.1 44 38.1 46.9L35.9 46.9C35.4 46.9 35 47.3 35 47.8 35 48.2 35.4 48.6 35.9 48.6L37.8 48.6C37.7 48.9 37.7 49.2 37.7 49.6 37.7 49.8 37.7 50.1 37.8 50.4L35.9 50.4C35.4 50.4 35 50.8 35 51.2 35 51.7 35.4 52.1 35.9 52.1L38.1 52.1C39 55 41.4 57.1 44.3 57.1 45.9 57.1 47.5 56.4 48.7 55.1 49.1 54.8 49 54.3 48.7 53.9 48.4 53.6 47.8 53.6 47.5 54L47.5 54Z"/></g></g></svg></g></g></svg>
