<svg xmlns="http://www.w3.org/2000/svg" width="232" height="231" viewBox="0 0 232 231"><desc>  Created with Sketch.</desc><g fill="none"><path d="M24.9 20C40.5 5.8 62.2-1.2 83 1.2 98.4 2.8 113.1 9.3 124.7 19.5 126.6 17.6 128.5 15.7 130.4 13.8 132.6 16 134.8 18.2 137 20.4 132.9 24.5 128.9 28.6 124.7 32.6 119.1 26.6 112.7 21.3 105.4 17.5 89.4 9.1 70 7.7 53 13.9 36.3 19.7 22.3 32.8 15.1 48.9 9.5 61.4 7.9 75.5 10.7 88.9 13.7 104 22.4 117.9 34.5 127.4 48.1 138.2 66 143.2 83.2 141 82.6 144.1 82.2 147.3 82 150.4 58.2 152.8 33.7 143 18.3 124.8 6.9 111.8 0.5 94.7 0 77.4L0 74.4C0.5 53.9 9.5 33.6 24.9 20L24.9 20Z" fill="#5FC693"/><path d="M74 21.7C90 21.7 105.8 29 115.9 41.4 113.8 43.7 111.5 45.8 109.3 48.1 100.8 37.6 87.7 30.9 74 31.2L74 21.7 74 21.7Z" fill="#5FC693"/><path d="M115.7 92.8C130.4 83 148.6 78.9 166.1 81.1 180.3 82.8 194 88.8 205 98.1 219.3 110 228.9 127.5 231.1 146 233 160.6 230.5 175.8 223.9 189 216.4 204.3 203.4 216.8 187.9 223.8 171.1 231.5 151.6 232.6 134 227 116.9 221.7 101.9 209.8 92.6 194.4 84.6 181.3 80.9 165.7 82 150.4 82.2 147.3 82.6 144.1 83.2 141 87 121.4 99 103.6 115.7 92.8L115.7 92.8ZM145.6 90.8C121.8 94.7 101.1 112.9 94.1 136 88.7 152.7 90.6 171.5 99.1 186.9 106.3 200 118 210.6 131.9 216.3 144.8 221.6 159.5 222.7 173 219.1 190.6 214.7 206.1 202.6 214.6 186.6 221.7 173.5 224.2 157.8 221.3 143.2 218.1 126.3 207.9 110.9 193.7 101.3 179.8 91.7 162.2 87.8 145.6 90.8L145.6 90.8Z" fill="#555555"/><path d="M139.5 128.7C147.5 123.4 157.9 122.1 166.9 125.2 174.3 127.6 180.5 133 184.2 139.8 189.7 149.7 189.3 162.6 182.9 172 180.1 176.6 175.8 179.8 171.5 182.7 175.2 190.9 178.8 199.2 182.4 207.5 165.3 207.6 148.2 207.5 131.1 207.5 134.7 199.1 138.6 190.8 142.1 182.4 133.3 177.7 126.9 168.8 125.8 158.9 124.1 147.3 129.7 135 139.5 128.7L139.5 128.7ZM139.3 141.5C133.7 148.5 133.2 159.2 138.3 166.7 141.8 172.5 148.3 175.5 154.6 177.2 151.6 184.3 148.4 191.2 145.4 198.2 153 198.3 160.6 198.3 168.2 198.2 165.1 191.2 162 184.2 159 177.2 164.7 175.6 170.6 173.2 174.2 168.1 179.4 161.6 180.3 152 176.2 144.7 172.1 136.3 162.1 131.3 152.9 133.2 147.5 134.1 142.7 137.2 139.3 141.5L139.3 141.5Z" fill="#555555"/></g></svg>
