<?xml version="1.0" encoding="utf-8"?>
<!-- Generator: Adobe Illustrator 16.0.0, SVG Export Plug-In . SVG Version: 6.00 Build 0)  -->
<!DOCTYPE svg PUBLIC "-//W3C//DTD SVG 1.1//EN" "http://www.w3.org/Graphics/SVG/1.1/DTD/svg11.dtd">
<svg version="1.1" id="Layer_1" xmlns="http://www.w3.org/2000/svg" xmlns:xlink="http://www.w3.org/1999/xlink" x="0px" y="0px"
	 width="60px" height="60px" viewBox="0 0 60 60" enable-background="new 0 0 60 60" xml:space="preserve">
<path fill="#64CE93" d="M30,1C14.009,1,1,14.009,1,30c0,7.949,3.151,15.363,8.875,20.878l1.354-1.405
	C5.891,44.329,2.951,37.414,2.951,30C2.951,15.085,15.085,2.951,30,2.951S57.049,15.085,57.049,30S44.915,57.049,30,57.049
	c-5.128,0-10.102-1.438-14.418-4.166V29.222c0-2.504,2.035-4.541,4.54-4.551c0.007,0,0.013,0.002,0.02,0.002
	c0.006,0,0.012-0.002,0.019-0.002c1.828,0.008,3.396,1.101,4.113,2.664c-0.561,0.961-0.889,2.075-0.889,3.267v11.562h0.976h0.976
	v-1.379V30.602c0-1.13,0.428-2.151,1.112-2.947c0.833-0.971,2.051-1.6,3.426-1.604c0.005,0,0.01,0.001,0.015,0.001
	s0.01-0.001,0.014-0.001c1.375,0.004,2.595,0.633,3.427,1.604c0.33,0.384,0.604,0.814,0.79,1.294
	c0.203,0.514,0.323,1.068,0.323,1.654v10.183v1.379h0.976h0.976v-1.379V30.602c0-1.192-0.327-2.306-0.89-3.268
	c0.718-1.562,2.285-2.655,4.111-2.663c0.007,0,0.013,0.002,0.02,0.002c0.006,0,0.012-0.002,0.019-0.002
	c2.502,0.011,4.534,2.047,4.534,4.551v11.562h0.976h0.977V29.222c0-2.514-1.438-4.695-3.529-5.777
	c0.775-0.768,1.258-1.831,1.258-3.007c0-2.334-1.899-4.234-4.233-4.234c-2.335,0-4.234,1.899-4.234,4.234
	c0,1.176,0.483,2.239,1.258,3.007c-1.016,0.526-1.875,1.311-2.492,2.269c-0.396-0.347-0.832-0.646-1.304-0.89
	c0.776-0.768,1.259-1.832,1.259-3.007c0-2.334-1.899-4.234-4.233-4.234c-2.334,0-4.234,1.899-4.234,4.234
	c0,1.176,0.483,2.24,1.259,3.008c-0.471,0.243-0.907,0.543-1.302,0.89c-0.617-0.958-1.477-1.743-2.494-2.269
	c0.776-0.768,1.259-1.832,1.259-3.007c0-2.334-1.899-4.234-4.234-4.234c-2.334,0-4.234,1.899-4.234,4.234
	c0,1.175,0.482,2.238,1.257,3.006c-2.095,1.082-3.534,3.263-3.534,5.778v24.717l0.439,0.289C18.806,57.351,24.314,59,30,59
	c15.99,0,29-13.01,29-29C59,14.009,45.99,1,30,1z M27.605,21.816c0-1.259,1.024-2.283,2.283-2.283c1.259,0,2.282,1.024,2.282,2.283
	c0,1.253-1.014,2.271-2.263,2.282c-0.007,0-0.012,0.002-0.019,0.002s-0.013-0.002-0.019-0.002
	C28.619,24.088,27.605,23.07,27.605,21.816z M37.352,20.438c0-1.259,1.023-2.283,2.283-2.283c1.259,0,2.282,1.024,2.282,2.283
	c0,1.251-1.011,2.268-2.258,2.281c-0.009,0-0.017,0.002-0.024,0.002c-0.009,0-0.017-0.002-0.025-0.002
	C38.362,22.706,37.352,21.689,37.352,20.438z M17.858,20.438c0-1.259,1.024-2.283,2.283-2.283s2.283,1.024,2.283,2.283
	c0,1.251-1.011,2.268-2.257,2.281c-0.009,0-0.017,0.002-0.025,0.002c-0.009,0-0.017-0.002-0.025-0.002
	C18.869,22.705,17.858,21.689,17.858,20.438z"/>
</svg>
