<svg xmlns="http://www.w3.org/2000/svg" width="244" height="252" viewBox="0 0 244 252"><desc>  Created with Sketch.</desc><g fill="none"><path d="M77.4 0L78.3 0C79.8 6.8 81.3 13.6 82.8 20.3 93.8 18.7 105.1 19.6 115.8 22.7 118.2 16.1 120.7 9.5 123.1 3 126 4.1 128.9 5.1 131.8 6.3 129.3 12.8 127 19.4 124.5 25.9 134.6 30.5 143.7 37.2 151 45.6 156.6 41.4 162.2 37.2 167.8 33.1 169.7 35.5 171.5 38 173.4 40.5 167.8 44.7 162.2 48.9 156.7 53.1 162.8 62.4 166.9 73 168.4 84.1 175.3 83.7 182.2 83 189.1 82.6 189.3 85.7 189.5 88.8 189.7 91.9 182.8 92.2 175.9 92.9 169 93.3 169 96.2 169.1 99.2 168.8 102.1 168.5 105.3 167.9 108.5 167.2 111.7 166.1 116.6 164.5 121.3 162.4 125.9 168.3 129.3 174.4 132.4 180.3 135.7 178.8 138.4 177.3 141.2 175.9 143.9 169.9 140.7 164 137.4 158 134.2 152 143.8 143.9 151.9 134.5 158.1 137.7 163.9 141 169.8 144.1 175.7 141.4 177.2 138.7 178.7 136 180.1 132.7 174.3 129.6 168.4 126.4 162.6 116.1 167.3 104.9 169.8 93.6 169.8 93 176.4 92.5 183.1 92.2 189.8 89.1 189.4 86 189.3 82.9 189 83.3 182.4 83.8 175.8 84.3 169.1 73.1 167.7 62.3 163.6 52.8 157.5 48.8 162.8 44.8 168.1 40.8 173.4 38.3 171.6 35.8 169.7 33.3 167.8 37.3 162.5 41.3 157.2 45.3 151.9 36.8 144.5 29.8 135.3 25.4 125 19 127.2 12.7 129.7 6.4 132 5.3 129.1 4.2 126.2 3.1 123.3 9.4 120.9 15.7 118.6 22 116.2 18.9 105.4 18.2 93.9 19.8 82.8 13.2 81.5 6.6 80 0 78.5L0 77.7C0.6 74.9 1.3 72.2 1.9 69.4 8.5 70.9 15.2 72.2 21.8 73.8 25 63 30.5 53 38 44.6 33 39.7 28.2 34.8 23.3 29.9 25.4 27.7 27.6 25.5 29.8 23.4 34.7 28.3 39.8 33 44.6 38 53 30.7 63 25.3 73.7 22.3 72.2 15.5 70.7 8.7 69.2 1.8 72 1.3 74.7 0.6 77.4 0L77.4 0ZM82.6 29.8C71.2 31.8 60.4 37 51.5 44.5 38.4 55.5 30 71.9 28.5 89 27 105.3 32 122 42.1 134.9 51.8 147.6 66.3 156.4 82 159.3 95.8 162 110.2 159.9 122.8 153.8 135.7 147.5 146.5 136.9 152.9 124 160.2 109.6 161.8 92.5 157.4 77 152.7 59.7 140.5 44.7 124.6 36.4 111.9 29.6 96.8 27.2 82.6 29.8L82.6 29.8Z" fill="#5FC693"/><path d="M70.4 77.6C76 74.9 82.3 81.5 79.8 87 78.3 92.2 70.7 93.4 67.5 89.1 64.6 85.5 66 79.3 70.4 77.6L70.4 77.6Z" fill="#5FC693"/><path d="M112.5 77.6C116.7 75.7 122.2 79.2 122 83.9 122.6 87.5 119.8 91.2 116.2 91.7 112.6 92.4 108.8 89.8 108 86.2 107 82.8 109.1 78.7 112.5 77.6L112.5 77.6Z" fill="#5FC693"/><path d="M69.5 117.2C71.7 114.9 73.9 112.7 76.1 110.5 81.3 115.7 88.7 118.5 96 117.9 101.9 117.4 107.6 114.7 111.9 110.5 114.1 112.7 116.3 114.9 118.5 117.1 111.2 124.6 100.4 128.3 90 127.1 82.3 126.2 75 122.6 69.5 117.2L69.5 117.2Z" fill="#5FC693"/><path d="M168.8 102.1C187.8 99.7 207.7 104.6 223 116 231.1 121.8 237.3 129.7 243.8 137.1 236.2 136.1 228.7 133.7 221 134.3 204.3 135 188.8 146.8 183.5 162.6 179 175 181 189.6 188.6 200.4 196 211.3 208.8 218.5 222 218.8 229.4 219.1 236.5 216.9 243.8 215.9 237.5 223.2 231.4 230.8 223.6 236.5 208.5 248 188.8 253.3 170 251 152.6 249.1 136 240.7 124 227.9 111.8 215.1 104.6 197.7 103.7 180.1 106.8 179.8 109.9 179.7 113 179.5 113.8 195.2 120.2 210.5 131.2 221.8 141.8 233.1 156.5 240.3 171.9 241.8 188.7 243.7 205.9 238.6 219.2 228.2 213.7 227.1 208.1 226.4 203 224 189 218 178.1 205.6 173.9 191.1 169.3 175.6 172.4 158.1 182.3 145.3 191 133.6 204.8 126.3 219.2 124.9 204.8 113.3 185.4 108.5 167.2 111.7 167.9 108.5 168.5 105.3 168.8 102.1L168.8 102.1Z" fill="#555555"/></g></svg>
