<?xml version="1.0" encoding="utf-8"?>
<!-- Generator: Adobe Illustrator 16.0.0, SVG Export Plug-In . SVG Version: 6.00 Build 0)  -->
<!DOCTYPE svg PUBLIC "-//W3C//DTD SVG 1.1//EN" "http://www.w3.org/Graphics/SVG/1.1/DTD/svg11.dtd">
<svg version="1.1" id="Layer_1" xmlns="http://www.w3.org/2000/svg" xmlns:xlink="http://www.w3.org/1999/xlink" x="0px" y="0px"
	 width="60px" height="60px" viewBox="0 0 60 60" enable-background="new 0 0 60 60" xml:space="preserve">
<g>
	<path fill="#64CE93" d="M30,1C14.009,1,1,14.009,1,30c0,15.99,13.009,29,29,29h0.406l0.286-0.288
		c0.335-0.338,8.257-8.377,12.094-17.947c3.808-9.493,4.631-19.878,4.631-21.94c0-0.057-0.004-0.114-0.011-0.204l-0.025-0.791
		l-0.779-0.138c-5.577-0.987-11.859-2.474-16.17-6.014l-0.619-0.508l-0.619,0.508c-4.143,3.4-10.313,4.916-15.803,5.949
		l-0.788,0.206l-0.01,0.799c-0.004,0.064-0.008,0.128-0.008,0.192c0,18.856,9.152,31.239,13.087,35.688l1.461-1.293
		c-2.923-3.303-12.382-15.422-12.591-33.825c5.495-1.069,11.06-2.549,15.271-5.72c4.386,3.306,10.272,4.806,15.634,5.794
		c-0.144,2.838-1.092,12.147-4.472,20.573c-3.313,8.267-9.947,15.498-11.386,17.007C14.864,56.824,2.952,44.776,2.952,30
		C2.952,15.085,15.085,2.951,30,2.951S57.049,15.085,57.049,30c0,12.794-9.082,23.939-21.597,26.5l0.392,1.91
		C49.261,55.666,59,43.717,59,30C59,14.009,45.99,1,30,1z"/>
	<polygon fill="#64CE93" points="37.431,24.089 27.678,33.841 22.571,28.735 21.191,30.116 27.678,36.601 38.809,25.469 	"/>
</g>
</svg>
