<svg xmlns="http://www.w3.org/2000/svg" xmlns:xlink="http://www.w3.org/1999/xlink" width="18" height="18" viewBox="0 0 18 18">
    <defs>
        <path id="a" d="M0 0h1.5v8.1H0z"/>
    </defs>
    <g fill="none" fill-rule="evenodd">
        <path fill="#5FC693" d="M2.25 18a.75.75 0 0 1-.75-.75v-6.6a.75.75 0 1 1 1.5 0v6.6a.75.75 0 0 1-.75.75"/>
        <g transform="translate(1.5)">
            <mask id="b" fill="#fff">
                <use xlink:href="#a"/>
            </mask>
            <path fill="#5FC693" d="M.75 8.1A.75.75 0 0 1 0 7.35V.75a.75.75 0 1 1 1.5 0v6.6a.75.75 0 0 1-.75.75" mask="url(#b)"/>
        </g>
        <path fill="#5FC693" d="M15.75 18a.75.75 0 0 1-.75-.75v-9.9a.75.75 0 1 1 1.5 0v9.9a.75.75 0 0 1-.75.75M15.75 4.5a.75.75 0 0 1-.75-.75v-3a.75.75 0 1 1 1.5 0v3a.75.75 0 0 1-.75.75M9 18a.75.75 0 0 1-.75-.75V14.7a.75.75 0 1 1 1.5 0v2.55A.75.75 0 0 1 9 18M9 11.4a.75.75 0 0 1-.75-.75V.75a.75.75 0 1 1 1.5 0v9.9a.75.75 0 0 1-.75.75"/>
        <path fill="#5FC693" d="M15.75 4.5a.75.75 0 1 0 0 1.5.75.75 0 0 0 0-1.5m0 3c-1.24 0-2.25-1.01-2.25-2.25S14.51 3 15.75 3 18 4.01 18 5.25 16.99 7.5 15.75 7.5M9 12a.75.75 0 1 0 0 1.5.75.75 0 0 0 0-1.5m0 3c-1.24 0-2.25-1.01-2.25-2.25S7.76 10.5 9 10.5s2.25 1.01 2.25 2.25S10.24 15 9 15M2.25 8.25a.75.75 0 1 0 0 1.5.75.75 0 0 0 0-1.5m0 3C1.01 11.25 0 10.24 0 9s1.01-2.25 2.25-2.25S4.5 7.76 4.5 9s-1.01 2.25-2.25 2.25"/>
    </g>
</svg>
