<svg xmlns="http://www.w3.org/2000/svg" width="247" height="234" viewBox="0 1 247 234"><desc>  Created with Sketch.</desc><g fill="none"><path d="M45.9 6.9C60 0.9 75.9-0.5 90.9 2.6 108.5 6.2 124.5 16.3 135.4 30.5 144.6 42.4 150 57.1 150.9 72.1 147.8 72.2 144.7 72.1 141.6 72 140.8 61 137.3 50.1 131.2 40.8 122.4 27 108.4 16.7 92.6 12.5 78.5 8.7 63.1 9.7 49.6 15.5 34.2 22 21.5 34.6 14.8 49.9 8 65.2 7.5 83.1 13.2 98.8 19 115.3 31.7 129.1 47.6 136.4 59.2 141.9 72.5 143.6 85.3 141.9 85.3 142.5 85.2 143.6 85.2 144.1 85.1 146.6 84.8 149 84.4 151.4 62.8 153.9 40.1 146.8 24.2 131.8 10.3 119.2 1.9 101.3 0 82.7L0 70.6C1 62.7 2.5 54.9 5.7 47.5 13.1 29.5 27.9 14.6 45.9 6.9L45.9 6.9Z" fill="#7AB2F8"/><path d="M66 42C78 38.2 91.7 41.6 100.8 50.1 99.6 53.3 98.2 56.3 96.9 59.4 92.2 54.3 85.9 50.4 78.9 49.9 68.2 48.6 57.2 54.9 52.7 64.7 66.7 64.8 80.6 64.7 94.6 64.8 93.4 67.5 92.4 70.2 91 72.8 77.4 72.8 63.8 72.5 50.2 72.9 50.3 74.8 50.3 76.8 50.3 78.7 63.1 78.8 75.8 78.7 88.5 78.8 87.5 81.4 86.3 83.9 85.3 86.6 74.4 86.9 63.5 86.6 52.6 86.7 56.7 95.7 66.1 101.9 76 101.9 84.3 102.2 92 97.9 97.2 91.7 97.2 95.8 97.4 100 97.2 104.1 86.3 113 69.8 113.3 58 106.1 50.8 101.8 45.3 94.8 42.7 86.8 39.5 86.6 36.4 86.7 33.2 86.7 34.3 84 35.4 81.3 36.7 78.7 38.1 78.7 39.6 78.7 41 78.8L41 72.7 33.2 72.7C34.3 70 35.4 67.3 36.8 64.7L42.7 64.7C46.3 54 55.1 45.1 66 42L66 42Z" fill="#7AB2F8"/><path d="M188.9 86.8C199 84 209 81.2 219.1 78.5L219.1 109.7C224.7 117 229.1 125.2 231.8 134L247 134 247 178.6 231.8 178.6C229.3 186.4 225.7 194 220.7 200.6 220.1 201.6 219 202.5 219.1 203.8 219 213.9 219.1 224 219.1 234 209 231.3 199 228.5 189 225.8 170.4 233.6 148.8 233.6 130.2 225.8 120.2 228.5 110.2 231.3 100.1 234L100.1 202.8C88.8 188.4 82.7 169.7 84.4 151.4 84.8 149 85.1 146.6 85.2 144.1 88.9 118.3 107.7 95.5 131.9 86.1 150.1 78.9 171 79.2 188.9 86.8L188.9 86.8ZM152.1 90.6C133.7 92.5 116.5 102.8 105.8 117.8 96.3 131 91.9 147.7 93.8 163.9 95.1 176.9 100.8 189.2 109.2 199.3 109.7 206.8 109.2 214.4 109.4 221.9 116.6 219.9 123.8 217.9 131 216 148.8 224.5 170.4 224.6 188.2 216 195.4 217.9 202.6 219.9 209.8 221.9L209.8 199.6C217.2 190.9 222.2 180.4 224.7 169.3 229.1 169.4 233.4 169.3 237.8 169.3L237.8 143.3 224.7 143.3C222.2 132.2 217.2 121.7 209.8 113.1L209.8 90.7C202.6 92.6 195.4 94.6 188.2 96.6 177 91.3 164.4 89.1 152.1 90.6L152.1 90.6Z" fill="#555555"/><path d="M203.5 131.6C208.5 129.5 214.2 134.7 212.8 139.9 212.1 144.9 205.6 147.5 201.7 144.3 197.2 141.2 198.2 133.3 203.5 131.6L203.5 131.6Z" fill="#555555"/></g></svg>
