<svg width="42" height="43" viewBox="0 0 42 43" fill="none" xmlns="http://www.w3.org/2000/svg">
  <g clip-path="url(#clip0)">
    <path d="M35.1929 17.1322L20.9766 17.0869L26.3643 1.64821C26.5001 1.24074 26.4096 0.742716 26.0474 0.425792C25.5946 0.0635933 24.9155 0.108868 24.5533 0.561617C22.4707 3.09701 20.388 5.6324 18.3507 8.16779C14.1854 13.2838 10.0201 18.3999 5.85479 23.516C5.71897 23.6971 5.62842 23.9234 5.62842 24.1951C5.62842 24.7837 6.08117 25.2364 6.66974 25.2364L20.886 25.2817L15.4983 40.7204C15.3625 41.1279 15.4531 41.6259 15.8153 41.9428C16.268 42.305 16.9471 42.2598 17.3093 41.807C19.4825 39.1358 21.5652 36.6457 23.6478 34.1556C27.8584 29.0848 32.0689 24.014 36.0531 18.8527C36.189 18.6716 36.2795 18.4452 36.2795 18.2188C36.2794 17.6302 35.7815 17.1322 35.1929 17.1322ZM22.0179 32.752C21.203 33.7481 20.3427 34.7441 19.5278 35.7402L23.4214 24.6026C23.6025 24.0593 23.3309 23.4254 22.7423 23.2443C22.6065 23.199 22.4707 23.199 22.3348 23.199L8.93348 23.1538C12.646 18.6263 16.3133 14.0988 20.0258 9.57131L22.3801 6.67372L18.4865 17.7661C18.3054 18.3094 18.577 18.9432 19.1656 19.1243C19.3014 19.1696 19.4373 19.1696 19.5731 19.1696L33.065 19.2149C29.4883 23.7876 25.7757 28.2698 22.0179 32.752Z" fill="#5FC693"/>
    <path d="M17.898 3.0063C17.7622 2.41773 17.1736 2.05553 16.6303 2.19135C12.1934 3.1874 8.52609 5.63224 5.90015 8.93731C3.27421 12.2424 1.73486 16.4077 1.73486 20.8899C1.73486 24.4213 2.68564 27.8169 4.45135 30.7598C6.21707 33.7027 8.70719 36.1475 11.8312 37.8227C12.3745 38.0943 13.0083 37.9132 13.2799 37.3699C13.5516 36.8266 13.3705 36.1928 12.8272 35.9211C10.0654 34.4271 7.84697 32.2539 6.26235 29.6279C4.723 27.0472 3.86278 24.0138 3.86278 20.8899C3.86278 16.9057 5.22103 13.2384 7.57532 10.2956C9.88434 7.35269 13.1894 5.17949 17.083 4.274C17.6716 4.13817 18.0337 3.5496 17.898 3.0063Z" fill="#5FC693"/>
    <path d="M37.6377 11.1104C35.9172 8.21285 33.4271 5.72274 30.3484 4.04757C29.8504 3.77592 29.1713 3.95702 28.8996 4.45504C28.628 4.95307 28.8091 5.63219 29.3071 5.90384C32.0236 7.39791 34.2421 9.5711 35.7814 12.1518C37.3208 14.7324 38.1357 17.7206 38.1357 20.8445C38.1357 24.874 36.7322 28.5865 34.3779 31.5294C32.0236 34.4723 28.6732 36.6455 24.7343 37.5057C24.1458 37.6415 23.7836 38.1848 23.9194 38.7734C24.0552 39.3619 24.5985 39.7241 25.1871 39.5883C29.5787 38.5923 33.3366 36.1927 36.0078 32.8424C38.679 29.5373 40.2636 25.3267 40.2636 20.7993C40.309 17.3584 39.3582 14.008 37.6377 11.1104Z" fill="#5FC693"/>
  </g>
  <defs>
    <clipPath id="clip0">
      <rect width="42" height="42" fill="white" transform="translate(0 0.184326)"/>
    </clipPath>
  </defs>
</svg>
