<svg width="34" height="34" viewBox="0 0 34 34" fill="none" xmlns="http://www.w3.org/2000/svg">
<path fill-rule="evenodd" clip-rule="evenodd" d="M4 0C1.79086 0 0 1.79086 0 4V30C0 32.2091 1.79086 34 4 34H30C32.2091 34 34 32.2091 34 30V4C34 1.79086 32.2091 0 30 0H4Z"/>
<path d="M20.5844 8H13.4153C10.9807 8 9 9.9808 9 12.4154V19.5845C9 22.0192 10.9807 23.9999 13.4153 23.9999H20.5844C23.0192 23.9999 24.9999 22.0191 24.9999 19.5845V12.4154C25 9.9808 23.0192 8 20.5844 8ZM23.5804 19.5845C23.5804 21.2364 22.2364 22.5803 20.5845 22.5803H13.4153C11.7635 22.5804 10.4196 21.2364 10.4196 19.5845V12.4154C10.4196 10.7636 11.7635 9.41959 13.4153 9.41959H20.5844C22.2363 9.41959 23.5803 10.7636 23.5803 12.4154V19.5845H23.5804Z" fill="white"/>
<path d="M16.9997 11.8774C14.7264 11.8774 12.877 13.7269 12.877 16.0002C12.877 18.2734 14.7264 20.1228 16.9997 20.1228C19.2731 20.1228 21.1225 18.2734 21.1225 16.0002C21.1225 13.7269 19.2731 11.8774 16.9997 11.8774ZM16.9997 18.7031C15.5092 18.7031 14.2965 17.4906 14.2965 16.0001C14.2965 14.5095 15.5092 13.2969 16.9997 13.2969C18.4903 13.2969 19.7029 14.5095 19.7029 16.0001C19.7029 17.4906 18.4902 18.7031 16.9997 18.7031Z" fill="white"/>
<path d="M21.2959 10.6738C21.0224 10.6738 20.7537 10.7846 20.5606 10.9786C20.3665 11.1716 20.2549 11.4404 20.2549 11.7149C20.2549 11.9885 20.3666 12.2571 20.5606 12.4512C20.7536 12.6442 21.0224 12.7559 21.2959 12.7559C21.5704 12.7559 21.8382 12.6442 22.0322 12.4512C22.2262 12.2571 22.3369 11.9884 22.3369 11.7149C22.3369 11.4404 22.2262 11.1716 22.0322 10.9786C21.8391 10.7846 21.5704 10.6738 21.2959 10.6738Z" fill="white"/>
</svg>
