<svg xmlns="http://www.w3.org/2000/svg" width="111" height="21" viewBox="30 20 111 21">
  <style>.a{fill:#FFF;}</style>
  <desc>Created with Sketch.</desc>
  <g transform="translate(85.5 30.660525)scale(1 -1)translate(-85.5 -30.660525)translate(30 21)" fill="none">
    <path d="M48 13.3C46.3 10 44.7 6.9 44.4 6.4L44 5.5 44.8 5 45.7 4.6 45.8 4.9C45.9 5 47.2 7.5 48.6 10.3 50.1 13.2 51.3 15.5 51.3 15.5 51.3 15.6 51.8 12.3 52.4 8.2 53 4.1 53.4 0.8 53.4 0.7 53.5 0.6 53.6 0.5 54.1 0.3 54.5 0.1 54.8 0 54.8 0 54.9 0.1 61.8 13.8 61.8 13.9 61.7 13.9 60.2 14.7 60.1 14.7 60.1 14.7 58.9 12.3 57.5 9.5 56 6.6 54.8 4.2 54.8 4.2 54.8 4.2 54.3 7.4 53.8 11.3 53.2 15.1 52.8 18.3 52.8 18.4 52.7 18.5 52.5 18.6 51.9 18.9 51.5 19.1 51.1 19.3 51.1 19.3 51.1 19.3 49.7 16.6 48 13.3L48 13.3Z"
          class="a"/>
    <path d="M22.3 17.6C20.1 17.3 18.6 15.9 18.2 14.1 18.1 13.5 18.2 12.6 18.3 12.1 18.7 10.8 19.6 10 21.2 9.4 21.4 9.4 22.4 9.1 23.4 8.8 24.3 8.6 25.3 8.3 25.4 8.2 26.4 7.9 26.9 7.3 27.1 6.6 27.4 5.4 26.8 4.3 25.7 3.7 25.1 3.4 24.7 3.3 23.7 3.3 22.9 3.3 22.8 3.4 22.4 3.5 21.6 3.7 20.9 4.1 20.4 4.7 20.2 5 19.9 5.5 19.8 5.8 19.8 5.9 19.7 5.9 18.7 5.9L17.7 5.9 17.7 5.8C17.9 5.3 18.2 4.6 18.5 4 18.7 3.7 19.4 3 19.8 2.7 20.4 2.3 21.2 2 22 1.8 23.5 1.5 25.2 1.6 26.4 2.1 27.4 2.6 28.2 3.3 28.6 4.1 29.1 5.1 29.2 6.3 28.9 7.4 28.6 8.4 27.8 9.3 26.7 9.8 26.1 10.1 25.6 10.2 23.8 10.7 22.9 10.9 22 11.2 21.8 11.3 20.6 11.7 20.1 12.4 20.1 13.4 20.1 14.1 20.3 14.6 20.8 15.1 21.5 15.7 22.6 16 23.8 15.9 25.2 15.8 26.2 15.1 26.8 13.9L27 13.5 28 13.5C28.8 13.5 29 13.5 29 13.6 29 13.7 28.8 14.3 28.6 14.7 27.8 16.3 26.4 17.3 24.4 17.6 23.8 17.7 22.8 17.7 22.3 17.6L22.3 17.6Z"
          class="a"/>
    <polygon points="0 9.6 0 1.8 5 1.8 9.9 1.8 9.9 2.7 9.9 3.6 6 3.6 2 3.6 2 10.5 2 17.4 1 17.4 0 17.4" class="a"/>
    <polygon points="12.8 9.6 12.8 1.8 13.8 1.8 14.8 1.8 14.8 9.6 14.8 17.4 13.8 17.4 12.8 17.4" class="a"/>
    <polygon
            points="30.3 16.5 30.3 15.7 33.1 15.7 35.8 15.6 35.8 8.7 35.8 1.8 36.8 1.8 37.8 1.8 37.8 8.7 37.8 15.7 40.5 15.7 43.2 15.7 43.2 16.5 43.2 17.4 36.8 17.4 30.3 17.4"
            class="a"/>
    <path d="M66 9.6L66 1.8 67 1.8 68 1.8 68 5.1 68 8.4 69.4 8.4 70.8 8.4 73 5.1 75.3 1.8 76.4 1.8C77 1.8 77.5 1.8 77.5 1.9 77.5 1.9 73.7 7.5 73.1 8.2L72.9 8.5 73.3 8.6C75.6 9 76.9 10.5 76.9 12.9 76.9 13.6 76.8 14 76.7 14.6 76.2 16 75 16.9 73.4 17.3 72.7 17.4 72.3 17.4 69.2 17.4L66 17.4 66 9.6 66 9.6ZM72.7 15.6C73.4 15.4 73.8 15.2 74.2 14.8 74.7 14.4 74.9 13.9 74.9 13.1 75 12.5 74.9 12 74.6 11.6 74.3 10.9 73.7 10.5 72.9 10.3 72.6 10.2 72.5 10.2 70.3 10.2L68 10.1 68 12.9 68 15.7 70.2 15.7C72.1 15.7 72.4 15.7 72.7 15.6L72.7 15.6Z"
          class="a"/>
    <polygon points="80 9.6 80 1.8 81 1.8 82 1.8 82 9.6 82 17.4 81 17.4 80 17.4" class="a"/>
    <path d="M85.7 9.6L85.7 1.8 88.4 1.8C89.9 1.8 91.3 1.9 91.6 1.9 94.7 2.2 97 4 97.9 6.9 98.4 8.5 98.4 10.4 98 12.1 97.2 15.1 94.9 17 91.7 17.4 91.5 17.4 90.2 17.4 88.5 17.4L85.7 17.4 85.7 9.6 85.7 9.6ZM91.4 15.6C94.5 15.3 96.3 13.1 96.3 9.7 96.3 7.7 95.8 6.2 94.7 5.1 94 4.4 93.2 4 92.1 3.8 91.6 3.7 91.4 3.7 89.7 3.6L87.7 3.6 87.7 9.6C87.7 12.9 87.7 15.6 87.8 15.6 87.8 15.7 91 15.7 91.4 15.6L91.4 15.6Z"
          class="a"/>
    <polygon
            points="101.1 9.6 101.1 1.8 106.1 1.8 111 1.8 111 2.7 111 3.6 107 3.6 103.1 3.6 103.1 6.3 103.1 8.9 106.7 8.9 110.3 8.9 110.3 9.8 110.3 10.7 106.7 10.7 103.1 10.7 103.1 13.2 103.1 15.7 107 15.7 111 15.7 111 16.5 111 17.4 106.1 17.4 101.1 17.4"
            class="a"/>
  </g>
</svg>
