<?xml version="1.0" encoding="UTF-8"?>
<svg width="100px" height="103px" viewBox="0 0 100 103" version="1.1" xmlns="http://www.w3.org/2000/svg" xmlns:xlink="http://www.w3.org/1999/xlink">
    <!-- Generator: Sketch 44.1 (41455) - http://www.bohemiancoding.com/sketch -->
    <title>Icon</title>
    <desc>Created with Sketch.</desc>
    <defs>
        <polygon id="path-1" points="63.7330769 0.195726496 0 0.195726496 0 63.9281197 63.7330769 63.9281197 63.7330769 0.195726496"></polygon>
        <polygon id="path-3" points="63.9034188 0.37008547 63.9034188 64.1025641 32.0369231 64.1025641 0.17042735 64.1025641 0.17042735 0.37008547 63.9034188 0.37008547"></polygon>
    </defs>
    <g id="Wireframes" stroke="none" stroke-width="1" fill="none" fill-rule="evenodd">
        <g id="Verification-Start-Shop" transform="translate(-325.000000, -40.000000)">
            <g id="Icon" transform="translate(325.000000, 40.000000)">
                <g id="Group-3" transform="translate(0.000000, 0.658974)">
                    <mask id="mask-2" fill="white">
                        <use xlink:href="#path-1"></use>
                    </mask>
                    <g id="Clip-2"></g>
                    <path d="M31.8664103,63.9281197 C30.4373504,63.9281197 28.9997436,63.8323932 27.592906,63.6435043 C11.8621368,61.5341026 -0.000256410256,47.9563248 -0.000256410256,32.061453 C-0.000256410256,14.4905128 14.2946154,0.195641026 31.8664103,0.195641026 C49.4382051,0.195641026 63.7330769,14.4905128 63.7330769,32.061453 L59.8288034,32.061453 C59.8288034,16.6435043 47.2852137,4.09905983 31.8664103,4.09905983 C16.4476068,4.09905983 3.90401709,16.6435043 3.90401709,32.061453 C3.90401709,46.0093162 14.3108547,57.9229915 28.1117094,59.7742735 C29.3467521,59.9400855 30.61,60.0247009 31.8664103,60.0247009 L31.8664103,63.9281197 Z" id="Fill-1" fill="#000000" mask="url(#mask-2)"></path>
                </g>
                <polygon id="Fill-4" fill="#3EC694" points="65.2540171 82.6058974 53.3411966 70.695641 56.1018803 67.9341026 65.2531624 77.0845299 82.2044444 60.1306838 84.9651282 62.8913675"></polygon>
                <path d="M31.9874359,16.4771795 C26.6019658,16.4771795 24.6934188,18.2378632 24.6934188,23.2053846 C24.6934188,27.4583761 27.6891453,32.1976923 31.9874359,32.1976923 C36.2857265,32.1976923 39.281453,27.4583761 39.281453,23.2053846 C39.281453,18.2378632 37.372906,16.4771795 31.9874359,16.4771795 M31.9874359,36.1011111 C25.2891453,36.1011111 20.7891453,29.4335897 20.7891453,23.2053846 C20.7891453,16.0506838 24.4523932,12.5737607 31.9874359,12.5737607 C39.5224786,12.5737607 43.1857265,16.0506838 43.1857265,23.2053846 C43.1857265,29.4335897 38.6857265,36.1011111 31.9874359,36.1011111" id="Fill-6" fill="#000000"></path>
                <path d="M21.8028205,48.9224786 L17.8994017,48.9224786 C17.8994017,36.115641 26.0532479,34.6344444 32.1865812,34.6344444 C37.147265,34.6344444 43.9677778,35.5754701 45.924188,43.715641 L42.1284615,44.6276068 C41.0746154,40.2455556 38.2874359,38.5387179 32.1865812,38.5387179 C25.7763248,38.5387179 21.8028205,40.2754701 21.8028205,48.9224786" id="Fill-8" fill="#000000"></path>
                <g id="Group-12" transform="translate(35.897436, 38.265812)">
                    <mask id="mask-4" fill="white">
                        <use xlink:href="#path-3"></use>
                    </mask>
                    <g id="Clip-11"></g>
                    <path d="M32.037094,4.27350427 C16.6182906,4.27350427 4.07470085,16.8179487 4.07470085,32.2358974 C4.07470085,47.6547009 16.6182906,60.1991453 32.037094,60.1991453 C47.4558974,60.1991453 59.9994872,47.6547009 59.9994872,32.2358974 C59.9994872,16.8179487 47.4558974,4.27350427 32.037094,4.27350427 M32.037094,64.1025641 C14.4652991,64.1025641 0.17042735,49.8076923 0.17042735,32.2358974 C0.17042735,14.6649573 14.4652991,0.37008547 32.037094,0.37008547 C49.6088889,0.37008547 63.9037607,14.6649573 63.9037607,32.2358974 C63.9037607,49.8076923 49.6088889,64.1025641 32.037094,64.1025641" id="Fill-10" fill="#3EC694" mask="url(#mask-4)"></path>
                </g>
            </g>
        </g>
    </g>
</svg>