<?xml version="1.0" encoding="utf-8"?>
<svg width="127" height="96" viewBox="177 41 78.375 63" xmlns="http://www.w3.org/2000/svg">
  <style>  .a{fill:#FFF;}</style>
  <desc>    Created with Sketch.</desc>
  <g transform="translate(216 88.790684)scale(1 -1)translate(-216 -88.790684)translate(153 41.290684)" fill="none">
    <path d="M38.8 94.2C35.4 93.7 32.6 92.2 30.2 89.8 27.6 87.1 26.1 83.8 26 80.1 25.7 74.1 29.2 68.4 34.8 65.9 36.9 65 38.8 64.6 41.3 64.7 43.6 64.8 45.3 65.2 47.4 66.2 49 67 49.9 67.7 51.2 69 52.5 70.3 53.2 71.3 54 72.8 56.1 77 56.1 81.8 54.1 86 52 90.2 48 93.2 43.3 94.1 42.3 94.3 39.8 94.3 38.8 94.2L38.8 94.2ZM42.9 91.9C44.6 91.6 46.5 90.8 47.9 89.9 48.8 89.2 50.4 87.6 51.1 86.7 52 85.3 52.8 83.6 53.1 82 53.4 80.8 53.4 78.3 53.2 77.2 52.1 72.1 48.4 68.2 43.3 67.2 42.4 67 42.1 66.9 40.8 66.9 39.1 66.9 38.3 67.1 36.9 67.5 31.4 69.3 27.8 74.7 28.2 80.4 28.7 86.6 33.4 91.4 39.6 92 40.4 92.1 42 92 42.9 91.9L42.9 91.9Z" class="a"/>
    <path d="M83.7 94.2C78.4 93.7 73.5 90.1 71.5 85.1 69.2 79.6 70.5 73.3 74.7 69 79.9 63.7 88.2 63.1 94.2 67.7 96.1 69.1 97.5 70.9 98.6 73.1 100.9 78 100.4 83.6 97.2 88.2 96.6 89.1 94.8 90.9 93.8 91.5 92.9 92.2 90.9 93.2 89.8 93.6 87.9 94.2 85.8 94.4 83.7 94.2L83.7 94.2ZM87.4 91.8C89.1 91.6 90.7 90.9 92.2 89.9 93.3 89.2 94.9 87.6 95.7 86.5 98.6 82.1 98.5 76.6 95.5 72.2 95 71.4 93.3 69.7 92.4 69.2 91.1 68.2 89.4 67.5 87.7 67.1 86.7 66.9 84.8 66.8 83.7 67 79.4 67.5 75.8 70.1 73.9 74 70.2 81.5 74.9 90.5 83.2 91.9 84.2 92.1 86.3 92 87.4 91.8L87.4 91.8Z" class="a"/>
    <path d="M82.5 57.5L80 56 80 54.8C80 54.2 80.1 53.7 80.1 53.7 80.1 53.7 81 54.2 82 54.8 83 55.4 83.9 55.9 83.9 55.9 84 55.9 83.7 54.3 83.4 53.1 83 51.5 82.6 50.6 81.8 48.9 80.8 46.8 79.5 45 77.9 43.4 73.7 39.2 68.2 37 62.3 37.2 59.1 37.3 56.4 38 53.5 39.4 51.6 40.4 50 41.5 48.4 43.1 44.4 47 42.3 51.6 41.9 57.5L41.8 58.3 40.7 58.3 39.6 58.3 39.7 57.2C39.9 52.2 41.7 47.5 44.8 43.7 45.5 42.8 47.5 40.7 48.4 40 51.7 37.4 55.4 35.8 59.7 35.1 61 34.9 65 34.9 66.3 35.1 70.6 35.8 74.3 37.4 77.6 40.1 78.7 41 80.6 42.9 81.5 44.1 83.9 47.3 85.5 51.1 86.1 55 86.1 55.5 86.2 55.9 86.2 55.9 86.2 56 87.1 55.5 88.1 54.8 89.1 54.2 90 53.7 90 53.7 90 53.7 90 54.2 90 54.8L90 56 88.3 57.1C87.3 57.7 86.2 58.4 85.8 58.6L85.1 59.1 82.5 57.5 82.5 57.5Z" class="a"/>
  </g>
</svg>