<svg xmlns="http://www.w3.org/2000/svg" width="110" height="21" viewBox="30 19 110 21"><style>.a{fill:#FFF;}</style><desc>  Created with Sketch.</desc><g transform="translate(85 29.642857)scale(1 -1)translate(-85 -29.642857)translate(30 19.642857)" fill="none"><path d="M47 12.5C45.1 8.7 43.6 5.6 43.5 5.6 43.5 5.6 44 5.3 44.6 5 45.6 4.5 45.7 4.5 45.8 4.5 45.8 4.6 47 6.8 48.3 9.5 49.7 12.1 50.8 14.3 50.8 14.3 50.8 14.3 51.3 11.3 51.8 7.6L52.8 0.9 53.7 0.4C54.1 0.2 54.5 0 54.6 0 54.6 0 56 2.7 57.7 6 59.3 9.3 60.9 12.4 61.1 12.9L61.5 13.7 60.4 14.2C59.8 14.5 59.3 14.8 59.3 14.8 59.3 14.8 58.2 12.6 56.9 10.1 55.6 7.5 54.5 5.4 54.5 5.3 54.5 5.3 54.1 8.2 53.6 11.6 53.1 15.1 52.7 18 52.7 18.1 52.7 18.2 52.6 18.2 51.6 18.7 51 19 50.5 19.3 50.5 19.3 50.5 19.3 48.9 16.2 47 12.5L47 12.5Z" class="a"/><path d="M22.5 17.4C20.3 17.2 18.6 16 18.1 14.1 18 13.7 17.9 13.6 17.9 12.9 17.9 12.3 18 12 18 11.8 18.2 11.1 18.5 10.6 18.9 10.2 19.3 9.8 19.7 9.5 20.3 9.2 20.8 9 21.3 8.9 23.1 8.4 23.9 8.2 24.8 8 25 7.9 25.7 7.7 26.2 7.3 26.4 6.9 26.5 6.6 26.6 6.1 26.6 5.8 26.4 4.8 25.8 4.2 24.7 3.9 23.7 3.6 22.4 3.8 21.6 4.2 20.9 4.6 20.4 5.2 20.1 6 20.1 6.1 20 6.1 18.8 6.1L17.5 6.1 17.5 6C17.5 5.8 17.8 4.9 18 4.5 18.9 2.8 20.7 1.7 23 1.6 25.3 1.4 27.2 2.1 28.3 3.6 28.5 3.9 28.8 4.5 28.9 5 29 5.4 29.1 5.6 29.1 6.2 29.1 6.8 29 6.9 29 7.3 28.6 8.5 27.9 9.3 26.7 9.9 26.1 10.2 25.6 10.3 23.8 10.8 22 11.2 21.6 11.3 21.2 11.6 20 12.4 20.2 14.2 21.6 14.9 22 15.1 22.4 15.2 22.9 15.2 24 15.3 24.8 15 25.5 14.5 25.8 14.2 26 13.9 26.2 13.5L26.4 13.2 27.7 13.2 29 13.2 28.9 13.5C28.4 15.4 27.2 16.6 25.3 17.2 24.5 17.4 23.3 17.5 22.5 17.4L22.5 17.4Z" class="a"/><polygon points="0 9.5 0 1.8 5 1.8 10 1.8 10 3 10 4.1 6.3 4.1 2.6 4.1 2.6 10.7 2.6 17.2 1.3 17.2 0 17.2" class="a"/><polygon points="12.4 9.5 12.4 1.8 13.7 1.8 15 1.8 15 9.5 15 17.2 13.7 17.2 12.4 17.2" class="a"/><polygon points="30.2 16 30.2 14.9 32.8 14.9 35.3 14.9 35.3 8.3 35.3 1.8 36.6 1.8 37.9 1.8 37.9 8.3 37.9 14.9 40.5 14.9 43 14.9 43 16 43 17.2 36.6 17.2 30.2 17.2" class="a"/><path d="M65.5 9.5L65.5 1.8 66.8 1.8 68.1 1.8 68.1 4.9 68.1 8 69.1 8 70 8 72.1 4.9 74.2 1.8 75.7 1.8 77.2 1.8 76.9 2.2C76.8 2.4 75.8 3.9 74.7 5.4L72.8 8.1 73.1 8.2C73.8 8.4 74.5 8.6 75 9 75.7 9.5 76.3 10.3 76.5 11.2 76.7 11.8 76.7 13 76.6 13.6 76.3 15.2 75.3 16.3 73.7 16.9 72.8 17.2 72.8 17.2 69 17.2L65.5 17.2 65.5 9.5 65.5 9.5ZM72.2 14.8C73.4 14.6 74.1 13.8 74.1 12.6 74.1 11.4 73.5 10.6 72.3 10.3 72 10.2 71.8 10.2 70.1 10.2L68.1 10.2 68.1 12.6 68.1 14.9 70 14.9C71.5 14.9 71.9 14.9 72.2 14.8L72.2 14.8Z" class="a"/><polygon points="79.2 9.5 79.2 1.8 80.5 1.8 81.8 1.8 81.8 9.5 81.8 17.2 80.5 17.2 79.2 17.2" class="a"/><path d="M84.9 9.5L84.9 1.8 88 1.8C90.7 1.8 91.2 1.8 91.6 1.9 93.3 2.2 94.6 2.8 95.6 4 96.6 5 97.2 6.4 97.5 8.1 97.6 8.7 97.6 10.1 97.5 10.7 97.3 12.6 96.6 14 95.5 15.1 94.5 16.1 93.5 16.7 92.1 17 91.2 17.2 90.8 17.2 87.8 17.2L84.9 17.2 84.9 9.5 84.9 9.5ZM91 14.8C91.6 14.7 92 14.6 92.5 14.4 94 13.6 94.9 12 95 9.8 95 8.3 94.7 6.9 94 6 93.6 5.4 93.1 5 92.4 4.6 91.6 4.2 90.6 4.1 88.6 4.1L87.5 4.1 87.5 9.5 87.5 14.9 89 14.9C90.2 14.9 90.7 14.9 91 14.8L91 14.8Z" class="a"/><polygon points="99.9 9.5 99.9 1.8 105 1.8 110 1.8 110 3 110 4.1 106.2 4.1 102.5 4.1 102.5 6.3 102.5 8.5 105.9 8.5 109.3 8.6 109.3 9.7 109.3 10.8 105.9 10.8 102.5 10.8 102.5 12.8 102.5 14.9 106.2 14.9 110 14.9 110 16 110 17.2 105 17.2 99.9 17.2" class="a"/></g></svg>