<?xml version="1.0" encoding="UTF-8"?>
<svg width="88px" height="24px" viewBox="0 0 88 24" version="1.1" xmlns="http://www.w3.org/2000/svg" xmlns:xlink="http://www.w3.org/1999/xlink">
    <!-- Generator: Sketch 48.2 (47327) - http://www.bohemiancoding.com/sketch -->
    <title>PayPal-logo</title>
    <desc>Created with Sketch.</desc>
    <defs></defs>
    <g id="Request-Flow---Payment-CC" stroke="none" stroke-width="1" fill="none" fill-rule="evenodd" transform="translate(-784.000000, -520.000000)">
        <g id="Payment" transform="translate(0.000000, 101.000000)">
            <g id="Methods-CC" transform="translate(0.000000, 229.000000)">
                <g id="Paypal" transform="translate(220.000000, 169.000000)">
                    <g id="PayPal-logo" transform="translate(564.000000, 21.000000)">
                        <path d="M10.8475193,0.7805547 L4.0757473,0.7805547 C3.61229584,0.7805547 3.21818182,1.11725732 3.14579353,1.57488444 L0.406964561,18.9391988 C0.352604006,19.2820031 0.618027735,19.5906934 0.965546995,19.5906934 L4.1983359,19.5906934 C4.66178737,19.5906934 5.05590139,19.2542681 5.12828968,18.7958089 L5.86687211,14.1122034 C5.938151,13.6537442 6.33309707,13.3170416 6.79571649,13.3170416 L8.93935285,13.3170416 C13.3999692,13.3170416 15.9743297,11.1584284 16.6469029,6.88114022 C16.9497689,5.00958398 16.659661,3.53935285 15.7832357,2.50955316 C14.820832,1.37879815 13.1137442,0.7805547 10.8475193,0.7805547 Z M11.6285362,7.12271186 C11.2582743,9.55257319 9.40169492,9.55257319 7.60668721,9.55257319 L6.58465331,9.55257319 L7.30160247,5.01457627 C7.34431433,4.74027735 7.58172573,4.53836672 7.8590755,4.53836672 L8.32751926,4.53836672 C9.55035439,4.53836672 10.7038521,4.53836672 11.2998767,5.23534669 C11.6554391,5.65109399 11.7641602,6.26902928 11.6285362,7.12271186 Z" id="Fill-1" fill="#28356A"></path>
                        <path d="M31.0893374,7.04449923 L27.8465639,7.04449923 C27.5703236,7.04449923 27.3315254,7.24640986 27.2890909,7.52070878 L27.1454237,8.42764253 L26.918829,8.09898305 C26.2168567,7.08 24.6512173,6.73941448 23.088906,6.73941448 C19.5052696,6.73941448 16.4447149,9.45355932 15.8486903,13.2607396 C15.5388906,15.1597535 15.979322,16.9758398 17.0568259,18.2422188 C18.0450231,19.4065331 19.4589522,19.8918952 21.1410786,19.8918952 C24.028567,19.8918952 25.6294299,18.0353159 25.6294299,18.0353159 L25.4849307,18.9364253 C25.4305701,19.2808937 25.6959938,19.5898613 26.0415716,19.5898613 L28.9623421,19.5898613 C29.4269029,19.5898613 29.8190755,19.2531587 29.8922958,18.7946995 L31.644869,7.69599384 C31.700339,7.35429892 31.4357473,7.04449923 31.0893374,7.04449923 Z M26.5690909,13.3558706 C26.2562404,15.2082897 24.7860092,16.451926 22.9105701,16.451926 C21.9689676,16.451926 21.2165177,16.1498921 20.7330971,15.5777196 C20.2538367,15.0094299 20.0718952,14.2004006 20.2241602,13.2992912 C20.5164869,11.462681 22.0114022,10.1782743 23.8582743,10.1782743 C24.7790755,10.1782743 25.5276425,10.4844684 26.0207704,11.0613559 C26.5147304,11.6446225 26.7108166,12.4586441 26.5690909,13.3558706 Z" id="Fill-2" fill="#28356A"></path>
                        <path d="M48.3599076,7.04449923 L45.1010478,7.04449923 C44.7901387,7.04449923 44.4980894,7.19898305 44.3219723,7.45747304 L39.8275193,14.0775347 L37.9224037,7.71568567 C37.8025886,7.31768875 37.4353775,7.04449923 37.0193529,7.04449923 L33.8173498,7.04449923 C33.4279507,7.04449923 33.157812,7.42474576 33.28151,7.79112481 L36.8709707,18.3243143 L33.4964561,23.088074 C33.2310324,23.4633282 33.4983975,23.9791988 33.9568567,23.9791988 L37.2115562,23.9791988 C37.5205239,23.9791988 37.8095223,23.8285978 37.9848074,23.5753775 L48.8230817,7.93063174 C49.082681,7.5564869 48.8161479,7.04449923 48.3599076,7.04449923" id="Fill-3" fill="#28356A"></path>
                        <path d="M59.1485362,0.7805547 L52.3759322,0.7805547 C51.9135901,0.7805547 51.5194761,1.11725732 51.4470878,1.57488444 L48.7082589,18.9391988 C48.6538983,19.2820031 48.919322,19.5906934 49.2648998,19.5906934 L52.7403698,19.5906934 C53.0629276,19.5906934 53.339168,19.3552234 53.3896456,19.0343297 L54.167057,14.1122034 C54.2383359,13.6537442 54.6335593,13.3170416 55.0959014,13.3170416 L57.2387057,13.3170416 C61.7001541,13.3170416 64.2736826,11.1584284 64.9470878,6.88114022 C65.2510632,5.00958398 64.9590139,3.53935285 64.0825886,2.50955316 C63.1210169,1.37879815 61.4150385,0.7805547 59.1485362,0.7805547 Z M59.9298305,7.12271186 C59.5604006,9.55257319 57.7038213,9.55257319 55.9077042,9.55257319 L54.887057,9.55257319 L55.6048382,5.01457627 C55.6472727,4.74027735 55.88302,4.53836672 56.1612018,4.53836672 L56.6296456,4.53836672 C57.8513713,4.53836672 59.0059784,4.53836672 59.6020031,5.23534669 C59.9575655,5.65109399 60.0654545,6.26902928 59.9298305,7.12271186 Z" id="Fill-4" fill="#298FC2"></path>
                        <path d="M79.3895223,7.04449923 L76.1486903,7.04449923 C75.8705085,7.04449923 75.6339291,7.24640986 75.5923267,7.52070878 L75.4486595,8.42764253 L75.2209553,8.09898305 C74.5189831,7.08 72.954453,6.73941448 71.3918644,6.73941448 C67.8085054,6.73941448 64.7490601,9.45355932 64.1530354,13.2607396 C63.8440678,15.1597535 64.2825578,16.9758398 65.3597843,18.2422188 C66.3502003,19.4065331 67.7619106,19.8918952 69.4443143,19.8918952 C72.3315254,19.8918952 73.9326656,18.0353159 73.9326656,18.0353159 L73.7881664,18.9364253 C73.7338059,19.2808937 73.9989522,19.5898613 74.3467488,19.5898613 L77.2666872,19.5898613 C77.7290293,19.5898613 78.1231433,19.2531587 78.1955316,18.7946995 L79.9489368,7.69599384 C80.0024653,7.35429892 79.7370416,7.04449923 79.3895223,7.04449923 Z M74.8695532,13.3558706 C74.5586441,15.2082897 73.0861941,16.451926 71.210755,16.451926 C70.271094,16.451926 69.5167026,16.1498921 69.033282,15.5777196 C68.5542989,15.0094299 68.3740216,14.2004006 68.5243451,13.2992912 C68.8186133,11.462681 70.3115871,10.1782743 72.1584592,10.1782743 C73.0792604,10.1782743 73.8278274,10.4844684 74.3209553,11.0613559 C74.8168567,11.6446225 75.012943,12.4586441 74.8695532,13.3558706 Z" id="Fill-5" fill="#298FC2"></path>
                        <path d="M83.2125116,1.2570416 L80.4331895,18.9391988 C80.378829,19.2820031 80.6439753,19.5906934 80.9895532,19.5906934 L83.7838521,19.5906934 C84.2484129,19.5906934 84.6422496,19.2542681 84.7135285,18.7958089 L87.4542989,1.43232666 C87.5089368,1.08952234 87.2435131,0.77972265 86.8979353,0.77972265 L83.7691525,0.77972265 C83.4929122,0.7805547 83.2552234,0.982742681 83.2125116,1.2570416" id="Fill-6" fill="#298FC2"></path>
                    </g>
                </g>
            </g>
        </g>
    </g>
</svg>