<?xml version="1.0" encoding="UTF-8"?>
<svg width="40px" height="24px" viewBox="0 0 40 24" version="1.1" xmlns="http://www.w3.org/2000/svg" xmlns:xlink="http://www.w3.org/1999/xlink">
    <!-- Generator: Sketch 48.2 (47327) - http://www.bohemiancoding.com/sketch -->
    <title>MasterCard_logo</title>
    <desc>Created with Sketch.</desc>
    <defs></defs>
    <g id="Request-Flow---Payment-CC" stroke="none" stroke-width="1" fill="none" fill-rule="evenodd" transform="translate(-746.000000, -352.000000)">
        <g id="Payment" transform="translate(0.000000, 101.000000)">
            <g id="Methods-CC" transform="translate(0.000000, 229.000000)">
                <g id="CC" transform="translate(219.000000, 22.000000)">
                    <g id="MasterCard_logo" transform="translate(527.000000, 0.000000)">
                        <polyline id="Fill-4" fill="#F1AD3D" points="27.8429735 23.8653451 28.4565664 23.8492035 29.0623009 23.8052389 29.6561416 23.7292035 30.2457345 23.624708 30.8191858 23.4923894 31.3849912 23.331823 31.9384779 23.1434336 32.4800708 22.9308319 33.0093451 22.6901947 33.5229027 22.4293805 34.0203186 22.140531 34.5056283 21.8317168 34.9707611 21.4989027 35.420177 21.1459115 35.8534513 20.7727434 36.2665487 20.3757876 36.6637168 19.9624779 37.0366726 19.5292035 37.3896637 19.08 37.7224779 18.6148673 38.031292 18.1293451 38.320354 17.6319292 38.5809558 17.1185841 38.8215929 16.588885 39.0341947 16.0477168 39.2227965 15.4938053 39.3833628 14.9284248 39.5156814 14.3547611 39.6199646 13.7651681 39.696 13.1715398 39.740177 12.5658053 39.7563186 11.952 39.740177 11.3422301 39.696 10.7407434 39.6199646 10.1469027 39.5156814 9.56538053 39.3833628 8.99171681 39.2227965 8.43015929 39.0341947 7.87667257 38.8215929 7.33911504 38.5809558 6.81366372 38.320354 6.30031858 38.031292 5.80693805 37.7224779 5.32141593 37.3896637 4.8560708 37.0366726 4.41090265 36.6637168 3.97784071 36.2665487 3.56453097 35.8534513 3.17139823 35.420177 2.79844248 34.9707611 2.44545133 34.5056283 2.11242478 34.0203186 1.80361062 33.5229027 1.51879646 33.0093451 1.25819469 32.4800708 1.01734513 31.9384779 0.804955752 31.3849912 0.616353982 30.8191858 0.455787611 30.2457345 0.323469027 29.6561416 0.219185841 29.0623009 0.142938053 28.4565664 0.0989734513 27.8429735 0.0828318584 27.2332035 0.0989734513 26.627469 0.142938053 26.0338407 0.219185841 25.4480708 0.323469027 24.8746195 0.455787611 24.3090265 0.616353982 23.7593628 0.804955752 23.2179823 1.01734513 22.692531 1.25819469 22.1830088 1.51879646 21.6858053 1.80361062 21.2043186 2.11242478 20.7389735 2.44545133 20.2897699 2.79844248 19.860531 3.17139823 19.4474336 3.56453097 19.0543009 3.97784071 18.6813451 4.41090265 18.328354 4.8560708 17.9993628 5.32141593 17.6903363 5.80693805 17.4057345 6.30031858 17.1410973 6.81366372 16.9042832 7.33911504 16.6916814 7.87667257 16.5073274 8.43015929 16.3467611 8.99171681 16.2144425 9.56538053 16.1101593 10.1469027 16.0339115 10.7407434 15.9897345 11.3422301 15.9735929 11.952 15.9897345 12.5658053 16.0339115 13.1715398 16.1101593 13.7651681 16.2144425 14.3547611 16.3467611 14.9284248 16.5073274 15.4938053 16.6916814 16.0477168 16.9042832 16.588885 17.1410973 17.1185841 17.4057345 17.6319292 17.6903363 18.1293451 17.9993628 18.6148673 18.328354 19.08 18.6813451 19.5292035 19.0543009 19.9624779 19.4474336 20.3757876 19.860531 20.7727434 20.2897699 21.1459115 20.7389735 21.4989027 21.2043186 21.8317168 21.6858053 22.140531 22.1830088 22.4293805 22.692531 22.6901947 23.2179823 22.9308319 23.7593628 23.1434336 24.3090265 23.331823 24.8746195 23.4923894 25.4480708 23.624708 26.0338407 23.7292035 26.627469 23.8052389 27.2332035 23.8492035 27.8429735 23.8653451"></polyline>
                        <polyline id="Fill-5" fill="#D82332" points="11.9343717 23.8653451 12.5441416 23.8492035 13.1498761 23.8052389 13.7435044 23.7292035 14.3290619 23.624708 14.9027257 23.4923894 15.4683186 23.331823 16.0177699 23.1434336 16.5593628 22.9308319 17.0848142 22.6901947 17.5941239 22.4293805 18.0917522 22.140531 18.5730265 21.8317168 19.0383717 21.4989027 19.4875752 21.1459115 19.9166018 20.7727434 20.3299115 20.3757876 20.7230442 19.9624779 21.096 19.5292035 21.4489912 19.08 21.7779823 18.6148673 22.0867965 18.1293451 22.3716106 17.6319292 22.6362478 17.1185841 22.8728496 16.588885 23.0856637 16.0477168 23.2700177 15.4938053 23.4303717 14.9284248 23.5629027 14.3547611 23.6671858 13.7651681 23.7434336 13.1715398 23.7876106 12.5658053 23.8035398 11.952 23.7876106 11.3422301 23.7434336 10.7407434 23.6671858 10.1469027 23.5629027 9.56538053 23.4303717 8.99171681 23.2700177 8.43015929 23.0856637 7.87667257 22.8728496 7.33911504 22.6362478 6.81366372 22.3716106 6.30031858 22.0867965 5.80693805 21.7779823 5.32141593 21.4489912 4.8560708 21.096 4.41090265 20.7230442 3.97784071 20.3299115 3.56453097 19.9166018 3.17139823 19.4875752 2.79844248 19.0383717 2.44545133 18.5730265 2.11242478 18.0917522 1.80361062 17.5941239 1.51879646 17.0848142 1.25819469 16.5593628 1.01734513 16.0177699 0.804955752 15.4683186 0.616353982 14.9027257 0.455787611 14.3290619 0.323469027 13.7435044 0.219185841 13.1498761 0.142938053 12.5441416 0.0989734513 11.9343717 0.0828318584 11.3207788 0.0989734513 10.7150442 0.142938053 10.1212035 0.219185841 9.53161062 0.323469027 8.95815929 0.455787611 8.39256637 0.616353982 7.83886726 0.804955752 7.29727434 1.01734513 6.768 1.25819469 6.25444248 1.51879646 5.75702655 1.80361062 5.27171681 2.11242478 4.80637168 2.44545133 4.35716814 2.79844248 3.92389381 3.17139823 3.51079646 3.56453097 3.11362832 3.97784071 2.74067257 4.41090265 2.38768142 4.8560708 2.05465487 5.32141593 1.74584071 5.80693805 1.45699115 6.30031858 1.19617699 6.81366372 0.955752212 7.33911504 0.743150442 7.87667257 0.554548673 8.43015929 0.393982301 8.99171681 0.261663717 9.56538053 0.157380531 10.1469027 0.0811327434 10.7407434 0.0369557522 11.3422301 0.0210265487 11.952 0.0369557522 12.5658053 0.0811327434 13.1715398 0.157380531 13.7651681 0.261663717 14.3547611 0.393982301 14.9284248 0.554548673 15.4938053 0.743150442 16.0477168 0.955752212 16.588885 1.19617699 17.1185841 1.45699115 17.6319292 1.74584071 18.1293451 2.05465487 18.6148673 2.38768142 19.08 2.74067257 19.5292035 3.11362832 19.9624779 3.51079646 20.3757876 3.92389381 20.7727434 4.35716814 21.1459115 4.80637168 21.4989027 5.27171681 21.8317168 5.75702655 22.140531 6.25444248 22.4293805 6.768 22.6901947 7.29727434 22.9308319 7.83886726 23.1434336 8.39256637 23.331823 8.95815929 23.4923894 9.53161062 23.624708 10.1212035 23.7292035 10.7150442 23.8052389 11.3207788 23.8492035 11.9343717 23.8653451"></polyline>
                        <polyline id="Fill-6" fill="#F1AD3D" points="18.4967788 4.64368142 24.8145133 4.64368142 24.8145133 3.99780531 19.0421947 3.99780531 18.4967788 4.64368142"></polyline>
                        <polyline id="Fill-7" fill="#F1AD3D" points="17.5501593 6.07964602 24.8145133 6.07964602 24.8145133 5.4339823 17.9311858 5.4339823 17.5501593 6.07964602"></polyline>
                        <polyline id="Fill-8" fill="#F1AD3D" points="16.844177 7.51157522 24.8145133 7.51157522 24.8145133 6.86569912 17.1249558 6.86569912 16.844177 7.51157522"></polyline>
                        <polyline id="Fill-9" fill="#F1AD3D" points="16.3586549 8.94753982 24.8145133 8.94753982 24.8145133 8.30187611 16.5593628 8.30187611 16.3586549 8.94753982"></polyline>
                        <polyline id="Fill-10" fill="#F1AD3D" points="16.639646 15.8871504 24.8344779 15.8871504 24.8344779 15.2412743 16.4389381 15.2412743 16.639646 15.8871504"></polyline>
                        <polyline id="Fill-11" fill="#F1AD3D" points="17.2451681 17.323115 24.8344779 17.323115 24.8344779 16.6772389 16.9444248 16.6772389 17.2451681 17.323115"></polyline>
                        <polyline id="Fill-12" fill="#F1AD3D" points="18.0955752 18.7552566 24.8344779 18.7552566 24.8344779 18.1093805 17.6903363 18.1093805 18.0955752 18.7552566"></polyline>
                        <polyline id="Fill-13" fill="#F1AD3D" points="19.2669027 20.1910088 24.8344779 20.1910088 24.8344779 19.5413097 18.7013097 19.5413097 19.2669027 20.1910088"></polyline>
                        <polyline id="Fill-14" fill="#F1AD3D" points="16.0740531 10.3796814 24.8145133 10.3796814 24.8145133 9.73380531 16.1983009 9.73380531 16.0740531 10.3796814"></polyline>
                        <polyline id="Fill-15" fill="#F1AD3D" points="21.4009912 14.4552212 24.7342301 14.4552212 24.7342301 13.8093451 21.5212035 13.8093451 21.4009912 14.4552212"></polyline>
                        <polyline id="Fill-16" fill="#F1AD3D" points="21.6656283 13.0230796 24.7342301 13.0230796 24.7342301 12.3731681 21.7860531 12.3731681 21.6656283 13.0230796"></polyline>
                        <polyline id="Fill-17" fill="#F1AD3D" points="15.8533805 12.3731681 16.7199292 12.3731681 16.7199292 13.0230796 15.8935221 13.0230796 15.8533805 12.3731681"></polyline>
                        <polyline id="Fill-18" fill="#FFFFFE" points="14.236885 11.5911504 14.1806018 11.587115 14.124531 11.5790442 14.0722832 11.5709735 14.0202478 11.5629027 13.9720354 11.5550442 13.92 11.5469735 13.8677522 11.5389027 13.8116814 11.5308319 13.7556106 11.5227611 13.6912566 11.5187257 13.6192566 11.5149027 13.5430088 11.5108673 13.4586903 11.5108673 13.3665133 11.5149027 13.2620177 11.5227611 13.1458407 11.5308319 13.0655575 11.5429381 12.9893097 11.5550442 12.9211327 11.5790442 12.8610265 11.6030442 12.8047434 11.6310796 12.752708 11.6633628 12.6764602 11.7393982 12.6524602 11.7835752 12.6322832 11.8277522 12.6242124 11.8757522 12.6242124 11.924177 12.6363186 11.9762124 12.6524602 12.0282478 12.684531 12.0804956 12.7246726 12.132531 12.8047434 12.2085664 12.9011681 12.2690973 13.0133097 12.3211327 13.1337345 12.3653097 13.2620177 12.4052389 13.3943363 12.4494159 13.5268673 12.4976283 13.6551504 12.5498761 13.7755752 12.6178407 13.8879292 12.7021593 13.988177 12.8024071 14.0722832 12.9266549 14.1366372 13.0791504 14.1767788 13.2598938 14.192708 13.4763186 14.1767788 13.7290619 14.148531 13.9174513 14.100531 14.0820531 14.036177 14.2345487 13.9558938 14.3668673 13.8637168 14.4830442 13.7594336 14.583292 13.6470796 14.671646 13.5228319 14.7478938 13.3943363 14.808 13.2620177 14.8602478 13.1256637 14.900177 12.9854867 14.9324602 12.8489204 14.9564602 12.7166018 14.9685664 12.5840708 14.9766372 12.459823 14.9804602 12.2873628 14.9804602 12.1270088 14.9766372 11.9866195 14.9766372 11.8540885 14.9723894 11.7338761 14.9685664 11.6255575 14.9602832 11.5293451 14.9524248 11.4369558 14.940531 11.3528496 14.9324602 11.2766018 14.9163186 11.200354 14.9044248 11.132177 14.8842478 11.064 14.8683186 10.9998584 14.8443186 10.9355044 14.8201062 10.8673274 14.7958938 11.0478584 13.9095929 11.084177 13.9174513 11.1281416 13.9295575 11.1842124 13.9456991 11.2523894 13.9616283 11.3246018 13.9777699 11.404885 13.9939115 11.4932389 14.0136637 11.5894513 14.0300177 11.6896991 14.0459469 11.7939823 14.0618761 11.9023009 14.0741947 12.0146549 14.0860885 12.1310442 14.0901239 12.2472212 14.0939469 12.3636106 14.0939469 12.48 14.0901239 12.596177 14.0661239 12.6885664 14.0338407 12.7607788 13.9896637 12.8168496 13.9335929 12.8569912 13.8775221 12.8890619 13.8131681 12.9092389 13.7490265 12.9251681 13.6889204 12.9332389 13.572531 12.8971327 13.4724956 12.8289558 13.3922124 12.7284956 13.323823 12.6082832 13.2637168 12.4678938 13.2036106 12.3113628 13.1473274 12.1550442 13.0833982 11.9946903 13.0111858 11.8421947 12.9266549 11.7018053 12.8223717 11.5733097 12.6981239 11.4730619 12.5456283 11.4008496 12.3653097 11.3647434 12.1484602 11.3687788 11.8918938 11.3889558 11.7353628 11.4169912 11.587115 11.4571327 11.4507611 11.5051327 11.3222655 11.5692743 11.2020531 11.6416991 11.0975575 11.7258053 10.9973097 11.8260531 10.9091681 11.9424425 10.8329204 12.0707257 10.7687788 12.2151504 10.7084602 12.3757168 10.6644956 12.5562478 10.6283894 12.752708 10.600354 12.9691327 10.5842124 13.2059469 10.580177 13.3544071 10.580177 13.4907611 10.5842124 13.6150088 10.5882478 13.7273628 10.5922832 13.8276106 10.600354 13.92 10.6084248 14.0000708 10.6162832 14.0722832 10.624354 14.1406726 10.6324248 14.1967434 10.6443186 14.2487788 10.6523894 14.2969912 10.6604602 14.3371327 10.6683186 14.3732389 10.672354 14.4093451 10.6806372 14.4414159 10.6846726 14.236885 11.5911504"></polyline>
                        <polyline id="Stroke-19" stroke="#FFFFFE" stroke-width="0.216" points="14.236885 11.5911504 14.236885 11.5911504 14.1806018 11.587115 14.124531 11.5790442 14.0722832 11.5709735 14.0202478 11.5629027 13.9720354 11.5550442 13.92 11.5469735 13.8677522 11.5389027 13.8116814 11.5308319 13.7556106 11.5227611 13.6912566 11.5187257 13.6192566 11.5149027 13.5430088 11.5108673 13.4586903 11.5108673 13.3665133 11.5149027 13.2620177 11.5227611 13.1458407 11.5308319 13.0655575 11.5429381 12.9893097 11.5550442 12.9211327 11.5790442 12.8610265 11.6030442 12.8047434 11.6310796 12.752708 11.6633628 12.6764602 11.7393982 12.6524602 11.7835752 12.6322832 11.8277522 12.6242124 11.8757522 12.6242124 11.924177 12.6363186 11.9762124 12.6524602 12.0282478 12.684531 12.0804956 12.7246726 12.132531 12.8047434 12.2085664 12.9011681 12.2690973 13.0133097 12.3211327 13.1337345 12.3653097 13.2620177 12.4052389 13.3943363 12.4494159 13.5268673 12.4976283 13.6551504 12.5498761 13.7755752 12.6178407 13.8879292 12.7021593 13.988177 12.8024071 14.0722832 12.9266549 14.1366372 13.0791504 14.1767788 13.2598938 14.192708 13.4763186 14.1767788 13.7290619 14.148531 13.9174513 14.100531 14.0820531 14.036177 14.2345487 13.9558938 14.3668673 13.8637168 14.4830442 13.7594336 14.583292 13.6470796 14.671646 13.5228319 14.7478938 13.3943363 14.808 13.2620177 14.8602478 13.1256637 14.900177 12.9854867 14.9324602 12.8489204 14.9564602 12.7166018 14.9685664 12.5840708 14.9766372 12.459823 14.9804602 12.2873628 14.9804602 12.1270088 14.9766372 11.9866195 14.9766372 11.8540885 14.9723894 11.7338761 14.9685664 11.6255575 14.9602832 11.5293451 14.9524248 11.4369558 14.940531 11.3528496 14.9324602 11.2766018 14.9163186 11.200354 14.9044248 11.132177 14.8842478 11.064 14.8683186 10.9998584 14.8443186 10.9355044 14.8201062 10.8673274 14.7958938 11.0478584 13.9095929 11.084177 13.9174513 11.1281416 13.9295575 11.1842124 13.9456991 11.2523894 13.9616283 11.3246018 13.9777699 11.404885 13.9939115 11.4932389 14.0136637 11.5894513 14.0300177 11.6896991 14.0459469 11.7939823 14.0618761 11.9023009 14.0741947 12.0146549 14.0860885 12.1310442 14.0901239 12.2472212 14.0939469 12.3636106 14.0939469 12.48 14.0901239 12.596177 14.0661239 12.6885664 14.0338407 12.7607788 13.9896637 12.8168496 13.9335929 12.8569912 13.8775221 12.8890619 13.8131681 12.9092389 13.7490265 12.9251681 13.6889204 12.9332389 13.572531 12.8971327 13.4724956 12.8289558 13.3922124 12.7284956 13.323823 12.6082832 13.2637168 12.4678938 13.2036106 12.3113628 13.1473274 12.1550442 13.0833982 11.9946903 13.0111858 11.8421947 12.9266549 11.7018053 12.8223717 11.5733097 12.6981239 11.4730619 12.5456283 11.4008496 12.3653097 11.3647434 12.1484602 11.3687788 11.8918938 11.3889558 11.7353628 11.4169912 11.587115 11.4571327 11.4507611 11.5051327 11.3222655 11.5692743 11.2020531 11.6416991 11.0975575 11.7258053 10.9973097 11.8260531 10.9091681 11.9424425 10.8329204 12.0707257 10.7687788 12.2151504 10.7084602 12.3757168 10.6644956 12.5562478 10.6283894 12.752708 10.600354 12.9691327 10.5842124 13.2059469 10.580177 13.3544071 10.580177 13.4907611 10.5842124 13.6150088 10.5882478 13.7273628 10.5922832 13.8276106 10.600354 13.92 10.6084248 14.0000708 10.6162832 14.0722832 10.624354 14.1406726 10.6324248 14.1967434 10.6443186 14.2487788 10.6523894 14.2969912 10.6604602 14.3371327 10.6683186 14.3732389 10.672354 14.4093451 10.6806372 14.4414159 10.6846726 14.236885 11.5911504"></polyline>
                        <polyline id="Fill-20" fill="#FFFFFE" points="15.1875398 9.69387611 16.2985487 9.69387611 16.1341593 10.6644956 16.8040354 10.6644956 16.6596106 11.5709735 15.9536283 11.5510088 15.5685664 13.7891681 15.564531 13.8694513 15.5844956 13.9376283 15.6248496 13.9896637 15.676885 14.0338407 15.7490973 14.0618761 15.8293805 14.0860885 15.9175221 14.1020177 16.0137345 14.1100885 16.1020885 14.1060531 16.1821593 14.0979823 16.2545841 14.0860885 16.3185133 14.0699469 16.3707611 14.0540177 16.4068673 14.0419115 16.4310796 14.0338407 16.4389381 14.0300177 16.2985487 14.7759292 16.2705133 14.7958938 16.2424779 14.8120354 16.2144425 14.8279646 16.1861947 14.8443186 16.1581593 14.8562124 16.1260885 14.8683186 16.0899823 14.8804248 16.0538761 14.8923186 16.0137345 14.9044248 15.9735929 14.9122832 15.9255929 14.920354 15.8773805 14.9284248 15.8253451 14.9362832 15.7652389 14.944354 15.700885 14.9524248 15.632708 14.9602832 15.3279292 14.9602832 15.1673628 14.9483894 15.0269735 14.9324602 14.8986903 14.9082478 14.7903717 14.8804248 14.6981947 14.8443186 14.6219469 14.8039646 14.5535575 14.7559646 14.5015221 14.7037168 14.4615929 14.647646 14.4333451 14.579469 14.4133805 14.5110796 14.4012743 14.4350442 14.3972389 14.3507257 14.3972389 14.2623717 14.4093451 14.1704071 14.4212389 14.0699469 15.1875398 9.69387611"></polyline>
                        <polyline id="Stroke-21" stroke="#FFFFFE" stroke-width="0.216" points="15.1875398 9.69387611 16.2985487 9.69387611 16.1341593 10.6644956 16.8040354 10.6644956 16.6596106 11.5709735 15.9536283 11.5510088 15.5685664 13.7891681 15.564531 13.8694513 15.5844956 13.9376283 15.6248496 13.9896637 15.676885 14.0338407 15.7490973 14.0618761 15.8293805 14.0860885 15.9175221 14.1020177 16.0137345 14.1100885 16.1020885 14.1060531 16.1821593 14.0979823 16.2545841 14.0860885 16.3185133 14.0699469 16.3707611 14.0540177 16.4068673 14.0419115 16.4310796 14.0338407 16.4389381 14.0300177 16.2985487 14.7759292 16.2705133 14.7958938 16.2424779 14.8120354 16.2144425 14.8279646 16.1861947 14.8443186 16.1581593 14.8562124 16.1260885 14.8683186 16.0899823 14.8804248 16.0538761 14.8923186 16.0137345 14.9044248 15.9735929 14.9122832 15.9255929 14.920354 15.8773805 14.9284248 15.8253451 14.9362832 15.7652389 14.944354 15.700885 14.9524248 15.632708 14.9602832 15.3279292 14.9602832 15.1673628 14.9483894 15.0269735 14.9324602 14.8986903 14.9082478 14.7903717 14.8804248 14.6981947 14.8443186 14.6219469 14.8039646 14.5535575 14.7559646 14.5015221 14.7037168 14.4615929 14.647646 14.4333451 14.579469 14.4133805 14.5110796 14.4012743 14.4350442 14.3972389 14.3507257 14.3972389 14.2623717 14.4093451 14.1704071 14.4212389 14.0699469 15.1875398 9.69387611"></polyline>
                        <polyline id="Fill-22" fill="#FFFFFE" points="17.6903363 13.0833982 17.6784425 13.1513628 17.6744071 13.2235752 17.6824779 13.299823 17.6986195 13.3760708 17.7266549 13.4523186 17.7587257 13.524531 17.8029027 13.6005664 17.8509027 13.6687434 17.9071858 13.7371327 17.967292 13.7972389 18.0314336 13.8573451 18.103646 13.9055575 18.1758584 13.9497345 18.2561416 13.9858407 18.3362124 14.0136637 18.4164956 14.0300177 18.5207788 14.0459469 18.6210265 14.0578407 18.7255221 14.0699469 18.8295929 14.0780177 18.9338761 14.0820531 19.0421947 14.0820531 19.1464779 14.0780177 19.2550088 14.0699469 19.363115 14.0540177 19.4714336 14.0338407 19.5837876 14.0098407 19.6921062 13.9737345 19.8044602 13.9295575 19.9206372 13.8813451 20.0329912 13.8174159 20.1493805 13.7490265 19.9888142 14.7357876 19.924885 14.7678584 19.860531 14.8001416 19.7963894 14.8241416 19.7362832 14.8481416 19.676177 14.8683186 19.611823 14.8882832 19.5476814 14.9044248 19.4795044 14.9163186 19.407292 14.9284248 19.3272212 14.9362832 19.2429027 14.944354 19.1505133 14.9524248 19.0464425 14.9564602 18.9381239 14.9564602 18.8136637 14.9602832 18.6813451 14.9602832 18.4846726 14.9564602 18.284177 14.9362832 18.0836814 14.9082478 17.8829735 14.8602478 17.6865133 14.8001416 17.4979115 14.7236814 17.3173805 14.623646 17.1489558 14.5072566 16.9924248 14.3709027 16.8560708 14.2065133 16.7398938 14.0219469 16.643469 13.8093451 16.575292 13.572531 16.531115 13.3038584 16.5192212 13.0069381 16.5393982 12.6779469 16.5553274 12.5498761 16.5795398 12.4014159 16.6113982 12.244885 16.6555752 12.0762478 16.7158938 11.904 16.7878938 11.7313274 16.8802832 11.5550442 16.9924248 11.3864071 17.1209204 11.2260531 17.2774513 11.0735575 17.4537345 10.9372035 17.6544425 10.8169912 17.8870088 10.716531 18.147823 10.6443186 18.4366726 10.5963186 18.7614159 10.580177 18.9179469 10.5842124 19.0823363 10.600354 19.2469381 10.6283894 19.4113274 10.6683186 19.5716814 10.7286372 19.7282124 10.8008496 19.8726372 10.8970619 20.0049558 11.0094159 20.1253805 11.1457699 20.2256283 11.3063363 20.3056991 11.4909027 20.3619823 11.703292 20.3940531 11.9439292 20.3980885 12.2166372 20.3700531 12.5216283 20.3097345 12.8586903 20.2897699 13.1031504 17.3655929 13.1031504 17.5501593 12.3130619 19.3070442 12.3130619 19.315115 12.2128142 19.3110796 12.1166018 19.3030088 12.0282478 19.2870796 11.948177 19.2588319 11.8717168 19.2307965 11.8035398 19.1906549 11.7434336 19.1505133 11.6873628 19.1025133 11.6391504 19.0502655 11.5990088 18.9901593 11.5629027 18.9300531 11.5308319 18.8659115 11.5068319 18.8015575 11.4909027 18.7333805 11.4787965 18.6611681 11.4707257 18.5849204 11.4747611 18.5129204 11.4866549 18.444531 11.5027965 18.376354 11.5267965 18.308177 11.5588673 18.2480708 11.5951858 18.1879646 11.6391504 18.1357168 11.6873628 18.0836814 11.7434336 18.035469 11.8035398 17.991292 11.8676814 17.9553982 11.9360708 17.9190796 12.0082832 17.8910442 12.0885664 17.8670442 12.1686372 17.8509027 12.2527434 17.6903363 13.0833982"></polyline>
                        <polyline id="Stroke-23" stroke="#FFFFFE" stroke-width="0.216" points="17.6903363 13.0833982 17.6903363 13.0833982 17.6784425 13.1513628 17.6744071 13.2235752 17.6824779 13.299823 17.6986195 13.3760708 17.7266549 13.4523186 17.7587257 13.524531 17.8029027 13.6005664 17.8509027 13.6687434 17.9071858 13.7371327 17.967292 13.7972389 18.0314336 13.8573451 18.103646 13.9055575 18.1758584 13.9497345 18.2561416 13.9858407 18.3362124 14.0136637 18.4164956 14.0300177 18.5207788 14.0459469 18.6210265 14.0578407 18.7255221 14.0699469 18.8295929 14.0780177 18.9338761 14.0820531 19.0421947 14.0820531 19.1464779 14.0780177 19.2550088 14.0699469 19.363115 14.0540177 19.4714336 14.0338407 19.5837876 14.0098407 19.6921062 13.9737345 19.8044602 13.9295575 19.9206372 13.8813451 20.0329912 13.8174159 20.1493805 13.7490265 19.9888142 14.7357876 19.924885 14.7678584 19.860531 14.8001416 19.7963894 14.8241416 19.7362832 14.8481416 19.676177 14.8683186 19.611823 14.8882832 19.5476814 14.9044248 19.4795044 14.9163186 19.407292 14.9284248 19.3272212 14.9362832 19.2429027 14.944354 19.1505133 14.9524248 19.0464425 14.9564602 18.9381239 14.9564602 18.8136637 14.9602832 18.6813451 14.9602832 18.4846726 14.9564602 18.284177 14.9362832 18.0836814 14.9082478 17.8829735 14.8602478 17.6865133 14.8001416 17.4979115 14.7236814 17.3173805 14.623646 17.1489558 14.5072566 16.9924248 14.3709027 16.8560708 14.2065133 16.7398938 14.0219469 16.643469 13.8093451 16.575292 13.572531 16.531115 13.3038584 16.5192212 13.0069381 16.5393982 12.6779469 16.5553274 12.5498761 16.5795398 12.4014159 16.6113982 12.244885 16.6555752 12.0762478 16.7158938 11.904 16.7878938 11.7313274 16.8802832 11.5550442 16.9924248 11.3864071 17.1209204 11.2260531 17.2774513 11.0735575 17.4537345 10.9372035 17.6544425 10.8169912 17.8870088 10.716531 18.147823 10.6443186 18.4366726 10.5963186 18.7614159 10.580177 18.9179469 10.5842124 19.0823363 10.600354 19.2469381 10.6283894 19.4113274 10.6683186 19.5716814 10.7286372 19.7282124 10.8008496 19.8726372 10.8970619 20.0049558 11.0094159 20.1253805 11.1457699 20.2256283 11.3063363 20.3056991 11.4909027 20.3619823 11.703292 20.3940531 11.9439292 20.3980885 12.2166372 20.3700531 12.5216283 20.3097345 12.8586903 20.2897699 13.1031504 17.3655929 13.1031504 17.5501593 12.3130619 19.3070442 12.3130619 19.315115 12.2128142 19.3110796 12.1166018 19.3030088 12.0282478 19.2870796 11.948177 19.2588319 11.8717168 19.2307965 11.8035398 19.1906549 11.7434336 19.1505133 11.6873628 19.1025133 11.6391504 19.0502655 11.5990088 18.9901593 11.5629027 18.9300531 11.5308319 18.8659115 11.5068319 18.8015575 11.4909027 18.7333805 11.4787965 18.6611681 11.4707257 18.5849204 11.4747611 18.5129204 11.4866549 18.444531 11.5027965 18.376354 11.5267965 18.308177 11.5588673 18.2480708 11.5951858 18.1879646 11.6391504 18.1357168 11.6873628 18.0836814 11.7434336 18.035469 11.8035398 17.991292 11.8676814 17.9553982 11.9360708 17.9190796 12.0082832 17.8910442 12.0885664 17.8670442 12.1686372 17.8509027 12.2527434 17.6903363 13.0833982"></polyline>
                        <polyline id="Fill-24" fill="#FFFFFE" points="27.2572035 10.9051327 27.2051681 10.8770973 27.1531327 10.8530973 27.0968496 10.8248496 27.0367434 10.7968142 26.9766372 10.7728142 26.9082478 10.7486018 26.8400708 10.7246018 26.7678584 10.7006018 26.691823 10.6806372 26.6153628 10.6644956 26.5312566 10.648354 26.4469381 10.6364602 26.3547611 10.6283894 26.2623717 10.6203186 25.9656637 10.6203186 25.8613805 10.6283894 25.7530619 10.6404956 25.6409204 10.6604602 25.528354 10.692531 25.4162124 10.736708 25.3038584 10.7927788 25.191292 10.8649912 25.0833982 10.9533451 24.9789027 11.0576283 24.8786549 11.1859115 24.7824425 11.3343717 24.6943009 11.5108673 24.6097699 11.7113628 24.5337345 11.9360708 24.4695929 12.1926372 24.4455929 12.3370619 24.4292389 12.4774513 24.4211681 12.6178407 24.4254159 12.7544071 24.4375221 12.8905487 24.4653451 13.0190442 24.5014513 13.1392566 24.5456283 13.2598938 24.6059469 13.368 24.6779469 13.4724956 24.7622655 13.5644602 24.8584779 13.6487788 24.9670088 13.7209912 25.0912566 13.7813097 25.2276106 13.8333451 25.3801062 13.8694513 25.4321416 13.8813451 25.4922478 13.8934513 25.5644602 13.9015221 25.6447434 13.9095929 25.732885 13.9174513 25.9255221 13.9174513 26.0257699 13.9095929 26.1300531 13.8974867 26.2345487 13.8775221 26.3345841 13.8494867 26.4350442 13.8174159 26.535292 13.7732389 26.627469 13.7209912 26.7117876 13.6568496 26.7920708 13.5846372 26.6115398 14.6557168 26.5875398 14.6756814 26.5633274 14.6996814 26.5312566 14.7279292 26.4951504 14.7519292 26.4509735 14.784 26.3946903 14.8120354 26.3307611 14.8400708 26.2585487 14.8640708 26.1661593 14.8923186 26.0618761 14.9122832 25.9416637 14.9284248 25.8010619 14.944354 25.6447434 14.9524248 25.4644248 14.9564602 25.2596814 14.9524248 25.0349735 14.940531 24.8506195 14.920354 24.6660531 14.8804248 24.4816991 14.8201062 24.2969204 14.739823 24.1204248 14.6436106 23.952 14.5231858 23.791646 14.3830088 23.6431858 14.2224425 23.5106549 14.0419115 23.3985133 13.8414159 23.3023009 13.616708 23.2300885 13.3720354 23.1818761 13.1031504 23.1657345 12.8185487 23.1738053 12.5056991 23.2179823 12.1726726 23.2500531 12.0082832 23.2861593 11.8477168 23.3263009 11.6913982 23.3664425 11.5429381 23.4106195 11.4025487 23.4626549 11.2621593 23.5149027 11.1298407 23.5707611 11.0053805 23.631292 10.8809204 23.6913982 10.7647434 23.7593628 10.6523894 23.8315752 10.5481062 23.904 10.4478584 23.9840708 10.351646 24.064354 10.263292 24.1484602 10.1791858 24.2408496 10.0989027 24.3330265 10.0226549 24.4292389 9.95447788 24.5296991 9.89033628 24.6380177 9.8300177 24.7463363 9.7779823 24.8584779 9.72976991 24.9748673 9.68559292 25.0993274 9.64566372 25.2235752 9.61359292 25.3518584 9.58534513 25.4884248 9.56134513 25.6245664 9.54116814 25.7692035 9.52523894 25.9136283 9.51716814 26.0661239 9.51334513 26.1944071 9.51716814 26.3186549 9.52523894 26.4388673 9.53713274 26.559292 9.55327434 26.671646 9.56941593 26.7799646 9.59341593 26.8842478 9.61359292 26.9804602 9.63759292 27.0728496 9.66159292 27.1531327 9.68559292 27.2291681 9.70980531 27.2935221 9.73380531 27.3495929 9.7539823 27.3975929 9.7699115 27.4339115 9.7860531 27.4576991 9.79412389 27.2572035 10.9051327"></polyline>
                        <polyline id="Stroke-25" stroke="#FFFFFE" stroke-width="0.216" points="27.2572035 10.9051327 27.2572035 10.9051327 27.2051681 10.8770973 27.1531327 10.8530973 27.0968496 10.8248496 27.0367434 10.7968142 26.9766372 10.7728142 26.9082478 10.7486018 26.8400708 10.7246018 26.7678584 10.7006018 26.691823 10.6806372 26.6153628 10.6644956 26.5312566 10.648354 26.4469381 10.6364602 26.3547611 10.6283894 26.2623717 10.6203186 25.9656637 10.6203186 25.8613805 10.6283894 25.7530619 10.6404956 25.6409204 10.6604602 25.528354 10.692531 25.4162124 10.736708 25.3038584 10.7927788 25.191292 10.8649912 25.0833982 10.9533451 24.9789027 11.0576283 24.8786549 11.1859115 24.7824425 11.3343717 24.6943009 11.5108673 24.6097699 11.7113628 24.5337345 11.9360708 24.4695929 12.1926372 24.4455929 12.3370619 24.4292389 12.4774513 24.4211681 12.6178407 24.4254159 12.7544071 24.4375221 12.8905487 24.4653451 13.0190442 24.5014513 13.1392566 24.5456283 13.2598938 24.6059469 13.368 24.6779469 13.4724956 24.7622655 13.5644602 24.8584779 13.6487788 24.9670088 13.7209912 25.0912566 13.7813097 25.2276106 13.8333451 25.3801062 13.8694513 25.4321416 13.8813451 25.4922478 13.8934513 25.5644602 13.9015221 25.6447434 13.9095929 25.732885 13.9174513 25.9255221 13.9174513 26.0257699 13.9095929 26.1300531 13.8974867 26.2345487 13.8775221 26.3345841 13.8494867 26.4350442 13.8174159 26.535292 13.7732389 26.627469 13.7209912 26.7117876 13.6568496 26.7920708 13.5846372 26.6115398 14.6557168 26.5875398 14.6756814 26.5633274 14.6996814 26.5312566 14.7279292 26.4951504 14.7519292 26.4509735 14.784 26.3946903 14.8120354 26.3307611 14.8400708 26.2585487 14.8640708 26.1661593 14.8923186 26.0618761 14.9122832 25.9416637 14.9284248 25.8010619 14.944354 25.6447434 14.9524248 25.4644248 14.9564602 25.2596814 14.9524248 25.0349735 14.940531 24.8506195 14.920354 24.6660531 14.8804248 24.4816991 14.8201062 24.2969204 14.739823 24.1204248 14.6436106 23.952 14.5231858 23.791646 14.3830088 23.6431858 14.2224425 23.5106549 14.0419115 23.3985133 13.8414159 23.3023009 13.616708 23.2300885 13.3720354 23.1818761 13.1031504 23.1657345 12.8185487 23.1738053 12.5056991 23.2179823 12.1726726 23.2500531 12.0082832 23.2861593 11.8477168 23.3263009 11.6913982 23.3664425 11.5429381 23.4106195 11.4025487 23.4626549 11.2621593 23.5149027 11.1298407 23.5707611 11.0053805 23.631292 10.8809204 23.6913982 10.7647434 23.7593628 10.6523894 23.8315752 10.5481062 23.904 10.4478584 23.9840708 10.351646 24.064354 10.263292 24.1484602 10.1791858 24.2408496 10.0989027 24.3330265 10.0226549 24.4292389 9.95447788 24.5296991 9.89033628 24.6380177 9.8300177 24.7463363 9.7779823 24.8584779 9.72976991 24.9748673 9.68559292 25.0993274 9.64566372 25.2235752 9.61359292 25.3518584 9.58534513 25.4884248 9.56134513 25.6245664 9.54116814 25.7692035 9.52523894 25.9136283 9.51716814 26.0661239 9.51334513 26.1944071 9.51716814 26.3186549 9.52523894 26.4388673 9.53713274 26.559292 9.55327434 26.671646 9.56941593 26.7799646 9.59341593 26.8842478 9.61359292 26.9804602 9.63759292 27.0728496 9.66159292 27.1531327 9.68559292 27.2291681 9.70980531 27.2935221 9.73380531 27.3495929 9.7539823 27.3975929 9.7699115 27.4339115 9.7860531 27.4576991 9.79412389 27.2572035 10.9051327"></polyline>
                        <polyline id="Fill-26" fill="#FFFFFE" points="37.132885 14.9602832 36.0218761 14.9602832 36.1019469 14.5153274 36.1019469 14.4749735 36.0380177 14.5552566 35.9696283 14.627469 35.9014513 14.691823 35.8292389 14.7478938 35.7570265 14.8001416 35.6850265 14.8443186 35.6128142 14.8804248 35.536354 14.9163186 35.4603186 14.944354 35.307823 14.984708 35.2275398 14.9966018 35.1472566 15.008708 35.0712212 15.0165664 34.9909381 15.0208142 34.9106549 15.0208142 34.7023009 15.0044602 34.5094513 14.9602832 34.3329558 14.8923186 34.1726018 14.8001416 34.028177 14.6837522 33.8998938 14.5473982 33.7875398 14.3989381 33.6913274 14.2305133 33.6110442 14.0497699 33.5469027 13.8615929 33.5027257 13.6649204 33.4706549 13.4603894 33.4585487 13.255646 33.4627965 13.0470796 33.4825487 12.8425487 33.5186549 12.6380177 33.5789735 12.4014159 33.6511858 12.176708 33.7355044 11.972177 33.8357522 11.7795398 33.9400354 11.5990088 34.0602478 11.4386549 34.184708 11.2942301 34.3170265 11.1619115 34.4574159 11.0455221 34.6060885 10.9452743 34.7583717 10.8571327 34.9106549 10.7887434 35.0712212 10.7326726 35.2315752 10.6965664 35.3921416 10.672354 35.556531 10.6644956 35.6729204 10.6683186 35.7850619 10.6806372 35.8893451 10.7006018 35.9857699 10.7286372 36.0779469 10.760708 36.1582301 10.7968142 36.2385133 10.8409912 36.3107257 10.8849558 36.3748673 10.9331681 36.4349735 10.9854159 36.4870088 11.0374513 36.5354336 11.0896991 36.5753628 11.1419469 36.611469 11.1939823 36.6435398 11.2421947 36.6677522 11.2901947 36.948531 9.71384071 38.0395752 9.71384071 37.132885 14.9602832"></polyline>
                        <polyline id="Stroke-27" stroke="#FFFFFE" stroke-width="0.216" points="37.132885 14.9602832 36.0218761 14.9602832 36.1019469 14.5153274 36.1019469 14.4749735 36.0380177 14.5552566 35.9696283 14.627469 35.9014513 14.691823 35.8292389 14.7478938 35.7570265 14.8001416 35.6850265 14.8443186 35.6128142 14.8804248 35.536354 14.9163186 35.4603186 14.944354 35.307823 14.984708 35.2275398 14.9966018 35.1472566 15.008708 35.0712212 15.0165664 34.9909381 15.0208142 34.9106549 15.0208142 34.7023009 15.0044602 34.5094513 14.9602832 34.3329558 14.8923186 34.1726018 14.8001416 34.028177 14.6837522 33.8998938 14.5473982 33.7875398 14.3989381 33.6913274 14.2305133 33.6110442 14.0497699 33.5469027 13.8615929 33.5027257 13.6649204 33.4706549 13.4603894 33.4585487 13.255646 33.4627965 13.0470796 33.4825487 12.8425487 33.5186549 12.6380177 33.5789735 12.4014159 33.6511858 12.176708 33.7355044 11.972177 33.8357522 11.7795398 33.9400354 11.5990088 34.0602478 11.4386549 34.184708 11.2942301 34.3170265 11.1619115 34.4574159 11.0455221 34.6060885 10.9452743 34.7583717 10.8571327 34.9106549 10.7887434 35.0712212 10.7326726 35.2315752 10.6965664 35.3921416 10.672354 35.556531 10.6644956 35.6729204 10.6683186 35.7850619 10.6806372 35.8893451 10.7006018 35.9857699 10.7286372 36.0779469 10.760708 36.1582301 10.7968142 36.2385133 10.8409912 36.3107257 10.8849558 36.3748673 10.9331681 36.4349735 10.9854159 36.4870088 11.0374513 36.5354336 11.0896991 36.5753628 11.1419469 36.611469 11.1939823 36.6435398 11.2421947 36.6677522 11.2901947 36.948531 9.71384071 38.0395752 9.71384071 37.132885 14.9602832"></polyline>
                        <polyline id="Fill-28" fill="#F1AD3D" points="35.3158938 13.9896637 35.4282478 13.9818053 35.532531 13.9578053 35.6287434 13.9295575 35.7211327 13.8853805 35.8052389 13.8371681 35.8855221 13.7770619 35.9615575 13.7090973 36.0299469 13.6366726 36.0900531 13.5566018 36.1461239 13.4682478 36.1983717 13.3760708 36.2425487 13.279646 36.2824779 13.1796106 36.3145487 13.0753274 36.3425841 12.9670088 36.3627611 12.8586903 36.3829381 12.7463363 36.3948319 12.6299469 36.3948319 12.5216283 36.3907965 12.4094867 36.3789027 12.3049912 36.3627611 12.2047434 36.3347257 12.108531 36.3026549 12.0161416 36.2625133 11.9360708 36.2145133 11.859823 36.1622655 11.7956814 36.1019469 11.7393982 36.0337699 11.6913982 35.9615575 11.659115 35.8855221 11.6391504 35.8012035 11.6310796 35.692885 11.6391504 35.5926372 11.655292 35.5002478 11.6873628 35.4080708 11.7275044 35.3277876 11.7795398 35.2477168 11.8438938 35.1795398 11.9120708 35.1111504 11.9881062 35.0510442 12.0762478 34.9949735 12.1686372 34.9427257 12.2648496 34.8985487 12.3691327 34.8586195 12.4774513 34.8265487 12.5857699 34.7942655 12.7021593 34.7704779 12.8185487 34.7503009 12.9950442 34.7583717 13.187469 34.7864071 13.3841416 34.8384425 13.572531 34.9187257 13.7371327 35.0230088 13.8694513 35.1553274 13.9578053 35.3158938 13.9896637"></polyline>
                        <polyline id="Fill-29" fill="#FFFFFE" points="10.6827611 14.0699469 10.5224071 14.9602832 9.51164602 14.9602832 9.53968142 14.7958938 9.55985841 14.647646 9.57578761 14.5355044 9.5919292 14.4749735 9.53564602 14.5393274 9.47150442 14.603469 9.39525664 14.6635752 9.31115044 14.7198584 9.21472566 14.7759292 9.11447788 14.8241416 9.01019469 14.8721416 8.90187611 14.9122832 8.78548673 14.9483894 8.66930973 14.9766372 8.55292035 15.0006372 8.43270796 15.0165664 8.31631858 15.0246372 8.1999292 15.0286726 8.08757522 15.0165664 7.97925664 15.0006372 7.83886726 14.964531 7.71058407 14.9246018 7.59823009 14.8721416 7.4979823 14.8120354 7.40984071 14.7478938 7.32955752 14.6756814 7.26541593 14.5994336 7.20913274 14.5191504 7.16092035 14.4350442 7.12099115 14.3466903 7.08870796 14.2585487 7.06470796 14.1704071 7.04877876 14.0780177 7.03667257 13.9858407 7.02860177 13.8974867 7.02860177 13.8093451 7.04070796 13.6528142 7.06470796 13.504354 7.10484956 13.3639646 7.15688496 13.2276106 7.22123894 13.0993274 7.29345133 12.9829381 7.37755752 12.8707965 7.4739823 12.7703363 7.57423009 12.6779469 7.68658407 12.5938407 7.80276106 12.5178053 7.92318584 12.4534513 8.05146903 12.3973805 8.184 12.3532035 8.32035398 12.3170973 8.46053097 12.2930973 8.46881416 12.2930973 8.48877876 12.2888496 8.51702655 12.2850265 8.56099115 12.2809912 8.60899115 12.2729204 8.66527434 12.2690973 8.72538053 12.2608142 8.79355752 12.2527434 8.86173451 12.244885 8.9299115 12.2368142 9.00212389 12.2329912 9.06647788 12.2249204 9.13061947 12.220885 9.19072566 12.2166372 9.24700885 12.2128142 9.38336283 12.2128142 9.47957522 12.2166372 9.56771681 12.220885 9.6560708 12.220885 9.72828319 12.2249204 9.78435398 12.2287434 9.82449558 12.2329912 9.83638938 12.2329912 9.84467257 12.2047434 9.86867257 12.132531 9.88863717 12.0484248 9.89670796 11.972177 9.88056637 11.883823 9.84467257 11.8035398 9.79646018 11.7313274 9.73231858 11.6712212 9.6560708 11.6191858 9.57175221 11.5830796 9.47553982 11.5588673 9.37125664 11.5510088 9.25890265 11.5469735 9.13847788 11.5429381 9.01423009 11.5429381 8.88573451 11.5469735 8.75341593 11.5550442 8.62513274 11.5669381 8.49684956 11.5790442 8.37238938 11.5951858 8.25217699 11.611115 8.13578761 11.6310796 8.03150442 11.6512566 7.93529204 11.6712212 7.84693805 11.6954336 7.77472566 11.7194336 7.71865487 11.747469 7.67447788 11.771469 7.95929204 10.804885 8.04743363 10.7687788 8.13578761 10.736708 8.232 10.7084602 8.32821239 10.6884956 8.42463717 10.6683186 8.52892035 10.6523894 8.63320354 10.6364602 8.74152212 10.6283894 8.85387611 10.6203186 8.9700531 10.6162832 9.09047788 10.6122478 9.47553982 10.6122478 9.6159292 10.6162832 9.75631858 10.6203186 9.86867257 10.6283894 9.98888496 10.648354 10.1133451 10.6766018 10.2416283 10.7124956 10.3660885 10.760708 10.4863009 10.8169912 10.6067257 10.8849558 10.7190796 10.9612035 10.819115 11.0495575 10.907469 11.1457699 10.9877522 11.2540885 11.0478584 11.3745133 11.088 11.5027965 11.112 11.6391504 11.112 11.791646 11.088 11.952 10.6827611 14.0699469"></polyline>
                        <polyline id="Stroke-30" stroke="#FFFFFE" stroke-width="0.216" points="10.6827611 14.0699469 10.5224071 14.9602832 9.51164602 14.9602832 9.53968142 14.7958938 9.55985841 14.647646 9.57578761 14.5355044 9.5919292 14.4749735 9.53564602 14.5393274 9.47150442 14.603469 9.39525664 14.6635752 9.31115044 14.7198584 9.21472566 14.7759292 9.11447788 14.8241416 9.01019469 14.8721416 8.90187611 14.9122832 8.78548673 14.9483894 8.66930973 14.9766372 8.55292035 15.0006372 8.43270796 15.0165664 8.31631858 15.0246372 8.1999292 15.0286726 8.08757522 15.0165664 7.97925664 15.0006372 7.83886726 14.964531 7.71058407 14.9246018 7.59823009 14.8721416 7.4979823 14.8120354 7.40984071 14.7478938 7.32955752 14.6756814 7.26541593 14.5994336 7.20913274 14.5191504 7.16092035 14.4350442 7.12099115 14.3466903 7.08870796 14.2585487 7.06470796 14.1704071 7.04877876 14.0780177 7.03667257 13.9858407 7.02860177 13.8974867 7.02860177 13.8093451 7.04070796 13.6528142 7.06470796 13.504354 7.10484956 13.3639646 7.15688496 13.2276106 7.22123894 13.0993274 7.29345133 12.9829381 7.37755752 12.8707965 7.4739823 12.7703363 7.57423009 12.6779469 7.68658407 12.5938407 7.80276106 12.5178053 7.92318584 12.4534513 8.05146903 12.3973805 8.184 12.3532035 8.32035398 12.3170973 8.46053097 12.2930973 8.46881416 12.2930973 8.48877876 12.2888496 8.51702655 12.2850265 8.56099115 12.2809912 8.60899115 12.2729204 8.66527434 12.2690973 8.72538053 12.2608142 8.79355752 12.2527434 8.86173451 12.244885 8.9299115 12.2368142 9.00212389 12.2329912 9.06647788 12.2249204 9.13061947 12.220885 9.19072566 12.2166372 9.24700885 12.2128142 9.38336283 12.2128142 9.47957522 12.2166372 9.56771681 12.220885 9.6560708 12.220885 9.72828319 12.2249204 9.78435398 12.2287434 9.82449558 12.2329912 9.83638938 12.2329912 9.84467257 12.2047434 9.86867257 12.132531 9.88863717 12.0484248 9.89670796 11.972177 9.88056637 11.883823 9.84467257 11.8035398 9.79646018 11.7313274 9.73231858 11.6712212 9.6560708 11.6191858 9.57175221 11.5830796 9.47553982 11.5588673 9.37125664 11.5510088 9.25890265 11.5469735 9.13847788 11.5429381 9.01423009 11.5429381 8.88573451 11.5469735 8.75341593 11.5550442 8.62513274 11.5669381 8.49684956 11.5790442 8.37238938 11.5951858 8.25217699 11.611115 8.13578761 11.6310796 8.03150442 11.6512566 7.93529204 11.6712212 7.84693805 11.6954336 7.77472566 11.7194336 7.71865487 11.747469 7.67447788 11.771469 7.95929204 10.804885 8.04743363 10.7687788 8.13578761 10.736708 8.232 10.7084602 8.32821239 10.6884956 8.42463717 10.6683186 8.52892035 10.6523894 8.63320354 10.6364602 8.74152212 10.6283894 8.85387611 10.6203186 8.9700531 10.6162832 9.09047788 10.6122478 9.47553982 10.6122478 9.6159292 10.6162832 9.75631858 10.6203186 9.86867257 10.6283894 9.98888496 10.648354 10.1133451 10.6766018 10.2416283 10.7124956 10.3660885 10.760708 10.4863009 10.8169912 10.6067257 10.8849558 10.7190796 10.9612035 10.819115 11.0495575 10.907469 11.1457699 10.9877522 11.2540885 11.0478584 11.3745133 11.088 11.5027965 11.112 11.6391504 11.112 11.791646 11.088 11.952 10.6827611 14.0699469"></polyline>
                        <polyline id="Fill-31" fill="#D82332" points="9.71617699 13.0230796 9.71214159 13.003115 9.69621239 12.9829381 9.672 12.9708319 9.6320708 12.9627611 9.58789381 12.9549027 9.53564602 12.9508673 9.41543363 12.9508673 9.35107965 12.9549027 9.28290265 12.9627611 9.21876106 12.9708319 9.15461947 12.9789027 9.09451327 12.9867611 9.03823009 12.9990796 8.99023009 13.0111858 8.9460531 13.0230796 8.91780531 13.0309381 8.88573451 13.0430442 8.84176991 13.0591858 8.79759292 13.0791504 8.74534513 13.1031504 8.69330973 13.1313982 8.63723894 13.1594336 8.58499115 13.1915044 8.52892035 13.231646 8.47667257 13.2715752 8.42867257 13.32 8.38449558 13.368 8.34435398 13.4202478 8.31631858 13.4763186 8.29210619 13.5404602 8.28021239 13.6048142 8.27617699 13.7409558 8.29614159 13.8494867 8.33628319 13.9295575 8.38853097 13.9896637 8.44863717 14.0300177 8.51702655 14.0540177 8.58095575 14.0661239 8.64530973 14.0699469 8.76552212 14.0661239 8.87384071 14.0540177 8.97812389 14.0378761 9.07030088 14.0136637 9.15058407 13.9858407 9.22683186 13.9497345 9.29500885 13.9136283 9.35511504 13.8694513 9.40736283 13.8293097 9.45557522 13.7813097 9.49550442 13.7371327 9.52757522 13.6889204 9.55582301 13.6409204 9.57982301 13.592708 9.59978761 13.548531 9.61189381 13.504354 9.6439646 13.388177 9.672 13.255646 9.69621239 13.1273628 9.71617699 13.0230796"></polyline>
                        <polyline id="Fill-32" fill="#FFFFFE" points="2.24325664 14.9602832 1.15221239 14.9602832 2.06272566 9.69387611 3.96 9.69387611 4.14053097 12.8185487 5.45224779 9.69387611 7.43384071 9.69387611 6.50315044 14.9602832 5.41210619 14.9602832 6.1019469 11.0255575 6.0579823 11.0255575 4.42534513 14.9602832 3.1939115 14.9602832 3.18584071 14.7958938 3.15780531 14.3585841 3.12169912 13.7371327 3.04141593 12.3049912 3.00530973 11.6752566 2.97727434 11.2179823 2.96920354 11.0255575 2.90909735 11.0255575 2.24325664 14.9602832"></polyline>
                        <polyline id="Stroke-33" stroke="#FFFFFE" stroke-width="0.216" points="2.24325664 14.9602832 1.15221239 14.9602832 2.06272566 9.69387611 3.96 9.69387611 4.14053097 12.8185487 5.45224779 9.69387611 7.43384071 9.69387611 6.50315044 14.9602832 5.41210619 14.9602832 6.1019469 11.0255575 6.0579823 11.0255575 4.42534513 14.9602832 3.1939115 14.9602832 3.18584071 14.7958938 3.15780531 14.3585841 3.12169912 13.7371327 3.04141593 12.3049912 3.00530973 11.6752566 2.97727434 11.2179823 2.96920354 11.0255575 2.90909735 11.0255575 2.24325664 14.9602832"></polyline>
                        <polyline id="Fill-34" fill="#FFFFFE" points="30.5906549 14.0699469 30.4262655 14.9602832 29.4195398 14.9602832 29.4273982 14.7958938 29.4314336 14.651469 29.4314336 14.5433628 29.439292 14.4951504 29.3872566 14.5552566 29.3271504 14.6153628 29.2549381 14.671646 29.1746549 14.7279292 29.0905487 14.7799646 28.9941239 14.8279646 28.8938761 14.876177 28.7936283 14.9163186 28.6853097 14.9483894 28.5729558 14.9804602 28.4606018 15.0006372 28.3484602 15.0165664 28.2320708 15.0246372 28.1197168 15.0286726 28.0113982 15.0165664 27.9030796 15.0006372 27.7586549 14.964531 27.6303717 14.9246018 27.5180177 14.8721416 27.4137345 14.8120354 27.3253805 14.7478938 27.2493451 14.6756814 27.1849912 14.5994336 27.1289204 14.5191504 27.0809204 14.4350442 27.0448142 14.3466903 27.0127434 14.2585487 26.9925664 14.1704071 26.9766372 14.0780177 26.964531 13.9858407 26.9564602 13.8974867 26.9564602 13.8093451 26.964531 13.6528142 26.988531 13.504354 27.0246372 13.3639646 27.0766726 13.2276106 27.1369912 13.0993274 27.2132389 12.9829381 27.2973451 12.8707965 27.3897345 12.7703363 27.4938053 12.6779469 27.6023363 12.5938407 27.7185133 12.5178053 27.8429735 12.4534513 27.9674336 12.3973805 28.0997522 12.3532035 28.2320708 12.3170973 28.3684248 12.2930973 28.3762832 12.2930973 28.3964602 12.2888496 28.4244956 12.2850265 28.4646372 12.2809912 28.516885 12.2729204 28.5729558 12.2690973 28.6330619 12.2608142 28.6972035 12.2527434 28.7655929 12.244885 28.8375929 12.2368142 28.9059823 12.2329912 28.9741593 12.2249204 29.0383009 12.220885 29.0943717 12.2166372 29.1506549 12.2128142 29.2910442 12.2128142 29.3872566 12.2166372 29.4794336 12.220885 29.5677876 12.220885 29.6440354 12.2249204 29.708177 12.2287434 29.7442832 12.2329912 29.7604248 12.2329912 29.7682832 12.2047434 29.7803894 12.132531 29.7922832 12.0484248 29.8005664 11.972177 29.7842124 11.883823 29.752354 11.8035398 29.7001062 11.7313274 29.64 11.6712212 29.5677876 11.6191858 29.483469 11.5830796 29.395115 11.5588673 29.2989027 11.5510088 29.1867611 11.5469735 29.0663363 11.5429381 28.9420885 11.5429381 28.8135929 11.5469735 28.6812743 11.5550442 28.5529912 11.5669381 28.4244956 11.5790442 28.3002478 11.5951858 28.1800354 11.611115 28.063646 11.6310796 27.9593628 11.6512566 27.8629381 11.6712212 27.7745841 11.6954336 27.7025841 11.7194336 27.6463009 11.747469 27.6023363 11.771469 27.883115 10.804885 27.9712566 10.7687788 28.063646 10.736708 28.1556106 10.7084602 28.2522478 10.6884956 28.3522832 10.6683186 28.4527434 10.6523894 28.5568142 10.6364602 28.6653451 10.6283894 28.7774867 10.6203186 28.8938761 10.6162832 29.0102655 10.6122478 29.3872566 10.6122478 29.5236106 10.6162832 29.6599646 10.6203186 29.7723186 10.6283894 29.8927434 10.648354 30.0169912 10.6766018 30.1454867 10.7124956 30.2699469 10.760708 30.3939823 10.8169912 30.5144071 10.8849558 30.6267611 10.9612035 30.7270088 11.0495575 30.8191858 11.1457699 30.899469 11.2540885 30.9597876 11.3745133 31.0039646 11.5027965 31.0317876 11.6391504 31.0317876 11.791646 31.011823 11.952 30.5906549 14.0699469"></polyline>
                        <polyline id="Fill-38" fill="#FFFFFE" points="27.8990442 15.0246372 27.8990442 15.0246372 28.0113982 15.0405664 28.1197168 15.0526726 28.2320708 15.0486372 28.3484602 15.0405664 28.4646372 15.0246372 28.5769912 15.0044602 28.6893451 14.9723894 28.8014867 14.940531 28.9019469 14.900177 29.0060177 14.852177 29.1024425 14.8039646 29.1867611 14.7478938 29.2708673 14.691823 29.3430796 14.6355398 29.4072212 14.5711858 29.459469 14.5110796 29.4195398 14.4792212 29.367292 14.5393274 29.3110088 14.5956106 29.2387965 14.651469 29.1627611 14.7077522 29.0784425 14.7559646 28.9820177 14.8039646 28.8858053 14.852177 28.7855575 14.8923186 28.6812743 14.9246018 28.5689204 14.9564602 28.4565664 14.9766372 28.3484602 14.9925664 28.2320708 15.0006372 28.1197168 15.0044602 28.0113982 14.9925664 27.907115 14.9766372 27.8990442 15.0246372"></polyline>
                        <polyline id="Fill-39" fill="#FFFFFE" points="26.9284248 13.8093451 26.9284248 13.8093451 26.9324602 13.8974867 26.940531 13.9858407 26.9524248 14.0820531 26.9685664 14.1742301 26.988531 14.2623717 27.0206018 14.3547611 27.0569204 14.4469381 27.1089558 14.5312566 27.1650265 14.6153628 27.2291681 14.691823 27.3094513 14.7678584 27.4018407 14.8322124 27.5061239 14.896354 27.6223009 14.9483894 27.7548319 14.988531 27.8990442 15.0246372 27.907115 14.9766372 27.7626903 14.940531 27.6384425 14.900177 27.5301239 14.8481416 27.4258407 14.7920708 27.3413097 14.7279292 27.2693097 14.6595398 27.2051681 14.583292 27.148885 14.5072566 27.1049204 14.4229381 27.0688142 14.3388319 27.0367434 14.2545133 27.0165664 14.1661593 27.0006372 14.0741947 26.988531 13.9858407 26.9804602 13.8974867 26.9844956 13.8093451 26.9284248 13.8093451"></polyline>
                        <polyline id="Fill-40" fill="#FFFFFE" points="28.3684248 12.2690973 28.3684248 12.2690973 28.2280354 12.2930973 28.0916814 12.3292035 27.9593628 12.3731681 27.8308673 12.4292389 27.7064071 12.4935929 27.5861947 12.5736637 27.4778761 12.6581947 27.3735929 12.7544071 27.2773805 12.8544425 27.1930619 12.9670088 27.1127788 13.0872212 27.0526726 13.2195398 27.0006372 13.3561062 26.964531 13.5003186 26.940531 13.6528142 26.9284248 13.8093451 26.9844956 13.8093451 26.988531 13.6528142 27.0127434 13.5083894 27.0486372 13.3720354 27.100885 13.2356814 27.1609912 13.1112212 27.2332035 12.9990796 27.3173097 12.8867257 27.4056637 12.7864779 27.5099469 12.6981239 27.6182655 12.6140177 27.7306195 12.5418053 27.8548673 12.4774513 27.975292 12.4213805 28.1076106 12.3772035 28.2358938 12.3410973 28.3684248 12.3170973 28.3684248 12.2690973"></polyline>
                        <polyline id="Fill-48" fill="#FFFFFE" points="31.035823 11.9560354 31.035823 11.9560354 31.056 11.791646 31.056 11.6391504 31.0279646 11.4987611 30.9837876 11.3664425 30.919646 11.2421947 30.8391504 11.1298407 30.7429381 11.0295929 30.6426903 10.9412389 30.5265133 10.8649912 30.4060885 10.7927788 30.2778053 10.736708 30.1533451 10.6884956 30.0210265 10.6523894 29.8967788 10.624354 29.7723186 10.6043894 29.6599646 10.5963186 29.6599646 10.6443186 29.7723186 10.6523894 29.888708 10.672354 30.0131681 10.7006018 30.1372035 10.736708 30.2616637 10.784708 30.3820885 10.8409912 30.5023009 10.9051327 30.6106195 10.9813805 30.7110796 11.0697345 30.7992212 11.1619115 30.8795044 11.2659823 30.9355752 11.3825841 30.9795398 11.5068319 31.0077876 11.6391504 31.0077876 11.791646 30.9876106 11.948177 31.035823 11.9560354"></polyline>
                        <polyline id="Fill-50" fill="#F1AD3D" points="29.619823 13.0230796 29.6119646 12.9990796 29.5960354 12.9789027 29.5677876 12.9670088 29.527646 12.9549027 29.483469 12.9508673 29.4314336 12.9468319 29.371115 12.9468319 29.3110088 12.9508673 29.2468673 12.9589381 29.1825133 12.9670088 29.1185841 12.9748673 29.0582655 12.9829381 28.9981593 12.9950442 28.9459115 13.003115 28.8938761 13.0150088 28.8537345 13.0230796 28.8256991 13.027115 28.7936283 13.0392212 28.7534867 13.051115 28.7093097 13.0670442 28.6572743 13.0912566 28.6090619 13.1152566 28.5529912 13.1435044 28.4484956 13.2157168 28.3964602 13.2598938 28.3522832 13.3038584 28.3081062 13.3561062 28.2722124 13.4119646 28.2439646 13.4724956 28.2199646 13.5364248 28.2080708 13.6048142 28.2040354 13.7409558 28.224 13.8494867 28.2560708 13.9295575 28.3042832 13.9896637 28.3643894 14.0300177 28.4325664 14.0540177 28.5007434 14.0661239 28.5689204 14.0699469 28.6893451 14.0661239 28.8014867 14.0540177 28.9059823 14.0338407 28.9981593 14.0058053 29.0865133 13.9737345 29.1627611 13.9376283 29.2347611 13.8974867 29.2989027 13.8494867 29.3551858 13.8050973 29.4031858 13.7530619 29.4473628 13.7048496 29.483469 13.6528142 29.5115044 13.6048142 29.5316814 13.5566018 29.5476106 13.5083894 29.5597168 13.4644248 29.5758584 13.3518584 29.5960354 13.2356814 29.6119646 13.1233274 29.619823 13.0230796"></polyline>
                        <polyline id="Fill-51" fill="#FFFFFE" points="37.8830442 14.4110442 37.891115 14.3186549 37.9231858 14.2103363 37.9792566 14.1141239 38.047646 14.0300177 38.1317522 13.9616283 38.2279646 13.9136283 38.3322478 13.8813451 38.4446018 13.8694513 38.5569558 13.8813451 38.6612389 13.9136283 38.7574513 13.9616283 38.8417699 14.0300177 38.9099469 14.1141239 38.9662301 14.2103363 38.9980885 14.3186549 39.0061593 14.4110442 38.8859469 14.4110442 38.8816991 14.3388319 38.8576991 14.2504779 38.8177699 14.1704071 38.7655221 14.1020177 38.7013805 14.0459469 38.6249204 14.0058053 38.5367788 13.9777699 38.4446018 13.9694867 38.3524248 13.9777699 38.2640708 14.0058053 38.1880354 14.0459469 38.1236814 14.1020177 38.071646 14.1704071 38.031292 14.2504779 38.007292 14.3388319 37.9994336 14.4110442 37.8830442 14.4110442"></polyline>
                        <polyline id="Fill-53" fill="#FFFFFE" points="37.8830442 14.4110442 37.8790088 14.4350442 37.891115 14.5514336 37.9231858 14.6595398 37.9792566 14.7559646 38.047646 14.8362478 38.1317522 14.9044248 38.2279646 14.9564602 38.3322478 14.988531 38.4446018 15.0006372 38.5569558 14.988531 38.6612389 14.9564602 38.7574513 14.9044248 38.8417699 14.8362478 38.9099469 14.7559646 38.9662301 14.6595398 38.9980885 14.5514336 39.0101947 14.4350442 39.0061593 14.4110442 38.8859469 14.4110442 38.8897699 14.4350442 38.8816991 14.5312566 38.8576991 14.6196106 38.8177699 14.695646 38.7655221 14.763823 38.7013805 14.8201062 38.6249204 14.8640708 38.5367788 14.8923186 38.4446018 14.900177 38.3524248 14.8923186 38.2640708 14.8640708 38.1880354 14.8201062 38.1236814 14.763823 38.071646 14.695646 38.031292 14.6196106 38.007292 14.5312566 37.9994336 14.4350442 37.9994336 14.4110442 37.8830442 14.4110442"></polyline>
                        <path d="M38.4446018,14.900177 L38.5367788,14.8923186 L38.6249204,14.8640708 L38.7013805,14.8201062 L38.7655221,14.763823 L38.8177699,14.695646 L38.8576991,14.6196106 L38.8816991,14.5312566 L38.8897699,14.4350442 L38.8816991,14.3388319 L38.8576991,14.2504779 L38.8177699,14.1704071 L38.7655221,14.1020177 L38.7013805,14.0459469 L38.6249204,14.0058053 L38.5367788,13.9777699 L38.4446018,13.9694867 L38.3524248,13.9777699 L38.2640708,14.0058053 L38.1880354,14.0459469 L38.1236814,14.1020177 L38.071646,14.1704071 L38.031292,14.2504779 L38.007292,14.3388319 L37.9994336,14.4350442 L38.007292,14.5312566 L38.031292,14.6196106 L38.071646,14.695646 L38.1236814,14.763823 L38.1880354,14.8201062 L38.2640708,14.8640708 L38.3524248,14.8923186 L38.4446018,14.900177 M38.4446018,14.4148673 L38.480708,14.4070088 L38.5089558,14.4027611 L38.5329558,14.3949027 L38.5529204,14.3868319 L38.5690619,14.3749381 L38.5771327,14.3628319 L38.5849912,14.3426549 L38.5849912,14.3146195 L38.5809558,14.2946549 L38.572885,14.2787257 L38.5609912,14.2704425 L38.548885,14.2623717 L38.528708,14.2585487 L38.5089558,14.2545133 L38.344354,14.2545133 L38.344354,14.4148673 L38.4446018,14.4148673 M38.344354,14.6557168 L38.2438938,14.6557168 L38.2438938,14.1704071 L38.4645664,14.1704071 L38.5127788,14.1742301 L38.5569558,14.1823009 L38.5890265,14.1944071 L38.6170619,14.2103363 L38.6372389,14.2345487 L38.6531681,14.2585487 L38.6612389,14.2865841 L38.6652743,14.3146195 L38.6612389,14.3507257 L38.6531681,14.3787611 L38.6412743,14.4027611 L38.6249204,14.4229381 L38.6051681,14.4388673 L38.5809558,14.4469381 L38.5529204,14.4552212 L38.524885,14.4552212 L38.6450973,14.6557168 L38.5650265,14.6557168 L38.4446018,14.4552212 L38.344354,14.4552212 L38.344354,14.6557168 M37.8790088,14.4350442 L37.891115,14.3186549 L37.9231858,14.2103363 L37.9792566,14.1141239 L38.047646,14.0300177 L38.1317522,13.9616283 L38.2279646,13.9136283 L38.3322478,13.8813451 L38.4446018,13.8694513 L38.5569558,13.8813451 L38.6612389,13.9136283 L38.7574513,13.9616283 L38.8417699,14.0300177 L38.9099469,14.1141239 L38.9662301,14.2103363 L38.9980885,14.3186549 L39.0101947,14.4350442 L38.9980885,14.5514336 L38.9662301,14.6595398 L38.9099469,14.7559646 L38.8417699,14.8362478 L38.7574513,14.9044248 L38.6612389,14.9564602 L38.5569558,14.988531 L38.4446018,15.0006372 L38.3322478,14.988531 L38.2279646,14.9564602 L38.1317522,14.9044248 L38.047646,14.8362478 L37.9792566,14.7559646 L37.9231858,14.6595398 L37.891115,14.5514336 L37.8790088,14.4350442" id="Stroke-55" stroke="#FFFFFE" stroke-width="0.216"></path>
                        <polyline id="Fill-56" fill="#FFFFFE" points="30.8913982 14.9602832 32.0225841 14.9602832 32.4280354 12.6779469 32.4437522 12.5898053 32.4679646 12.5014513 32.4919646 12.4133097 32.5240354 12.3251681 32.564177 12.2368142 32.6123894 12.152708 32.6644248 12.0724248 32.7287788 11.996177 32.8009912 11.928 32.8808496 11.8638584 32.9732389 11.8035398 33.0775221 11.7555398 33.1939115 11.7153982 33.3224071 11.6833274 33.4627965 11.659115 33.619115 11.6512566 33.7193628 11.6512566 33.8998938 10.6203186 33.7875398 10.6283894 33.6792212 10.6404956 33.5789735 10.6604602 33.4825487 10.6884956 33.3944071 10.7205664 33.3103009 10.760708 33.2300177 10.804885 33.1539823 10.8530973 33.0817699 10.9091681 33.0133805 10.9652389 32.8850973 11.0937345 32.8249912 11.1619115 32.764885 11.2381593 32.7045664 11.3101593 32.6484956 11.3904425 32.768708 10.6644956 31.6415575 10.6644956 30.8913982 14.9602832"></polyline>
                        <polyline id="Stroke-57" stroke="#FFFFFE" stroke-width="0.216" points="30.8913982 14.9602832 32.0225841 14.9602832 32.4280354 12.6779469 32.4437522 12.5898053 32.4679646 12.5014513 32.4919646 12.4133097 32.5240354 12.3251681 32.564177 12.2368142 32.6123894 12.152708 32.6644248 12.0724248 32.7287788 11.996177 32.8009912 11.928 32.8808496 11.8638584 32.9732389 11.8035398 33.0775221 11.7555398 33.1939115 11.7153982 33.3224071 11.6833274 33.4627965 11.659115 33.619115 11.6512566 33.7193628 11.6512566 33.8998938 10.6203186 33.7875398 10.6283894 33.6792212 10.6404956 33.5789735 10.6604602 33.4825487 10.6884956 33.3944071 10.7205664 33.3103009 10.760708 33.2300177 10.804885 33.1539823 10.8530973 33.0817699 10.9091681 33.0133805 10.9652389 32.8850973 11.0937345 32.8249912 11.1619115 32.764885 11.2381593 32.7045664 11.3101593 32.6484956 11.3904425 32.768708 10.6644956 31.6415575 10.6644956 30.8913982 14.9602832"></polyline>
                        <polyline id="Fill-58" fill="#FFFFFE" points="20.2698053 14.9602832 21.4209558 14.9602832 21.8060177 12.6779469 21.8219469 12.5898053 21.8623009 12.4213805 21.8901239 12.3410973 21.9224071 12.2608142 21.9623363 12.1847788 22.0105487 12.112354 22.0666195 12.0443894 22.1309735 11.9840708 22.2031858 11.924177 22.2913274 11.8757522 22.3875398 11.8317876 22.5001062 11.7956814 22.6241416 11.7636106 22.760708 11.7434336 22.9170265 11.7313274 22.9291327 11.7313274 22.9452743 11.7353628 22.9652389 11.7393982 22.9854159 11.7393982 23.0053805 11.7434336 23.0215221 11.747469 23.0334159 11.7515044 23.0374513 11.7515044 23.0535929 11.6873628 23.0695221 11.6151504 23.0896991 11.5267965 23.1177345 11.4225133 23.1457699 11.3101593 23.2179823 11.0856637 23.2500531 11.0094159 23.2901947 10.9331681 23.3303363 10.8571327 23.3702655 10.7887434 23.4065841 10.7286372 23.4346195 10.6806372 23.4547965 10.6523894 23.4626549 10.6404956 23.4586195 10.6404956 23.4424779 10.6364602 23.4225133 10.6324248 23.3944779 10.6283894 23.3664425 10.6283894 23.3341593 10.624354 23.3061239 10.6203186 23.2783009 10.6203186 23.1538407 10.6283894 23.0414867 10.6404956 22.9372035 10.6604602 22.8409912 10.6846726 22.7486018 10.716531 22.6644956 10.7566726 22.5882478 10.7968142 22.5160354 10.8450265 22.447646 10.8970619 22.3837168 10.9571681 22.3233982 11.0174867 22.263292 11.0856637 22.2031858 11.1538407 22.1469027 11.2300885 22.0867965 11.3101593 22.0266903 11.3904425 22.171115 10.6644956 21.0199646 10.6644956 20.2698053 14.9602832"></polyline>
                        <polyline id="Stroke-59" stroke="#FFFFFE" stroke-width="0.216" points="20.2698053 14.9602832 21.4209558 14.9602832 21.8060177 12.6779469 21.8219469 12.5898053 21.8623009 12.4213805 21.8901239 12.3410973 21.9224071 12.2608142 21.9623363 12.1847788 22.0105487 12.112354 22.0666195 12.0443894 22.1309735 11.9840708 22.2031858 11.924177 22.2913274 11.8757522 22.3875398 11.8317876 22.5001062 11.7956814 22.6241416 11.7636106 22.760708 11.7434336 22.9170265 11.7313274 22.9291327 11.7313274 22.9452743 11.7353628 22.9652389 11.7393982 22.9854159 11.7393982 23.0053805 11.7434336 23.0215221 11.747469 23.0334159 11.7515044 23.0374513 11.7515044 23.0535929 11.6873628 23.0695221 11.6151504 23.0896991 11.5267965 23.1177345 11.4225133 23.1457699 11.3101593 23.2179823 11.0856637 23.2500531 11.0094159 23.2901947 10.9331681 23.3303363 10.8571327 23.3702655 10.7887434 23.4065841 10.7286372 23.4346195 10.6806372 23.4547965 10.6523894 23.4626549 10.6404956 23.4586195 10.6404956 23.4424779 10.6364602 23.4225133 10.6324248 23.3944779 10.6283894 23.3664425 10.6283894 23.3341593 10.624354 23.3061239 10.6203186 23.2783009 10.6203186 23.1538407 10.6283894 23.0414867 10.6404956 22.9372035 10.6604602 22.8409912 10.6846726 22.7486018 10.716531 22.6644956 10.7566726 22.5882478 10.7968142 22.5160354 10.8450265 22.447646 10.8970619 22.3837168 10.9571681 22.3233982 11.0174867 22.263292 11.0856637 22.2031858 11.1538407 22.1469027 11.2300885 22.0867965 11.3101593 22.0266903 11.3904425 22.171115 10.6644956 21.0199646 10.6644956 20.2698053 14.9602832"></polyline>
                        <polyline id="Fill-65" fill="#F1AD3D" points="37.8790088 19.2686018 37.8790088 19.2804956 37.891115 19.396885 37.9231858 19.5052035 37.9792566 19.6014159 38.047646 19.6857345 38.1317522 19.7539115 38.2279646 19.8019115 38.3322478 19.8341947 38.4446018 19.8460885 38.5569558 19.8341947 38.6612389 19.8019115 38.7574513 19.7539115 38.8417699 19.6857345 38.9099469 19.6014159 38.9662301 19.5052035 38.9980885 19.396885 39.0101947 19.2804956 39.0101947 19.2686018 38.8897699 19.2686018 38.8897699 19.2804956 38.8816991 19.376708 38.8576991 19.4650619 38.8177699 19.5413097 38.7655221 19.6094867 38.7013805 19.6657699 38.6249204 19.7097345 38.5367788 19.7377699 38.4446018 19.7458407 38.3524248 19.7377699 38.2640708 19.7097345 38.1880354 19.6657699 38.1236814 19.6094867 38.071646 19.5413097 38.031292 19.4650619 38.007292 19.376708 37.9994336 19.2804956 37.9994336 19.2686018 37.8790088 19.2686018"></polyline>
                    </g>
                </g>
            </g>
        </g>
    </g>
</svg>