<svg xmlns="http://www.w3.org/2000/svg" width="127" height="96" viewBox="153 41 127 96">
  <style>.a{fill:#FFF;}</style>
  <desc>Created with Sketch.</desc>
  <g transform="translate(216 88.790684)scale(1 -1)translate(-216 -88.790684)translate(153 41.290684)" fill="none">
    <path d="M38.8 94.2C35.4 93.7 32.6 92.2 30.2 89.8 27.6 87.1 26.1 83.8 26 80.1 25.7 74.1 29.2 68.4 34.8 65.9 36.9 65 38.8 64.6 41.3 64.7 43.6 64.8 45.3 65.2 47.4 66.2 49 67 49.9 67.7 51.2 69 52.5 70.3 53.2 71.3 54 72.8 56.1 77 56.1 81.8 54.1 86 52 90.2 48 93.2 43.3 94.1 42.3 94.3 39.8 94.3 38.8 94.2L38.8 94.2ZM42.9 91.9C44.6 91.6 46.5 90.8 47.9 89.9 48.8 89.2 50.4 87.6 51.1 86.7 52 85.3 52.8 83.6 53.1 82 53.4 80.8 53.4 78.3 53.2 77.2 52.1 72.1 48.4 68.2 43.3 67.2 42.4 67 42.1 66.9 40.8 66.9 39.1 66.9 38.3 67.1 36.9 67.5 31.4 69.3 27.8 74.7 28.2 80.4 28.7 86.6 33.4 91.4 39.6 92 40.4 92.1 42 92 42.9 91.9L42.9 91.9Z"
          class="a"/>
    <path d="M83.7 94.2C78.4 93.7 73.5 90.1 71.5 85.1 69.2 79.6 70.5 73.3 74.7 69 79.9 63.7 88.2 63.1 94.2 67.7 96.1 69.1 97.5 70.9 98.6 73.1 100.9 78 100.4 83.6 97.2 88.2 96.6 89.1 94.8 90.9 93.8 91.5 92.9 92.2 90.9 93.2 89.8 93.6 87.9 94.2 85.8 94.4 83.7 94.2L83.7 94.2ZM87.4 91.8C89.1 91.6 90.7 90.9 92.2 89.9 93.3 89.2 94.9 87.6 95.7 86.5 98.6 82.1 98.5 76.6 95.5 72.2 95 71.4 93.3 69.7 92.4 69.2 91.1 68.2 89.4 67.5 87.7 67.1 86.7 66.9 84.8 66.8 83.7 67 79.4 67.5 75.8 70.1 73.9 74 70.2 81.5 74.9 90.5 83.2 91.9 84.2 92.1 86.3 92 87.4 91.8L87.4 91.8Z"
          class="a"/>
    <path d="M82.5 57.5L80 56 80 54.8C80 54.2 80.1 53.7 80.1 53.7 80.1 53.7 81 54.2 82 54.8 83 55.4 83.9 55.9 83.9 55.9 84 55.9 83.7 54.3 83.4 53.1 83 51.5 82.6 50.6 81.8 48.9 80.8 46.8 79.5 45 77.9 43.4 73.7 39.2 68.2 37 62.3 37.2 59.1 37.3 56.4 38 53.5 39.4 51.6 40.4 50 41.5 48.4 43.1 44.4 47 42.3 51.6 41.9 57.5L41.8 58.3 40.7 58.3 39.6 58.3 39.7 57.2C39.9 52.2 41.7 47.5 44.8 43.7 45.5 42.8 47.5 40.7 48.4 40 51.7 37.4 55.4 35.8 59.7 35.1 61 34.9 65 34.9 66.3 35.1 70.6 35.8 74.3 37.4 77.6 40.1 78.7 41 80.6 42.9 81.5 44.1 83.9 47.3 85.5 51.1 86.1 55 86.1 55.5 86.2 55.9 86.2 55.9 86.2 56 87.1 55.5 88.1 54.8 89.1 54.2 90 53.7 90 53.7 90 53.7 90 54.2 90 54.8L90 56 88.3 57.1C87.3 57.7 86.2 58.4 85.8 58.6L85.1 59.1 82.5 57.5 82.5 57.5Z"
          class="a"/>
    <path d="M56.9 20C56.4 18.9 54.8 15.7 53.4 13 51.9 10.2 50.6 7.5 50.4 7.1L49.9 6.2 50.9 5.7 51.9 5.3 52.6 6.7C53.1 7.6 54.5 10.4 55.8 13 57.1 15.6 58.2 17.7 58.3 17.7 58.3 17.7 60.7 0.9 60.7 0.8 60.7 0.7 62.1 0 62.2 0 62.2 0.1 70.1 15.6 70.1 15.7 70.1 15.7 69.7 16 69.2 16.2L68.3 16.7 68.1 16.4C68 16.2 67.2 14.6 66.3 12.8 62.4 5.1 62.2 4.8 62.1 5 62.1 5.2 61.6 8.8 61 13.2L59.9 21 58.9 21.5 58 22 56.9 20 56.9 20Z"
          class="a"/>
    <path d="M25.5 20C24.1 19.9 22.9 19.3 22 18.4 21.3 17.7 21 17.2 20.8 16.3 20.5 15.1 20.6 14.1 21 13.1 21.5 12.1 22.3 11.4 23.6 10.9 23.9 10.8 25.2 10.4 26.4 10.1 28.6 9.5 29.5 9.2 30 8.7 31.1 7.8 31.1 5.8 29.9 4.7 29.1 4.1 28.2 3.8 26.9 3.8 25.3 3.8 24.4 4.2 23.5 5.1 23.1 5.5 22.8 5.8 22.6 6.2L22.4 6.7 21.3 6.7 20.1 6.7 20.2 6.5C20.5 4.9 21.8 3.4 23.3 2.7 24.4 2.1 25.1 2 26.5 1.9 27.8 1.9 28.5 1.9 29.5 2.3 31.3 2.9 32.4 4.1 32.9 5.8 33 6.4 33 7.4 32.9 8.1 32.6 9.6 31.4 10.8 29.6 11.4 29.3 11.5 28.1 11.9 26.9 12.2 24.6 12.8 23.8 13.1 23.3 13.7 22.9 14.2 22.8 14.5 22.8 15.2 22.8 16.9 24 18 26.1 18.1 28.1 18.2 29.7 17.4 30.4 16L30.6 15.4 31.8 15.4 32.9 15.4 32.8 15.9C32.4 17.2 31.3 18.6 30 19.3 29.2 19.7 28.4 19.9 27.3 20 26.5 20.1 26.3 20.1 25.5 20L25.5 20Z"
          class="a"/>
    <polygon points="0 11 0 2.1 5.6 2.1 11.2 2.1 11.2 3.2 11.2 4.2 6.7 4.2 2.2 4.2 2.2 12 2.2 19.8 1.1 19.8 0 19.8"
             class="a"/>
    <polygon points="14.5 11 14.5 2.1 15.6 2.1 16.7 2.1 16.7 11 16.7 19.8 15.6 19.8 14.5 19.8" class="a"/>
    <polygon
            points="34.5 18.8 34.5 17.8 37.6 17.8 40.6 17.8 40.6 10 40.6 2.1 41.7 2.1 42.8 2.1 42.8 10 42.8 17.8 46 17.8 49.1 17.8 49.1 18.8 49.1 19.8 41.8 19.8 34.5 19.8"
            class="a"/>
    <path d="M74.9 11L74.9 2.1 76.1 2.1 77.2 2.1 77.2 5.9 77.2 9.6 78.8 9.6 80.4 9.6 82.8 5.9C84.2 4 85.3 2.3 85.4 2.2 85.4 2.2 85.7 2.1 86.7 2.1L88 2.2 85.4 5.9C83.9 8.1 82.9 9.7 82.9 9.7 83 9.7 83.3 9.8 83.5 9.8 83.8 9.9 84.4 10.1 84.8 10.3 86.4 11.1 87.3 12.6 87.3 14.7 87.3 15.7 87.1 16.5 86.7 17.2 86.1 18.3 85.1 19.1 83.7 19.5 83.1 19.7 83 19.7 79 19.8L74.9 19.8 74.9 11 74.9 11ZM83 17.6C83.9 17.3 84.4 16.8 84.8 16.1 85 15.7 85 15.5 85 14.7 85 13.8 85 13.7 84.8 13.3 84.4 12.5 83.6 11.9 82.6 11.7 82.3 11.6 81.2 11.6 79.7 11.6L77.2 11.6 77.2 14.7 77.2 17.8 79.9 17.8C82.3 17.8 82.7 17.7 83 17.6L83 17.6Z"
          class="a"/>
    <polygon points="90.9 11 90.9 2.1 92 2.1 93.2 2.1 93.2 11 93.2 19.8 92 19.8 90.9 19.8" class="a"/>
    <path d="M97.4 11L97.4 2.1 100.6 2.1C104 2.1 104.8 2.2 105.9 2.5 108 3.2 109.6 4.5 110.6 6.5 111.3 7.8 111.6 9.2 111.6 11 111.6 13.5 110.9 15.5 109.5 17.1 108.3 18.5 106.8 19.3 104.8 19.7 104.3 19.7 103.3 19.8 100.7 19.8L97.4 19.8 97.4 11 97.4 11ZM104.9 17.6C106 17.3 106.7 16.9 107.5 16.1 108.8 14.7 109.4 13 109.3 10.5 109.2 7.3 107.7 5.2 105 4.4 104.4 4.3 104.2 4.2 102 4.2L99.6 4.2 99.6 10.9C99.6 14.7 99.6 17.7 99.6 17.8 99.7 17.8 100.7 17.8 101.9 17.8 103.9 17.8 104.3 17.7 104.9 17.6L104.9 17.6Z"
          class="a"/>
    <polygon
            points="114.8 11 114.8 2.1 120.4 2.1 126 2.1 126 3.2 126 4.2 121.5 4.2 117.1 4.2 117.1 7.2 117.1 10.2 121.1 10.2 125.2 10.2 125.2 11.2 125.2 12.2 121.1 12.2 117.1 12.2 117.1 15 117.1 17.8 121.5 17.8 126 17.8 126 18.8 126 19.8 120.4 19.8 114.8 19.8"
            class="a"/>
  </g>
</svg>
