<?xml version="1.0" encoding="utf-8"?>
<!-- Generator: Adobe Illustrator 22.1.0, SVG Export Plug-In . SVG Version: 6.00 Build 0)  -->
<svg version="1.1" id="Layer_1" xmlns="http://www.w3.org/2000/svg" xmlns:xlink="http://www.w3.org/1999/xlink" x="0px" y="0px"
	 viewBox="0 0 58 58" style="enable-background:new 0 0 58 58;" xml:space="preserve">
<style type="text/css">
	.st0{fill:#58BA8D;}
	.st1{fill:none;stroke:#58BA8D;stroke-width:0.75;stroke-miterlimit:10;}
</style>
<g>
	<g>
		<path class="st0" d="M16.5,52.8c-2.8,0-5.5-1.1-7.5-3.1c-2-2-3.1-4.7-3.1-7.5c0-2.8,1.1-5.5,3.1-7.5c2-2,4.7-3.1,7.5-3.1
			c5.9,0,10.6,4.8,10.6,10.6S22.4,52.8,16.5,52.8z M16.5,33.5c-2.3,0-4.5,0.9-6.1,2.5c-1.6,1.6-2.5,3.8-2.5,6.1s0.9,4.5,2.5,6.1
			s3.8,2.5,6.1,2.5c4.8,0,8.6-3.9,8.6-8.6C25.2,37.4,21.3,33.5,16.5,33.5z"/>
		<path class="st0" d="M15.6,42.1l-2.4-21.8h5.7c1.9,0,3.4,1.5,3.4,3.4s-1.5,3.4-3.4,3.4h-1.6v-2h1.6c0.8,0,1.5-0.7,1.5-1.5
			s-0.7-1.5-1.5-1.5h-3.5l2.2,19.6L15.6,42.1z"/>
		<rect x="0.2" y="29.9" transform="matrix(0.7786 -0.6275 0.6275 0.7786 -17.5398 12.0006)" class="st0" width="16.1" height="2"/>
		<rect x="1.1" y="25.2" class="st0" width="13.3" height="2"/>
		<path class="st0" d="M29,58C13,58,0,45,0,29C0,13,13,0,29,0s29,13,29,29c0,4.7-1.2,9.4-3.4,13.6l-1.7-0.9c2-3.9,3.1-8.2,3.1-12.6
			C56,14.1,43.9,2,29,2S2,14.1,2,29s12.1,27,27,27c7.3,0,14.9-3.4,20.1-9.1H17.2v-2h36.1L52,46.6C46.4,53.6,37.6,58,29,58z"/>
		<path class="st1" d="M12.3,46"/>
	</g>
	<path class="st0" d="M44.9,13.2H28v2.1h17V13.2z M46,23.8v-2.1l-1.1-5.3H28l-1.1,5.3v2.1H28v6.4h10.6v-6.4h4.2v6.4h2.1v-6.4H46z
		 M36.5,28h-6.4v-4.2h6.4V28z"/>
</g>
</svg>
