<?xml version="1.0" encoding="UTF-8"?>
<svg width="72px" height="24px" viewBox="0 0 72 24" version="1.1" xmlns="http://www.w3.org/2000/svg" xmlns:xlink="http://www.w3.org/1999/xlink">
    <!-- Generator: Sketch 48.2 (47327) - http://www.bohemiancoding.com/sketch -->
    <title>Visa</title>
    <desc>Created with Sketch.</desc>
    <defs></defs>
    <g id="Request-Flow---Payment-CC" stroke="none" stroke-width="1" fill="none" fill-rule="evenodd" transform="translate(-802.000000, -352.000000)">
        <g id="Payment" transform="translate(0.000000, 101.000000)">
            <g id="Methods-CC" transform="translate(0.000000, 229.000000)">
                <g id="CC" transform="translate(219.000000, 22.000000)">
                    <g id="Visa" transform="translate(583.000000, 0.000000)">
                        <polyline id="Fill-1" fill="#005C9C" points="31.161 23.3034 25.3212 23.3034 28.971 0.873 34.8114 0.873 31.161 23.3034"></polyline>
                        <path d="M20.4084,0.873 L14.8404,16.3002 L14.1822,12.978 L14.1828,12.9792 L12.2172,2.8932 C12.2172,2.8932 11.9802,0.873 9.447,0.873 L0.2436,0.873 L0.1362,1.2522 C0.1362,1.2522 2.9514,1.8378 6.2442,3.8172 L11.3178,23.3034 L17.4024,23.3034 L26.6934,0.873 L20.4084,0.873" id="Fill-2" fill="#005C9C"></path>
                        <path d="M59.9154,15.369 L62.9844,6.9744 L64.7106,15.369 L59.9154,15.369 Z M66.3414,23.3034 L71.7036,23.3034 L67.0284,0.873 L62.3334,0.873 C60.165,0.873 59.6376,2.5446 59.6376,2.5446 L50.9286,23.3034 L57.015,23.3034 L58.233,19.9722 L65.6568,19.9722 L66.3414,23.3034 Z" id="Fill-3" fill="#005C9C"></path>
                        <path d="M51.3852,6.267 L52.218,1.4496 C52.218,1.4496 49.6464,0.4716 46.9656,0.4716 C44.0676,0.4716 37.1862,1.7388 37.1862,7.8972 C37.1862,13.6926 45.2628,13.7646 45.2628,16.8072 C45.2628,19.8498 38.0184,19.3062 35.628,17.3868 L34.7592,22.4226 C34.7592,22.4226 37.3662,23.6898 41.3514,23.6898 C45.336,23.6898 51.3486,21.6252 51.3486,16.0104 C51.3486,10.1784 43.1988,9.6354 43.1988,7.0998 C43.1988,4.5642 48.8862,4.89 51.3852,6.267" id="Fill-4" fill="#005C9C"></path>
                        <path d="M14.1828,12.9792 L12.2172,2.8932 C12.2172,2.8932 11.9802,0.873 9.447,0.873 L0.2436,0.873 L0.1362,1.2522 C0.1362,1.2522 4.56,2.1696 8.8038,5.604 C12.8598,8.8872 14.1828,12.9792 14.1828,12.9792" id="Fill-5" fill="#EE9F3F"></path>
                    </g>
                </g>
            </g>
        </g>
    </g>
</svg>