<svg width="34" height="34" viewBox="0 0 34 34" fill="none" xmlns="http://www.w3.org/2000/svg">
<path fill-rule="evenodd" clip-rule="evenodd" d="M4 0C1.79086 0 0 1.79086 0 4V30C0 32.2091 1.79086 34 4 34H30C32.2091 34 34 32.2091 34 30V4C34 1.79086 32.2091 0 30 0H4Z"/>
<path d="M24.25 10H10.75C9.50744 10 8.5 11.0074 8.5 12.25V21.25C8.5 22.4926 9.50744 23.5 10.75 23.5H24.25C25.4926 23.5 26.5 22.4926 26.5 21.25V12.25C26.5 11.0074 25.4926 10 24.25 10ZM20.5465 16.004L25.3091 11.9226C25.3421 12.0281 25.375 12.1335 25.375 12.25V21.25C25.375 21.328 25.3453 21.3972 25.33 21.4708L20.5465 16.004ZM24.25 11.125C24.3247 11.125 24.3906 11.1536 24.4609 11.1679L17.5 17.1345L10.5391 11.1679C10.6094 11.1536 10.6753 11.125 10.75 11.125H24.25ZM9.66951 21.4697C9.65411 21.3961 9.625 21.328 9.625 21.25V12.25C9.625 12.1335 9.6585 12.0281 9.69148 11.9226L14.4524 16.0029L9.66951 21.4697ZM10.75 22.375C10.6363 22.375 10.533 22.342 10.4292 22.3102L15.3071 16.7357L17.1342 18.3012C17.2391 18.3925 17.3698 18.4375 17.5 18.4375C17.6302 18.4375 17.7609 18.3925 17.8658 18.3013L19.6929 16.7357L24.5708 22.3102C24.4675 22.342 24.3643 22.375 24.25 22.375H10.75Z" fill="white"/>
</svg>
