<svg width="24" height="20" viewBox="0 0 24 20" fill="none" xmlns="http://www.w3.org/2000/svg">
<path fill-rule="evenodd" clip-rule="evenodd" d="M4.17053 0.0301118C3.06461 0.192278 2.14478 0.660166 1.3632 1.4577C0.523125 2.31904 0.0605533 3.3904 0.00472577 4.60531C-0.0830033 6.5513 1.05747 8.38032 2.86257 9.18583C3.54047 9.48889 4.15723 9.60587 4.96275 9.58194C5.72306 9.56067 6.26805 9.42509 6.94861 9.08481C7.45106 8.83491 7.75412 8.6116 8.18479 8.18093C8.61281 7.75292 8.83612 7.44986 9.08867 6.94741C9.76923 5.59692 9.77987 4.05501 9.11525 2.69123C8.44266 1.30883 7.15331 0.335834 5.61938 0.0566964C5.29239 -0.00178966 4.50017 -0.0150819 4.17053 0.0301118V0.0301118ZM5.4998 0.780156C6.02617 0.870543 6.64028 1.12044 7.10019 1.43148C7.41123 1.64149 7.93494 2.16255 8.14496 2.46562C8.45068 2.91224 8.68729 3.45988 8.8016 3.98891C8.88135 4.35844 8.88667 5.17458 8.81489 5.53613C8.47727 7.19501 7.25704 8.43917 5.61943 8.78742C5.34029 8.84857 5.23661 8.85654 4.79531 8.85654C4.25033 8.85654 4.00043 8.81933 3.54583 8.67045C1.77264 8.09623 0.592291 6.33633 0.743823 4.49402C0.90333 2.50549 2.42397 0.947638 4.40983 0.734961C4.6677 0.708377 5.21003 0.729645 5.4998 0.780156V0.780156Z" fill="white"/>
<path fill-rule="evenodd" clip-rule="evenodd" d="M18.7043 0.0223978C16.9896 0.187222 15.4105 1.36758 14.7565 2.97062C14.0227 4.76508 14.4242 6.7988 15.7826 8.17588C17.4787 9.8959 20.1771 10.0873 22.1018 8.6225C22.7159 8.15727 23.1864 7.57773 23.5241 6.87058C24.2897 5.27285 24.1249 3.45181 23.0801 1.97636C22.8727 1.68659 22.2932 1.10971 21.9822 0.889054C21.6791 0.673719 21.0278 0.346729 20.6795 0.232415C20.0521 0.0303728 19.3769 -0.0414051 18.7043 0.0223978V0.0223978ZM19.8953 0.790678C20.4483 0.883724 20.9693 1.0964 21.4638 1.42073C21.8253 1.65999 22.3358 2.17042 22.575 2.53462C23.5161 3.9569 23.4975 5.72743 22.5298 7.14439C22.349 7.41023 21.8094 7.94724 21.5329 8.13865C21.0889 8.44703 20.5466 8.68097 20.0149 8.79529C19.6826 8.86441 19.0446 8.89099 18.6963 8.8458C17.3166 8.673 16.1469 7.83293 15.5328 6.57282C14.3418 4.12704 15.8465 1.23996 18.5528 0.777385C18.8744 0.721558 19.5311 0.729534 19.8953 0.790678V0.790678Z" fill="white"/>
<path fill-rule="evenodd" clip-rule="evenodd" d="M18.3288 11.908L17.5153 12.4131V12.7826C17.5153 12.9846 17.5259 13.1521 17.5366 13.1521C17.5472 13.1521 17.8263 12.9846 18.1533 12.7826C18.483 12.5779 18.7568 12.4157 18.7621 12.4211C18.7861 12.4476 18.6983 12.9527 18.6053 13.3249C18.475 13.8407 18.358 14.157 18.1002 14.6834C17.7652 15.3693 17.3531 15.9462 16.8108 16.4885C15.463 17.839 13.6765 18.5488 11.7863 18.4876C10.7256 18.4504 9.86162 18.2324 8.92318 17.7645C8.29313 17.4482 7.78802 17.0866 7.25633 16.5682C5.96432 15.3135 5.28642 13.8114 5.16413 11.9213L5.14818 11.6634H4.78928H4.42773L4.44369 12.009C4.5261 13.6227 5.10032 15.1407 6.0999 16.3954C6.33385 16.6879 6.99314 17.3472 7.28026 17.5731C8.34098 18.4132 9.55058 18.9369 10.9223 19.1523C11.3583 19.2214 12.6397 19.2214 13.0624 19.1523C14.4714 18.9263 15.6517 18.4079 16.7178 17.5519C17.0979 17.2461 17.6987 16.632 17.9805 16.2652C18.7754 15.2204 19.2912 13.9922 19.4693 12.7108C19.4932 12.554 19.5145 12.4211 19.5198 12.4157C19.5251 12.4104 19.7989 12.5726 20.1286 12.7799C20.4582 12.9846 20.7347 13.1521 20.7427 13.1521C20.7533 13.1521 20.756 12.982 20.7533 12.7746L20.7453 12.3971L20.1871 12.0515C19.8813 11.8601 19.5198 11.6341 19.3869 11.5517L19.1423 11.4029L18.3288 11.908V11.908Z" fill="white"/>
</svg>
