<?xml version="1.0" encoding="utf-8"?>
<!-- Generator: Adobe Illustrator 20.1.0, SVG Export Plug-In . SVG Version: 6.00 Build 0)  -->
<svg version="1.1" id="Layer_1" xmlns="http://www.w3.org/2000/svg" xmlns:xlink="http://www.w3.org/1999/xlink" x="0px" y="0px"
	 width="221.6px" height="271.9px" viewBox="0 0 221.6 271.9" style="enable-background:new 0 0 221.6 271.9;" xml:space="preserve"
	>
<style type="text/css">
	.st0{fill:#E91E8D;}
	.st1{fill:#F7E735;}
	.st2{fill:#622763;}
	.st3{fill:none;}
	.st4{fill:#79377B;}
	.st5{fill:#9B4A9C;}
	.st6{fill:none;stroke:#7EBFD8;stroke-miterlimit:10;}
	.st7{fill:#FFFFFF;stroke:#622763;stroke-width:3;stroke-miterlimit:10;}
	.st8{fill:#FFFFFF;}
	.st9{enable-background:new    ;}
</style>
<g>
	<g>
		<path class="st0" d="M218.1,102.3l-39.6-39.6C172.8,70,164,74.8,154,74.8c-17.1,0-30.9-13.8-30.9-30.9c0-10,4.7-18.8,12.1-24.5
			L119.3,3.5c-4.7-4.7-12.3-4.7-17,0L3.5,102.3c-4.7,4.7-4.7,12.3,0,17L24.2,140c20.6-10.5,50.5-17.1,83.8-17.1
			c35.3,0,66.9,7.4,87.5,19l22.6-22.6C222.7,114.6,222.7,107,218.1,102.3z"/>
		<path class="st1" d="M123,43.8c0,17.1,13.8,30.9,30.9,30.9c10,0,18.8-4.7,24.5-12.1l-43.3-43.3C127.8,25,123,33.8,123,43.8z"/>
	</g>
	<path class="st2" d="M119.2,218.1l76.2-76.2c-20.6-11.6-52.1-19-87.5-19c-33.3,0-63.2,6.6-83.8,17.1l78.2,78.2
		C106.9,222.8,114.6,222.8,119.2,218.1z"/>
	<g>
		<path class="st3" d="M44.3,112.7c8.7-1.6,16-5.3,23.2-9.2c-4.5-1.8-9.2-3-14.4-2.8c-6.7,0.3-15.5,5.2-23.9,11.2
			C33.7,113.2,38.7,113.8,44.3,112.7z"/>
		<path class="st0" d="M10.4,127.3L10.4,127.3L10.4,127.3z"/>
	</g>
	<g>
		<path class="st4" d="M103.2,113.2c9.1-1.7,16.6-5.6,24-9.6c-10.3-7.2-20.9-12.7-28.7-11.9c-12.3,1.3-21.6,6.7-31.1,11.8l0,0
			C78.7,108,88.8,115.9,103.2,113.2z"/>
		<path class="st4" d="M29,111.9c-0.8,0.6-1.6,1.2-2.4,1.8c0.9-0.6,1.7-1.2,2.6-1.7C29.2,111.9,29.1,111.9,29,111.9z"/>
		<path class="st4" d="M10.3,127.3c0.1,0,0.2,0,0.3,0l-0.1-0.1C10.5,127.2,10.4,127.3,10.3,127.3z"/>
		<path class="st5" d="M9.5,126.2l1,1c4.5-4.1,10.2-9,16.1-13.5C20.7,117.7,14.8,122.1,9.5,126.2z"/>
		<path class="st5" d="M211.9,125c-17.6-14.9-43-34-54.4-32.8c-11.9,1.3-21,6.4-30.3,11.4c0,0,0,0,0.1,0
			c9.1,6.4,17.9,14.2,24.1,20.3l-3.7,3.7c17,3.7,32.1,9.8,44.1,17.5L211.9,125z"/>
		<path class="st5" d="M44.2,112.7c8.7-1.6,16-5.3,23.2-9.2c-4.5-1.8-9.2-3-14.4-2.8c-5.3,0.2-14.3,5-23.8,11.2
			C33.8,113.2,38.7,113.8,44.2,112.7z"/>
		<path class="st5" d="M10.6,127.3l16.6,16.6c12.7-7.8,28.7-13.8,46.5-17.2c-7.8-0.2-15.8-0.4-23.8-0.4
			C36.5,126.3,23.3,126.6,10.6,127.3z"/>
		<path class="st5" d="M127.3,103.6L127.3,103.6c-7.5,4-15,7.9-24.1,9.6c-14.4,2.7-24.6-5.2-35.8-9.7c-7.2,3.9-14.5,7.6-23.2,9.2
			c-5.5,1.1-10.5,0.5-15-0.7c-0.9,0.6-1.7,1.1-2.6,1.7c-6,4.5-11.7,9.4-16.1,13.5l0.1,0.1c12.7-0.7,25.9-1,39.3-1
			c8,0,16,0.1,23.8,0.4c11-2.1,22.7-3.3,34.9-3.3c13.8,0,27,1.5,39.1,4.2l3.7-3.7C145.2,117.8,136.4,110,127.3,103.6z"/>
	</g>
	<rect x="55.4" y="54.7" class="st3" width="109.5" height="72"/>
	<g>
		<path class="st6" d="M110.1,232.5"/>
		<path class="st7" d="M110.1,184.8h-7.9L93.6,231c5.4,0.7,10.9,1,16.5,1s11.1-0.4,16.5-1l-8.6-46.2H110.1z"/>
		<polygon class="st8" points="113.5,150.3 110.1,150.3 106.8,150.3 102.8,177.2 110.1,177.2 117.4,177.2 		"/>
		<polygon class="st8" points="111.6,133.7 110.1,133.7 108.7,133.7 107,146.5 110.1,146.5 113.3,146.5 		"/>
		<polygon class="st8" points="110.8,124 110.1,124 109.5,124 108.6,130.2 110.1,130.2 111.6,130.2 		"/>
	</g>
</g>
<g class="st9">
	<path class="st0" d="M29.1,251.5c1.7,0,3.7,0.2,5.2,1.6c1.7,1.5,2,3.5,2,4.9c0,2.5-1,3.9-1.7,4.7c-1.6,1.6-3.7,1.8-5.1,1.8h-2.8v7
		h-4.6v-20H29.1z M26.7,260.7h1.6c0.6,0,1.7,0,2.5-0.8c0.4-0.4,0.8-1.1,0.8-2c0-0.8-0.3-1.5-0.8-2c-0.7-0.7-1.7-0.8-2.6-0.8h-1.6
		V260.7z"/>
	<path class="st0" d="M46,258.1v7.4c0,0.6,0.1,1.5,0.8,2.2c0.3,0.3,0.8,0.6,1.8,0.6c0.8,0,1.4-0.3,1.8-0.6c0.6-0.6,0.7-1.5,0.7-2.2
		v-7.4h4.3v7.8c0,1.5-0.1,3-1.5,4.3c-1.5,1.5-3.8,1.7-5.4,1.7c-1.6,0-3.9-0.2-5.4-1.7c-1.2-1.2-1.5-2.5-1.5-4v-8.1H46z"/>
	<path class="st0" d="M70,261.5c-0.7-0.4-1.5-0.8-2.4-0.8c-0.4,0-1,0.1-1.2,0.4c-0.1,0.1-0.3,0.4-0.3,0.6c0,0.3,0.2,0.5,0.4,0.6
		c0.3,0.2,0.8,0.3,1.3,0.4l1.1,0.4c0.8,0.2,1.5,0.5,2.2,1.2c0.8,0.7,1.1,1.5,1.1,2.5c0,1.8-0.8,2.9-1.4,3.5
		c-1.3,1.3-2.9,1.5-4.4,1.5c-1.8,0-3.7-0.4-5.5-1.9l1.8-2.9c0.4,0.4,1,0.8,1.5,1c0.6,0.3,1.2,0.4,1.8,0.4c0.3,0,1,0,1.4-0.3
		c0.3-0.2,0.5-0.5,0.5-0.9c0-0.2-0.1-0.5-0.5-0.8c-0.3-0.2-0.7-0.3-1.3-0.5l-1.1-0.3c-0.8-0.2-1.6-0.7-2.2-1.2c-0.6-0.7-1-1.4-1-2.4
		c0-1.3,0.5-2.4,1.3-3.1c1.2-1.1,2.8-1.3,4-1.3c2,0,3.4,0.5,4.4,1.1L70,261.5z"/>
	<path class="st0" d="M78,249.6h4.3v10.1c0.5-0.7,1.1-1.1,1.6-1.4c0.9-0.5,1.6-0.6,2.6-0.6c1,0,2.6,0.1,3.8,1.3
		c1.2,1.2,1.3,2.9,1.3,3.9v8.5h-4.3v-6.9c0-0.9,0-2-0.7-2.7c-0.4-0.4-1.1-0.6-1.7-0.6c-0.9,0-1.5,0.4-1.7,0.7
		c-0.9,0.8-0.9,2.1-0.9,2.8v6.7H78V249.6z"/>
	<path class="st0" d="M101,259.5h-2.8l-0.7-8h4.2L101,259.5z"/>
	<path class="st0" d="M107.7,258.1h4.3v1.6c1.3-1.7,2.9-2,4.1-2c1.2,0,2.7,0.2,3.8,1.3c1.3,1.3,1.3,2.8,1.3,3.9v8.5H117v-6.9
		c0-0.9,0-2-0.7-2.7c-0.3-0.3-0.9-0.6-1.6-0.6c-0.9,0-1.5,0.4-1.8,0.7c-0.7,0.7-0.8,1.7-0.8,2.5v6.9h-4.3V258.1z"/>
	<path class="st0" d="M130.8,259.5H128l-0.7-8h4.2L130.8,259.5z"/>
	<path class="st0" d="M145,251.5c1.7,0,3.7,0.2,5.2,1.6c1.7,1.5,2,3.5,2,4.9c0,2.5-1,3.9-1.7,4.7c-1.6,1.6-3.7,1.8-5.1,1.8h-2.8v7
		h-4.6v-20H145z M142.6,260.7h1.7c0.6,0,1.7,0,2.5-0.8c0.4-0.4,0.8-1.1,0.8-2c0-0.8-0.3-1.5-0.8-2c-0.7-0.7-1.7-0.8-2.6-0.8h-1.6
		V260.7z"/>
	<path class="st0" d="M170.6,269.8c-1.2,1.2-3.2,2.2-5.8,2.2c-2.6,0-4.7-1-5.9-2.2c-1.3-1.3-2-3.3-2-5s0.7-3.6,2-5
		c1.2-1.2,3.2-2.2,5.9-2.2c2.6,0,4.6,1,5.8,2.2c1.3,1.4,2,3.3,2,5S172,268.4,170.6,269.8z M162.4,262.3c-0.6,0.6-1,1.4-1,2.5
		c0,1.2,0.5,2,1,2.5c0.5,0.5,1.3,1,2.5,1c1,0,1.8-0.3,2.4-1s1-1.4,1-2.5s-0.4-1.9-1-2.5s-1.4-1-2.4-1
		C163.8,261.3,163,261.6,162.4,262.3z"/>
	<path class="st0" d="M186.5,261.5c-0.7-0.4-1.5-0.8-2.4-0.8c-0.4,0-1,0.1-1.2,0.4c-0.2,0.1-0.3,0.4-0.3,0.6c0,0.3,0.2,0.5,0.4,0.6
		c0.3,0.2,0.8,0.3,1.3,0.4l1.1,0.4c0.8,0.2,1.5,0.5,2.2,1.2c0.8,0.7,1,1.5,1,2.5c0,1.8-0.8,2.9-1.4,3.5c-1.3,1.3-2.9,1.5-4.3,1.5
		c-1.8,0-3.8-0.4-5.5-1.9l1.8-2.9c0.4,0.4,1,0.8,1.5,1c0.6,0.3,1.2,0.4,1.8,0.4c0.3,0,1,0,1.3-0.3c0.3-0.2,0.5-0.5,0.5-0.9
		c0-0.2-0.1-0.5-0.5-0.8c-0.3-0.2-0.7-0.3-1.3-0.5l-1.1-0.3c-0.8-0.2-1.6-0.7-2.2-1.2c-0.6-0.7-1-1.4-1-2.4c0-1.3,0.5-2.4,1.3-3.1
		c1.2-1.1,2.8-1.3,4-1.3c2,0,3.4,0.5,4.4,1.1L186.5,261.5z"/>
	<path class="st0" d="M198.8,261.6v9.9h-4.3v-9.9H193v-3.5h1.5v-4.3h4.3v4.3h2.7v3.5H198.8z"/>
</g>
</svg>
