<?xml version="1.0" encoding="utf-8"?>
<!-- Generator: Adobe Illustrator 20.1.0, SVG Export Plug-In . SVG Version: 6.00 Build 0)  -->
<svg version="1.1" id="Layer_1" xmlns="http://www.w3.org/2000/svg" xmlns:xlink="http://www.w3.org/1999/xlink" x="0px" y="0px"
	 width="287.5px" height="275.6px" viewBox="0 0 287.5 275.6" style="enable-background:new 0 0 287.5 275.6;" xml:space="preserve"
	>
<style type="text/css">
	.st0{fill:#FFFFFF;}
	.st1{fill:#16BECC;}
	.st2{fill:#D1CA29;}
	.st3{fill:none;stroke:#085E73;stroke-width:2;stroke-miterlimit:10;}
	.st4{fill:#2D6C6D;}
	.st5{fill:#FFFFFF;stroke:#326E6B;stroke-width:3;stroke-miterlimit:10;}
	.st6{enable-background:new    ;}
</style>
<path class="st0" d="M142.2,225"/>
<g>
	<circle class="st1" cx="144.7" cy="103.8" r="99"/>
	<circle class="st2" cx="104.1" cy="122.5" r="30.9"/>
	<path class="st3" d="M181.3,53.1c0,0-13.5,22.8-1.2,70.6"/>
	<path class="st3" d="M173.6,51.6c0,0-16.8,20.5-11.8,69.6"/>
	<path class="st4" d="M206.8,12c-0.6-4.9-4.3-12-4.3-12s-7.8,1.7-12,4.3s-6.6,6.8-6.6,6.8l-3.5,10.7l1.1,1.4L176.4,34l8.1,3.9
		l2.7,1.3l0,0l5.4,2.6l5.1-10.8h1.8l6.1-9.5C205.6,21.4,207.4,16.9,206.8,12z M196.4,18c-2.5,0-4.5-2-4.5-4.5s2-4.5,4.5-4.5
		s4.5,2,4.5,4.5S198.9,18,196.4,18z"/>
	<polygon class="st4" points="177.4,18 163.1,41.1 176.4,34.1 180.4,21.9 	"/>
	<polygon class="st4" points="180.4,21.9 176.4,34.1 181.5,23.3 	"/>
	<polygon class="st4" points="195.6,56.5 204.5,30.8 199.6,30.9 192.6,41.8 	"/>
	<polygon class="st4" points="192.6,41.8 199.6,30.9 197.8,31 	"/>
	<polygon class="st4" points="181.8,36.7 180.6,46.1 187.2,39.2 184.5,38 	"/>
	<polygon class="st4" points="184.5,38 187.2,39.2 187.2,39.2 	"/>
	<path class="st4" d="M144.7,203.8c44,0,81.2-28.6,94.1-68.3c-20.1-12.6-54.7-20.9-94.1-20.9s-74,8.3-94.1,20.9
		C63.5,175.1,100.8,203.8,144.7,203.8z"/>
	<path class="st5" d="M144.2,177.2h-7.9l-8.6,46.2c5.4,0.7,10.9,1,16.5,1s11.1-0.4,16.5-1l-8.6-46.2H144.2z"/>
	<polygon class="st0" points="147.6,142.7 144.2,142.7 140.9,142.7 136.9,169.7 144.2,169.7 151.5,169.7 	"/>
	<polygon class="st0" points="145.7,126.1 144.2,126.1 142.8,126.1 141.1,138.9 144.2,138.9 147.4,138.9 	"/>
	<polygon class="st0" points="144.9,116.4 144.2,116.4 143.5,116.4 142.7,122.7 144.2,122.7 145.7,122.7 	"/>
	<circle class="st0" cx="100.9" cy="52.5" r="8.5"/>
	<circle class="st0" cx="114.5" cy="50.1" r="11.8"/>
	<circle class="st0" cx="128.3" cy="52.7" r="7.4"/>
</g>
<g class="st6">
	<path class="st4" d="M4.6,263.5l6.8-8.3h5.6L9,264.6l8.7,10.5h-5.9l-7.2-8.9v8.9H0v-20h4.6V263.5z"/>
	<path class="st4" d="M26,261.8v7.4c0,0.6,0.1,1.5,0.8,2.2c0.3,0.3,0.8,0.6,1.8,0.6c0.8,0,1.4-0.3,1.8-0.6c0.6-0.6,0.7-1.5,0.7-2.2
		v-7.4h4.3v7.8c0,1.5-0.1,3-1.5,4.3c-1.5,1.5-3.8,1.7-5.4,1.7c-1.6,0-3.9-0.2-5.4-1.7c-1.2-1.2-1.5-2.5-1.5-4v-8.1H26z"/>
	<path class="st4" d="M51.8,266c-1-0.9-2.1-1-2.8-1c-1.4,0-2.2,0.7-2.5,1c-0.6,0.6-1,1.4-1,2.5c0,1,0.4,1.8,0.9,2.4
		c0.7,0.7,1.6,1.1,2.6,1.1c0.8,0,1.8-0.2,2.8-1v3.9c-1.1,0.6-2.2,0.8-3.4,0.8c-2.2,0-4-0.8-5.2-2c-1-1-2.1-2.7-2.1-5.1
		c0-2.3,1-4.1,2.2-5.3c1.5-1.4,3.3-1.9,5.1-1.9c1.2,0,2.2,0.2,3.4,0.8V266z"/>
	<path class="st4" d="M57.8,253.3h4.3v10.1c0.5-0.7,1.1-1.1,1.6-1.4c0.9-0.5,1.6-0.6,2.6-0.6c1,0,2.6,0.1,3.8,1.3
		c1.2,1.2,1.3,2.9,1.3,3.9v8.5h-4.3v-6.9c0-0.9,0-2-0.7-2.7c-0.4-0.4-1.1-0.6-1.7-0.6c-0.9,0-1.5,0.4-1.7,0.7
		c-0.9,0.8-0.9,2.1-0.9,2.8v6.7h-4.3V253.3z"/>
	<path class="st4" d="M90.9,269.2h-10c0,0.7,0.3,1.7,0.8,2.3c0.7,0.7,1.6,0.8,2.2,0.8c0.6,0,1.3-0.1,1.7-0.4c0.1,0,0.6-0.4,0.9-1.1
		l4.1,0.4c-0.6,1.9-1.8,2.9-2.6,3.4c-1.3,0.8-2.7,1-4.2,1c-2,0-3.8-0.4-5.3-1.9c-1.2-1.2-2-2.9-2-5.2c0-1.9,0.7-3.9,2-5.3
		c1.6-1.6,3.6-1.9,5.1-1.9c1.5,0,3.7,0.3,5.3,2c1.6,1.7,1.9,3.8,1.9,5.4V269.2z M86.9,266.6c0-0.1-0.2-1-0.9-1.6
		c-0.5-0.4-1.2-0.7-2-0.7c-1.1,0-1.8,0.4-2.2,0.9c-0.3,0.4-0.6,0.8-0.8,1.4H86.9z"/>
	<path class="st4" d="M96.6,261.8h4.3v1.6c1.3-1.7,2.9-2,4.1-2c1.2,0,2.7,0.2,3.8,1.3c1.3,1.3,1.4,2.8,1.4,3.9v8.5h-4.3v-6.9
		c0-0.9,0-2-0.7-2.7c-0.3-0.3-0.9-0.6-1.6-0.6c-0.9,0-1.5,0.4-1.8,0.7c-0.7,0.7-0.8,1.7-0.8,2.5v6.9h-4.3V261.8z"/>
	<path class="st4" d="M145.4,267.6c-0.9,1.1-1.8,2.1-2.7,2.9l4.3,4.7h-5.6l-1.8-2c-0.8,0.8-1.7,1.4-2.6,1.8
		c-1.1,0.5-2.4,0.6-3.7,0.6c-1.6,0-3.5-0.1-5.1-1.6c-0.7-0.6-1.7-1.9-1.7-4.1c0-1.7,0.5-2.9,1.6-4c0.8-0.8,2-1.5,3.2-1.9
		c-0.5-0.5-1.1-1.2-1.4-1.8c-0.4-0.8-0.5-1.5-0.5-2.3c0-1.7,0.7-2.8,1.4-3.6c0.9-0.8,2.3-1.6,4.4-1.6c2,0,3.5,0.7,4.5,1.6
		c0.8,0.8,1.4,2,1.4,3.4c0,1.2-0.5,2.5-1.5,3.5c-0.6,0.5-1.4,1-2.2,1.4l2.9,3.2c1-0.9,1.8-1.9,2.5-2.8L145.4,267.6z M133.5,266.4
		c-0.5,0.3-1.2,0.7-1.6,1.2c-0.6,0.6-0.7,1.3-0.7,1.8c0,0.7,0.3,1.2,0.7,1.6c0.5,0.4,1.2,0.7,2,0.7c1.3,0,2.4-0.8,3.1-1.3
		L133.5,266.4z M134.2,261.1c0.4,0.7,1.1,1.3,1.1,1.3c0.5-0.2,1.1-0.7,1.4-1.1c0.4-0.4,0.6-1,0.6-1.7c0-0.5-0.2-1-0.5-1.3
		c-0.2-0.2-0.7-0.5-1.4-0.5c-0.4,0-0.8,0.1-1.3,0.4c-0.4,0.3-0.6,0.8-0.6,1.3C133.6,260.2,133.9,260.6,134.2,261.1z"/>
	<path class="st4" d="M169.4,255.1c2.6,0,4.1,0.8,5.1,1.7c0.8,0.8,1.7,2.2,1.7,4.5c0,1.3-0.3,2.8-1.6,4.1c-0.7,0.7-1.7,1.3-2.8,1.5
		l6.2,8.2h-5.6l-5.4-7.9v7.9h-4.6v-20H169.4z M167,264.2h1c0.8,0,2-0.1,2.8-0.9c0.3-0.3,0.8-1,0.8-2c0-1.1-0.5-1.7-0.9-2
		c-0.8-0.6-1.9-0.6-2.5-0.6H167V264.2z"/>
	<path class="st4" d="M193.1,261.8h4.3v13.4h-4.3v-1.6c-1.2,1.8-2.8,2.1-4,2.1c-1.9,0-3.5-0.5-5-2c-1.4-1.5-2-3.2-2-5
		c0-2.2,0.8-4.2,2.1-5.4c1.2-1.2,2.8-1.8,4.7-1.8c1.1,0,3,0.3,4.2,1.9V261.8z M187.6,266c-0.4,0.5-1,1.2-1,2.4s0.5,2,0.9,2.4
		c0.6,0.6,1.5,1.1,2.6,1.1c0.9,0,1.7-0.4,2.2-0.9c0.6-0.5,1-1.4,1-2.5c0-1-0.4-1.9-1-2.5c-0.7-0.6-1.6-0.9-2.4-0.9
		C189,265,188.2,265.4,187.6,266z"/>
	<path class="st4" d="M208.2,253.3v13.4l4.9-4.9h5.7l-6.4,6.1l6.8,7.3h-5.8l-5.2-5.8v5.8h-4.3v-21.9H208.2z"/>
	<path class="st4" d="M236.8,269.2h-10c0,0.7,0.3,1.7,0.8,2.3c0.7,0.7,1.6,0.8,2.2,0.8c0.6,0,1.3-0.1,1.7-0.4c0.1,0,0.6-0.4,0.9-1.1
		l4.1,0.4c-0.6,1.9-1.8,2.9-2.6,3.4c-1.3,0.8-2.7,1-4.2,1c-2,0-3.8-0.4-5.3-1.9c-1.2-1.2-2-2.9-2-5.2c0-1.9,0.7-3.9,2-5.3
		c1.6-1.6,3.6-1.9,5.1-1.9c1.5,0,3.7,0.3,5.3,2c1.6,1.7,1.9,3.8,1.9,5.4V269.2z M232.8,266.6c0-0.1-0.2-1-0.9-1.6
		c-0.5-0.4-1.2-0.7-2-0.7c-1.1,0-1.8,0.4-2.2,0.9c-0.3,0.4-0.6,0.8-0.8,1.4H232.8z"/>
	<path class="st4" d="M247,265.3v9.9h-4.3v-9.9h-1.5v-3.5h1.5v-4.3h4.3v4.3h2.7v3.5H247z"/>
	<path class="st4" d="M268.2,269.2h-10c0,0.7,0.3,1.7,0.8,2.3c0.7,0.7,1.6,0.8,2.2,0.8c0.6,0,1.3-0.1,1.7-0.4c0.1,0,0.6-0.4,0.9-1.1
		l4.1,0.4c-0.6,1.9-1.8,2.9-2.6,3.4c-1.3,0.8-2.7,1-4.2,1c-2,0-3.8-0.4-5.3-1.9c-1.2-1.2-2-2.9-2-5.2c0-1.9,0.7-3.9,2-5.3
		c1.6-1.6,3.6-1.9,5.1-1.9s3.7,0.3,5.3,2c1.6,1.7,1.9,3.8,1.9,5.4V269.2z M264.2,266.6c0-0.1-0.2-1-0.9-1.6c-0.5-0.4-1.2-0.7-2-0.7
		c-1.1,0-1.8,0.4-2.2,0.9c-0.3,0.4-0.6,0.8-0.8,1.4H264.2z"/>
	<path class="st4" d="M273.9,261.8h4.3v1.6c1.3-1.7,2.9-2,4.1-2c1.2,0,2.7,0.2,3.8,1.3c1.3,1.3,1.3,2.8,1.3,3.9v8.5h-4.3v-6.9
		c0-0.9,0-2-0.7-2.7c-0.3-0.3-0.9-0.6-1.7-0.6c-0.9,0-1.5,0.4-1.8,0.7c-0.7,0.7-0.8,1.7-0.8,2.5v6.9h-4.3V261.8z"/>
</g>
</svg>
