<?xml version="1.0" encoding="UTF-8"?>
<svg width="32px" height="32px" viewBox="0 0 32 32" version="1.1" xmlns="http://www.w3.org/2000/svg" xmlns:xlink="http://www.w3.org/1999/xlink">
    <!-- Generator: Sketch 51.2 (57519) - http://www.bohemiancoding.com/sketch -->
    <title>6_booking-01</title>
    <desc>Created with Sketch.</desc>
    <defs></defs>
    <g id="Symbols" stroke="none" stroke-width="1" fill="none" fill-rule="evenodd">
        <g id="Icons-/-Faq-/-Booking" class="lnr-fill" fill-rule="nonzero">
            <g id="6_booking-01">
                <polygon id="Shape" points="18.241 25.223 21.367 22.098 24.492 25.223 25.34 24.375 22.215 21.25 25.34 18.125 24.492 17.277 21.367 20.402 18.241 17.277 17.394 18.125 20.519 21.25 17.394 24.375"></polygon>
                <polygon id="Shape" points="8.661 14.339 5.841 11.518 4.993 12.366 8.661 16.037 16.096 8.603 15.247 7.754"></polygon>
                <path d="M27.091,5.329 L26.465,4.687 L6.481,24.67 L7.33,25.518 L26.45,6.399 C31.549,11.943 31.389,20.683 26.036,26.037 C23.355,28.717 19.793,30.192 16.002,30.192 C16.001,30.192 16,30.192 15.999,30.192 C12.208,30.191 8.645,28.714 5.964,26.034 C3.284,23.354 1.808,19.791 1.808,16 C1.808,12.209 3.284,8.645 5.964,5.964 C10.894,1.034 18.581,0.393 24.242,4.441 L24.939,3.464 C18.8,-0.926 10.462,-0.232 5.115,5.115 C2.208,8.023 0.608,11.889 0.608,16 C0.608,20.111 2.209,23.975 5.116,26.881 C8.023,29.789 11.888,31.391 16,31.392 C16.001,31.392 16.002,31.392 16.003,31.392 C20.114,31.392 23.978,29.791 26.884,26.884 C32.774,20.994 32.867,11.324 27.091,5.329 Z" id="Shape"></path>
            </g>
        </g>
    </g>
</svg>