<?xml version="1.0" encoding="UTF-8"?>
<svg width="32px" height="32px" viewBox="0 0 32 32" version="1.1" xmlns="http://www.w3.org/2000/svg" xmlns:xlink="http://www.w3.org/1999/xlink">
    <!-- Generator: Sketch 51.2 (57519) - http://www.bohemiancoding.com/sketch -->
    <title>8_ratings-01</title>
    <desc>Created with Sketch.</desc>
    <defs></defs>
    <g id="Symbols" stroke="none" stroke-width="1" fill="none" fill-rule="evenodd">
        <g id="Icons-/-Faq-/-Rating" class="lnr-fill" fill-rule="nonzero">
            <g id="8_ratings-01">
                <path d="M15.999,0.561 C9.025,0.561 2.894,5.259 1.091,11.98 C1.056,12.106 0.992,12.384 0.992,12.384 L0.823,13.118 L7.073,13.118 L8.031,10.165 L8.99,13.118 L12.092,13.118 L9.582,14.94 L10.541,17.892 L8.031,16.067 L5.517,17.895 L6.339,15.354 L5.197,14.985 L3.24,21.034 L8.032,17.552 L12.825,21.037 L11.685,17.528 L14.467,15.498 L19.26,18.979 L17.428,13.344 L22.225,9.861 L16.296,9.861 L14.465,4.227 L12.633,9.861 L9.195,9.861 L8.031,6.279 L6.201,11.918 L2.356,11.918 C4.144,5.918 9.698,1.761 15.999,1.761 C23.852,1.761 30.24,8.149 30.24,16.001 C30.24,18.48 29.6,20.811 28.482,22.843 C28.255,20.947 27.045,19.351 25.356,18.615 C26.118,17.998 26.616,17.066 26.616,16.011 C26.616,14.156 25.107,12.646 23.253,12.646 C21.397,12.646 19.887,14.156 19.887,16.011 C19.887,17.067 20.385,17.999 21.149,18.616 C19.278,19.432 17.963,21.297 17.963,23.466 L17.963,28.79 L19.162,28.79 L19.162,23.466 C19.162,21.214 20.989,19.383 23.238,19.375 C23.243,19.375 23.248,19.376 23.253,19.376 C23.258,19.376 23.263,19.375 23.268,19.375 C25.518,19.383 27.346,21.214 27.346,23.466 L27.346,24.57 C24.743,28.006 20.633,30.24 15.999,30.24 C8.148,30.24 1.761,23.853 1.761,16 C1.761,15.542 1.783,15.081 1.826,14.625 L1.856,14.34 L0.665,14.194 L0.631,14.512 C0.584,15.004 0.561,15.505 0.561,16 C0.561,24.513 7.487,31.439 15.999,31.439 C24.513,31.439 31.439,24.513 31.439,16 C31.439,7.487 24.513,0.561 15.999,0.561 Z M13.506,11.062 L14.465,8.11 L15.423,11.062 L18.528,11.062 L16.016,12.886 L16.976,15.839 L14.463,14.014 L11.294,16.327 L10.992,15.399 L15.788,11.918 L9.863,11.918 L9.585,11.062 L13.506,11.062 Z M21.086,16.011 C21.086,14.817 22.059,13.846 23.253,13.846 C24.446,13.846 25.417,14.817 25.417,16.011 C25.417,17.2 24.454,18.167 23.268,18.176 C23.263,18.176 23.258,18.174 23.253,18.174 C23.248,18.174 23.243,18.176 23.238,18.176 C22.051,18.167 21.086,17.2 21.086,16.011 Z" id="Shape"></path>
            </g>
        </g>
    </g>
</svg>