<?xml version="1.0" encoding="UTF-8"?>
<svg width="32px" height="32px" viewBox="0 0 32 32" version="1.1" xmlns="http://www.w3.org/2000/svg" xmlns:xlink="http://www.w3.org/1999/xlink">
    <!-- Generator: Sketch 51.2 (57519) - http://www.bohemiancoding.com/sketch -->
    <title>5_insurance-01</title>
    <desc>Created with Sketch.</desc>
    <defs></defs>
    <g id="Symbols" stroke="none" stroke-width="1" fill="none" fill-rule="evenodd">
        <g id="Icons-/-Faq-/-Insurance" class="lnr-fill" fill-rule="nonzero">
            <g id="5_insurance-01">
                <path d="M16,0.576 C7.495,0.576 0.576,7.495 0.576,15.999 C0.576,24.505 7.495,31.424 16,31.424 L16.25,31.424 L16.426,31.247 C16.604,31.067 20.805,26.802 22.839,21.725 C24.86,16.688 25.297,11.182 25.291,9.997 L25.291,9.494 L24.796,9.407 C21.857,8.887 18.546,8.106 16.281,6.245 L15.9,5.931 L15.519,6.243 C13.343,8.029 10.092,8.826 7.199,9.371 L6.744,9.517 L6.702,10.088 C6.702,20.089 11.558,26.661 13.647,29.022 L14.545,28.227 C13.006,26.487 8.028,20.11 7.904,10.458 C10.661,9.916 13.669,9.119 15.898,7.468 C18.208,9.187 21.275,9.977 24.082,10.496 C23.995,12.071 23.482,16.896 21.725,21.278 C20.009,25.559 16.556,29.365 15.746,30.221 C8.02,30.086 1.776,23.758 1.776,15.999 C1.776,8.157 8.157,1.776 16,1.776 C23.843,1.776 30.224,8.156 30.224,15.999 C30.224,22.728 25.447,28.59 18.866,29.935 L19.106,31.111 C26.244,29.652 31.423,23.297 31.423,16 C31.424,7.495 24.505,0.576 16,0.576 Z" id="Shape"></path>
                <polygon id="Shape" points="20.914 13.593 15.815 18.692 13.173 16.05 12.325 16.898 15.815 20.39 21.762 14.442"></polygon>
            </g>
        </g>
    </g>
</svg>