<?xml version="1.0" encoding="UTF-8"?>
<svg width="32px" height="32px" viewBox="0 0 32 32" version="1.1" xmlns="http://www.w3.org/2000/svg" xmlns:xlink="http://www.w3.org/1999/xlink">
    <!-- Generator: Sketch 51.2 (57519) - http://www.bohemiancoding.com/sketch -->
    <title>3_renting-01</title>
    <desc>Created with Sketch.</desc>
    <defs></defs>
    <g id="Symbols" stroke="none" stroke-width="1" fill="none" fill-rule="evenodd">
        <g id="Icons-/-Faq-/-Renting-bikes" class="lnr-fill" fill-rule="nonzero">
            <g id="3_renting-01">
                <path d="M29.074,7.776 L28.058,8.417 C29.488,10.681 30.244,13.303 30.244,16 C30.244,23.854 23.854,30.244 16,30.244 C8.146,30.244 1.756,23.854 1.756,16 C1.756,8.146 8.146,1.756 16,1.756 C19.874,1.756 23.6,3.349 26.28,6.141 L21.342,11.044 C21.193,11.196 20.994,11.28 20.784,11.28 L12.664,11.28 C12.232,11.28 11.881,10.929 11.881,10.497 C11.881,10.073 12.221,9.73 12.642,9.718 L12.829,9.718 L12.829,9.714 L17.748,9.714 L17.748,8.514 L12.665,8.514 C12.65,8.514 12.636,8.518 12.622,8.518 L12.177,8.518 C11.255,8.518 10.87,8.963 10.856,8.991 L7.217,12.629 C6.915,12.932 6.388,12.931 6.087,12.629 C5.776,12.317 5.775,11.81 6.087,11.499 L10.33,7.254 C10.57,7.015 10.913,6.77 11.637,6.77 L17.213,6.77 C18.334,6.77 18.913,6.073 18.928,6.047 L20.598,4.376 L19.748,3.527 L18.038,5.243 C18.026,5.256 17.753,5.569 17.213,5.569 L11.637,5.569 C10.32,5.569 9.69,6.197 9.482,6.404 L5.238,10.65 C4.46,11.429 4.46,12.697 5.238,13.477 C5.616,13.855 6.118,14.063 6.652,14.063 C7.186,14.063 7.688,13.855 8.066,13.477 L10.715,10.827 C10.873,11.763 11.684,12.48 12.665,12.48 L20.785,12.48 C21.32,12.48 21.823,12.268 22.194,11.89 L27.938,6.187 L27.414,5.595 C24.49,2.393 20.331,0.556 16,0.556 C7.484,0.556 0.556,7.484 0.556,16 C0.556,24.516 7.484,31.443 16,31.443 C24.516,31.443 31.443,24.516 31.443,16 C31.443,13.076 30.624,10.232 29.074,7.776 Z" id="Shape"></path>
                <rect id="Rectangle-path" x="15.381" y="19.885" width="1.2" height="8.31"></rect>
                <path d="M17.782,15.981 C18.123,15.76 18.368,15.6 18.925,15.6 L20.219,15.6 L20.219,14.4 L18.925,14.4 C18.012,14.4 17.522,14.72 17.128,14.976 C16.788,15.198 16.542,15.358 15.985,15.358 C15.427,15.358 15.181,15.198 14.84,14.976 C14.446,14.719 13.955,14.4 13.041,14.4 L11.743,14.4 L11.743,15.6 L13.041,15.6 C13.599,15.6 13.845,15.76 14.186,15.982 C14.483,16.175 14.835,16.403 15.381,16.505 L15.381,17.891 C14.102,18.167 13.14,19.305 13.14,20.666 L13.14,24.084 L14.34,24.084 L14.34,20.666 C14.34,19.761 15.076,19.023 15.981,19.023 C16.886,19.023 17.622,19.76 17.622,20.666 L17.622,24.084 L18.821,24.084 L18.821,20.666 C18.821,19.305 17.859,18.168 16.581,17.891 L16.581,16.506 C17.13,16.405 17.484,16.176 17.782,15.981 Z" id="Shape"></path>
            </g>
        </g>
    </g>
</svg>