<?xml version="1.0" encoding="UTF-8"?>
<svg width="32px" height="32px" viewBox="0 0 32 32" version="1.1" xmlns="http://www.w3.org/2000/svg" xmlns:xlink="http://www.w3.org/1999/xlink">
    <!-- Generator: Sketch 51.2 (57519) - http://www.bohemiancoding.com/sketch -->
    <title>4_payments-01</title>
    <desc>Created with Sketch.</desc>
    <defs></defs>
    <g id="Symbols" stroke="none" stroke-width="1" fill="none" fill-rule="evenodd">
        <g id="Icons-/-Faq-/-Paying" class="lnr-fill" fill-rule="nonzero">
            <g id="4_payments-01">
                <path d="M16,0.564 C9.122,0.564 3.011,5.182 1.14,11.794 L2.294,12.121 C4.02,6.023 9.655,1.764 16,1.764 C23.85,1.764 30.237,8.15 30.237,16 C30.237,18.488 29.591,20.826 28.466,22.863 L25.647,20.078 C25.276,19.702 24.763,19.486 24.24,19.486 L16.165,19.486 C15.191,19.486 14.385,20.195 14.224,21.123 L11.595,18.495 C10.842,17.741 9.531,17.74 8.778,18.495 C8,19.272 8,20.536 8.775,21.311 L12.996,25.534 C13.202,25.739 13.828,26.364 15.141,26.364 L20.686,26.364 C21.221,26.364 21.493,26.675 21.543,26.731 L23.12,28.309 C21.022,29.528 18.595,30.237 15.999,30.237 C8.15,30.236 1.764,23.85 1.764,16 C1.764,15.856 1.766,15.714 1.77,15.573 L1.775,15.448 L10.075,7.202 C10.313,6.965 10.654,6.723 11.372,6.723 L16.625,6.723 C17.344,6.723 17.684,6.965 17.92,7.202 L21.509,10.792 C21.62,10.903 21.689,11.042 21.72,11.189 C21.021,10.938 20.267,10.898 19.548,11.068 L18.538,10.058 L17.526,9.04 C17.294,8.782 16.943,8.392 16.121,8.392 L14.766,8.392 C14.031,8.392 13.726,8.696 13.406,9.017 L12.838,9.583 C12.16,10.261 12.154,11.24 12.824,11.911 L14.218,13.305 C14.748,13.834 15.322,13.836 15.783,13.838 L18.978,13.839 C19.415,13.84 19.771,14.196 19.774,14.628 C19.771,15.066 19.415,15.422 18.979,15.422 L13.8,15.424 C12.682,15.424 12.133,15.19 11.601,14.964 C11.114,14.757 10.611,14.543 9.818,14.543 C8.883,14.543 7.902,15.048 6.899,16.045 L3.432,19.512 L4.281,20.36 L7.747,16.894 C8.704,15.943 9.401,15.743 9.818,15.743 C10.366,15.743 10.687,15.88 11.13,16.069 C11.713,16.317 12.437,16.625 13.8,16.625 L17.135,16.623 C17.304,16.919 17.496,17.2 17.739,17.441 C18.458,18.161 19.414,18.557 20.428,18.557 C21.444,18.557 22.4,18.161 23.118,17.441 C24.6,15.96 24.6,13.547 23.118,12.065 C23.036,11.983 22.941,11.922 22.853,11.849 C23.03,11.175 22.864,10.45 22.356,9.943 L18.767,6.353 C18.41,5.997 17.799,5.523 16.623,5.523 L11.37,5.523 C10.058,5.523 9.432,6.148 9.226,6.352 L0.594,14.928 L0.569,15.536 C0.566,15.691 0.563,15.844 0.563,16 C0.563,24.512 7.488,31.436 15.999,31.436 C24.51,31.436 31.436,24.512 31.436,16 C31.436,7.489 24.511,0.564 16,0.564 Z M15.066,12.455 L13.673,11.062 C13.603,10.993 13.521,10.883 13.523,10.755 C13.525,10.622 13.613,10.505 13.686,10.433 L14.253,9.867 C14.523,9.597 14.528,9.592 14.767,9.592 L16.122,9.592 C16.409,9.592 16.461,9.65 16.634,9.842 C16.683,9.896 16.732,9.95 16.782,10.001 L18.352,11.569 C18.134,11.711 17.928,11.875 17.738,12.065 C17.564,12.239 17.415,12.434 17.278,12.637 L15.786,12.637 C15.356,12.635 15.229,12.617 15.066,12.455 Z M22.272,16.592 C21.268,17.597 19.642,17.603 18.625,16.621 L18.98,16.621 C20.074,16.621 20.969,15.729 20.974,14.626 C20.969,13.531 20.075,12.639 18.98,12.637 L18.925,12.637 C19.943,11.917 21.363,12.002 22.271,12.912 C23.286,13.928 23.286,15.578 22.272,16.592 Z M24.157,27.649 L22.439,25.935 C22.377,25.856 21.798,25.164 20.685,25.164 L15.14,25.164 C14.421,25.164 14.081,24.921 13.844,24.685 L9.624,20.462 C9.315,20.154 9.316,19.652 9.624,19.343 C9.923,19.044 10.444,19.043 10.744,19.344 L14.307,22.897 C14.374,22.987 14.758,23.433 15.678,23.433 L16.125,23.433 C16.138,23.433 16.15,23.437 16.164,23.437 L21.22,23.437 L21.22,22.238 L16.328,22.238 L16.328,22.234 L16.145,22.234 C15.727,22.223 15.389,21.882 15.389,21.462 C15.389,21.034 15.737,20.687 16.164,20.687 L24.239,20.687 C24.446,20.687 24.642,20.771 24.797,20.927 L27.825,23.919 C26.843,25.377 25.596,26.64 24.157,27.649 Z" id="Shape"></path>
            </g>
        </g>
    </g>
</svg>