<?xml version="1.0" encoding="UTF-8"?>
<svg width="32px" height="32px" viewBox="0 0 32 32" version="1.1" xmlns="http://www.w3.org/2000/svg" xmlns:xlink="http://www.w3.org/1999/xlink">
    <!-- Generator: Sketch 51.2 (57519) - http://www.bohemiancoding.com/sketch -->
    <title>2_renting-out-01</title>
    <desc>Created with Sketch.</desc>
    <defs></defs>
    <g id="Symbols" stroke="none" stroke-width="1" fill="none" fill-rule="evenodd">
        <g id="Icons-/-Faq-/-Rennting-out" class="lnr-fill" fill-rule="nonzero">
            <g id="2_renting-out-01">
                <path d="M16,0.556 C7.484,0.556 0.556,7.484 0.556,16 C0.556,18.924 1.376,21.768 2.926,24.224 L3.941,23.583 C2.512,21.319 1.756,18.697 1.756,16 C1.756,8.146 8.146,1.756 16,1.756 C23.854,1.756 30.244,8.146 30.244,16 C30.244,23.854 23.854,30.244 16,30.244 C12.124,30.244 8.396,28.649 5.718,25.857 L10.657,20.955 C10.806,20.803 11.005,20.719 11.215,20.719 L19.333,20.719 C19.766,20.719 20.118,21.071 20.118,21.501 C20.118,21.925 19.778,22.268 19.357,22.281 L19.169,22.281 L19.169,22.286 L14.25,22.286 L14.25,23.485 L19.332,23.485 C19.349,23.485 19.364,23.48 19.381,23.48 L19.822,23.48 C20.742,23.48 21.128,23.037 21.142,23.008 L24.782,19.369 C24.933,19.218 25.134,19.135 25.346,19.135 L25.347,19.135 C25.56,19.135 25.759,19.218 25.91,19.369 C26.06,19.52 26.144,19.722 26.144,19.934 C26.144,20.148 26.06,20.348 25.909,20.499 L21.666,24.743 C21.426,24.982 21.082,25.228 20.359,25.228 L14.785,25.228 C13.664,25.228 13.085,25.925 13.071,25.95 L11.385,27.636 L12.234,28.486 L13.968,26.746 C13.971,26.743 14.241,26.429 14.785,26.429 L20.359,26.429 C21.539,26.429 22.153,25.952 22.513,25.593 L26.757,21.349 C27.135,20.971 27.343,20.469 27.343,19.935 C27.343,19.402 27.135,18.899 26.759,18.523 C26.382,18.144 25.881,17.935 25.347,17.935 C25.346,17.935 25.346,17.935 25.345,17.935 C24.811,17.935 24.309,18.143 23.932,18.521 L21.282,21.172 C21.125,20.235 20.313,19.519 19.331,19.519 L11.213,19.519 C10.678,19.519 10.175,19.73 9.804,20.109 L4.054,25.815 L4.584,26.404 C7.505,29.607 11.665,31.443 15.997,31.443 C24.513,31.443 31.44,24.515 31.44,16 C31.44,7.485 24.516,0.556 16,0.556 Z" id="Shape"></path>
                <rect id="Rectangle-path" x="15.381" y="9.76" width="1.2" height="8.31"></rect>
                <path d="M17.782,5.856 C18.123,5.635 18.368,5.475 18.925,5.475 L20.219,5.475 L20.219,4.275 L18.925,4.275 C18.012,4.275 17.522,4.595 17.128,4.851 C16.788,5.073 16.542,5.233 15.985,5.233 C15.427,5.233 15.181,5.073 14.84,4.851 C14.446,4.594 13.955,4.275 13.041,4.275 L11.743,4.275 L11.743,5.475 L13.041,5.475 C13.599,5.475 13.845,5.635 14.186,5.857 C14.483,6.05 14.835,6.278 15.381,6.38 L15.381,7.766 C14.102,8.042 13.14,9.181 13.14,10.541 L13.14,13.959 L14.34,13.959 L14.34,10.541 C14.34,9.636 15.076,8.899 15.981,8.899 C16.886,8.899 17.622,9.636 17.622,10.541 L17.622,13.959 L18.821,13.959 L18.821,10.541 C18.821,9.18 17.859,8.042 16.581,7.766 L16.581,6.38 C17.13,6.28 17.484,6.051 17.782,5.856 Z" id="Shape"></path>
            </g>
        </g>
    </g>
</svg>