<?xml version="1.0" encoding="UTF-8"?>
<svg width="32px" height="32px" viewBox="0 0 32 32" version="1.1" xmlns="http://www.w3.org/2000/svg" xmlns:xlink="http://www.w3.org/1999/xlink">
    <!-- Generator: Sketch 51.2 (57519) - http://www.bohemiancoding.com/sketch -->
    <title>7_vouchers-01</title>
    <desc>Created with Sketch.</desc>
    <defs></defs>
    <g id="Symbols" stroke="none" stroke-width="1" fill="none" fill-rule="evenodd">
        <g id="Icons-/-Faq-/-Voucher" class="lnr-fill" fill-rule="nonzero">
            <g id="7_vouchers-01">
                <path d="M19.246,14.039 C19.254,14.039 19.254,14.039 19.257,14.039 C20.147,14.039 20.999,14.422 21.598,15.091 L22.493,14.29 C21.665,13.365 20.474,12.88 19.251,12.839 C18.106,12.877 16.995,13.29 16.171,14.112 C15.762,14.52 15.446,14.995 15.23,15.512 L13.99,15.512 L13.99,16.712 L14.94,16.712 C14.922,16.871 14.893,17.027 14.893,17.19 C14.893,17.377 14.925,17.555 14.948,17.736 L13.99,17.736 L13.99,18.935 L15.264,18.935 C15.939,20.467 17.468,21.543 19.248,21.543 C20.484,21.543 21.667,21.014 22.491,20.091 L21.596,19.292 C20.998,19.96 20.143,20.344 19.247,20.344 C18.152,20.344 17.187,19.783 16.622,18.935 L20.648,18.935 L20.648,17.736 L16.147,17.736 C16.116,17.558 16.092,17.377 16.092,17.19 C16.092,17.028 16.115,16.87 16.139,16.712 L21.499,16.712 L21.499,15.512 L16.583,15.512 C16.707,15.316 16.848,15.129 17.017,14.961 C17.614,14.366 18.404,14.039 19.246,14.039 Z" id="Shape"></path>
                <path d="M30.183,21.986 C30.985,20.09 31.391,18.076 31.391,15.999 C31.391,7.512 24.487,0.608 16,0.608 C7.513,0.608 0.609,7.513 0.609,16 C0.609,24.487 7.513,31.391 16,31.391 C21.2,31.391 26.011,28.793 28.874,24.438 L29.532,23.332 L7.202,23.332 L7.202,10.795 L11.747,10.795 L10.071,12.471 L10.92,13.32 L13.201,11.039 L15.483,13.32 L16.332,12.471 L14.656,10.795 L24.8,10.795 L24.8,22.421 L25.999,22.421 L25.999,9.595 L17.537,9.595 C17.826,9.165 17.995,8.649 17.995,8.093 C17.995,6.609 16.787,5.401 15.302,5.401 C14.451,5.401 13.701,5.805 13.207,6.422 C12.713,5.805 11.963,5.401 11.112,5.401 C9.627,5.401 8.418,6.609 8.418,8.093 C8.418,8.649 8.587,9.165 8.876,9.595 L6.001,9.595 L6.001,24.53 L27.341,24.53 C24.662,28.091 20.487,30.191 15.999,30.191 C8.175,30.191 1.809,23.825 1.809,16 C1.809,8.174 8.175,1.809 16,1.809 C23.825,1.809 30.191,8.175 30.191,16 C30.191,17.916 29.816,19.773 29.077,21.52 L30.183,21.986 Z M13.808,8.093 C13.808,7.27 14.478,6.601 15.302,6.601 C16.125,6.601 16.795,7.27 16.795,8.093 C16.795,8.918 16.125,9.588 15.302,9.588 L13.806,9.588 L13.806,8.093 L13.808,8.093 Z M11.111,6.601 C11.935,6.601 12.605,7.27 12.605,8.093 L12.605,9.588 L11.111,9.588 C10.287,9.588 9.617,8.918 9.617,8.093 C9.618,7.271 10.288,6.601 11.111,6.601 Z" id="Shape"></path>
            </g>
        </g>
    </g>
</svg>