<?xml version="1.0" encoding="utf-8"?>
<!-- Generator: Adobe Illustrator 22.1.0, SVG Export Plug-In . SVG Version: 6.00 Build 0)  -->
<svg version="1.1" id="Layer_1" xmlns="http://www.w3.org/2000/svg" xmlns:xlink="http://www.w3.org/1999/xlink" x="0px" y="0px"
	 viewBox="0 0 500 96" style="enable-background:new 0 0 500 96;" xml:space="preserve">
<style type="text/css">
	.st0{fill:#FFFFFF;}
</style>
<g>
	<g>
		<g>
			<path class="st0" d="M16.9,48L0,48C0,48,19.2,9.9,46.8,0C29.3,22.7,16.9,48,16.9,48z"/>
		</g>
	</g>
	<g>
		<g>
			<path class="st0" d="M42.3,48l16.9,0c0,0-19.2,38.1-46.8,48C29.9,73.3,42.3,48,42.3,48z"/>
		</g>
	</g>
	<g>
		<g>
			<path class="st0" d="M140.1,30.6v6.9h-19.7c-3.3,0-4.7,1.4-4.7,4.1c0,2.5,1.1,3.9,5.1,3.9h8.4c9.9,0,12.4,4.5,12.4,10.1
				c0,6.4-3.3,10.8-11.7,10.8H109v-7h20.8c3.3,0,4.7-1.1,4.7-3.9c0-2.8-1.5-4-5.1-4h-8.4c-9.9,0-12.3-4.9-12.3-10.4
				c0-6.4,3.3-10.4,11.6-10.4H140.1z"/>
			<path class="st0" d="M181.6,30.6l3.2,27.8c0.2,1.6,0.9,2.3,2.6,2.3c1.6,0,2.3-0.7,2.6-2l5.1-21.6c1.1-4.7,4.1-7.2,9.8-7.2
				s8.4,2.5,9.5,7.2l4.8,21.6c0.3,1.3,1.1,2,2.7,2c1.6,0,2.2-0.7,2.4-2.3l3.7-27.8h7.8l-4,28.3c-0.7,4.9-3.5,8.2-10,8.2
				c-5.5,0-8.5-2.4-9.6-7.4L207.4,38c-0.3-1.2-1.3-1.8-2.6-1.8c-1.4,0-2.4,0.5-2.6,1.8l-5.1,21.7c-1.1,4.9-4.2,7.4-9.9,7.4
				c-6.6,0-9-3.3-9.7-8.2l-3.7-28.3H181.6z"/>
			<path class="st0" d="M307.4,30.6l-21.5,50h-7.7l6.7-15.6c-4.1,0-5.5-1.3-6.7-4.4l-12-30h7.6l10.7,26.6c0.5,1.3,0.8,1.5,2.2,1.5
				h0.9l12.1-28.1H307.4z"/>
			<path class="st0" d="M343.5,30.6v-8.4h7.2v8.4h9.9v6.9h-9.9v16.9c0,4,1.4,5.3,4.8,5.3h4.9v6.6H354c-7.4,0-10.5-3-10.5-12.3V37.5
				h-4.9v-6.9H343.5z"/>
			<path class="st0" d="M426.7,30.6v6.9H409c-6.2,0-8.9,3.2-8.9,11s2.7,10.9,8.9,10.9h17.7v7h-18.4c-9.5,0-15.5-5.8-15.5-17.8
				s5.9-17.8,15.5-17.8H426.7z"/>
			<path class="st0" d="M469.4,15.1v15.5H482c12,0,18,5.8,18,15.6v20.1h-7.2V46.2c0-5.5-3.3-8.7-10.7-8.7h-12.6v28.8h-7.2V15.1
				H469.4z"/>
		</g>
	</g>
</g>
</svg>
