<?xml version="1.0" encoding="utf-8"?>
<!-- Generator: Adobe Illustrator 22.1.0, SVG Export Plug-In . SVG Version: 6.00 Build 0)  -->
<svg version="1.1" id="Layer_1" xmlns="http://www.w3.org/2000/svg" xmlns:xlink="http://www.w3.org/1999/xlink" x="0px" y="0px"
	 viewBox="0 0 517.5 130.8" style="enable-background:new 0 0 517.5 130.8;" xml:space="preserve">
<style type="text/css">
	.st0{fill:#FFFFFF;}
</style>
<g>
	<path class="st0" d="M172.9,56.1l15.3,8.5V38.9h15.2v34.2h-22.9l-15.1-8.6l-15.3,8.6h-22.9V38.9h15.2v25.7l15.2-8.5V38.9h15.2V56.1
		z"/>
	<path class="st0" d="M268.4,60.2h-41.6v12.9H213V38.9h13.7v12.9h41.6V38.9h13.8v34.2h-13.8V60.2z"/>
	<path class="st0" d="M332.6,60.6v12.5h-13.8V60.5h-13.2l-14.7-9V38.9h13.8v8.4l7,4.3h27.7l6.9-4.3v-8.4h13.8v12.6l-14.6,9.1H332.6z
		"/>
	<path class="st0" d="M396.7,47.4H369v-8.6h69.2v8.6h-27.7v25.7h-13.8V47.4z"/>
	<path class="st0" d="M460.7,64.6h55.4v8.5h-69.2V38.9h69.2v8.6h-55.4v4.3h48.5v8.5h-48.5V64.6z"/>
</g>
<g>
	<path class="st0" d="M125.5,84.3h9c1.6,0,2.3,0.4,2.3,1.7v1.9c0,1.2-0.7,1.7-2.3,1.7h-6.6v3.4h-2.4V84.3z M127.9,85.8v2.3h5.5
		c0.7,0,1.1-0.1,1.1-0.7v-0.9c0-0.6-0.4-0.7-1.1-0.7H127.9z"/>
	<path class="st0" d="M145,84.3h10.7v1.5h-8.3v1.9h4.8v1.5h-4.8v2.1h8.4v1.6H145V84.3z"/>
	<path class="st0" d="M164.1,84.3h9c1.6,0,2.3,0.5,2.3,1.7v2c0,1.2-0.7,1.7-2.3,1.7h-1.4l4.7,3.3h-3.5l-4.2-3.3h-2.3v3.3h-2.4V84.3z
		 M166.5,85.8v2.4h5.5c0.7,0,1.1-0.1,1.1-0.7v-1c0-0.6-0.4-0.7-1.1-0.7H166.5z"/>
	<path class="st0" d="M184.1,84.3h10.6v1.5h-8.1v2.2h4.4v1.6h-4.4v3.2h-2.5V84.3z"/>
	<path class="st0" d="M204.2,84.3h7.7c2,0,2.6,0.4,2.6,2v4.5c0,1.6-0.6,2-2.6,2h-7.7c-2,0-2.6-0.4-2.6-2v-4.5
		C201.6,84.7,202.2,84.3,204.2,84.3z M212.1,91.3v-5.4h-8v5.4H212.1z"/>
	<path class="st0" d="M223.4,84.3h9c1.6,0,2.3,0.5,2.3,1.7v2c0,1.2-0.7,1.7-2.3,1.7H231l4.7,3.3h-3.5l-4.2-3.3h-2.3v3.3h-2.4V84.3z
		 M225.8,85.8v2.4h5.5c0.7,0,1.1-0.1,1.1-0.7v-1c0-0.6-0.4-0.7-1.1-0.7H225.8z"/>
	<path class="st0" d="M243.5,84.3h2l4.9,5.1l4.9-5.1h2v8.6h-2.3V87l-4.5,4.9h-0.5l-4.5-4.7v5.8h-2V84.3z"/>
	<path class="st0" d="M270.7,84.3h2.3l6,8.6h-2.7L275,91h-6.6l-1.3,1.9h-2.4L270.7,84.3z M274,89.4l-2.3-3.6l-2.2,3.6H274z"/>
	<path class="st0" d="M286.2,84.3h1.7l8.5,5.7v-5.7h2.2v8.6h-1.7l-8.4-5.8v5.8h-2.2V84.3z"/>
	<path class="st0" d="M309.9,85.9v5.4h6.6v-1.8l2.5,0.4v1c0,1.6-0.6,2-2.6,2h-6.2c-2,0-2.6-0.4-2.6-2v-4.5c0-1.6,0.6-2,2.6-2h6.2
		c2,0,2.6,0.4,2.6,2v0.8l-2.5,0.3v-1.6H309.9z"/>
	<path class="st0" d="M327.6,84.3h10.7v1.5h-8.3v1.9h4.8v1.5h-4.8v2.1h8.4v1.6h-10.8V84.3z"/>
	<path class="st0" d="M360.5,84.3h9c1.6,0,2.4,0.4,2.4,1.7v1c0,0.8-0.6,1.3-1.7,1.5c1.1,0.2,1.8,0.8,1.8,1.7v1.1
		c0,1.1-1,1.7-3.1,1.7h-8.3V84.3z M363,85.7v2h5.4c0.7,0,1.1-0.1,1.1-0.6v-0.8c0-0.5-0.3-0.6-1.1-0.6H363z M363,89.2v2.2h5.4
		c0.8,0,1.2-0.1,1.2-0.8v-0.7c0-0.6-0.4-0.8-1.2-0.8H363z"/>
	<path class="st0" d="M383.2,89l-5.5-4.7h3.3l3.6,3.2l3.6-3.2h2.9l-5.4,4.7v3.9h-2.4V89z"/>
	<path class="st0" d="M412,84.3h6.7c3.9,0,6,1.6,6,4.3c0,2.9-2.2,4.3-6.6,4.3H412V84.3z M417.6,91.3c3.1,0,4.6-0.6,4.6-2.8
		c0-1.8-1.2-2.6-3.5-2.6h-4.3v5.5H417.6z"/>
	<path class="st0" d="M433.1,84.3h10.7v1.5h-8.3v1.9h4.8v1.5h-4.8v2.1h8.4v1.6h-10.8V84.3z"/>
	<path class="st0" d="M454.5,85.8v1.8h6.5c2,0,2.6,0.4,2.6,2v1.2c0,1.6-0.6,2-2.6,2h-6.5c-2,0-2.6-0.4-2.6-2v-0.2l2.2-0.3v1h7.3v-2
		h-6.5c-2,0-2.6-0.4-2.6-2v-1c0-1.6,0.7-2,2.6-2h5.9c1.8,0,2.6,0.4,2.6,1.9v0.2l-2.1,0.4v-0.9H454.5z"/>
	<path class="st0" d="M472.5,84.3h2.4v8.6h-2.4V84.3z"/>
	<path class="st0" d="M486.3,85.9v5.4h7.6v-1.8h-4v-1.5h6.3v3c0,1.6-0.6,2-2.6,2h-7.2c-2,0-2.6-0.4-2.6-2v-4.5c0-1.6,0.6-2,2.6-2
		h7.2c1.9,0,2.6,0.4,2.6,1.9c0,0.1,0,0.1,0,0.2l-2.4,0.3v-0.9H486.3z"/>
	<path class="st0" d="M505.1,84.3h1.7l8.5,5.7v-5.7h2.2v8.6h-1.7l-8.4-5.8v5.8h-2.2V84.3z"/>
</g>
<polygon class="st0" points="91.9,53.8 93.8,40.8 88.7,0.6 89.1,35.7 79.8,66.6 63.2,84.2 63.2,84.3 46.1,66.1 36.8,35.1 37.2,0 
	32.2,40.2 34.1,53.2 0,16.9 50.5,84.3 63.2,130.8 63.3,130.8 76,84.2 126.5,16.9 "/>
</svg>
