<svg width="68" height="23" viewBox="0 0 68 23" fill="none" xmlns="http://www.w3.org/2000/svg">
<path d="M67.9999 5.9901L66.6652 8.71421C65.1413 8.60408 64.1599 7.95583 64.1599 7.95583L63.1539 9.89421V17.5575L60.0067 18.2326L60.007 8.15538L58.5498 7.49577L59.8199 4.90479L63.1539 6.40409V7.21109C63.1539 7.48214 63.1395 7.75138 63.1395 7.75138C63.149 7.75674 63.2735 7.45552 63.3823 7.23271L64.5174 4.90479C64.5173 4.90479 66.055 5.83345 67.9999 5.9901Z" fill="white"/>
<path d="M25.6691 7.67249H23.8281L24.9632 5.17646H25.6691V4.22117L28.8253 2.49951V5.17655H30.8593L29.729 7.67258H28.8254V14.5973C29.4983 15.1321 30.7758 15.5062 30.7758 15.4926L29.4294 18.2317C29.4294 18.2317 27.0473 17.5351 25.6692 16.3075V7.67249H25.6691Z" fill="white"/>
<path d="M39.6929 20.6477L36.5463 22.1681V8.38913L35.4644 7.87792L34.6814 9.36441V17.5351L31.5344 18.2325L31.5346 3.56172C31.5346 2.6585 31.2998 1.57128 31.2998 1.57128L34.2813 0C34.2813 0 34.6817 1.00508 34.6813 2.6078L34.681 6.81013C34.681 7.13898 34.665 7.34489 34.665 7.34489C34.6784 7.34898 34.7977 7.05566 34.9085 6.82913L35.847 4.90465L39.6928 6.63867V20.6477H39.6929Z" fill="white"/>
<path d="M7.78305 7.7573L10.7116 5.54741C12.4665 5.93886 14.4052 8.24162 14.4052 10.9705C14.4052 13.6847 13.886 14.9996 13.886 14.9996L9.68972 18.1321C9.68972 18.1321 8.81821 18.2329 7.71853 18.2329C1.8088 18.2328 0 13.9249 0 10.5993C0 8.47506 0.617625 7.43345 0.617625 7.43345L3.68876 5.20366L3.3978 4.16314L8.18577 0.609863C10.7918 1.77051 14.1775 2.24565 14.1775 2.24565L10.8892 4.69316C10.8892 4.69316 8.6681 4.31925 6.79496 3.39894C6.63522 3.31952 6.47656 3.22666 6.47656 3.22666C6.46738 3.23365 6.52617 3.40876 6.57688 3.58458L7.78305 7.7573ZM3.98416 6.23745C3.98416 6.23745 3.92492 6.427 3.81606 6.70787C3.63505 7.21073 3.37753 8.12222 3.37753 9.24052C3.37753 13.8767 6.06739 15.9552 9.4551 15.9552C10.2499 15.9552 10.5817 15.809 10.5817 15.809C10.5817 15.809 11.0547 14.4065 11.0547 12.5471C11.0547 9.77364 9.89699 8.51631 9.13697 8.23853L8.12598 8.95893L9.13697 12.6137L6.317 14.6896L4.10266 6.69124C4.03796 6.45444 4.00515 6.23991 4.00515 6.23991L3.98416 6.23745Z" fill="white"/>
<path d="M57.9113 15.5171L56.5805 18.2326C56.5805 18.2326 53.0646 17.4941 50.8164 15.7179V6.62218L56.4979 4.90479L59.0475 11.2901L53.9632 12.8154V14.0761C55.5099 15.0852 57.9113 15.5171 57.9113 15.5171ZM55.6592 10.9653L54.329 7.65034C54.1217 7.13603 53.9566 6.64916 53.9566 6.64916C53.9411 6.65362 53.9631 7.17329 53.9631 7.75338V11.4737L55.6592 10.9653Z" fill="white"/>
<path d="M44.8963 18.1194C44.8963 18.1194 42.7676 17.5469 41.3066 16.4317V7.4696L44.758 4.90479L49.2028 6.91268V17.5457L46.1141 18.2327V16.1878C46.1141 16.0172 46.1273 15.6433 46.1273 15.6433C46.1273 15.6433 45.9743 15.9761 45.8901 16.1449L44.8963 18.1194ZM46.1181 15.3701V8.63179L44.4573 7.88023V14.6695C45.1785 15.2298 46.1181 15.3701 46.1181 15.3701Z" fill="white"/>
<path d="M23.5239 15.3253L19.6174 18.2326C19.6174 18.2326 17.1978 17.6349 15.6279 16.4292V7.4696L19.0792 4.90479L23.5239 6.91268V15.3253ZM20.4354 15.4793V8.63179L18.7747 7.88023V14.7783C18.7747 14.7784 19.3774 15.2625 20.4354 15.4793Z" fill="white"/>
</svg>
