<svg width="78" height="24" viewBox="0 0 78 24" fill="none" xmlns="http://www.w3.org/2000/svg">
<g clip-path="url(#clip0)">
<mask id="mask0" mask-type="alpha" maskUnits="userSpaceOnUse" x="0" y="0" width="21" height="24">
<path d="M0.0175781 0.0454102H20.1046V23.492H0.0175781V0.0454102Z" fill="white"/>
</mask>
<g mask="url(#mask0)">
<path fill-rule="evenodd" clip-rule="evenodd" d="M7.54311 2.90126C7.77711 3.01387 8.00105 3.12145 8.21535 3.22477C8.0107 3.35634 7.81611 3.47824 7.63076 3.59084C6.38356 4.36904 5.17536 5.16156 4.00577 5.96801C3.69417 6.19323 3.38257 6.41845 3.07057 6.64366C2.99136 6.6959 2.9013 6.75705 2.79998 6.82631C2.25318 7.20322 1.38352 7.82663 0.191004 8.69732C0.0937048 7.82509 0.0350038 6.94357 0.0157048 6.05237C-0.0136457 4.10165 0.171705 2.09946 0.570952 0.0454102C1.33085 0.308164 2.07667 0.584849 2.80722 0.875464C3.68452 1.20362 4.54171 1.55073 5.38001 1.91642C5.75996 2.07585 6.13509 2.24496 6.50538 2.42296C6.85638 2.5824 7.20216 2.74183 7.54311 2.90126Z" fill="white"/>
<path fill-rule="evenodd" clip-rule="evenodd" d="M8.21512 3.22461C8.00082 3.12129 7.77647 3.01371 7.54288 2.9011C7.20152 2.74167 6.85575 2.58224 6.50515 2.42281C6.13485 2.2448 5.75973 2.07569 5.37938 1.91626C4.54148 1.55057 3.68389 1.20346 2.80699 0.875306C2.08931 0.589721 1.35715 0.31768 0.611328 0.0595703C1.13763 2.45763 1.85209 4.72335 2.75552 6.85673C2.77 6.84666 2.78568 6.83583 2.79975 6.82616C2.90067 6.75689 2.99113 6.69574 3.06994 6.64312C3.38194 6.4179 3.69394 6.19307 4.00553 5.96785C5.17513 5.16102 6.38333 4.36889 7.63053 3.5903C7.81547 3.47808 8.01047 3.35579 8.21512 3.22461Z" fill="white"/>
<path fill-rule="evenodd" clip-rule="evenodd" d="M19.5284 0.381348C19.5284 0.381348 20.8387 5.99979 19.5066 11.9452C18.2607 17.506 14.4809 23.4166 11.391 23.4932C8.10538 23.5749 5.2821 20.2651 3.41975 17.3795C1.5184 14.4334 0.775391 11.1152 0.775391 11.1152C0.775391 11.1152 4.29866 7.918 9.084 5.07647C12.4939 3.01701 19.5284 0.381348 19.5284 0.381348Z" fill="white"/>
</g>
<path fill-rule="evenodd" clip-rule="evenodd" d="M19.5284 0.381348C19.5284 0.381348 12.494 3.01701 9.08409 5.07647C6.97045 6.33142 5.10327 7.65602 3.67676 8.7438C4.01288 9.47479 4.57135 10.6098 5.34129 11.9088C6.32876 11.364 7.36769 10.8176 8.44642 10.2855C11.5596 8.72174 16.6026 7.00127 20.1022 5.88563C20.0636 2.67686 19.5284 0.381348 19.5284 0.381348Z" fill="white"/>
<path fill-rule="evenodd" clip-rule="evenodd" d="M10.2207 4.43642C10.7474 5.95645 12.0927 9.44732 14.2771 12.5531C15.2983 14.0055 16.4913 15.5243 17.8008 16.8505C18.5378 15.2937 19.1352 13.6038 19.5067 11.9448C20.8388 5.9994 19.5288 0.381348 19.5288 0.381348C19.5288 0.381348 13.8469 2.51008 10.2207 4.43642Z" fill="white"/>
<path fill-rule="evenodd" clip-rule="evenodd" d="M19.538 11.8013C19.9931 9.70582 20.1234 7.65642 20.1021 5.88525C16.6029 7.00089 11.5594 8.72175 8.44668 10.2855C5.93782 11.5227 3.64365 12.838 1.71777 14.0279C2.10295 14.9938 2.61759 16.0943 3.28019 17.1589C5.55425 16.1059 8.40044 14.904 11.5241 13.8476C13.6952 13.0957 16.7026 12.3848 19.538 11.8013Z" fill="white"/>
<path fill-rule="evenodd" clip-rule="evenodd" d="M14.5575 12.9473C14.4626 12.8157 14.3693 12.6845 14.2772 12.5537C13.3858 11.2864 12.6348 9.95484 12.0212 8.71924C10.7033 9.24049 9.47057 9.7718 8.44692 10.2861C7.36819 10.8178 6.32926 11.3642 5.3418 11.9094C5.96942 12.9678 6.73776 14.1349 7.64038 15.2811C8.86667 14.792 10.1694 14.3063 11.5243 13.8482C12.4173 13.539 13.4518 13.2367 14.5575 12.9473Z" fill="white"/>
<path fill-rule="evenodd" clip-rule="evenodd" d="M14.2769 12.5533C15.2981 14.0056 16.491 15.5248 17.8005 16.8506C18.5375 15.2938 19.1346 13.6039 19.5065 11.9449C19.987 9.79996 20.1237 7.69716 20.102 5.88574C17.7535 6.63453 14.7099 7.65536 12.0205 8.71915C12.6341 9.95475 13.3855 11.2859 14.2769 12.5533Z" fill="white"/>
<path fill-rule="evenodd" clip-rule="evenodd" d="M5.41281 20.0702C6.4244 19.6991 7.48182 19.3342 8.57221 18.9874C11.0594 18.1756 14.6285 17.4372 17.7911 16.8715C18.5325 15.3089 19.1336 13.6116 19.5071 11.9453C19.5175 11.8973 19.5276 11.8494 19.538 11.8018C16.7027 12.3853 13.6953 13.0958 11.5241 13.8481C8.40053 14.9045 5.55474 16.1064 3.28027 17.159C3.32611 17.2329 3.37275 17.3064 3.41979 17.3796C3.99715 18.2735 4.66618 19.2084 5.41281 20.0702Z" fill="white"/>
<path fill-rule="evenodd" clip-rule="evenodd" d="M7.63965 15.281C7.94522 15.6691 8.26606 16.0542 8.60218 16.4326C9.1908 17.094 9.82485 17.7681 10.4955 18.4259C12.7225 17.8366 15.3749 17.3037 17.7905 16.8719C18.5319 15.3093 19.133 13.6116 19.5065 11.9453C19.517 11.8973 19.527 11.8497 19.5375 11.8018C16.7021 12.3853 13.6947 13.0962 11.5236 13.8484C10.1686 14.3062 8.86634 14.7919 7.63965 15.281Z" fill="white"/>
<mask id="mask1" mask-type="alpha" maskUnits="userSpaceOnUse" x="10" y="5" width="68" height="17">
<path d="M10.4971 5.17773H77.7492V21.7357H10.4971V5.17773Z" fill="white"/>
</mask>
<g mask="url(#mask1)">
<path fill-rule="evenodd" clip-rule="evenodd" d="M17.7905 16.8716C15.3753 17.3034 12.7233 17.8363 10.4971 18.4253C11.7419 19.6462 13.1129 20.811 14.5575 21.7358C15.7412 20.5308 16.8734 18.8041 17.7905 16.8716Z" fill="white"/>
<path fill-rule="evenodd" clip-rule="evenodd" d="M24.1416 5.17773V16.0443H24.9703V11.2536C24.9703 10.8592 25.0474 10.4924 25.2022 10.148V10.1476C25.3582 9.79972 25.5685 9.50021 25.8347 9.24442C26.1004 8.98863 26.4116 8.78663 26.7731 8.6361C27.1309 8.48711 27.5121 8.41243 27.9218 8.41243C28.2941 8.41243 28.6427 8.48054 28.9732 8.61598C29.3053 8.75258 29.5899 8.93832 29.8324 9.17554C30.0752 9.41352 30.2666 9.69098 30.4089 10.0114C30.5497 10.3295 30.6204 10.665 30.6204 11.0233V15.8759V16.0443H31.4487V11.0233C31.4487 10.559 31.3546 10.1163 31.1668 9.7022V9.70182C30.9803 9.29085 30.7282 8.92942 30.4126 8.62101C30.0957 8.31143 29.7214 8.06841 29.2932 7.89311C28.863 7.71704 28.4039 7.62842 27.9218 7.62842C27.2182 7.62842 26.5717 7.7925 25.9955 8.11988C25.5922 8.34858 25.2517 8.63765 24.9703 8.97818V5.17773H24.1416Z" fill="white"/>
<path fill-rule="evenodd" clip-rule="evenodd" d="M36.992 8.42597C37.4781 8.42597 37.9332 8.50994 38.3626 8.67789C38.7945 8.8466 39.1716 9.07879 39.4989 9.37637C39.8261 9.67395 40.0899 10.0226 40.2925 10.4254C40.467 10.7726 40.5631 11.1483 40.6065 11.5461H33.3666C33.4169 11.1487 33.5174 10.7729 33.6919 10.4254V10.4251C33.8945 10.0222 34.1583 9.67395 34.4856 9.37637C34.8124 9.07879 35.1896 8.8466 35.6214 8.67789C36.0508 8.50994 36.5059 8.42597 36.992 8.42597ZM36.992 7.62842C36.3785 7.62842 35.7951 7.74141 35.2475 7.96741H35.2471C34.7019 8.19224 34.2246 8.50104 33.8193 8.89111C33.4137 9.28156 33.0932 9.7409 32.86 10.2656C32.6252 10.7927 32.5078 11.3542 32.5078 11.9447C32.5078 12.5356 32.6252 13.0971 32.86 13.6242C33.0932 14.1485 33.4133 14.6098 33.8185 15.0045C34.2238 15.3996 34.7015 15.7107 35.2471 15.9355C35.7947 16.1615 36.3785 16.2745 36.992 16.2745C37.838 16.2745 38.6107 16.069 39.2954 15.6596H39.2958C39.9761 15.2521 40.5153 14.7127 40.9049 14.0471L40.9905 13.9008L40.2636 13.5042L40.1775 13.6516C40.0155 13.9291 39.8249 14.1771 39.6054 14.3969C39.3851 14.6175 39.1386 14.8095 38.8644 14.9739C38.5922 15.1372 38.2979 15.2618 37.9799 15.3477C37.6622 15.434 37.3334 15.477 36.992 15.477C36.5067 15.477 36.052 15.3915 35.623 15.2193V15.2189C35.1908 15.0455 34.8128 14.8106 34.4856 14.513C34.1583 14.2154 33.8945 13.8672 33.6919 13.4643C33.5174 13.1172 33.4169 12.7411 33.3666 12.3437H41.3017H41.4766V11.9447C41.4766 11.3542 41.3592 10.7927 41.1248 10.2656C40.8912 9.7409 40.5704 9.28156 40.1651 8.89111C39.7594 8.50104 39.2818 8.19224 38.737 7.96741C38.1894 7.74141 37.606 7.62842 36.992 7.62842Z" fill="white"/>
<path fill-rule="evenodd" clip-rule="evenodd" d="M47.0334 8.42597C47.5465 8.42597 48.0213 8.51884 48.4636 8.70343C48.9094 8.88995 49.293 9.14148 49.6199 9.46034C49.9472 9.77998 50.2073 10.1522 50.4011 10.5818C50.5933 11.0075 50.6898 11.4645 50.6898 11.9582C50.6898 12.4431 50.5929 12.8978 50.4007 13.3285V13.3289C50.2069 13.7627 49.9472 14.1373 49.6203 14.4561C49.2934 14.7754 48.9094 15.0269 48.4636 15.2131C48.0213 15.3984 47.5465 15.4905 47.0334 15.4905C46.52 15.4905 46.0452 15.3984 45.6033 15.2131C45.1574 15.0269 44.7706 14.775 44.4389 14.4554C44.1072 14.1365 43.8455 13.7623 43.6521 13.3289V13.3285C43.4595 12.8978 43.3634 12.4431 43.3634 11.9582C43.3634 11.4645 43.4595 11.0075 43.6517 10.5818C43.8451 10.1526 44.1068 9.78037 44.4389 9.46112C44.7706 9.14186 45.1574 8.88995 45.6033 8.70343C46.0456 8.51884 46.5204 8.42597 47.0334 8.42597ZM47.0334 7.62842C46.604 7.62842 46.1883 7.68492 45.787 7.79791C45.3874 7.91052 45.0139 8.07073 44.6669 8.27737H44.6665C44.3199 8.4844 44.0091 8.73129 43.7357 9.01842C43.6042 9.15618 43.4844 9.30168 43.3735 9.45338L43.3622 7.85905H42.7097H42.5352V18.3618H43.3626L43.3755 14.4523C43.486 14.6032 43.605 14.7479 43.7357 14.8849C44.0091 15.1717 44.3199 15.4189 44.6665 15.6256C45.0135 15.8326 45.3874 15.9924 45.787 16.105C46.1883 16.218 46.604 16.2745 47.0334 16.2745C47.647 16.2745 48.2304 16.1615 48.7784 15.9355C49.3232 15.7111 49.8024 15.4027 50.2125 15.0126C50.623 14.6225 50.9463 14.1628 51.1799 13.6377C51.4147 13.1106 51.5321 12.5491 51.5321 11.9582C51.5321 11.3592 51.4147 10.7931 51.1799 10.2656C50.9463 9.74051 50.623 9.28079 50.2125 8.89033C49.8024 8.50065 49.3232 8.19224 48.7784 7.96741C48.2304 7.74141 47.647 7.62842 47.0334 7.62842Z" fill="white"/>
<path fill-rule="evenodd" clip-rule="evenodd" d="M55.667 7.62842C55.2231 7.62842 54.8122 7.67292 54.435 7.76231C54.0567 7.85209 53.7262 7.9883 53.448 8.17366C53.1697 8.35825 52.9502 8.58656 52.7958 8.85396C52.6394 9.12484 52.5626 9.43558 52.5626 9.77572C52.5626 10.3744 52.781 10.8921 53.2067 11.2923C53.6317 11.6916 54.2026 11.9315 54.8974 12.0167L56.2781 12.1931C56.5543 12.2272 56.8084 12.2934 57.0412 12.3905C57.2752 12.4884 57.4754 12.6084 57.6435 12.7492C57.8091 12.8885 57.937 13.0499 58.0303 13.2372C58.1219 13.4222 58.1682 13.6214 58.1682 13.8424C58.1682 14.1063 58.1075 14.3288 57.9885 14.5227C57.8654 14.722 57.697 14.8934 57.4766 15.0389C57.2567 15.184 56.9897 15.2966 56.6733 15.3737C56.3561 15.451 56.0019 15.4905 55.6107 15.4905C55.0795 15.4905 54.5806 15.4313 54.1126 15.3133C53.6434 15.1949 53.2204 15.0269 52.8409 14.8094L52.6997 14.7282L52.2354 15.3864L52.3938 15.4781C52.832 15.7308 53.327 15.9266 53.8762 16.0656C54.4266 16.2049 55.0052 16.2745 55.6107 16.2745C56.1116 16.2745 56.5708 16.2207 56.9873 16.1124C57.4018 16.0048 57.7617 15.8504 58.0628 15.6476C58.3648 15.4441 58.6032 15.191 58.7713 14.8919C58.9413 14.5896 59.025 14.2456 59.025 13.8695C59.025 13.5239 58.9594 13.2035 58.8268 12.9141V12.9137C58.6957 12.6277 58.5123 12.3773 58.2792 12.1676C58.0468 11.9586 57.7705 11.7899 57.4533 11.661H57.4529C57.1365 11.5326 56.7879 11.4455 56.4084 11.3983H56.4076L55.0301 11.2226C55.0297 11.2226 55.0297 11.2222 55.0293 11.2222C54.542 11.1537 54.1576 10.9835 53.8573 10.711C53.5569 10.4382 53.4194 10.1426 53.4194 9.78927C53.4194 9.35005 53.5983 9.04203 53.9992 8.80017C54.4037 8.55599 54.9565 8.42597 55.667 8.42597C56.1221 8.42597 56.5716 8.48053 57.0183 8.59004C57.4674 8.70072 57.8538 8.83886 58.1766 9.00294L58.3306 9.08111L58.7202 8.37837L58.5662 8.29904C58.167 8.09317 57.7191 7.93026 57.2237 7.80991C56.7256 7.68917 56.2061 7.62842 55.667 7.62842Z" fill="white"/>
<path fill-rule="evenodd" clip-rule="evenodd" d="M60.4782 6.08301V7.85882H59.5205V8.65637H60.4782V14.0457C60.4782 14.3197 60.5321 14.5809 60.6403 14.8235C60.7472 15.0638 60.8964 15.2771 61.0857 15.4593C61.2755 15.642 61.4999 15.7859 61.7544 15.8885C62.0105 15.9918 62.2839 16.0437 62.5685 16.0437H63.4756V15.2465H62.5685C62.2047 15.2465 61.9176 15.1339 61.6711 14.8959H61.6707C61.4239 14.6583 61.3065 14.382 61.3065 14.0322V8.65637H63.4756V7.85882H61.3065V6.08301H60.4782Z" fill="white"/>
<path fill-rule="evenodd" clip-rule="evenodd" d="M68.2295 8.36265C68.7244 8.36265 69.188 8.44817 69.625 8.61921C70.0645 8.79102 70.4489 9.02746 70.7814 9.33008C71.1147 9.63307 71.3832 9.98793 71.5895 10.3981C71.7672 10.7514 71.8653 11.1341 71.9091 11.5393H64.5385C64.59 11.1345 64.6921 10.7518 64.8698 10.3981V10.3977C65.0757 9.98793 65.3443 9.63307 65.6776 9.33008C66.0101 9.02746 66.3945 8.79102 66.8343 8.61921C67.2714 8.44817 67.7349 8.36265 68.2295 8.36265ZM68.2295 7.55078C67.6047 7.55078 67.0104 7.66571 66.4532 7.89596C65.8979 8.12466 65.4118 8.43888 64.9993 8.83591C64.5864 9.23333 64.2603 9.70118 64.0227 10.2352C63.7835 10.7719 63.6641 11.3435 63.6641 11.9448C63.6641 12.5462 63.7835 13.1181 64.0227 13.6545C64.2599 14.1885 64.586 14.6583 64.9985 15.06C65.4114 15.4624 65.8979 15.779 66.4532 16.008C67.0104 16.2379 67.6047 16.3528 68.2295 16.3528C69.0911 16.3528 69.8775 16.1439 70.5747 15.7267C71.2679 15.3123 71.8163 14.7632 72.2131 14.0852L72.3003 13.9362L71.5602 13.5326L71.4725 13.6823C71.3077 13.9648 71.1135 14.2175 70.8899 14.4416C70.666 14.666 70.4151 14.8614 70.1356 15.0286C69.8586 15.195 69.5591 15.3219 69.2354 15.4098C68.9118 15.4972 68.5773 15.541 68.2295 15.541C67.7353 15.541 67.2726 15.4539 66.8355 15.2782C66.3957 15.1018 66.0105 14.8626 65.6776 14.5596C65.3443 14.2566 65.0757 13.9018 64.8698 13.492C64.6921 13.1386 64.59 12.7555 64.5385 12.3512H72.6172H72.7953V11.9448C72.7953 11.3435 72.6759 10.7719 72.4366 10.2352C72.1986 9.70118 71.8726 9.23333 71.4596 8.83591C71.0467 8.43888 70.5606 8.12466 70.0058 7.89596C69.4481 7.6661 68.8543 7.55078 68.2295 7.55078Z" fill="white"/>
<path fill-rule="evenodd" clip-rule="evenodd" d="M76.9471 7.62842C76.3943 7.62842 75.8789 7.75341 75.4121 8.00185C75.0961 8.17018 74.8355 8.39656 74.6007 8.64886V7.85905H73.7725V15.8759V16.0443H74.6007V10.6839C74.6007 10.3709 74.6618 10.0807 74.7836 9.80862C74.9067 9.53348 75.0743 9.29472 75.289 9.08846C75.5033 8.88182 75.7514 8.72045 76.0373 8.60204C76.3203 8.48479 76.6219 8.42597 76.9471 8.42597C77.0963 8.42597 77.2455 8.43874 77.3954 8.46389L77.5563 8.49136L77.7489 7.74954L77.5888 7.70349C77.4839 7.67292 77.3761 7.6528 77.2668 7.64274H77.266C77.1622 7.63345 77.0561 7.62842 76.9471 7.62842Z" fill="white"/>
</g>
</g>
<defs>
<clipPath id="clip0">
<rect width="78" height="23.6053" fill="white"/>
</clipPath>
</defs>
</svg>
