<svg id="Layer_1" data-name="Layer 1" xmlns="http://www.w3.org/2000/svg" viewBox="0 0 100 40.9"><title>icon</title><path d="M92.58384,18.29282l.04-.0517a3.6459,3.6459,0,0,0,.77582-2.25525A3.69385,3.69385,0,0,0,89.70982,12.296h-.12488V10.41941l-.03418-.96423a1.778,1.778,0,0,0-3.49854.01758l-.03223.95148V12.296h-.12494a3.69385,3.69385,0,0,0-3.68982,3.68988,3.653,3.653,0,0,0,.77484,2.25525l.04.05072-.01953.06152L77.93284,34.94151,77.91508,37.098l-.12482.00024-.12366.00031-27.23883.06a9.29639,9.29639,0,0,0,2.05768-17.57043l.43683-1.66748,1.44122-.03-.05145-1.84595-7.10608.14807.05145,1.84589,3.74652-.07806-.26721,1.02386a9.27394,9.27394,0,0,0-2.3786-.25665l-.06244.00177a9.39483,9.39483,0,0,0-1.2887.1402l-.76312-2.38928-1.72351.5025.74542,2.36322c-.19128.07324-.38367.14294-.5708.22913A9.29587,9.29587,0,0,0,46.7758,37.1666l-26.32037.058a9.05867,9.05867,0,0,0,6.84845-5.65393c.08679-.22455.1571-.45337.2254-.68256l.91962.06659a3.21788,3.21788,0,0,0,3.228,2.54724l.02112-.00055a3.22461,3.22461,0,0,0,2.92444-2.12561l1.22955.078.33978.63361,1.62762-.87292L36.60856,28.957l-1.155.61938-.721-.047a3.23,3.23,0,0,0-3.21631-2.47351l-.02069.00055a3.22787,3.22787,0,0,0-2.8996,2.04822l-.72015-.05237a9.19387,9.19387,0,0,0,.03107-1.03741,8.92735,8.92735,0,0,0-1.88953-5.25269l1.92822-1.77081,18.181-5.006L45.501,14.12626,27.06144,19.30039l-.04059.01135-2.28748,2.101a9.08033,9.08033,0,1,0-7.53711,15.81909l-15.663.03455-.01605.33789,76.146-.16785.12433-.00024.013-.00006.209-.00043.16339-.00037.006-.12677.00769-.162.00232-.04913-.14642.00031,2.4325-1.82343,2.43481-7.96814H92.695l.02637.08881,2.40753,7.88031,2.56366,1.92053v-2.187ZM52.6486,17.57359l-1.1853.02466.16211-.62115,1.104.288Zm-5.04828.105-.032-1.14081,6.40088-.13312.03192,1.14075-.986.02051.14484-.5528-1.787-.46661-.27649,1.05933Zm3.77039.27429,1.185-.02466-.39691,1.51526c-.07306-.03033-.14264-.06726-.21661-.09583q-.42517-.16434-.86115-.28516Zm-4.25562,2.414a7.72127,7.72127,0,0,0-1.07092.27472l-.34308-1.08759a8.846,8.846,0,0,1,1.06421-.28217ZM49.52775,28.658l-.8446.34973-.18085-.57336Zm-.811-.53772.39337-1.50708.54681,1.712Zm.55981-2.14471,1.33728-5.12317c.22314.06244.44434.13342.66254.21765.13971.054.27338.11914.40887.181L49.92,27.99009Zm-.20056-.628-1.50311-4.70605a7.571,7.571,0,0,1,.78064-.06616,7.77932,7.77932,0,0,1,1.91663.19684Zm-.16644.6377-.53418,2.04681-2.225-7.05347a7.36418,7.36418,0,0,1,1.07269-.27338Zm-.44708,3.49567,1.70782-.70721-.05-.15668,1.88959-7.21332a7.4637,7.4637,0,0,1-3.18762,14.09656,7.53992,7.53992,0,0,1-2.92285-.49493,7.47117,7.47117,0,0,1-.43182-13.75287c.11627-.05353.23633-.09491.35461-.14221Zm3.31323-8.57507c-.12378-.05536-.24493-.11554-.372-.16467-.2309-.08923-.46466-.16528-.70038-.23175l.28857-1.10535q.41629.11609.823.27246c.08655.03345.16815.07623.25342.11218ZM48.3068,19.08207l.06012-.00171a8.924,8.924,0,0,1,2.28082.24506l-.2879,1.10327a7.76687,7.76687,0,0,0-2.0174-.20587,7.92358,7.92358,0,0,0-.87762.08038l-.34973-1.09509A9.03625,9.03625,0,0,1,48.3068,19.08207ZM44.96507,17.2208l1.04755-.30548.64465,2.01819a9.19634,9.19634,0,0,0-1.06219.28455ZM45.36094,36.399a8.96522,8.96522,0,0,1-.51831-16.50354c.17358-.0799.35217-.14417.52942-.21246l.34387,1.09033c-.13226.05237-.26617.09912-.396.15894a7.819,7.819,0,0,0,3.463,14.92206l.05048-.00153a7.82081,7.82081,0,0,0,3.2688-14.80145l.29291-1.118A8.95841,8.95841,0,0,1,45.36094,36.399ZM18.60276,21.06876a7.15181,7.15181,0,0,1,4.762,1.601l-5.363,4.92566a1.505,1.505,0,0,0,.7157,2.65485l6.91492.50055c-.01843.051-.03125.10339-.05084.15405a7.23931,7.23931,0,1,1-6.97876-9.83612Zm.20142,8.83826-.03156-.00519a1.1527,1.1527,0,0,1-.54053-2.03973l5.40271-4.96179c.0484.04315.10022.08142.14764.126a7.28512,7.28512,0,0,1,.65253.71033l-5.46747,5.0213,7.02533.511a7.13593,7.13593,0,0,1-.24707,1.13849Zm6.001-7.96979a8.7828,8.7828,0,0,1,.73163.78741l-.84161.773a7.6459,7.6459,0,0,0-.67108-.7287c-.041-.03851-.08594-.07141-.12769-.10895l.84564-.77661C24.76243,21.9022,24.78489,21.91819,24.80516,21.93723Zm1.22906,6.98108-6.22693-.45288L24.65538,24.013a7.15169,7.15169,0,0,1,1.4057,4.05969A7.33724,7.33724,0,0,1,26.03422,28.91831Zm.31042.37616,1.13794.08276a8.62511,8.62511,0,0,1-.2124,1.14l-1.162-.08374A7.48725,7.48725,0,0,0,26.34465,29.29447Zm2.38226,1.07471a2.83324,2.83324,0,0,1,.12689-.89221l1.176.08557a1.712,1.712,0,0,0-.16223.77075,1.7313,1.7313,0,0,0,.0564.37524l-1.16321-.08386C28.75035,30.53916,28.72965,30.45695,28.72691,30.36918Zm3.12659-.674,1.01355.0661a1.3444,1.3444,0,0,1,.10638.47443,1.36067,1.36067,0,0,1-.15869.67212l-1.04492-.06622-1.454-.1048a1.17659,1.17659,0,0,1,.11761-1.1449Zm-1.15063-.43732a1.35572,1.35572,0,0,1,.85077-.35565,1.39674,1.39674,0,0,1,1.08447.49072l-.75989-.04956Zm3.764.93109a2.834,2.834,0,0,1-.10614.81689l-1.16553-.07391a1.63551,1.63551,0,0,0,.053-1.14581l1.17548.07666A2.8144,2.8144,0,0,1,34.4669,30.18894Zm-1.89429,1.05688a1.36937,1.36937,0,0,1-.93268.40985l-.009.00024a1.36786,1.36786,0,0,1-.97656-.37341,1.34966,1.34966,0,0,1-.1272-.17737l1.21881.08826Zm-.88568,1.90308-.01886.00049A2.8735,2.8735,0,0,1,28.8162,30.9813l1.24994.09052a1.7031,1.7031,0,0,0,1.57343.93671l.01147-.00031a1.71892,1.71892,0,0,0,1.2063-.54535,1.74362,1.74362,0,0,0,.1463-.1897l1.25183.07941A2.87233,2.87233,0,0,1,31.68693,33.1489ZM35.53147,29.935l.78632.05127-.07214,1.139-.17529-.01111-.61151-1.14026Zm.80463,1.67474-.06952-.12964.27826.01764Zm.2403-.12891.10437-1.6427.661,1.23218Zm-.11206-2.04608.11536.21509-.46045-.03Zm-1.44458.46686.63611,1.18634-.93713-.05945a3.18215,3.18215,0,0,0,.10071-.85065c-.00317-.10022-.02661-.19415-.0387-.29181ZM31.50663,27.409l.01837-.00049a2.87051,2.87051,0,0,1,2.8277,2.09619l-1.26227-.08228a1.72512,1.72512,0,0,0-1.53711-.873l-.0108.00031a1.71892,1.71892,0,0,0-1.2063.54535c-.03772.04016-.066.08606-.09943.129l-1.26172-.09174A2.86714,2.86714,0,0,1,31.50663,27.409ZM28.49668,29.451a3.17811,3.17811,0,0,0-.12231.92926c.00232.07446.02106.1452.02838.21863l-.7774-.05609a8.9743,8.9743,0,0,0,.209-1.14Zm-1.73492-4.79968A8.67628,8.67628,0,0,1,27.5543,28.026a8.8452,8.8452,0,0,1-.03033,1.00067L26.386,28.94389a7.68392,7.68392,0,0,0,.02759-.88226,7.48616,7.48616,0,0,0-1.49811-4.28754l.84167-.77295A8.67645,8.67645,0,0,1,26.76176,24.65134Zm.43561-5.02289,18.07642-5.072.39972,1.188L27.811,20.66257l-.04108.01117-1.973,1.812a9.14011,9.14011,0,0,0-.75018-.80554c-.01392-.01306-.0293-.024-.04327-.03693ZM15.6862,36.44523A8.72866,8.72866,0,0,1,18.556,19.57554l.05829-.00171a8.617,8.617,0,0,1,5.8576,2.079l-.84564.77673A7.58567,7.58567,0,1,0,19.01774,35.885l.05023-.00146a7.59568,7.59568,0,0,0,6.84247-4.85138c.03247-.08392.05487-.17041.08423-.25513l1.1723.08484c-.05994.19482-.118.3902-.192.58148a8.72215,8.72215,0,0,1-7.87115,5.58087l-.0567.00165A8.67939,8.67939,0,0,1,15.6862,36.44523ZM89.70982,12.99961a2.98276,2.98276,0,0,1,1.82593,5.344l-.14447.11224-.0517-.17566a3.68091,3.68091,0,0,0-1.69415-2.14795l-.06244-.03613.002-.11023a3.66972,3.66972,0,0,0-1.04132-2.56268l-.12878-.13275.17175-.07025A2.96417,2.96417,0,0,1,89.70982,12.99961Zm-1.1662,5.549a3.70937,3.70937,0,0,0,.88806-1.51849l.05176-.17566.14441.11218A2.98422,2.98422,0,0,1,90.716,18.67832l.02441.11127-.10736.0351a2.96778,2.96778,0,0,1-2.04645-.07318l-.17175-.07025Zm-.65674-.34259-.08392.0752L87.719,18.206a2.96471,2.96471,0,0,1-.92322-1.5741l-.02441-.11127.10736-.0351a2.95906,2.95906,0,0,1,1.84735,0l.10736.0351-.02441.11127A2.98133,2.98133,0,0,1,87.88688,18.206Zm.8139-2.45728a3.558,3.558,0,0,0-1.79663.001l-.17664.04492.02246-.18152A2.97982,2.97982,0,0,1,87.719,13.7667l.08392-.0752.08295.0752a2.96991,2.96991,0,0,1,.96906,1.8454l.02246.18054Zm-1.63953,2.79987.12885.13269-.17175.07025a2.96425,2.96425,0,0,1-1.12329.22058,2.99962,2.99962,0,0,1-.92413-.1474l-.10736-.0351.02441-.11127A2.99263,2.99263,0,0,1,85.977,16.96659l.14447-.11218.0517.17566A3.71,3.71,0,0,0,87.06126,18.54856Zm-2.06494,1.012a3.63919,3.63919,0,0,0,2.7442-.38354l.06244-.03607.06244.03607a3.62593,3.62593,0,0,0,2.74323.38354l.17664-.04486-.02246.18152a2.98339,2.98339,0,0,1-5.92072,0l-.0224-.18152ZM86.72361,9.786a1.07886,1.07886,0,0,1,2.15771,0v2.60657l-.09369.02441a3.65631,3.65631,0,0,0-.92224.37866l-.06244.03607-.06244-.03607a3.6575,3.6575,0,0,0-.92322-.37866l-.09369-.02441Zm-3.81476,6.19983a2.98362,2.98362,0,0,1,4.1095-2.76569l.17175.07025-.12885.13275A3.66647,3.66647,0,0,0,86.02,15.98588v.0722l-.06146.07416a3.68307,3.68307,0,0,0-1.69318,2.14795l-.05176.17566-.14539-.11224A2.97078,2.97078,0,0,1,82.90885,15.98588ZM79.869,34.84782l-1.25208.94073.00586-.69189,4.96045-16.23779.14246.10443a3.38768,3.38768,0,0,0,.32593.21368l.0625.03613-.002.11127a3.67754,3.67754,0,0,0,.15613,1.05493l.01074.03607-.01172.03613Zm3.25653-8.2453.04974-.161L84.725,21.365l.14832.19318a3.67429,3.67429,0,0,0,5.85828,0l.14832-.19318.07025.23322,1.52924,5.00433Zm13.86249,9.186-1.25208-.93976-.01172-.03906L91.32591,20.41636l.01074-.03607a3.69417,3.69417,0,0,0,.15613-1.05591v-.0722l.06049-.07422a3.836,3.836,0,0,0,.327-.21368l.14148-.10345.05072.16785L96.988,35.13279Z" style="fill:#00bf83"/><path d="M25.40171,15.23948,26.76994,18.832l1.81268-.49969L27.36155,15.178l1.47687-.04639-.05811-1.84576-6.19989.1947.05786,1.84576Zm.16394-.5611,1.05554-.43591.23169.59857-1.21082.038Zm2.54712,3.4176-1.12744.31073-1.21051-3.179,1.213-.03809Zm.32617-4.44653.03583,1.14069-1.24817.03918L26.82,13.779l-1.7063.70441.15515.40735-2.28918.07184-.03564-1.14069Z" style="fill:#00bf83"/><path d="M42.31706,10.07981l1.22223,4.06244,1.7063-.49219L43.41313,7.68034,39.42649,9.38786l.69836,1.6311ZM43.19126,8.159l1.61194,5.25171-1.02673.296L42.54118,9.60014l-2.23077.95569-.42084-.98242Z" style="fill:#00bf83"/></svg>