<svg id="Layer_1" data-name="Layer 1" xmlns="http://www.w3.org/2000/svg" viewBox="0 0 100 40.9"><title>icon</title><path d="M66.10077,27.66856h7.9978a.47513.47513,0,1,0,0-.95026h-7.9978a.47513.47513,0,1,0,0,.95026Z" style="fill:#00bf83"/><path d="M57.91235,27.66856h5.789a.47513.47513,0,0,0,0-.95026h-5.789a.47513.47513,0,1,0,0,.95026Z" style="fill:#00bf83"/><path d="M67.00336,31.32072H57.64581a.47562.47562,0,0,0,0,.95123h9.35754a.47562.47562,0,0,0,0-.95123Z" style="fill:#00bf83"/><path d="M75.69659,31.32072H69.40277a.47562.47562,0,0,0,0,.95123h6.29382a.47562.47562,0,0,0,0-.95123Z" style="fill:#00bf83"/><path d="M86.28351,24.8159a4.77937,4.77937,0,0,0-2.13586,9.054.47519.47519,0,0,0,.66431-.57574.46791.46791,0,0,0-.23834-.27429,3.82992,3.82992,0,1,1,2.07172.38416.47529.47529,0,0,0-.322.1712.47437.47437,0,0,0,.36475.77808l.04962-.002a4.77855,4.77855,0,0,0-.45422-9.53546Z" style="fill:#00bf83"/><path d="M85.56378,28.22977a1.51921,1.51921,0,0,1,1.59021.08752.47573.47573,0,0,0,.6604-.12549.46946.46946,0,0,0,.07489-.355.47727.47727,0,0,0-.20038-.30542,2.47945,2.47945,0,0,0-1.39764-.43378,2.51076,2.51076,0,0,0-.75281.1167,2.49256,2.49256,0,1,0,3.18439,2.913.47671.47671,0,0,0-.36279-.567.4762.4762,0,0,0-.5661.36182,1.55627,1.55627,0,0,1-1.51044,1.21674,1.54324,1.54324,0,0,1-.71973-2.90906Z" style="fill:#00bf83"/><path d="M32.89764,26.6862l-1.2226.178-.07587-.177A2.96442,2.96442,0,0,0,28.14447,24.953a3.00521,3.00521,0,0,0-2.24384,2.54144l-.02332.19067-1.54449.213-.02728-.25482A9.03326,9.03326,0,0,0,20.986,21.5051l-.17993-.14691,1.96179-2.71259L40.18445,9.612l-.61469-1.03973-17.59747,9.236-2.07947,2.92365-.1955-.11182a9.19378,9.19378,0,1,0,4.55573,9.45868c.04376-.27429.07587-.56708.09436-.87054l.01263-.20325,1.66315-.22955.072.18091a2.97115,2.97115,0,0,0,5.72583-.81793l.01941-.1936,1.87622-.27716.36859.43475.8316-.70319-1.19342-1.41125ZM20.16907,22.254l.20618.17407a7.80459,7.80459,0,0,1,2.66693,4.25519,8.22958,8.22958,0,0,1,.18573,1.12537l.02435.23926-7.98712,1.10193Zm3.04425,7.34131c-.0097.10406-.01947.20715-.03595.31122a8.16778,8.16778,0,1,1-4.16284-8.41992l.24707.13422-4.77551,6.71588a1.17367,1.17367,0,0,0-.14691,1.25568,1.134,1.134,0,0,0,1.1059.64679l7.812-1.08057Zm3.8924-2.45782a1.89041,1.89041,0,0,1,3.24078-.45807l.26843.33844-3.67358.51941ZM30.647,28.49039a1.898,1.898,0,0,1-1.33441,1.21,1.927,1.927,0,0,1-.45618.05542,1.89331,1.89331,0,0,1-1.53772-.79169l-.24121-.33557,3.70862-.52911Z" style="fill:#00bf83"/><polygon points="19.291 13.1 21.462 16.458 22.454 15.943 20.414 12.824 22.112 12.405 21.853 11.348 16.3 12.713 16.56 13.771 19.291 13.1" style="fill:#00bf83"/><polygon points="35.677 3.855 37.874 7.855 38.766 7.38 35.992 2.392 32.981 4.518 33.565 5.345 35.677 3.855" style="fill:#00bf83"/><path d="M92.0968,24.29551a.46791.46791,0,0,0-.11963-.09436l-.03113-.02332a7.73264,7.73264,0,0,0-5.62946-2.42474H77.56982l-.03693-.04279L72.6795,16.15763a1.51339,1.51339,0,0,0-2.13293-.14392l-2.05609,1.79736a1.51331,1.51331,0,0,0-.14392,2.133l1.58142,1.809h-8.662c-.24316,0-.49023.02338-.72949.04572l-.07977.00488c-.06512.0058-.12543.00391-.18475.01166-.038.01556-.05353.02142-.06909.02625a7.81284,7.81284,0,0,0-2.27008.675.54373.54373,0,0,1-.07.01849.69073.69073,0,0,0-.1488.07587c-.036.02142-.072.04376-.10895.06421-.06805.035-.13226.07294-.19647.1109l-.08459.04956a7.992,7.992,0,0,0-.86176.58356l-.072.0545c-.04962.0379-.09827.07489-.145.11475-.16241.13422-.31317.27722-.426.38611-.04352.04181-.08435.08563-.126.12891-.02808.02917-.05725.05762-.08508.087l-.02533.02625c-.09332.09839-.17609.20532-.26422.30841-.08447.09882-.17462.19373-.25317.29559l-.03113.04089c-.03741.049-.07281.1-.11.14929.0318-.10785.06439-.21417.09235-.32349.01208-.0473.02344-.09454.035-.14191.01038-.04236.02118-.08447.03125-.12677l.01331-.01556a9.5043,9.5043,0,0,0,.26587-1.14349,9.42939,9.42939,0,0,0-7.40063-10.7406l-.20618-.04376.1109-2.5307,1.38306-.32489-.25677-1.05914-6.502,1.527.25677,1.0592,4.01593-.94348L46.666,12.33042l-.248-.0097a9.13935,9.13935,0,0,0-4.05481.73334l-.20331.08459-1.30133-2.27686-.91235.49017,1.28094,2.26227-.20325.12646c-.22467.1391-.44745.284-.66138.44257A9.46126,9.46126,0,1,0,53.27356,27.82218c.051-.05194.101-.10486.15161-.15747.05646-.05872.11371-.11584.169-.17566.06775-.07336.128-.15131.19263-.22675-.00586.01855-.015.03754-.02075.05609-.01654.0564-.03015.11383-.04474.17218l-.02917.11768c-.01117.04236-.01782.08783-.02832.1308-.04279.17474-.08325.35162-.11517.5321l-.00726.03351c-.01849.11475-.035.21008-.04669.30829a7.784,7.784,0,0,0-.06805.958l-.002.0321a8.22677,8.22677,0,0,0,.07.97943c.01263.10406.03015.20618.04669.30835.04089.23828.09143.47363.15076.69733l.02917.11865c.01459.05737.0282.11481.04572.1712a7.95271,7.95271,0,0,0,.3064.82965c.04279.09723.08948.19159.13715.285l.04181.08557c.08075.16046.16632.319.25677.47369.02429.04181.04669.08459.06805.12738a1.53229,1.53229,0,0,0,.07391.13519c.01367.02142.03015.04181.04572.06226.01752.02234.035.04474.05157.06805.09045.13519.18964.26361.2879.392l.03308.04285c.16046.20715.33356.40942.51257.59912.07971.08362.15656.16437.2373.24316.13812.13324.27716.26257.42407.38513.04663.03888.09625.07587.1449.11279l.07391.05743a8.01689,8.01689,0,0,0,.86273.58356l.06128.03595c.072.04285.14294.08466.21783.12451.037.02045.07294.04181.108.06323a1.37149,1.37149,0,0,0,.12256.07.21831.21831,0,0,0,.0321.00781.36163.36163,0,0,1,.04474.00873,7.8004,7.8004,0,0,0,3.35455.76251l4.69281.001H86.28351a7.849,7.849,0,0,0,5.81329-13.139ZM42.97,13.98191a8.02259,8.02259,0,0,1,3.39734-.57385l.249.01068-.31805,6.96783L42.7016,14.086Zm8.05524,14.49487a8.312,8.312,0,0,1-3.00641,1.41711,8.34565,8.34565,0,0,1-6.33167-.9668,8.37327,8.37327,0,0,1-.67212-13.87042c.17023-.12744.34918-.24219.52814-.355l.22076-.14008,4.58978,8.10388.98236-.676.37054-8.42285.29474.072a8.3714,8.3714,0,0,1,3.02386,14.8382Zm35.27765,8.00659H86.265a6.87564,6.87564,0,0,1-6.86279-6.58368.47353.47353,0,0,0-.15558-.33258.41335.41335,0,0,0-.33948-.12158.47364.47364,0,0,0-.45416.49506,7.82935,7.82935,0,0,0,3.68134,6.31226l.36957.23053h-21.238a6.89045,6.89045,0,0,1-3.233-.80927c-.04285-.02332-.08368-.04663-.12451-.071l-.06812-.03986a7.00566,7.00566,0,0,1-.94537-.64777,6.93241,6.93241,0,0,1-1.66217-2.00067l-.05353-.10016a6.83384,6.83384,0,0,1-.59131-1.55524c-.03992-.16241-.07684-.32483-.10406-.49017-.01849-.106-.036-.212-.04865-.319a6.82619,6.82619,0,0,1-.05737-.82379V29.571a6.85664,6.85664,0,0,1,.05737-.82574c.01263-.108.03015-.214.04865-.31995.02722-.16443.06415-.32684.10406-.48926a6.86016,6.86016,0,0,1,.59229-1.55524l.05255-.09821a6.91489,6.91489,0,0,1,1.64954-1.99286,7.06206,7.06206,0,0,1,.959-.65753l.0603-.035c.04279-.02631.08563-.05157.13037-.07489a6.89511,6.89511,0,0,1,3.23395-.81024h4.50024a.10278.10278,0,0,1,.02917-.00775l5.1792-.001a.47561.47561,0,0,0,.35889-.78784l-2.27008-2.59686a.55847.55847,0,0,1,.05347-.79071L71.173,16.73051a.55826.55826,0,0,1,.78973.05255L76.996,22.54093a.47635.47635,0,0,0,.358.16241h5.1626l-.36859.23053a7.83952,7.83952,0,0,0-3.39636,4.48279.47527.47527,0,1,0,.91327.26355,6.88942,6.88942,0,1,1,6.63806,8.80316Z" style="fill:#00bf83"/></svg>