<svg id="Layer_1" data-name="Layer 1" xmlns="http://www.w3.org/2000/svg" viewBox="0 0 100 40.9"><title>icon</title><path d="M83.80487,24.24863A7.67644,7.67644,0,0,0,81.662,22.82627l-.10266-.04663.509-1.88263,1.16107-.01245-.01868-1.01282-5.51416.06012.01868,1.01282,3.2998-.03625-.40948,1.50421-.1275-.03418a7.8828,7.8828,0,0,0-2.15326-.26434,7.61111,7.61111,0,0,0-1.1911.1275l-.11615.02069-.62512-2.0257-.933.26233.6106,2.006-.12024.04248c-.24677.08606-.43335.15863-.60339.23535a7.69463,7.69463,0,1,0,8.45837,1.46588Zm-6.16626-1.04291a5.20853,5.20853,0,0,1,.707-.0788c.03839-.001.07672-.001.11407-.001a6.7289,6.7289,0,0,1,1.74469.254l.1286.03424-.03424.12958-1.35181,4.974-1.62347-5.26324Zm7.05157,9.05652A6.66295,6.66295,0,0,1,78.63177,36.467c-.04871.001-.09747.001-.14618.001a6.67276,6.67276,0,0,1-2.72339-12.7616,2.3477,2.3477,0,0,1,.30066-.1037c.06012-.01764.12024-.03522.17932-.057l.13068-.04663,2.177,7.15314.99005-.39807,1.752-6.48242.14514.07153a6.63906,6.63906,0,0,1,3.25311,8.41895Z" style="fill:#00bf83"/><path d="M67.29871,31.2888l-.03839-.00208-.88428-.06738-.01868-.10059a2.46117,2.46117,0,0,0-2.42377-2.0257l-.05389.001a2.48455,2.48455,0,0,0-2.27136,1.64838l-.03424.09637-1.15588-.09534.03522-.30792a6.13053,6.13053,0,0,0,.058-.82935,7.43981,7.43981,0,0,0-.651-2.90167,7.26952,7.26952,0,0,0-.961-1.53845l-.07672-.09747L60.78107,23.326l15.343-4.05865-.34314-1.0553-15.5296,4.19025-2.12,1.90753L58.04211,24.23a7.33022,7.33022,0,0,0-5.01135-1.951c-.05493,0-.10883.001-.16382.00208a7.48444,7.48444,0,1,0,7.11792,10.25079,3.31815,3.31815,0,0,0,.12958-.43542c.01971-.08087.04047-.16071.06323-.24048l.03009-.10474,1.27509.10577.0166.1026a2.48305,2.48305,0,0,0,2.43414,2.08478l.05188-.001a2.47487,2.47487,0,0,0,2.289-1.71155l.03314-.09851,1.43378.10681.227.43225.89673-.4696-.75262-1.4389Zm-8.15979.54114c-.01453.04248-.02588.0871-.03625.13165a1.586,1.586,0,0,1-.058.19592A6.46915,6.46915,0,0,1,53.16553,36.238c-.04663.001-.09229.001-.13788.001a6.48862,6.48862,0,1,1,4.23071-11.34448l.113.09845-.111.10059L52.5072,29.37193a1.00493,1.00493,0,0,0,.4541,1.7821l6.23254.51416Zm.30273-1.40265-.027.23328-6.23047-.51733,4.89313-4.40283.0871.11407a6.52084,6.52084,0,0,1,.77234,1.26477,6.41517,6.41517,0,0,1,.56189,2.50775A5.752,5.752,0,0,1,59.44165,30.42728Zm5.70074,1.91687a1.43386,1.43386,0,0,1-1.17871.68628h-.03113a1.45606,1.45606,0,0,1-1.34039-.88641l-.0871-.20319,2.75757.21564Zm-2.51813-1.41821.1358-.1897a1.43807,1.43807,0,0,1,1.14142-.62927h.03a1.46576,1.46576,0,0,1,1.31036.82727l.10059.20734Z" style="fill:#00bf83"/><polygon points="58.958 18.36 60.078 21.393 61.081 21.127 60.033 18.337 61.413 18.308 61.392 17.296 56.653 17.396 56.674 18.409 58.958 18.36" style="fill:#00bf83"/><polygon points="73.462 13.996 74.484 17.517 75.399 17.262 74.055 12.719 71.181 13.915 71.547 14.793 73.462 13.996" style="fill:#00bf83"/><path d="M34.45538,19.48814a.56136.56136,0,0,0-.5401.40015C33.174,22.31937,31.449,28.10508,31.449,29.345a3.00055,3.00055,0,0,0,2.741,2.98053v6.01062h.53076V32.32554a3.00055,3.00055,0,0,0,2.741-2.98053c0-1.23993-1.7251-7.02563-2.46631-9.45569A.56109.56109,0,0,0,34.45538,19.48814Zm.26538,12.30664V29.97446L36.35358,28.611l-.34009-.40741-1.29272,1.07855V25.192H34.19v4.09015l-1.29279-1.07855-.34.40741L34.19,29.97446v1.82031A2.471,2.471,0,0,1,31.97974,29.345c0-.81073.91333-4.28778,2.50775-9.30121C36.01764,25.05723,36.931,28.53428,36.931,29.345A2.471,2.471,0,0,1,34.72076,31.79478Z" style="fill:#00bf83"/><path d="M15.34406,19.48814h-.001a.5627.5627,0,0,0-.53912.40015c-.92059,3.024-2.46625,8.27283-2.46625,9.45673a3.00045,3.00045,0,0,0,2.741,2.98053v6.01062h.53082V32.32554a3.00056,3.00056,0,0,0,2.742-2.98053c0-1.1839-1.54565-6.43268-2.46625-9.45673A.56361.56361,0,0,0,15.34406,19.48814Zm.26538,12.30664V29.97446L17.24219,28.611l-.34-.40741-1.29272,1.07855V25.192h-.53082v4.09l-1.29169-1.07837-.34.40637,1.63171,1.3642v1.82062A2.471,2.471,0,0,1,12.86841,29.345c0-.80243.91333-4.28052,2.50879-9.30121A66.45614,66.45614,0,0,1,17.82068,29.345,2.47177,2.47177,0,0,1,15.60944,31.79478Z" style="fill:#00bf83"/><path d="M24.90021,5.93967A5.7851,5.7851,0,0,0,24.63483,17.504V38.33616h.53076V17.504a5.78513,5.78513,0,0,0-.26538-11.56433Zm.26538,11.02008V14.761l3.38586-2.82922-.34-.40637-3.04584,2.54321V9.53074h-.53076v4.538L21.588,11.52537l-.34.40637L24.63483,14.761v2.19873a5.25816,5.25816,0,1,1,.53076,0Z" style="fill:#00bf83"/><path d="M5.78888,5.93967A5.78513,5.78513,0,0,0,5.5235,17.504V38.33616h.53076V17.504A5.78513,5.78513,0,0,0,5.78888,5.93967Zm.26538,11.02008V14.761l3.3858-2.82922-.34-.40637L6.05426,14.06858V9.53074H5.5235v4.53784L2.47766,11.52537l-.34.40637L5.5235,14.761v2.19879a5.2581,5.2581,0,1,1,.53076,0Z" style="fill:#00bf83"/><path d="M93.75812,3.57188A6.24191,6.24191,0,1,0,100,9.81376,6.249,6.249,0,0,0,93.75812,3.57188Zm0,11.953a5.71112,5.71112,0,1,1,5.71112-5.71112A5.71714,5.71714,0,0,1,93.75812,15.52488Z" style="fill:#00bf83"/></svg>