<svg xmlns="http://www.w3.org/2000/svg" width="256" height="30" viewBox="0 0 256 30">
    <g fill="#203F5A" fill-rule="nonzero">
        <path d="M157.2 24.7h-11.1V5.4h11.1v3.3h-7v4.2h6.6v3.4h-6.6v5h7zM205.8 24.7h-14.4V22l9.3-13.3h-9V5.4h13.8V8l-9.2 13.3h9.5zM220.4 24.7h-11.1V5.4h11.1v3.3h-7.1v4.2h6.6v3.4h-6.6v5h7.1zM244 5.4v19.3h11.1v-3.4h-7v-5h6.5v-3.4h-6.5V8.7h7V5.4zM98.5 5.4h4.1v4.1h-4.1zM92.6 5.4h4.1v4.1h-4.1zM38.4 0L32 30h4.1l6.4-30zM44.5 0l-6.3 30h4l6.4-30zM0 0v30h30l6.4-30zM58.8 13.8h7.7v10c-1.2.4-2.4.7-3.5.9-1.1.2-2.2.2-3.4.2-2.9 0-5.1-.9-6.7-2.6-1.5-1.7-2.3-4.2-2.3-7.4 0-3.1.9-5.5 2.7-7.3C55.1 5.9 57.6 5 60.7 5c2 0 3.9.4 5.7 1.2L65 9.5c-1.4-.7-2.9-1.1-4.4-1.1-1.8 0-3.2.6-4.3 1.8-1.1 1.2-1.6 2.8-1.6 4.8 0 2.1.4 3.7 1.3 4.8.9 1.1 2.1 1.7 3.7 1.7.9 0 1.7-.1 2.6-.3v-4h-3.7v-3.4h.2zM74.3 13.9h1.3c1.3 0 2.2-.2 2.9-.6.6-.4.9-1.1.9-2 0-.9-.3-1.6-.9-2-.6-.4-1.6-.6-2.9-.6h-1.2v5.2h-.1zm0 3.4v7.4h-4.1V5.4h5.6c2.6 0 4.6.5 5.8 1.4 1.3 1 1.9 2.4 1.9 4.3 0 1.1-.3 2.1-.9 3-.6.9-1.5 1.6-2.7 2.1 2.9 4.3 4.8 7.1 5.7 8.4h-4.5l-4.6-7.4h-2.2v.1zM123.4 24.7h-5.2l-8.4-14.6h-.1c.2 2.6.3 4.4.3 5.5v9.1h-3.7V5.4h5.2l8.4 14.5h.1c-.1-2.5-.2-4.3-.2-5.3V5.4h3.7v19.3h-.1zM139 14.9c0-4.1-1.8-6.2-5.5-6.2h-2.2v12.6h1.8c3.9 0 5.9-2.1 5.9-6.4m4.2-.1c0 3.2-.9 5.6-2.7 7.3-1.8 1.7-4.4 2.5-7.8 2.5h-5.5V5.4h6.1c3.1 0 5.6.8 7.3 2.5 1.7 1.6 2.6 3.9 2.6 6.9M164.6 13.9h1.3c1.3 0 2.2-.2 2.9-.6.6-.4.9-1.1.9-2 0-.9-.3-1.6-.9-2-.6-.4-1.6-.6-2.9-.6h-1.2v5.2h-.1zm0 3.4v7.4h-4.1V5.4h5.6c2.6 0 4.6.5 5.8 1.4 1.3 1 1.9 2.4 1.9 4.3 0 1.1-.3 2.1-.9 3-.6.9-1.5 1.6-2.7 2.1 2.9 4.3 4.8 7.1 5.7 8.4h-4.5l-4.6-7.4h-2.2v.1zM189.7 19.3c0 1.7-.6 3.1-1.9 4.1-1.3 1-3 1.5-5.2 1.5-2.1 0-3.9-.4-5.5-1.2V20c1.3.6 2.4 1 3.3 1.2.9.2 1.7.4 2.5.4.9 0 1.6-.2 2.1-.5s.7-.9.7-1.5c0-.4-.1-.7-.3-1-.2-.3-.5-.6-.9-.9-.4-.3-1.2-.7-2.5-1.3-1.2-.6-2.1-1.1-2.7-1.6-.6-.5-1.1-1.1-1.4-1.8-.4-.7-.5-1.5-.5-2.4 0-1.7.6-3 1.7-4 1.2-1 2.8-1.5 4.8-1.5 1 0 2 .1 2.9.4.9.2 1.9.6 2.9 1l-1.3 3.2c-1-.4-1.9-.7-2.6-.9-.7-.2-1.3-.3-2-.3-.8 0-1.4.2-1.8.5-.4.4-.6.8-.6 1.4 0 .4.1.7.3.9.2.3.4.5.8.8.4.3 1.2.7 2.6 1.4 1.8.9 3 1.7 3.7 2.6.6.9.9 1.9.9 3.2"/>
        <path d="M98.5 11.2v6c0 1.5-.3 2.6-.9 3.3-.6.7-1.6 1-2.9 1-1.4 0-2.4-.3-3-1-.6-.7-.9-1.8-.9-3.3V5.4h-4.1v12.4c0 2.2.7 3.9 2.1 5.2 1.4 1.3 3.3 1.9 5.8 1.9 1.6 0 3.1-.3 4.3-.9 1.2-.6 2.1-1.4 2.8-2.5.6-1.1 1-2.3 1-3.7v-6.7h-4.2v.1zM240.7 24.7h-5.2l-8.4-14.6h-.1c.2 2.6.3 4.4.3 5.5v9.1h-3.7V5.4h5.2l8.4 14.5h.1c-.1-2.5-.2-4.3-.2-5.3V5.4h3.7v19.3h-.1z"/>
    </g>
</svg>
