<?xml version="1.0" encoding="UTF-8" standalone="no"?>
<svg width="99px" height="81px" viewBox="0 0 99 81" version="1.1" xmlns="http://www.w3.org/2000/svg" xmlns:xlink="http://www.w3.org/1999/xlink">
    <!-- Generator: Sketch 40.3 (33839) - http://www.bohemiancoding.com/sketch -->
    <title>feature_1_black</title>
    <desc>Created with Sketch.</desc>
    <defs>
        <rect id="path-1" x="0" y="0" width="140" height="140"></rect>
    </defs>
    <g id="Page-1" stroke="none" stroke-width="1" fill="none" fill-rule="evenodd">
        <g id="feature_1_black" transform="translate(-21.000000, -29.000000)">
            <g id="Mask">
                <rect id="path-1" x="0" y="0" width="140" height="140"></rect>
            </g>
            <g id="Page-1-Clipped">
                <g>
                    <mask id="mask-2" fill="white">
                        <use xlink:href="#path-1"></use>
                    </mask>
                    <g id="path-1"></g>
                    <g id="Page-1" mask="url(#mask-2)">
                        <g transform="translate(22.000000, 31.000000)" id="Group">
                            <g>
                                <g stroke-width="3" stroke="#61c794">
                                    <polygon id="Stroke-1" points="66.0586 65.1712 10.0586 65.1712 10.0586 9.1712"></polygon>
                                    <polygon id="Stroke-2" points="36.0586 53.1712 22.0586 53.1712 22.0586 39.1712"></polygon>
                                    <path d="M37.9077,37.6076 L33.6647,41.8506" id="Stroke-3"></path>
                                    <path d="M31.5437,31.2436 L27.3007,35.4866" id="Stroke-4"></path>
                                    <path d="M25.1798,24.8797 L20.9368,29.1227" id="Stroke-5"></path>
                                    <path d="M18.8158,18.5157 L14.5728,22.7587" id="Stroke-6"></path>
                                    <path d="M44.2717,43.9716 L40.0287,48.2146" id="Stroke-7"></path>
                                    <path d="M50.6356,50.3355 L46.3926,54.5785" id="Stroke-8"></path>
                                    <path d="M56.9996,56.6995 L52.7566,60.9425" id="Stroke-9"></path>
                                    <g id="Group-16">
                                        <polyline id="Stroke-10" points="96.1914 38.5258 80.7364 34.3848 84.8774 18.9298"></polyline>
                                        <polyline id="Stroke-12" points="10.0571 56.8573 0.8371 54.3873 10.0851 19.8723"></polyline>
                                        <polyline id="Stroke-14" points="12.341 11.4538 15.331 0.2948 84.877 18.9298 96.191 38.5258 85.839 77.1628 40.963 65.1388"></polyline>
                                    </g>
                                </g>
                            </g>
                        </g>
                    </g>
                </g>
            </g>
        </g>
    </g>
</svg>