<?xml version="1.0" encoding="UTF-8" standalone="no"?>
<svg width="106px" height="79px" viewBox="0 0 106 79" version="1.1" xmlns="http://www.w3.org/2000/svg" xmlns:xlink="http://www.w3.org/1999/xlink">
    <!-- Generator: Sketch 40.3 (33839) - http://www.bohemiancoding.com/sketch -->
    <title>feature_3_black</title>
    <desc>Created with Sketch.</desc>
    <defs>
        <rect id="path-1" x="0" y="0" width="140" height="140"></rect>
    </defs>
    <g id="Page-1" stroke="none" stroke-width="1" fill="none" fill-rule="evenodd">
        <g id="feature_3_black" transform="translate(-20.000000, -29.000000)">
            <g id="Mask">
                <rect id="path-1" x="0" y="0" width="140" height="140"></rect>
            </g>
            <g id="Page-1-Clipped">
                <g>
                    <mask id="mask-2" fill="white">
                        <use xlink:href="#path-1"></use>
                    </mask>
                    <g id="path-1"></g>
                    <g id="Page-1" mask="url(#mask-2)">
                        <g transform="translate(22.000000, 31.000000)" id="Group">
                            <g>
                                <g stroke="#61c794" stroke-width="3">
                                    <path d="M66.919,61.4408 C61.611,69.8868 52.211,75.4998 41.5,75.4998 C24.931,75.4998 11.5,62.0688 11.5,45.4998 C11.5,28.9318 24.931,15.4998 41.5,15.4998 C58.069,15.4998 71.5,28.9318 71.5,45.4998 C71.5,47.8038 71.24,50.0468 70.748,52.2018" id="Stroke-1"></path>
                                    <path d="M42,0 C65.196,0 84,18.804 84,42" id="Stroke-3"></path>
                                    <path d="M0,42 C0,18.804 18.804,0 42,0" id="Stroke-5" stroke-dasharray="8"></path>
                                    <path d="M93.7128,73.6216 L40.1278,51.4256 C37.0788,50.1636 35.6178,46.6356 36.8808,43.5866 L36.8808,43.5866 C38.1438,40.5376 41.6708,39.0766 44.7198,40.3396 L98.3048,62.5346 C101.3538,63.7976 102.8148,67.3256 101.5518,70.3746 L101.5518,70.3746 C100.2898,73.4236 96.7618,74.8846 93.7128,73.6216 L93.7128,73.6216 L93.7128,73.6216 L93.7128,73.6216 Z" id="Stroke-7"></path>
                                    <polyline id="Stroke-9" points="89.1569 37.8431 83.4999 43.5001 77.8429 37.8431"></polyline>
                                </g>
                            </g>
                        </g>
                    </g>
                </g>
            </g>
        </g>
    </g>
</svg>