<?xml version="1.0" encoding="utf-8"?>
<!-- Generator: Adobe Illustrator 20.1.0, SVG Export Plug-In . SVG Version: 6.00 Build 0)  -->
<svg version="1.1" id="Layer_1" xmlns="http://www.w3.org/2000/svg" xmlns:xlink="http://www.w3.org/1999/xlink" x="0px" y="0px"
	 width="50.1px" height="40px" viewBox="0 0 50.1 40" style="enable-background:new 0 0 50.1 40;" xml:space="preserve">
<style type="text/css">
	.st0{fill:#66C293;}
</style>
<g>
	<path class="st0" d="M49.6,39.8c-0.3,0-0.5-0.2-0.5-0.5V15.1H1v24.2c0,0.3-0.2,0.5-0.5,0.5S0,39.6,0,39.3V14.6
		c0-0.3,0.2-0.5,0.5-0.5h49.1c0.3,0,0.5,0.2,0.5,0.5v24.7C50.1,39.6,49.9,39.8,49.6,39.8"/>
	<path class="st0" d="M48.6,15.7H31.9v4.9h16.7V15.7z M48.1,20.2H32.3v-4h15.7V20.2z"/>
	<path class="st0" d="M40.2,18.8c-0.3,0-0.6-0.3-0.6-0.6c0-0.3,0.3-0.6,0.6-0.6c0.3,0,0.6,0.3,0.6,0.6
		C40.8,18.5,40.5,18.8,40.2,18.8"/>
	<path class="st0" d="M8.1,10.9c-1.4,0-2.6,1.1-2.6,2.6h5.1C10.6,12,9.5,10.9,8.1,10.9"/>
	<polygon class="st0" points="8.2,11.3 2.8,6 8.2,0.6 8.5,0.9 3.5,6 8.5,11 	"/>
	<path class="st0" d="M8,0.7c-1,1-1,2.6,0,3.6l3.6-3.6C10.6-0.2,9-0.2,8,0.7"/>
	<g>
		<path class="st0" d="M6.2,27.4l0.2-0.1l3.1-0.9l0,0c0.2-0.1,0.3-0.2,0.3-0.5c0-0.3-0.2-0.5-0.5-0.5H4.2c-0.4,0-0.8,0.3-0.8,0.8
			c0,0,0,0,0,0.1c0,0.3,0.2,0.5,0.5,0.7L5,27.4c0,0,0.1,0.1,0.3,0.1c0.1,0,0.1,0,0.2,0C5.9,27.5,6.2,27.4,6.2,27.4"/>
		<path class="st0" d="M6.7,34.9c-0.4-0.3-0.6-0.8-0.6-1.3c0-0.8,0.6-1.5,1.4-1.6c0.2-0.2,0.3-0.5,0.5-0.7c-0.1,0-0.2,0-0.3,0
			c-1.3,0-2.3,1-2.3,2.3c0,0.9,0.6,1.8,1.4,2.1C6.7,35.5,6.7,35.2,6.7,34.9"/>
		<path class="st0" d="M6.3,27.8c-0.1,0-0.4,0.1-0.7,0.1c0,0-0.1,0-0.1,0l0.3,0.9l1-0.4l-0.2-0.7L6.3,27.8
			C6.3,27.8,6.3,27.8,6.3,27.8C6.3,27.8,6.3,27.8,6.3,27.8"/>
		<path class="st0" d="M17,34.8c0-1.4-0.6-2.6-1.5-3.5L15,32.2c0.6,0.7,1,1.6,1,2.6c0,2.2-1.8,4-4,4c-2.2,0-4-1.8-4-4
			c0-2.2,1.8-4,4-4c0.6,0,1.2,0.1,1.7,0.4l0.4-0.9c-0.7-0.3-1.4-0.5-2.2-0.5c-2.7,0-5,2.2-5,5c0,2.7,2.2,5,5,5
			C14.7,39.8,17,37.6,17,34.8"/>
		<polygon class="st0" points="16.7,29 17.9,29.1 18.7,27.5 18.8,27.4 17.5,27.3 		"/>
		<path class="st0" d="M16,30.2L15.6,31c0.1,0.1,0.1,0.1,0.2,0.2c1.5,0.6,2.5,2,2.5,3.7c0,1.7-1.1,3.1-2.5,3.7
			c-0.5,0.5-1.1,0.9-1.7,1.2c0.1,0,0.2,0,0.3,0c2.7,0,4.9-2.2,4.9-4.9C19.3,32.7,17.9,30.9,16,30.2"/>
		<rect x="10.5" y="29.5" transform="matrix(0.4448 -0.8956 0.8956 0.4448 -18.3889 30.3051)" class="st0" width="9.4" height="1"/>
		<path class="st0" d="M7.8,39.2c0,0.2-0.3,0.4-0.5,0.4c-0.2,0-0.4-0.3-0.4-0.5c0-0.1,0.1-0.2,0.2-0.3c0.1-0.1,0.2-0.1,0.3-0.1
			c0.1,0,0.2,0.1,0.3,0.2C7.8,39,7.8,39.1,7.8,39.2 M7.5,38.3c-0.2,0-0.5,0-0.7,0.1c-0.2,0.1-0.3,0.3-0.4,0.6
			c-0.1,0.5,0.2,0.9,0.7,1c0.5,0.1,0.9-0.2,1-0.7C8.3,38.8,8,38.3,7.5,38.3"/>
		<path class="st0" d="M11.1,29.2L11.1,29.2C11.1,29.2,11.1,29.2,11.1,29.2L11.1,29.2z M6.3,31L6.3,31l4.7-1.8l0,0l0,0l0,0
			c1.2-0.4,2.3-0.5,3.9-0.4l0.8-1.7l-0.3,0c-2-0.2-3.4,0-5,0.5l0,0l0,0l-4.6,1.8L6.3,31z"/>
	</g>
</g>
</svg>
