<?xml version="1.0" encoding="utf-8"?>
<!-- Generator: Adobe Illustrator 20.1.0, SVG Export Plug-In . SVG Version: 6.00 Build 0)  -->
<svg version="1.1" id="Layer_1" xmlns="http://www.w3.org/2000/svg" xmlns:xlink="http://www.w3.org/1999/xlink" x="0px" y="0px"
	 width="93.7px" height="39.7px" viewBox="0 0 93.7 39.7" style="enable-background:new 0 0 93.7 39.7;" xml:space="preserve">
<style type="text/css">
	.st0{fill:#66C293;}
</style>
<g>
	<g>
		<path class="st0" d="M72.3,20.4l0.4-0.1l4.8-1.4l0,0c0.2-0.1,0.5-0.4,0.5-0.7c0-0.5-0.4-0.7-0.7-0.7h-7.9c-0.6,0-1.2,0.5-1.2,1.2
			v0.1c0,0.5,0.4,0.8,0.7,0.9l1.7,0.7c0,0,0.2,0.1,0.6,0.1c0.1,0,0.2,0,0.4,0C71.9,20.6,72.3,20.4,72.3,20.4"/>
		<path class="st0" d="M73.2,31.9c-0.6-0.5-0.9-1.2-0.9-1.9c0-1.3,0.9-2.4,2.1-2.5c0.2-0.4,0.5-0.7,0.8-1.1c-0.1,0-0.4,0-0.5,0
			c-2,0-3.5,1.5-3.5,3.5c0,1.4,0.8,2.7,2.1,3.2C73.2,32.8,73.2,32.4,73.2,31.9"/>
		<path class="st0" d="M72.6,20.9c-0.1,0-0.6,0.1-1.1,0.1h-0.1l0.4,1.4l1.5-0.6l-0.4-1.1L72.6,20.9L72.6,20.9L72.6,20.9"/>
		<path class="st0" d="M89,31.8c0-2.1-0.8-4-2.2-5.4L86,27.8c0.9,1.1,1.5,2.5,1.5,4c0,3.4-2.7,6.1-6.1,6.1s-6.1-2.7-6.1-6.1
			s2.7-6.1,6.1-6.1c0.9,0,1.9,0.2,2.7,0.6l0.7-1.3c-0.9-0.5-2.1-0.7-3.3-0.7c-4.2,0-7.7,3.4-7.7,7.7s3.4,7.7,7.7,7.7
			C85.6,39.4,89,36,89,31.8"/>
		<polygon class="st0" points="88.5,22.8 90.4,23 91.6,20.6 91.7,20.4 89.7,20.2 		"/>
		<path class="st0" d="M87.5,24.8L86.9,26c0.1,0.1,0.2,0.1,0.2,0.2c2.2,0.8,3.9,3.1,3.9,5.7c0,2.6-1.7,4.7-3.9,5.7
			c-0.7,0.8-1.7,1.4-2.6,1.9c0.1,0,0.4,0,0.5,0c4.1,0,7.4-3.3,7.4-7.4C92.5,28.6,90.4,25.8,87.5,24.8"/>
		
			<rect x="79.1" y="23.6" transform="matrix(0.4448 -0.8956 0.8956 0.4448 26.0467 90.8369)" class="st0" width="14.4" height="1.5"/>
		<path class="st0" d="M74.8,38.5c-0.1,0.4-0.5,0.6-0.8,0.6c-0.4-0.1-0.6-0.5-0.6-0.8c0-0.2,0.1-0.4,0.2-0.5
			c0.1-0.1,0.4-0.1,0.5-0.1c0.2,0,0.4,0.1,0.5,0.2C74.8,38.1,74.9,38.3,74.8,38.5 M74.5,37.1c-0.4-0.1-0.7,0-1.1,0.2
			c-0.2,0.2-0.5,0.5-0.6,0.8c-0.1,0.7,0.4,1.4,1.1,1.5c0.7,0.1,1.4-0.4,1.5-1.1C75.7,37.9,75.2,37.2,74.5,37.1"/>
		<path class="st0" d="M79.9,23.2L79.9,23.2L79.9,23.2L79.9,23.2z M72.6,25.9L72.6,25.9l7.2-2.7l0,0l0,0l0,0
			c1.9-0.6,3.5-0.8,5.9-0.6L87,20h-0.5c-3.1-0.2-5.3,0-7.7,0.7l0,0l0,0l-7.1,2.7L72.6,25.9z"/>
	</g>
</g>
<g>
	<path class="st0" d="M12.3,4.7L14,5.4c0,0,0.2,0.1,0.6,0.1c0.1,0,0.2,0,0.4,0c0.5,0,0.9-0.2,0.9-0.2l0.4-0.1l5-1.4v0
		c0.3-0.1,0.5-0.4,0.5-0.7c0-0.4-0.4-0.8-0.8-0.8h-8.2c-0.7,0-1.2,0.5-1.2,1.2c0,0,0,0.1,0,0.1C11.6,4.1,11.9,4.5,12.3,4.7"/>
	<path class="st0" d="M41,3.7C41.3,3.9,41.5,4,41.8,4c0.2,0,0.3,0,0.5-0.1c0.4-0.2,0.8-0.6,0.8-1.1c0-0.7-0.6-1.2-1.2-1.2
		c-0.7,0-1.2,0.6-1.2,1.2C40.6,3.1,40.8,3.5,41,3.7"/>
	<path class="st0" d="M48.6,38.2c-3.6,0-6.5-2.9-6.5-6.5c0-3.6,2.9-6.5,6.5-6.5c3.6,0,6.5,2.9,6.5,6.5C55,35.3,52.1,38.2,48.6,38.2
		 M48.6,23.7c-4.4,0-8,3.6-8,8c0,4.4,3.6,8,8,8c4.4,0,8-3.6,8-8C56.6,27.3,53,23.7,48.6,23.7"/>
	<path class="st0" d="M8.7,38.2c-3.6,0-6.5-2.9-6.5-6.5c0-3.6,2.9-6.5,6.5-6.5c3.6,0,6.5,2.9,6.5,6.5C15.1,35.3,12.2,38.2,8.7,38.2
		 M8.7,23.7c-4.4,0-8,3.6-8,8c0,4.4,3.6,8,8,8c4.4,0,8-3.6,8-8C16.7,27.3,13.1,23.7,8.7,23.7"/>
	<path class="st0" d="M22.7,32.8c-1.4,0-2.6-1.2-2.6-2.6c0-1.4,1.2-2.6,2.6-2.6c1.4,0,2.6,1.2,2.6,2.6
		C25.3,31.6,24.2,32.8,22.7,32.8 M22.7,26.5c-2,0-3.7,1.7-3.7,3.7c0,2,1.7,3.7,3.7,3.7c2.1,0,3.7-1.7,3.7-3.7
		C26.5,28.2,24.8,26.5,22.7,26.5"/>
	<path class="st0" d="M14.9,6.2c-0.1,0-0.1,0-0.2,0l4.7,16.3l1.6-0.6L16.4,5.9L16.1,6C16,6,15.5,6.2,14.9,6.2"/>
	<path class="st0" d="M43,19.5l1.5,0.1L41.8,10c-0.2-0.6-0.2-1.3-0.1-2c0,0,0.3-2.2,0.5-3.4c-0.1,0-0.2,0-0.4,0
		c-0.4,0-0.7-0.1-1-0.3l-0.5,3.5c-0.1,0.9-0.1,1.8,0.2,2.6C40.5,10.4,42.3,17,43,19.5"/>
	<path class="st0" d="M45.4,20.7l-10.2-1c-2.9-0.3-5.6,0-8,0.8l0,0l0,0l-7.4,2.8l0.8,2.7l7.5-2.9c2-0.7,4.3-0.9,6.8-0.6
		c0,0,11.4,1.1,11.4,1.1L45.4,20.7z"/>
	<path class="st0" d="M16.6,24.7c-0.4,0-0.7-0.3-0.7-0.7c0-0.4,0.3-0.7,0.7-0.7c0.4,0,0.7,0.3,0.7,0.7C17.3,24.4,17,24.7,16.6,24.7
		 M16.6,22.6c-0.8,0-1.4,0.6-1.4,1.4c0,0.8,0.6,1.4,1.4,1.4c0.8,0,1.4-0.6,1.4-1.4C18,23.2,17.4,22.6,16.6,22.6"/>
</g>
</svg>
