<?xml version="1.0" encoding="utf-8"?>
<!-- Generator: Adobe Illustrator 20.1.0, SVG Export Plug-In . SVG Version: 6.00 Build 0)  -->
<svg version="1.1" id="Layer_1" xmlns="http://www.w3.org/2000/svg" xmlns:xlink="http://www.w3.org/1999/xlink" x="0px" y="0px"
	 width="93.7px" height="39.7px" viewBox="0 0 93.7 39.7" style="enable-background:new 0 0 93.7 39.7;" xml:space="preserve">
<style type="text/css">
	.st0{fill:#66C293;}
</style>
<g>
	<path class="st0" d="M18.5,26c-3.8,0-6.9,3.1-6.9,6.9c0,3.8,3.1,6.9,6.9,6.9c3.8,0,6.9-3.1,6.9-6.9C25.3,29.1,22.3,26,18.5,26
		 M18.5,28.5c2.4,0,4.4,2,4.4,4.4s-2,4.4-4.4,4.4c-2.4,0-4.4-2-4.4-4.4S16,28.5,18.5,28.5"/>
	<path class="st0" d="M56.4,0c-1.6,0-3.1,0.9-3.7,1.3H19.5c-2.2,0-4.3,0.9-5.8,2.4c0,0-0.1,0-0.1,0.1c0,0,0,0,0,0
		c-0.2,0.2-0.4,0.5-0.6,0.7C11.8,6,9,9.8,6.9,15.4c-1.9,0.7-3.5,2.2-4.5,4.1c0,0,0,0,0,0c-0.1,0.1-1.4,2.8-1.3,5.7
		C0.4,25.9,0,27,0,28.2c0,0,0,0.1,0,0.1c0,0,0,0,0,0c0,0.2,0,1.9,1.2,3.7c0.7,1,1.7,1.9,3,2.5c1.5,0.7,3.3,1.2,5.5,1.3
		c0,0,0.1,0,0.1,0c0.4,0,0.7-0.2,0.9-0.4c0.3-0.3,0.4-0.7,0.3-1.1c-0.1-0.5-0.1-1-0.1-1.5c0-4.2,3.4-7.6,7.6-7.6
		c4.2,0,7.6,3.4,7.6,7.6c0,0.5-0.1,1-0.2,1.5c-0.1,0.4,0,0.7,0.3,1c0.2,0.3,0.6,0.5,1,0.5h42.5c0.4,0,0.7-0.2,1-0.5
		c0.2-0.3,0.3-0.7,0.3-1c-0.1-0.5-0.2-1-0.2-1.5c0-4.2,3.4-7.6,7.6-7.6c4.2,0,7.6,3.4,7.6,7.6c0,0.6-0.1,1.1-0.2,1.7
		c-0.1,0.4,0,0.8,0.2,1.1c0.2,0.3,0.6,0.5,1,0.5h0.1c1.3,0,2.4-0.3,3.4-0.8c1.4-0.7,2.3-1.9,2.8-3.4c0.2-0.5,0.3-1,0.4-1.6
		c0,0,0-0.1,0-0.1c0,0,0-0.1,0-0.1c0-1-0.3-2-0.9-2.8c-0.4-0.5-0.9-1-1.5-1.3c-0.1-1-0.3-2.8-0.9-5c-0.3-1.2-1.7-2.2-4.3-3
		c-1.7-0.6-4.1-1.1-7-1.6c-4-0.7-7.9-1.1-9.3-1.2c-1.4-1.5-6.6-7.3-10.9-10.9l-0.2-2.9c0-0.5-0.3-0.9-0.8-1.1C57.5,0.1,57,0,56.4,0
		 M56.4,1.2c0.3,0,0.7,0.1,1,0.2l0.2,3.5c5,3.9,11.5,11.4,11.5,11.4s19.1,1.7,20,5c0.8,3,0.9,5.2,0.9,5.6c1.4,0.4,2.4,1.7,2.4,3.2
		c0,0,0,0.1,0,0.1l0,0c0,0,0,0,0,0c0,0.4-0.1,0.9-0.3,1.2c-0.9,2.9-3.4,3.4-5.1,3.4H87c0.1-0.6,0.2-1.3,0.2-2c0-4.9-4-8.9-8.9-8.9
		c-4.9,0-8.9,4-8.9,8.9c0,0.6,0.1,1.2,0.2,1.8H27.2c0.1-0.6,0.2-1.2,0.2-1.8c0-4.9-4-8.9-8.9-8.9c-4.9,0-8.9,4-8.9,8.9
		c0,0.6,0.1,1.2,0.2,1.7c-8.6-0.5-8.5-6.2-8.5-6.2l0,0c0-0.1,0-0.1,0-0.2c0-1.1,0.5-2,1.3-2.6l0,0C2.1,22.8,3.6,20,3.6,20l0,0
		c0.8-1.8,2.4-3.1,4.3-3.7l0,0c2.1-5.7,4.9-9.6,6.1-11c0.2-0.2,0.3-0.4,0.5-0.6c0,0,0-0.1,0-0.1l0,0c1.3-1.3,3-2.1,5-2.1h0h33.6
		C53.1,2.6,54.7,1.2,56.4,1.2"/>
	<path class="st0" d="M78.2,26c-3.8,0-6.9,3.1-6.9,6.9c0,3.8,3.1,6.9,6.9,6.9c3.8,0,6.9-3.1,6.9-6.9C85.1,29.1,82,26,78.2,26
		 M78.2,28.5c2.4,0,4.4,2,4.4,4.4s-2,4.4-4.4,4.4c-2.4,0-4.4-2-4.4-4.4S75.8,28.5,78.2,28.5"/>
	<g>
		<path class="st0" d="M35.7,14l0.3-0.1l4.1-1.2l0,0c0.2-0.1,0.4-0.3,0.4-0.6c0-0.4-0.3-0.6-0.6-0.6h-6.7c-0.5,0-1,0.4-1,1
			c0,0,0,0.1,0,0.1c0,0.4,0.3,0.7,0.6,0.8l1.4,0.6c0,0,0.2,0.1,0.5,0.1c0.1,0,0.2,0,0.3,0C35.3,14.1,35.7,14,35.7,14"/>
		<path class="st0" d="M36.4,23.7c-0.5-0.4-0.8-1-0.8-1.6c0-1.1,0.8-2,1.8-2.1c0.2-0.3,0.4-0.6,0.7-0.9c-0.1,0-0.3,0-0.4,0
			c-1.7,0-3,1.3-3,3c0,1.2,0.7,2.3,1.8,2.7C36.4,24.5,36.4,24.1,36.4,23.7"/>
		<path class="st0" d="M35.9,14.4c-0.1,0-0.5,0.1-0.9,0.1c0,0-0.1,0-0.1,0l0.3,1.2l1.3-0.5l-0.3-0.9L35.9,14.4
			C35.9,14.4,35.9,14.4,35.9,14.4C35.9,14.4,35.9,14.4,35.9,14.4"/>
		<path class="st0" d="M49.8,23.6c0-1.8-0.7-3.4-1.9-4.6l-0.6,1.2c0.8,0.9,1.3,2.1,1.3,3.4c0,2.9-2.3,5.2-5.2,5.2
			c-2.9,0-5.2-2.3-5.2-5.2c0-2.9,2.3-5.2,5.2-5.2c0.8,0,1.6,0.2,2.3,0.5l0.6-1.1c-0.8-0.4-1.8-0.6-2.8-0.6c-3.6,0-6.5,2.9-6.5,6.5
			c0,3.6,2.9,6.5,6.5,6.5C46.9,30.1,49.8,27.2,49.8,23.6"/>
		<polygon class="st0" points="49.4,16 51,16.2 52,14.1 52.1,14 50.4,13.8 		"/>
		<path class="st0" d="M48.5,17.7l-0.5,1c0.1,0.1,0.2,0.1,0.2,0.2c1.9,0.7,3.3,2.6,3.3,4.8c0,2.2-1.4,4-3.3,4.8
			c-0.6,0.7-1.4,1.2-2.2,1.6c0.1,0,0.3,0,0.4,0c3.5,0,6.3-2.8,6.3-6.3C52.8,20.9,51,18.5,48.5,17.7"/>
		
			<rect x="41.4" y="16.7" transform="matrix(0.4448 -0.8956 0.8956 0.4448 10.851 52.1796)" class="st0" width="12.2" height="1.3"/>
		<path class="st0" d="M37.8,29.3c-0.1,0.3-0.4,0.5-0.7,0.5c-0.3-0.1-0.5-0.4-0.5-0.7c0-0.2,0.1-0.3,0.2-0.4
			c0.1-0.1,0.3-0.1,0.4-0.1c0.2,0,0.3,0.1,0.4,0.2C37.8,29,37.9,29.1,37.8,29.3 M37.5,28.1c-0.3-0.1-0.6,0-0.9,0.2
			c-0.2,0.2-0.4,0.4-0.5,0.7c-0.1,0.6,0.3,1.2,0.9,1.3c0.6,0.1,1.2-0.3,1.3-0.9C38.5,28.8,38.1,28.2,37.5,28.1"/>
		<path class="st0" d="M42.1,16.3L42.1,16.3C42.1,16.3,42.1,16.3,42.1,16.3L42.1,16.3z M35.9,18.6L35.9,18.6l6.1-2.3l0,0l0,0l0,0
			c1.6-0.5,3-0.7,5-0.5l1.1-2.2l-0.4,0c-2.6-0.2-4.5,0-6.5,0.6l0,0l0,0l-6,2.3L35.9,18.6z"/>
	</g>
</g>
</svg>
