<?xml version="1.0" encoding="utf-8"?>
<!-- Generator: Adobe Illustrator 20.1.0, SVG Export Plug-In . SVG Version: 6.00 Build 0)  -->
<svg version="1.1" id="Layer_1" xmlns="http://www.w3.org/2000/svg" xmlns:xlink="http://www.w3.org/1999/xlink" x="0px" y="0px"
	 width="100px" height="40.9px" viewBox="0 0 100 40.9" style="enable-background:new 0 0 100 40.9;" xml:space="preserve">
<style type="text/css">
	.st0{fill:#66C293;}
</style>
<g>
	<g>
		<path class="st0" d="M43,33.9c0,0.4,0,0.9,0.1,1.3h13.8c0.1-0.4,0.1-0.8,0.1-1.3H43z"/>
		<g>
			<path class="st0" d="M90.3,9.4v9.7H78.8V9.4H90.3 M90.3,8.2H78.8c-0.7,0-1.3,0.6-1.3,1.3v9.7c0,0.7,0.6,1.3,1.3,1.3h11.5
				c0.7,0,1.3-0.6,1.3-1.3V9.4C91.6,8.7,91,8.2,90.3,8.2L90.3,8.2z"/>
		</g>
		<g>
			<path class="st0" d="M75.5,9.4v9.7H64V9.4H75.5 M75.5,8.2H64c-0.7,0-1.3,0.6-1.3,1.3v9.7c0,0.7,0.6,1.3,1.3,1.3h11.5
				c0.7,0,1.3-0.6,1.3-1.3V9.4C76.8,8.7,76.2,8.2,75.5,8.2L75.5,8.2z"/>
		</g>
		<path class="st0" d="M98.7,22.8v1.5h-1.3V1.3c0-0.7-0.6-1.3-1.3-1.3H66.2H33.8H1.3C0.6,0,0,0.6,0,1.3v32.7c0,0.7,0.6,1.3,1.3,1.3
			h3.5c0.6,3.3,3.5,5.7,6.9,5.7s6.3-2.5,6.9-5.7h3.5c0.6,3.3,3.5,5.7,6.9,5.7c3.4,0,6.3-2.5,6.9-5.7h4.8h6.5h3.3h6.5h4.8
			c0.6,3.3,3.5,5.7,6.9,5.7c3.4,0,6.3-2.5,6.9-5.7h3.5c0.6,3.3,3.5,5.7,6.9,5.7c3.4,0,6.3-2.5,6.9-5.7h3.5c0.7,0,1.3-0.6,1.3-1.3
			v-4.6h1.3v1.5h1.3v-8H98.7z M47.1,9.4v22.2v2.3h-6.5v-2.3V9.4V7.1h6.5V9.4z M56.8,9.4v22.2v2.3h-6.5v-2.3V9.4V7.1h6.5V9.4z
			 M96.2,33.9H66.2h-8.1v-2.3V9.4V7.1c0-0.7-0.6-1.3-1.3-1.3h-6.5c-0.7,0-1.3,0.6-1.3,1.3v2.3v22.2v2.3h-0.8v-2.3V9.4V7.1
			c0-0.7-0.6-1.3-1.3-1.3h-6.5c-0.7,0-1.3,0.6-1.3,1.3v2.3v22.2v2.3h-5.6H1.3V1.3h32.5h32.5h29.9V33.9z"/>
	</g>
	<g>
		<path class="st0" d="M13.4,14.7l0.3-0.1l4.1-1.2l0,0c0.2-0.1,0.4-0.3,0.4-0.6c0-0.4-0.3-0.7-0.7-0.7h-6.8c-0.6,0-1,0.5-1,1
			c0,0,0,0.1,0,0.1c0,0.4,0.3,0.7,0.6,0.9l1.4,0.6c0,0,0.2,0.1,0.5,0.1c0.1,0,0.2,0,0.3,0C13,14.8,13.4,14.7,13.4,14.7"/>
		<path class="st0" d="M14.1,24.6c-0.5-0.4-0.8-1-0.8-1.7c0-1.1,0.8-2,1.9-2.1c0.2-0.3,0.4-0.6,0.7-0.9c-0.1,0-0.3,0-0.4,0
			c-1.7,0-3.1,1.4-3.1,3.1c0,1.2,0.8,2.3,1.8,2.8C14.1,25.4,14.1,25,14.1,24.6"/>
		<path class="st0" d="M13.5,15.2c-0.1,0-0.5,0.1-0.9,0.1c0,0-0.1,0-0.1,0l0.4,1.2l1.3-0.5l-0.3-0.9L13.5,15.2
			C13.5,15.2,13.5,15.2,13.5,15.2C13.5,15.2,13.5,15.2,13.5,15.2"/>
		<path class="st0" d="M27.7,24.5c0-1.8-0.8-3.5-2-4.7l-0.6,1.2c0.8,0.9,1.3,2.1,1.3,3.5c0,2.9-2.4,5.3-5.3,5.3
			c-2.9,0-5.3-2.4-5.3-5.3c0-2.9,2.4-5.3,5.3-5.3c0.8,0,1.6,0.2,2.3,0.5l0.6-1.1c-0.9-0.4-1.8-0.7-2.9-0.7c-3.6,0-6.6,3-6.6,6.6
			c0,3.6,3,6.6,6.6,6.6C24.7,31.1,27.7,28.2,27.7,24.5"/>
		<polygon class="st0" points="27.3,16.8 29,16.9 30,14.8 30.1,14.7 28.4,14.6 		"/>
		<path class="st0" d="M26.4,18.4l-0.5,1c0.1,0.1,0.2,0.1,0.2,0.2c2,0.7,3.4,2.6,3.4,4.9c0,2.2-1.4,4.1-3.4,4.9
			c-0.6,0.7-1.4,1.2-2.3,1.6c0.2,0,0.3,0,0.5,0c3.6,0,6.5-2.9,6.5-6.5C30.8,21.7,29,19.3,26.4,18.4"/>
		
			<rect x="19.2" y="17.5" transform="matrix(0.4448 -0.8956 0.8956 0.4448 -2.1259 32.8133)" class="st0" width="12.5" height="1.3"/>
		<path class="st0" d="M15.6,30.3c-0.1,0.3-0.4,0.5-0.7,0.5c-0.3-0.1-0.5-0.4-0.5-0.7c0-0.2,0.1-0.3,0.2-0.4
			c0.1-0.1,0.3-0.1,0.4-0.1c0.2,0,0.3,0.1,0.4,0.2C15.5,30,15.6,30.1,15.6,30.3 M15.2,29.1c-0.3-0.1-0.6,0-0.9,0.2
			c-0.3,0.2-0.4,0.4-0.5,0.7c-0.1,0.6,0.3,1.2,0.9,1.3c0.6,0.1,1.2-0.3,1.3-0.9C16.2,29.8,15.8,29.2,15.2,29.1"/>
		<path class="st0" d="M19.9,17.1L19.9,17.1C19.9,17.1,19.9,17.1,19.9,17.1L19.9,17.1z M13.6,19.4L13.6,19.4l6.3-2.4l0,0l0,0l0,0
			c1.6-0.5,3.1-0.7,5.1-0.6l1.1-2.2l-0.4,0c-2.6-0.2-4.5,0-6.6,0.6l0,0l0,0L13,17.3L13.6,19.4z"/>
	</g>
</g>
</svg>
