<?xml version="1.0" encoding="utf-8"?>
<!-- Generator: Adobe Illustrator 17.0.0, SVG Export Plug-In . SVG Version: 6.00 Build 0)  -->
<!DOCTYPE svg PUBLIC "-//W3C//DTD SVG 1.1//EN" "http://www.w3.org/Graphics/SVG/1.1/DTD/svg11.dtd">
<svg version="1.1" id="Ebene_1" xmlns="http://www.w3.org/2000/svg" xmlns:xlink="http://www.w3.org/1999/xlink" x="0px" y="0px"
	 width="1024px" height="180px" viewBox="0 0 1024 180" enable-background="new 0 0 1024 180" xml:space="preserve">
<path fill="#FFFFFF" d="M505.01,180.002l-16.635-8.474L470.444,45.317l-47.357,92.944l-20.793-10.594L467.345-0.002L487.72,10.38
	l16.415,119.937l45.133-88.576l20.791,10.594L505.01,180.002z M276.762,40.348h47.606v121.815h24.27V40.348h47.606V18.879H276.762
	V40.348z M160.315,122.492c5.134,26.603,26.837,42.005,57.174,42.005c29.637,0,51.106-16.569,51.106-43.405
	c0-21.469-14.702-34.538-37.105-39.672l-24.97-5.834c-12.835-3.034-18.902-9.101-18.902-18.669
	c0-11.901,10.501-19.836,25.903-19.836c17.035,0,26.137,8.401,29.87,19.136h24.27c-5.134-23.803-23.336-39.671-54.373-39.671
	c-28.937,0-48.773,18.202-48.773,42.472c0,23.103,15.869,33.837,35.704,38.505l24.27,5.834c14.935,3.5,20.769,9.334,20.769,19.369
	c0,13.302-10.968,21.236-27.77,21.236c-15.635,0-27.77-6.767-32.437-21.469L160.315,122.492L160.315,122.492z M139.781,18.879
	h-24.27v143.284h24.27V18.879z M0,162.163h93.111V140.46H24.269V18.879H0V162.163z M1024,18.879v21.469h-69.775v37.805h63.241
	v21.236h-63.241v41.072H1024v21.703h-93.578V18.879H1024z M788.542,18.879h48.306c42.238,0,69.542,28.003,69.542,71.642
	c0,43.639-27.303,71.642-69.542,71.642h-48.306V18.879z M835.914,140.493c30.104,0,46.206-19.369,46.206-49.939
	c0-30.804-16.102-50.173-46.206-50.173h-23.103v100.112H835.914z M756.807,162.163h-24.27V18.879h24.27V162.163z M627.293,83.786
	h30.57c16.102,0,25.203-8.634,25.203-21.936s-9.101-21.936-25.203-21.936h-30.57V83.786z M627.293,104.056v58.107h-24.27V18.879
	h55.307c29.637,0,48.773,14.935,48.773,42.939c0,24.036-14.002,37.805-36.638,41.305l41.538,59.041h-27.537l-39.905-58.107h-17.268
	V104.056z"/>
</svg>
